<svg width="67" height="73" viewBox="0 0 67 73" fill="none" xmlns="http://www.w3.org/2000/svg">
<path d="M14.6944 63.6304L15.2951 58.1539C15.2951 58.1539 -0.039311 42.6428 1.056 29.6404C2.15132 16.6379 7.80455 7.69876 18.3337 3.67083C33.5621 -2.22973 46.8472 2.25752 55.221 11.1614C63.5949 20.0652 59.1076 33.209 59.461 34.6576C59.8143 36.0709 66.5628 44.2681 65.9622 46.0701C65.3615 47.872 60.521 48.402 60.3443 49.462C60.1676 50.522 62.2876 53.5606 61.5809 54.7973C60.8743 56.0339 57.659 56.0339 57.659 56.0339C57.659 56.0339 61.7576 58.3659 60.8743 59.2492C59.991 60.1325 59.2843 62.4645 57.4823 62.6411C55.6804 62.8178 58.5423 68.5064 55.7157 69.425C52.8538 70.3083 42.5366 68.365 42.5366 68.365L42.3599 70.061L14.6944 63.6304Z" stroke="#0B779B" stroke-width="1.5" stroke-miterlimit="10" stroke-linecap="round" stroke-linejoin="round"/>
<path d="M12.2918 63.1005L43.4906 70.2377V72.0043H10.4192L12.2918 63.1005Z" stroke="#0B779B" stroke-width="1.5" stroke-miterlimit="10" stroke-linecap="round" stroke-linejoin="round"/>
<path d="M32.2902 44.8334C31.4422 43.6675 30.3116 43.1375 28.8629 43.4201C28.1563 43.5615 27.591 43.9148 27.1316 44.4801C26.6723 45.0101 26.425 45.6461 26.3896 46.3527C24.9763 46.3881 23.5984 46.1761 22.2204 45.7874C22.4677 44.3741 22.079 43.1728 20.8424 42.3955C19.4998 41.5475 18.1925 41.7242 16.9205 42.7135C16.6025 42.3601 16.2845 42.0068 15.9665 41.6535C15.4012 40.9822 14.9065 40.2755 14.4825 39.4982C14.4119 39.3922 14.4119 39.3215 14.5178 39.2509C15.6838 38.4029 16.1785 37.1309 15.8252 35.7176C15.5072 34.481 14.3765 33.5623 12.9985 33.421C12.9632 33.421 12.9279 33.421 12.9279 33.421C12.7512 32.9263 13.1045 30.241 13.4932 29.2517C15.2952 29.6404 16.5671 28.6864 17.0971 27.6971C17.6625 26.6724 17.7331 25.1885 16.6025 23.9165C17.5918 22.8918 18.7224 22.0438 19.9591 21.3725C20.8777 22.6798 22.079 23.2805 23.6337 22.8565C25.1177 22.4325 25.8243 21.3725 25.9656 19.8885C26.9196 19.7825 29.1456 20.1005 30.1349 20.4892C29.8522 22.0792 30.3116 23.3511 31.7955 24.1638C32.8909 24.7645 34.3395 24.6585 35.4348 23.6338C36.4595 24.6231 37.3074 25.7538 37.9434 27.0258C36.7068 27.8737 36.1768 29.0397 36.4595 30.4884C36.6008 31.195 36.9895 31.7603 37.5194 32.2197C38.0848 32.679 38.7208 32.891 39.4274 32.9616C39.4274 34.375 39.2507 35.7529 38.8268 37.1309C37.3428 36.8836 36.1061 37.3076 35.3288 38.6149C34.5515 39.9222 34.7635 41.1942 35.6821 42.3955C34.6575 43.3495 33.5268 44.1621 32.2902 44.8334ZM27.6616 39.2155C31.0889 38.3322 32.9969 34.9403 32.2902 31.725C31.5482 28.2624 28.0856 26.1071 24.6583 26.9551C21.2311 27.8031 19.1464 31.195 19.9944 34.5869C20.8071 37.9789 24.2343 40.0635 27.6616 39.2155Z" stroke="#0B779B" stroke-width="1.5" stroke-miterlimit="10" stroke-linecap="round" stroke-linejoin="round"/>
<path d="M57.2774 21.5125C56.9594 22.3605 57.2774 21.5125 56.069 23.6693C54.691 23.0686 53.3837 23.1746 52.3237 24.2346C51.2284 25.2946 51.1224 26.6019 51.7231 27.9799C50.5218 28.7218 49.2498 29.2518 47.8718 29.5698C47.3418 28.2272 46.3525 27.4145 44.9039 27.3439C44.1972 27.3085 43.5259 27.5205 42.9606 27.9445C42.3952 28.3685 42.0066 28.8985 41.7592 29.5698C40.3813 29.2518 39.074 28.7218 37.8726 27.9799C38.4733 26.6372 38.3673 25.4006 37.378 24.3406C36.2827 23.1746 34.9754 23.0333 33.4914 23.6693C33.2794 23.2453 33.0321 22.8213 32.8201 22.3973C32.4314 21.62 32.1487 20.8073 31.9368 19.9593C31.9014 19.8887 31.9014 19.818 32.0428 19.7827C33.3854 19.2527 34.1627 18.122 34.1627 16.6734C34.1627 15.4014 33.2794 14.2354 31.9721 13.7761C31.9368 13.7761 31.9014 13.7408 31.9014 13.7408C31.8308 13.2108 32.8554 10.6668 33.4561 9.81884C35.0814 10.6315 36.5653 10.0308 37.3427 9.21819C38.1553 8.3702 38.5793 6.95689 37.802 5.43759C38.2613 5.15493 39.3948 4.68188 39.3948 4.68188M44.7625 22.9979C48.3311 22.9626 50.9811 20.1713 51.0871 16.8854C51.1931 13.3521 48.3665 10.4195 44.8332 10.3842C41.2999 10.3488 38.4733 13.1754 38.438 16.6381C38.438 20.136 41.2646 22.9979 44.7625 22.9979Z" stroke="#0B779B" stroke-width="1.5" stroke-miterlimit="10" stroke-linecap="round" stroke-linejoin="round"/>
</svg>
