<svg width="67" height="67" viewBox="0 0 67 67" fill="none" xmlns="http://www.w3.org/2000/svg">
<path d="M33.5411 24.8369C37.5447 24.8369 40.7902 21.5851 40.7902 17.5739C40.7902 13.5626 37.5447 10.3108 33.5411 10.3108C29.5375 10.3108 26.292 13.5626 26.292 17.5739C26.292 21.5851 29.5375 24.8369 33.5411 24.8369Z" stroke="#0B779B" stroke-width="1.5" stroke-miterlimit="10" stroke-linecap="round" stroke-linejoin="round"/>
<path d="M23.5774 40.9629C23.5774 40.9629 23.5774 37.2833 23.5774 34.7876C23.5774 29.2844 28.0482 24.8049 33.5409 24.8049C39.0337 24.8049 43.5045 29.2844 43.5045 34.7876C43.5045 37.2193 43.5045 41.1548 43.5045 41.1548" stroke="#0B779B" stroke-width="1.5" stroke-miterlimit="10" stroke-linecap="round" stroke-linejoin="round"/>
<path d="M51.4243 27.0446C54.5637 27.0446 57.1086 24.4947 57.1086 21.3493C57.1086 18.2039 54.5637 15.6541 51.4243 15.6541C48.2849 15.6541 45.74 18.2039 45.74 21.3493C45.74 24.4947 48.2849 27.0446 51.4243 27.0446Z" stroke="#0B779B" stroke-width="1.5" stroke-miterlimit="10" stroke-linecap="round" stroke-linejoin="round"/>
<path d="M44.9417 30.5002C46.3468 28.4205 48.7099 27.0447 51.4243 27.0447C55.7355 27.0447 59.2483 30.5642 59.2483 34.8837C59.2483 36.7714 59.2483 39.6191 59.2483 39.6191" stroke="#0B779B" stroke-width="1.5" stroke-miterlimit="10" stroke-linecap="round" stroke-linejoin="round"/>
<path d="M59.2483 39.811C56.981 40.6749 54.0749 41.1869 50.8815 41.1869C49.5722 41.1869 47.9755 41.0909 46.762 40.9309" stroke="#0B779B" stroke-width="1.5" stroke-miterlimit="10" stroke-linecap="round" stroke-linejoin="round"/>
<path d="M15.8494 27.1728C18.9887 27.1728 21.5337 24.6229 21.5337 21.4775C21.5337 18.3321 18.9887 15.7822 15.8494 15.7822C12.71 15.7822 10.165 18.3321 10.165 21.4775C10.165 24.6229 12.71 27.1728 15.8494 27.1728Z" stroke="#0B779B" stroke-width="1.5" stroke-miterlimit="10" stroke-linecap="round" stroke-linejoin="round"/>
<path d="M8.02539 40.067C8.02539 40.067 8.02539 36.9314 8.02539 34.9796C8.02539 30.6602 11.5382 27.1406 15.8493 27.1406C18.3083 27.1406 20.4798 28.2605 21.9169 30.0523" stroke="#0B779B" stroke-width="1.5" stroke-miterlimit="10" stroke-linecap="round" stroke-linejoin="round"/>
<path d="M20.8311 40.739C19.1706 41.0909 17.2864 41.2829 15.3384 41.2829C12.624 41.2829 10.1331 40.899 8.05737 40.259" stroke="#0B779B" stroke-width="1.5" stroke-miterlimit="10" stroke-linecap="round" stroke-linejoin="round"/>
<path d="M33.4452 48.1939H18.7554L33.4452 40.5149" stroke="#0B779B" stroke-width="1.5" stroke-miterlimit="10" stroke-linecap="round" stroke-linejoin="round"/>
<path d="M23.865 50.8496V62.9441" stroke="#0B779B" stroke-width="1.5" stroke-miterlimit="10" stroke-linecap="round" stroke-linejoin="round"/>
<path d="M28.5593 50.8496V62.9441" stroke="#0B779B" stroke-width="1.5" stroke-miterlimit="10" stroke-linecap="round" stroke-linejoin="round"/>
<path d="M33.4771 50.8496V62.9441" stroke="#0B779B" stroke-width="1.5" stroke-miterlimit="10" stroke-linecap="round" stroke-linejoin="round"/>
<path d="M38.1077 50.8496V62.9441" stroke="#0B779B" stroke-width="1.5" stroke-miterlimit="10" stroke-linecap="round" stroke-linejoin="round"/>
<path d="M42.834 50.8496V62.9441" stroke="#0B779B" stroke-width="1.5" stroke-miterlimit="10" stroke-linecap="round" stroke-linejoin="round"/>
<path d="M33.4453 48.1939H48.1032L33.4453 40.5149" stroke="#0B779B" stroke-width="1.5" stroke-miterlimit="10" stroke-linecap="round" stroke-linejoin="round"/>
<path d="M45.2291 62.9441H21.5657" stroke="#0B779B" stroke-width="1.5" stroke-miterlimit="10" stroke-linecap="round" stroke-linejoin="round"/>
<path d="M47.8798 65.3757H18.8833" stroke="#0B779B" stroke-width="1.5" stroke-miterlimit="10" stroke-linecap="round" stroke-linejoin="round"/>
<path d="M17.6698 62.1122C7.73816 56.5129 1 45.8582 1 33.6358C1 15.6221 15.594 1 33.5731 1C51.5522 1 66.1462 15.6221 66.1462 33.6358C66.1462 45.7623 59.5358 56.3529 49.7319 61.9842" stroke="#0B779B" stroke-width="1.5" stroke-miterlimit="10" stroke-linecap="round" stroke-linejoin="round"/>
</svg>
