<svg width="66" height="66" viewBox="0 0 66 66" fill="none" xmlns="http://www.w3.org/2000/svg">
<path d="M6.18555 1.01051V55.4888C6.18555 55.4888 15.5722 55.6552 21.8081 57.6187C28.3394 59.682 32.9999 64.5075 32.9999 64.5075V8.63148C32.9999 8.63148 28.1753 5.07059 20.6266 2.90743C13.0779 0.744275 6.18555 1.01051 6.18555 1.01051Z" stroke="#0B779B" stroke-width="1.5" stroke-miterlimit="10" stroke-linecap="round" stroke-linejoin="round"/>
<path d="M33.0001 64.5075C33.0001 64.5075 27.158 62.311 19.2811 60.8135C13.0124 59.6154 3.56006 59.9815 3.56006 59.9815V5.07056H6.1857" stroke="#0B779B" stroke-width="1.5" stroke-miterlimit="10" stroke-linecap="round" stroke-linejoin="round"/>
<path d="M33 64.5075H1V9.89612H3.56" stroke="#0B779B" stroke-width="1.5" stroke-miterlimit="10" stroke-linecap="round" stroke-linejoin="round"/>
<path d="M59.8144 1.01051V55.4888C59.8144 55.4888 50.4277 55.6552 44.1918 57.6187C37.6605 59.682 33 64.5075 33 64.5075V8.63148C33 8.63148 37.8246 5.07059 45.3733 2.90743C52.9221 0.744275 59.8144 1.01051 59.8144 1.01051Z" stroke="#0B779B" stroke-width="1.5" stroke-miterlimit="10" stroke-linecap="round" stroke-linejoin="round"/>
<path d="M33 64.5075C33 64.5075 38.8421 62.311 46.719 60.8135C52.9877 59.6154 62.44 59.9815 62.44 59.9815V5.07056H59.8144" stroke="#0B779B" stroke-width="1.5" stroke-miterlimit="10" stroke-linecap="round" stroke-linejoin="round"/>
<path d="M33 64.5075H65V9.89612H62.44" stroke="#0B779B" stroke-width="1.5" stroke-miterlimit="10" stroke-linecap="round" stroke-linejoin="round"/>
<path d="M40.0237 24.9383L52.6268 23.1412" stroke="#0B779B" stroke-width="1.5" stroke-miterlimit="10" stroke-linecap="round" stroke-linejoin="round"/>
<path d="M40.0237 28.3661L47.3098 27.3345" stroke="#0B779B" stroke-width="1.5" stroke-miterlimit="10" stroke-linecap="round" stroke-linejoin="round"/>
<path d="M40.0237 31.8937L53.9068 29.9302" stroke="#0B779B" stroke-width="1.5" stroke-miterlimit="10" stroke-linecap="round" stroke-linejoin="round"/>
<path d="M11.8635 10.4286L24.4666 12.2257" stroke="#0B779B" stroke-width="1.5" stroke-miterlimit="10" stroke-linecap="round" stroke-linejoin="round"/>
<path d="M11.8635 13.8563L19.1497 14.9213" stroke="#0B779B" stroke-width="1.5" stroke-miterlimit="10" stroke-linecap="round" stroke-linejoin="round"/>
<path d="M11.8635 17.384L25.7794 19.3808" stroke="#0B779B" stroke-width="1.5" stroke-miterlimit="10" stroke-linecap="round" stroke-linejoin="round"/>
<path d="M53.4801 18.116L39.5642 20.1128V13.1574L53.5129 9.99585L53.4801 18.116Z" stroke="#0B779B" stroke-width="1.5" stroke-miterlimit="10" stroke-linecap="round" stroke-linejoin="round"/>
<path d="M11.6666 31.7607L25.5825 33.7574V25.8702L11.6338 23.6405L11.6666 31.7607Z" stroke="#0B779B" stroke-width="1.5" stroke-miterlimit="10" stroke-linecap="round" stroke-linejoin="round"/>
<path d="M12.0933 37.5511L19.4122 38.6161" stroke="#0B779B" stroke-width="1.5" stroke-miterlimit="10" stroke-linecap="round" stroke-linejoin="round"/>
<path d="M12.0933 41.0789L26.0092 43.0756" stroke="#0B779B" stroke-width="1.5" stroke-miterlimit="10" stroke-linecap="round" stroke-linejoin="round"/>
<path d="M40.0237 41.6113L52.6268 39.8142" stroke="#0B779B" stroke-width="1.5" stroke-miterlimit="10" stroke-linecap="round" stroke-linejoin="round"/>
<path d="M40.0237 45.0391L47.3098 44.0074" stroke="#0B779B" stroke-width="1.5" stroke-miterlimit="10" stroke-linecap="round" stroke-linejoin="round"/>
</svg>
