<svg width="63" height="64" viewBox="0 0 63 64" fill="none" xmlns="http://www.w3.org/2000/svg">
<path d="M31.0255 49.3297L41.8055 60.1717C41.8055 60.1717 47.2868 65.2865 54.2907 61.9481C59.4066 59.4979 60.1984 54.7507 60.1984 53.495C60.1984 52.2393 60.1984 45.4707 60.1984 45.4707C60.1984 45.4707 59.9852 42.9899 57.7318 42.9899C55.4784 42.9899 55.4784 45.4707 55.4784 45.4707V42.8061C55.4784 42.8061 55.4784 40.2335 52.9204 40.2335C50.3624 40.2335 50.3624 43.0205 50.3624 43.0205V45.5013V43.0205C50.3624 43.0205 50.3015 40.2335 47.9567 40.2335C45.6729 40.2335 45.6729 43.2349 45.6729 43.2349V45.777V32.8523C45.6729 32.8523 45.5815 30.249 43.0844 30.249C40.5874 30.249 40.5874 32.8523 40.5874 32.8523V51.5043L34.7711 45.6545C34.7711 45.6545 32.6699 44.0312 31.056 45.6545C29.4116 47.2165 31.0255 49.3297 31.0255 49.3297Z" stroke="#0B779B" stroke-width="1.5" stroke-miterlimit="10" stroke-linecap="round" stroke-linejoin="round"/>
<path d="M39.4607 61.3968C36.9332 62.0706 34.2839 62.4381 31.5432 62.4381C14.6729 62.4381 1 48.6866 1 31.7191C1 14.7517 14.6729 1.00012 31.5432 1.00012C48.4136 1.00012 62.0864 14.7517 62.0864 31.7191C62.0864 35.18 61.5079 38.4877 60.4725 41.6117" stroke="#0B779B" stroke-width="1.5" stroke-miterlimit="10" stroke-linecap="round" stroke-linejoin="round"/>
<path d="M39.217 60.5086C36.8418 61.7643 34.2534 62.4381 31.5431 62.4381C19.3928 62.4381 9.55688 48.6866 9.55688 31.7191C9.55688 14.7517 19.3928 1.00012 31.5431 1.00012C43.6934 1.00012 53.5294 14.7517 53.5294 31.7191C53.5294 33.8324 53.3771 35.915 53.0726 37.9058" stroke="#0B779B" stroke-width="1.5" stroke-miterlimit="10" stroke-linecap="round" stroke-linejoin="round"/>
<path d="M37.0245 58.7323C35.3801 61.0905 33.5226 62.4381 31.5432 62.4381C25.1788 62.4381 20.002 48.6866 20.002 31.7191C20.002 14.7517 25.1788 1.00012 31.5432 1.00012C37.2682 1.00012 42.0187 12.1178 42.9018 26.6657" stroke="#0B779B" stroke-width="1.5" stroke-miterlimit="10" stroke-linecap="round" stroke-linejoin="round"/>
<path d="M3.2229 20.2034H59.8634" stroke="#0B779B" stroke-width="1.5" stroke-miterlimit="10" stroke-linecap="round" stroke-linejoin="round"/>
<path d="M10.1965 9.75952H52.89" stroke="#0B779B" stroke-width="1.5" stroke-miterlimit="10" stroke-linecap="round" stroke-linejoin="round"/>
<path d="M38.2731 31.7191H1" stroke="#0B779B" stroke-width="1.5" stroke-miterlimit="10" stroke-linecap="round" stroke-linejoin="round"/>
<path d="M62.0864 31.7191H47.9263" stroke="#0B779B" stroke-width="1.5" stroke-miterlimit="10" stroke-linecap="round" stroke-linejoin="round"/>
<path d="M28.5284 43.2349H3.2229" stroke="#0B779B" stroke-width="1.5" stroke-miterlimit="10" stroke-linecap="round" stroke-linejoin="round"/>
<path d="M33.005 53.6787H10.1965" stroke="#0B779B" stroke-width="1.5" stroke-miterlimit="10" stroke-linecap="round" stroke-linejoin="round"/>
<path d="M31.5432 42.4386V1.00012" stroke="#0B779B" stroke-width="1.5" stroke-miterlimit="10" stroke-linecap="round" stroke-linejoin="round"/>
<path d="M31.5432 62.4382V52.7294" stroke="#0B779B" stroke-width="1.5" stroke-miterlimit="10" stroke-linecap="round" stroke-linejoin="round"/>
</svg>
