<svg width="192" height="41" viewBox="0 0 192 41" fill="none" xmlns="http://www.w3.org/2000/svg">
<path fill-rule="evenodd" clip-rule="evenodd" d="M187.208 8.66835H189.017V4.95458H187.208C186.745 4.95458 186.36 5.12952 186.053 5.4744C185.745 5.81929 185.594 6.26914 185.594 6.80897C185.594 7.36878 185.745 7.81363 186.043 8.15352C186.34 8.49841 186.73 8.66835 187.208 8.66835ZM191.942 2.40542V16.1959H189.017V11.1575H187.9L185.75 16.1959H182.489L184.995 10.7277C184.254 10.3878 183.674 9.86296 183.264 9.15819C182.855 8.44843 182.65 7.66868 182.65 6.81396C182.65 5.60436 183.059 4.5647 183.873 3.70499C184.688 2.84027 185.755 2.41041 187.067 2.41041H191.942V2.40542ZM174.767 10.4428H177.195L176.498 7.83363C176.337 7.27381 176.166 6.49407 175.981 5.4894C175.849 6.22416 175.674 7.0039 175.464 7.83363L174.767 10.4428ZM170.253 16.1959L174.289 2.40542H177.673L181.709 16.1959H178.745L177.848 12.872H174.109L173.212 16.1959H170.253ZM158.685 16.1959V2.40542H161.61V7.9336H165.748V2.40542H168.673V16.1959H165.748V10.4228H161.61V16.1959H158.685ZM143.84 13.7067H145.035C145.644 12.9319 146.156 11.4075 146.565 9.1382C146.975 6.86895 147.194 4.62468 147.224 2.40542H155.721V13.7067H157.115V18.4601L154.448 18.87V16.1959H146.512V18.4601L143.845 18.87V13.7067H143.84ZM148.199 13.7067H152.796V4.8946H149.851C149.744 6.66401 149.534 8.41344 149.213 10.1479C148.891 11.8823 148.554 13.0669 148.199 13.7067ZM137.469 13.9116C139.073 13.9116 139.877 12.792 139.877 10.5477V8.05855C139.877 5.81429 139.073 4.69466 137.469 4.69466C135.88 4.69466 135.08 5.81929 135.08 8.05855V10.5477C135.08 12.792 135.875 13.9116 137.469 13.9116ZM132.155 10.7727V7.85362C132.155 6.02922 132.657 4.62468 133.657 3.63001C134.656 2.63534 135.928 2.1405 137.469 2.1405C139.019 2.1405 140.296 2.63534 141.3 3.63001C142.3 4.62468 142.802 6.02922 142.802 7.85362V10.7727C142.802 12.6071 142.3 14.0166 141.3 14.9963C140.301 15.9759 139.024 16.4658 137.469 16.4658C135.928 16.4658 134.661 15.9709 133.657 14.9863C132.657 13.9966 132.155 12.5921 132.155 10.7727ZM124.531 8.66835H126.3C126.763 8.66835 127.139 8.49841 127.426 8.15852C127.709 7.81863 127.855 7.36878 127.855 6.81396C127.855 6.25415 127.714 5.80929 127.426 5.46941C127.144 5.12952 126.768 4.95957 126.3 4.95957H124.531V8.66835ZM121.606 16.1959V2.40542H126.403C127.714 2.40542 128.782 2.83527 129.596 3.69999C130.41 4.5647 130.819 5.59936 130.819 6.80897C130.819 8.01857 130.415 9.04823 129.605 9.88795C128.796 10.7327 127.729 11.1525 126.403 11.1525H124.531V16.1909H121.606V16.1959ZM113.084 10.4428H115.512L114.815 7.83363C114.654 7.27381 114.483 6.49407 114.298 5.4894C114.167 6.22416 113.991 7.0039 113.781 7.83363L113.084 10.4428ZM108.57 16.1959L112.607 2.40542H115.99L120.026 16.1959H117.062L116.165 12.872H112.426L111.529 16.1959H108.57ZM97.0067 16.1959V2.40542H99.9317V7.9336H104.07V2.40542H106.995V16.1959H104.07V10.4228H99.9317V16.1959H97.0067ZM86.8327 16.1959L86.5158 13.7067H89.4408C89.7723 13.7067 90.0258 13.5817 90.2061 13.3318C90.3865 13.0819 90.523 12.682 90.6156 12.1372L90.6936 11.6474H89.6991C87.5103 11.6474 86.2184 10.3678 85.8187 7.81363L84.9607 2.40542H87.8662L88.6998 7.6087C88.8606 8.65336 89.2506 9.17819 89.8746 9.17819H91.1275L92.3024 2.40542H95.2273L93.4967 12.3421C93.058 14.9113 91.7661 16.1959 89.6163 16.1959H86.8327ZM70.9111 13.7067H72.1054C72.7148 12.9319 73.2267 11.4075 73.6362 9.1382C74.0457 6.86895 74.265 4.62468 74.2943 2.40542H82.7913V13.7067H84.1856V18.4601L81.519 18.87V16.1959H73.5825V18.4601L70.9159 18.87V13.7067H70.9111ZM75.2693 13.7067H79.8664V4.8946H76.9219C76.8146 6.66401 76.605 8.41344 76.2833 10.1479C75.9664 11.8823 75.6251 13.0669 75.2693 13.7067ZM63.6864 16.1959H60.7614V10.8326L59.6694 10.4028L57.3636 16.1959H53.9219L56.9882 9.30314C56.2472 8.89328 55.7402 8.16852 55.477 7.11886L54.2826 2.40542H57.1881L58.1826 6.17917C58.2898 6.55905 58.4361 6.85395 58.6311 7.06888C58.8212 7.27881 59.1234 7.45375 59.5378 7.58871L60.7712 8.01857V2.40542H63.6961V8.01357L64.9295 7.58371C65.339 7.44875 65.6412 7.27381 65.8362 7.06388C66.0264 6.85395 66.1775 6.55905 66.2847 6.17417L67.2792 2.40042H70.1847L68.9903 7.11386C68.7125 8.17352 68.2006 8.90328 67.4596 9.29815L70.5454 16.1909H67.1037L64.7735 10.3978L63.701 10.8276V16.1959H63.6864ZM44.5229 16.1959V2.40542H52.5617V4.95458H47.443V8.01357H51.7428L51.6209 10.4628H47.443V13.6467H52.7372V16.1959H44.5229ZM27.563 16.1959L28.9962 2.40542H32.3209L34.6268 9.07822C34.734 9.39311 34.89 9.98292 35.1045 10.8526C35.2508 10.1879 35.4117 9.59305 35.5823 9.07822L37.8881 2.40542H41.2129L42.6461 16.1959H39.7406L39.1654 9.1382C39.1264 8.66335 39.0776 7.78364 39.024 6.50906C38.7851 7.55372 38.5463 8.42843 38.3074 9.1182L36.6548 13.8716H33.5494L31.8968 9.1182C31.6189 8.30347 31.3752 7.42376 31.1607 6.48907C31.1363 7.56372 31.0925 8.44842 31.0437 9.1432L30.4685 16.1959H27.563Z" fill="white"/>
<path fill-rule="evenodd" clip-rule="evenodd" d="M189.484 35.0795V23.2084H192V35.0795H189.484ZM184.449 29.7412H182.923V32.9352H184.449C184.848 32.9352 185.17 32.7902 185.419 32.4953C185.663 32.2054 185.789 31.8155 185.789 31.3357C185.789 30.8559 185.667 30.471 185.419 30.1761C185.17 29.8812 184.848 29.7412 184.449 29.7412ZM180.407 35.0795V23.2084H182.923V27.5969H184.532C185.672 27.5969 186.594 27.9618 187.291 28.6866C187.988 29.4113 188.334 30.296 188.334 31.3407C188.334 32.3804 187.988 33.2651 187.291 33.9898C186.594 34.7146 185.677 35.0795 184.532 35.0795H180.407ZM168.005 35.2544L167.884 33.1101C168.327 33.0301 168.683 32.9102 168.946 32.7502C169.21 32.5903 169.463 32.3204 169.707 31.9355C169.951 31.5506 170.136 31.0008 170.253 30.286C170.375 29.5713 170.467 28.6416 170.536 27.502C170.604 26.3623 170.638 24.9278 170.638 23.2084H178.189V35.0795H175.674V25.3477H173.036C173.036 26.6023 172.997 27.7119 172.915 28.6816C172.837 29.6513 172.734 30.481 172.607 31.1658C172.481 31.8505 172.3 32.4353 172.066 32.9152C171.832 33.395 171.593 33.7799 171.345 34.0748C171.101 34.3697 170.784 34.5996 170.404 34.7696C170.024 34.9395 169.653 35.0545 169.297 35.1195C168.951 35.1844 168.517 35.2294 168.005 35.2544ZM161.751 30.1261H163.842L163.243 27.8768C163.106 27.397 162.955 26.7222 162.799 25.8575C162.687 26.4873 162.536 27.1621 162.355 27.8768L161.751 30.1261ZM157.861 35.0795L161.337 23.2084H164.247L167.723 35.0795H165.173L164.403 32.2154H161.185L160.415 35.0795H157.861ZM153.22 29.7912H151.523V32.9352H153.22C153.619 32.9352 153.941 32.7902 154.185 32.4953C154.429 32.2054 154.555 31.8155 154.555 31.3357C154.555 30.8559 154.434 30.476 154.195 30.2011C153.956 29.9312 153.629 29.7912 153.22 29.7912ZM151.523 25.3477V27.6519H153.303C154.443 27.6519 155.365 28.0068 156.062 28.7216C156.759 29.4363 157.105 30.306 157.105 31.3407C157.105 32.3804 156.759 33.2651 156.062 33.9898C155.365 34.7146 154.448 35.0795 153.303 35.0795H149.003V23.2084H156.023V25.3527H151.523V25.3477ZM143.504 29.7912H141.807V32.9352H143.504C143.904 32.9352 144.225 32.7902 144.469 32.4953C144.713 32.2054 144.84 31.8155 144.84 31.3357C144.84 30.8559 144.718 30.476 144.479 30.2011C144.24 29.9312 143.913 29.7912 143.504 29.7912ZM141.807 25.3477V27.6519H143.587C144.728 27.6519 145.649 28.0068 146.346 28.7216C147.043 29.4363 147.389 30.306 147.389 31.3407C147.389 32.3804 147.043 33.2651 146.346 33.9898C145.649 34.7146 144.732 35.0795 143.587 35.0795H139.287V23.2084H146.307V25.3527H141.807V25.3477ZM131.955 30.1261H134.047L133.447 27.8768C133.31 27.397 133.159 26.7222 133.003 25.8575C132.891 26.4873 132.74 27.1621 132.56 27.8768L131.955 30.1261ZM128.07 35.0795L131.546 23.2084H134.456L137.932 35.0795H135.382L134.612 32.2154H131.395L130.624 35.0795H128.07ZM118.559 35.0795V23.2084H121.074V28.0368L122.395 27.6169C122.751 27.502 123.01 27.352 123.175 27.1671C123.341 26.9871 123.468 26.7322 123.56 26.4023L124.418 23.2084H126.919L125.891 27.2121C125.652 28.1268 125.213 28.7516 124.574 29.0914L127.573 35.0795H124.609L122.264 30.0211L121.084 30.461V35.0795H118.559ZM108.502 28.5966H110.062V25.4027H108.502C108.102 25.4027 107.771 25.5526 107.507 25.8525C107.244 26.1524 107.112 26.5323 107.112 27.0021C107.112 27.482 107.239 27.8668 107.498 28.1617C107.756 28.4516 108.092 28.5966 108.502 28.5966ZM112.577 23.2084V35.0795H110.062V30.7409H109.101L107.254 35.0795H104.446L106.605 30.376C105.967 30.0811 105.47 29.6313 105.114 29.0215C104.758 28.4117 104.582 27.7419 104.582 27.0021C104.582 25.9625 104.933 25.0678 105.635 24.323C106.337 23.5783 107.254 23.2084 108.385 23.2084H112.577ZM102.915 23.2084V35.0795H100.4V30.0211C100.4 29.3913 100.424 28.7665 100.468 28.1617L96.2022 35.0795H94.145V23.2084H96.6605V28.3517C96.6605 28.8915 96.641 29.4913 96.6069 30.1611L100.872 23.2084H102.915ZM79.5494 35.0795L80.7828 23.2084H83.6444L85.6285 28.9515C85.7211 29.2214 85.8576 29.7312 86.038 30.481C86.1647 29.9062 86.3012 29.3963 86.4475 28.9515L88.4364 23.2084H91.298L92.5314 35.0795H90.0305L89.5333 29.0065C89.4992 28.5966 89.4602 27.8418 89.4114 26.7422C89.2067 27.6419 89.0019 28.3917 88.7972 28.9915L87.3737 33.0851H84.7022L83.2787 28.9915C83.0399 28.2867 82.8254 27.532 82.645 26.7272C82.6206 27.6519 82.5865 28.4117 82.5426 29.0115L82.0454 35.0845H79.5494V35.0795ZM71.2084 35.0795V23.2084H78.1259V25.4027H73.7238V28.0368H77.4239L77.3215 30.1461H73.7238V32.8852H78.277V35.0795H71.2084ZM58.4262 32.9352H59.4548C59.9813 32.2704 60.4201 30.9558 60.776 29.0015C61.1318 27.0471 61.3171 25.1127 61.3414 23.2084H68.6539V32.9352H69.8531V37.0238L67.557 37.3737V35.0745H60.7223V37.0238L58.4262 37.3737V32.9352ZM62.1799 32.9352H66.1384V25.3477H63.6034C63.5108 26.8672 63.3304 28.3767 63.0574 29.8712C62.7747 31.3657 62.4871 32.3854 62.1799 32.9352ZM52.118 30.1261H54.2094L53.6098 27.8768C53.4733 27.397 53.3221 26.7222 53.1662 25.8575C53.054 26.4873 52.9029 27.1621 52.7225 27.8768L52.118 30.1261ZM48.2327 35.0795L51.7085 23.2084H54.6189L58.0947 35.0795H55.5451L54.7749 32.2154H51.5574L50.7872 35.0795H48.2327ZM38.7217 35.0795V23.2084H41.2371V28.0368L42.5583 27.6169C42.9141 27.502 43.1725 27.352 43.3382 27.1671C43.504 26.9871 43.6307 26.7322 43.7234 26.4023L44.5814 23.2084H47.0822L46.0536 27.2121C45.8147 28.1268 45.376 28.7516 44.7374 29.0914L47.7355 35.0795H44.7715L42.4266 30.0211L41.2469 30.461V35.0795H38.7217ZM31.3897 30.1261H33.4811L32.8815 27.8768C32.745 27.397 32.5938 26.7222 32.4378 25.8575C32.3257 26.4873 32.1746 27.1621 31.9942 27.8768L31.3897 30.1261ZM27.5044 35.0795L30.9802 23.2084H33.8906L37.3664 35.0795H34.8168L34.0466 32.2154H30.8291L30.0589 35.0795H27.5044Z" fill="#9CE7FF"/>
<path fill-rule="evenodd" clip-rule="evenodd" d="M19.4657 20.3041C19.3243 20.0142 15.01 19.8343 13.2111 19.8143C13.2404 18.1499 12.9186 17.3301 13.0356 16.3455C13.2404 16.0605 13.4597 15.9806 13.801 15.7656C15.2879 14.8409 15.5121 14.776 16.5456 14.4511C17.5206 14.2761 19.0903 14.0512 20.1579 14.3011C20.2749 14.3261 20.3091 14.1912 20.1872 14.1462C19.7972 14.0062 18.5541 13.7013 18.1446 13.6963C18.1153 13.5614 18.2421 13.4414 18.5102 13.2915C18.9587 13.0415 19.5681 12.6817 20.0702 12.5767C20.1579 12.5567 20.2116 12.4517 20.0604 12.4517C19.8021 12.4517 19.1342 12.4817 18.4809 12.7116C17.7692 12.9616 17.0428 13.3614 16.4968 13.5864C15.0587 13.7913 13.3086 14.3261 13.3086 14.2212C13.3086 14.1162 14.893 11.9769 16.0386 11.9369C16.0922 11.9369 16.4383 11.8519 16.8625 11.737C18.2274 11.3621 19.6314 10.9822 21.0695 11.0872C21.206 11.0972 21.206 10.9322 21.0695 10.9222C20.1384 10.8373 19.0708 10.8323 18.2713 10.9472C17.9983 10.9872 17.662 10.9522 17.3256 10.7723C17.1842 10.2824 17.5108 9.98755 17.7887 9.61767C18.2664 8.99287 18.9148 8.14815 19.1927 7.73829C19.3097 7.56334 19.1244 7.45338 19.0123 7.62332C18.1787 8.86292 17.3061 9.45772 16.258 10.4224C15.9167 10.7373 12.943 12.5517 12.943 11.9719C12.943 11.3771 13.1721 10.8573 13.2014 10.5024C13.2501 9.93756 13.5134 10.0175 13.7474 9.77761C13.9814 9.53269 15.7217 7.74828 15.5706 7.59833C15.5316 7.55335 15.4926 7.58334 15.4487 7.62332C15.2245 7.82826 13.8205 9.17781 13.3574 8.98288C13.2989 8.62799 13.6304 8.15315 13.8302 7.85325C13.9619 7.65831 14.1179 7.52835 14.2787 7.29843C14.4104 7.11349 14.542 6.83358 14.7614 6.58866C15.4244 5.84891 16.0873 4.85923 16.3847 4.75927C16.4383 4.73927 16.57 4.59932 16.3408 4.6443C15.9898 4.70928 15.1124 5.84391 14.737 5.91888C14.7614 5.50902 14.9369 5.04417 15.0344 4.63431C15.1319 4.23444 15.2196 3.86456 15.2342 3.09481C15.2342 2.97485 15.0977 2.87489 15.088 3.08982C15.0685 3.56466 14.815 4.37439 14.5761 4.9492C14.4396 5.2791 14.3567 5.54901 14.2495 5.88889C14.1666 6.13881 14.0886 6.4787 13.9667 6.70363C13.6352 7.31343 13.5914 7.25844 13.2404 7.67331C13.0307 7.92322 12.8114 8.26811 12.6359 8.608C12.5774 8.72296 12.1825 9.69264 12.0948 9.61267C12.0411 9.56768 11.8169 9.34276 11.4659 7.85825C11.3781 7.49337 11.2563 7.02852 11.1929 6.66364C11.0759 5.98386 11.2758 6.05884 11.6219 5.52901C12.007 4.94421 12.6456 3.92954 12.709 3.46469C12.8114 2.71494 12.6749 1.09547 12.6164 0.260747C12.6115 0.200767 12.5628 0.155781 12.5043 0.16078C12.4458 0.165778 12.4019 0.215762 12.4068 0.275742C12.4701 1.17545 12.3531 2.32007 12.1679 3.21477C12.0899 3.57965 11.9436 3.91954 11.7438 4.24444C11.5683 4.52934 11.422 4.71928 11.0466 4.86423C10.3252 4.6693 10.1692 4.25443 9.86691 3.57466C9.62803 3.03483 9.42328 2.43503 9.32091 2.02017C9.25754 1.76525 9.15516 1.58531 9.11129 1.44536C9.07716 1.34539 8.90654 1.3054 8.96504 1.48035C9.00891 1.6103 9.05766 1.81524 9.12104 2.07015C9.28191 2.71494 9.57441 4.58932 9.90103 5.28409C10.0424 5.579 10.1058 5.75394 10.0619 6.10382C9.97415 6.84358 9.79378 7.92822 9.58903 8.3181C9.24291 8.18814 8.75054 7.37341 8.64817 7.16847C8.48729 6.84358 8.20455 6.50869 8.01442 6.13381C7.8633 5.83891 8.0388 5.65897 8.08267 5.35907C8.18505 4.69929 8.23867 3.25976 8.21917 2.60498C8.23867 2.40504 8.20942 2.21011 8.2338 1.99518C8.24842 1.85522 8.08755 1.82523 8.07292 1.96519C8.02905 2.36006 7.9218 3.00984 7.76093 3.37972C7.66343 3.11481 7.53668 3.00484 7.46843 2.73493C7.2783 2.01017 6.87856 1.39537 6.52269 1.05549C6.47394 1.0105 6.42031 1.0005 6.38131 1.03549C6.34231 1.07548 6.35694 1.13546 6.41056 1.18544C7.20518 2.47002 7.77068 4.14947 7.21981 4.90422C5.84507 5.43404 4.15346 3.27975 3.67084 2.06015C3.60747 1.90021 3.48559 1.94019 3.51972 2.19511C3.60747 2.89488 4.11446 4.06949 4.66046 4.42438C4.91883 4.59432 5.05045 4.77426 5.02608 4.83924C4.93833 5.11915 3.20284 4.91921 2.68122 4.87423C2.6276 4.86923 2.54473 4.85424 2.49598 4.87423C2.47648 4.88922 2.44235 4.91422 2.4131 4.94421C2.42773 4.9742 2.44235 4.99919 2.45698 5.01918C2.5106 5.09416 2.6081 5.08916 2.69097 5.10415C3.83659 5.29409 4.92858 5.554 5.44045 5.554C5.87919 5.54901 6.13757 5.62398 6.50806 5.82891C7.69268 6.4837 8.90166 8.11316 8.56529 9.60267C7.87792 9.70264 6.74206 9.11783 6.00107 8.64799C5.74757 8.48304 5.49407 8.34309 5.37707 8.17314C5.16258 7.85825 5.0797 7.47837 5.0602 7.02352C5.0602 6.88357 4.92858 6.87857 4.92858 7.02352C4.92858 7.22845 4.92858 7.3884 4.93833 7.51836C4.95295 7.81326 4.99683 7.72329 4.96758 8.0032C4.8067 8.01819 4.55321 7.96821 4.39233 7.92822C4.03646 7.83825 3.30522 7.6933 2.99322 7.6933C2.83722 7.6933 2.77872 7.83825 2.94935 7.83825C3.26622 7.83825 3.82684 7.9882 4.21683 8.11316C4.46058 8.19314 4.60196 8.26811 4.67996 8.26811C4.89445 8.26811 5.2162 8.56301 5.6257 8.86791C6.34231 9.40774 7.46843 10.1275 8.26305 10.9572C8.51167 11.2171 8.50192 11.3071 8.11192 11.4821C7.61468 11.707 6.76156 11.682 6.11807 11.622C5.14795 11.537 4.19733 10.6123 3.62209 9.87258C3.40759 9.59767 3.11509 9.32276 3.04197 9.15282C2.98835 9.02286 2.8616 9.08784 2.91522 9.2178C2.99322 9.40774 3.17847 9.71264 3.39784 9.99754C3.54897 10.1975 3.97309 10.6473 3.99259 10.8623C3.78296 10.9072 3.71471 10.8273 3.52947 10.7373C2.91522 10.3824 2.2376 10.2725 1.87198 10.2425C1.73548 10.2275 1.72086 10.3624 1.85248 10.3874C3.14434 10.6523 4.09009 11.4271 5.03583 12.1268C4.49471 13.0615 2.70072 12.7966 2.09135 12.8616C1.95486 12.8766 1.96948 13.0315 2.10598 13.0315C2.14985 13.0315 2.2376 13.0365 2.36923 13.0465C3.06147 13.0915 3.89509 13.1765 4.58733 13.1115C5.20157 13.0515 5.0017 13.1315 5.38682 13.1615C6.16194 13.2165 6.77131 13.4764 7.28805 13.7263C7.98517 14.0662 8.52629 14.5011 8.59942 14.661C8.67254 14.821 8.77004 15.1458 8.79929 15.5407C8.90654 16.9952 8.55067 18.9896 8.65304 19.8193C7.21981 19.8193 2.04748 20.0042 1.90123 20.3041H19.4657ZM18.5297 10.2175C18.3152 9.29777 19.5534 8.64299 20.2457 9.2078L20.2993 9.25279L20.2506 9.30277C20.1726 9.38774 20.1141 9.5077 20.0604 9.60767C19.7143 10.2575 19.2902 10.5274 18.5638 10.2625L18.5297 10.2525V10.2175ZM17.9788 14.601C18.4663 14.566 18.9343 14.831 19.2414 15.2008C19.3974 15.3858 19.4511 15.6107 19.4803 15.8456C19.4949 15.9706 19.5047 16.2205 19.5632 16.3255L19.6022 16.3954L19.5291 16.4204C19.0318 16.5854 18.4663 16.3554 18.1202 15.9756C17.8277 15.6507 17.6425 15.0059 17.935 14.626L17.9545 14.606L17.9788 14.601ZM4.33871 13.8163C4.29971 13.9063 4.29971 14.0312 4.28508 14.1312C4.22658 14.551 4.00721 14.8759 3.61234 15.0309C3.21747 15.1858 2.35948 15.1408 2.16935 14.701L2.14498 14.656L2.18885 14.626C2.47648 14.4061 2.63247 13.9612 2.91035 13.8313C3.35884 13.6213 3.81709 13.6513 4.28996 13.7363L4.36796 13.7513L4.33871 13.8163ZM2.45698 9.71264C2.44723 9.83759 2.1986 9.84259 2.10598 9.77262C1.78911 9.5277 1.63311 9.62267 1.31136 9.75262C0.838492 9.94256 0.51187 9.84259 0.233998 9.40274C0.180373 9.31777 0.121874 9.25279 0.0438746 9.19281L0 9.15782L0.0243748 9.10783C0.628869 7.96821 2.57398 8.33309 2.45698 9.71264ZM4.66046 6.09383C4.54346 6.27377 4.43621 6.46371 4.30458 6.63365C3.90971 7.14848 3.64159 7.12349 3.0566 7.11349C2.87135 7.10849 2.6081 7.0985 2.42773 7.12849L2.34485 7.14348L2.3546 7.05851C2.46185 5.8789 3.73421 5.77893 4.62146 5.98886L4.7092 6.00885L4.66046 6.09383ZM15.5267 4.17446C15.4877 3.91454 15.5267 3.65463 15.6389 3.41971C15.9996 2.67495 17.1598 2.19011 17.818 2.78991L17.8716 2.8399L17.818 2.88988C17.6961 2.99485 17.5888 3.27476 17.506 3.42471C17.155 4.0645 16.258 4.41938 15.5755 4.22944L15.5365 4.21944L15.5267 4.17446ZM15.7266 6.4737C15.6437 5.43904 16.7162 4.9742 17.5303 5.40905C17.7692 5.53401 17.9447 5.73395 18.0666 5.97887L18.091 6.02885L18.0471 6.06384C18.0032 6.09883 17.9642 6.13381 17.9301 6.1738C17.6035 6.55867 17.0526 6.64864 16.6041 6.46371C16.3945 6.37873 16.2482 6.40872 16.063 6.54868C15.9752 6.61366 15.7363 6.59366 15.7266 6.4737ZM13.1477 1.96519C13.0844 1.71527 13.1087 1.47535 13.2452 1.25542C13.3427 1.09547 13.4939 0.965515 13.6499 0.870546C13.8985 0.720595 14.4445 0.550651 14.7077 0.725594L14.7419 0.745587L14.737 0.785574C14.6492 1.71527 14.0984 2.16512 13.1965 2.01017L13.1575 2.00517L13.1477 1.96519ZM8.50679 6.29876C8.3313 5.64398 8.80904 4.99419 9.51591 5.17913L9.55978 5.18913V5.23911C9.58903 5.91888 9.25266 6.36874 8.56042 6.34374H8.51167L8.50679 6.29876ZM1.36011 4.08949C1.52586 3.94953 1.62823 3.79458 1.77936 3.65963C2.07673 3.37972 2.49598 3.52467 2.8226 3.65963C2.99322 3.72961 3.07122 3.62964 3.21259 3.66463L3.25159 3.67462L3.26134 3.71461C3.29547 3.90955 3.23209 4.13947 3.11997 4.29442C2.94935 4.53934 2.67147 4.62931 2.38385 4.61931C2.01336 4.60432 1.61848 4.44937 1.35524 4.18446L1.30649 4.13447L1.36011 4.08949ZM16.7503 9.57268C16.0191 9.2078 16.2433 7.90323 16.999 7.6883L17.0623 7.66831L17.077 7.73829C17.1013 7.85325 17.2086 8.0082 17.2525 8.14315C17.3987 8.603 17.2817 9.36775 16.7991 9.57268L16.7698 9.58268L16.7503 9.57268ZM0.901866 11.8419C1.12611 11.4921 1.42836 11.2171 1.85736 11.2471C2.15473 11.2671 2.38873 11.4121 2.6666 11.507C2.75435 11.537 2.96885 11.587 3.04685 11.517C3.21259 11.3621 3.36372 11.532 3.33934 11.732C3.26134 12.2768 2.6861 12.6517 2.18398 12.6567C1.69161 12.6617 1.23336 12.2618 0.911616 11.9269L0.877492 11.8869L0.901866 11.8419ZM4.77745 2.00017C4.77745 1.94519 4.8067 1.9252 4.85545 1.9202C5.24057 1.87022 5.5867 1.96519 5.83532 2.28008C5.89382 2.35006 5.93769 2.43003 5.98157 2.51001C6.08882 2.71494 6.15219 2.92987 6.23019 3.1448C6.26431 3.23477 6.33744 3.4397 6.43494 3.47469C6.65919 3.54966 6.77131 3.71461 6.53244 3.86456C5.98644 4.21445 5.04558 3.82457 4.8262 3.21477C4.71408 2.90988 4.73358 2.535 4.7677 2.21011C4.77745 2.14013 4.78233 2.07015 4.77745 2.00017ZM14.815 3.02484C14.6541 3.28475 14.4347 3.50468 14.1179 3.51468C13.9034 3.52467 13.7327 3.4447 13.5329 3.39971C13.4695 3.38472 13.3232 3.36972 13.2745 3.41971C13.1477 3.54467 13.0112 3.4397 13.0356 3.26976C13.0892 2.87489 13.5085 2.57499 13.8741 2.53C14.2251 2.49001 14.5566 2.71994 14.8052 2.94486L14.8491 2.97985L14.815 3.02484ZM13.3964 5.42405C13.0356 4.85424 13.2989 4.08949 14.0252 4.0445L14.074 4.0395L14.0886 4.08449C14.3177 4.72428 14.1325 5.2541 13.4646 5.44904L13.4207 5.46403L13.3964 5.42405ZM5.0212 9.93256C5.71832 9.70264 6.60556 10.1875 6.61044 11.0072V11.0622L6.55681 11.0722C5.65495 11.2121 5.12845 10.9722 4.97733 10.0075L4.96758 9.95256L5.0212 9.93256ZM6.04007 6.56367C6.51294 6.71862 6.98581 6.99353 7.10281 7.52336C7.15643 7.75828 7.13693 7.95821 7.06868 8.18814C7.02481 8.33809 6.95656 8.50803 6.95656 8.66298V8.75295L6.87368 8.72296C6.02057 8.42806 5.6257 7.43838 5.96207 6.59866L5.98644 6.54368L6.04007 6.56367ZM15.8241 9.70264C15.7315 9.8126 15.6827 10.0875 15.5755 10.2475C15.2391 10.7473 14.4006 11.1222 13.8497 10.7923L13.8254 10.7773L13.8205 10.7473C13.6352 9.76762 15.0977 9.10783 15.8143 9.60267L15.8728 9.64266L15.8241 9.70264ZM11.7096 7.15848C11.6268 6.62865 11.8266 6.13381 12.2703 5.84391C12.6993 5.569 13.2794 5.54401 13.7035 5.84891L13.7717 5.89889L13.7084 5.95387C13.5914 6.05884 13.4792 6.33875 13.3964 6.4887C13.1867 6.87357 12.8601 7.13848 12.436 7.22845C12.202 7.27844 11.9875 7.25345 11.7535 7.20846L11.7096 7.19846V7.15848ZM9.62803 1.69028C10.6469 1.16545 12.0216 2.00517 11.851 3.18478L11.8413 3.24476L11.7828 3.23977C11.5683 3.21977 11.344 3.30475 11.1246 3.26476C10.6713 3.17979 10.2862 2.97985 10.0083 2.59498C9.81328 2.32507 9.74016 2.06515 9.59878 1.77525L9.56953 1.71527L9.62803 1.69028ZM7.51718 1.74526C7.07356 1.24042 7.21981 0.440688 7.93155 0.28074L7.9803 0.270744L8.00467 0.315729C8.32642 0.910533 8.22405 1.46535 7.59518 1.76025L7.5513 1.78025L7.51718 1.74526Z" fill="#9CE7FF"/>
<path fill-rule="evenodd" clip-rule="evenodd" d="M19.4656 20.3046C19.3243 20.5945 14.6443 20.7794 13.2111 20.7994C13.2403 22.4638 12.9186 23.2836 13.0356 24.2682C13.2403 24.5532 13.4597 24.6331 13.8009 24.8481C15.2878 25.7728 15.512 25.8377 16.5455 26.1626C17.5205 26.3376 19.0903 26.5625 20.1579 26.3126C20.2749 26.2876 20.309 26.4225 20.1871 26.4675C19.7971 26.6075 18.554 26.9124 18.1445 26.9174C18.1153 27.0523 18.242 27.1723 18.5101 27.3222C18.9586 27.5772 19.568 27.932 20.0701 28.037C20.1579 28.057 20.2115 28.162 20.0604 28.162C19.802 28.162 19.1341 28.132 18.4809 27.902C17.7691 27.6521 17.0428 27.2523 16.4968 27.0273C15.0587 26.8224 13.3086 26.2826 13.3086 26.3875C13.3086 26.4925 14.8929 28.6318 16.0385 28.6718C16.0922 28.6718 16.4383 28.7568 16.8624 28.8717C18.2274 29.2466 19.6314 29.6265 21.0695 29.5215C21.206 29.5115 21.206 29.6765 21.0695 29.6865C20.1384 29.7714 19.0708 29.7764 18.2713 29.6565C17.9983 29.6165 17.6619 29.6515 17.3255 29.8314C17.1842 30.3213 17.5108 30.6162 17.7886 30.986C18.2664 31.6108 18.9148 32.4555 19.1926 32.8654C19.3096 33.0404 19.1244 33.1503 19.0123 32.9804C18.1786 31.7408 17.306 31.146 16.2579 30.1813C15.9167 29.8664 12.9429 28.052 12.9429 28.6318C12.9429 29.2266 13.1721 29.7464 13.2013 30.1013C13.2501 30.6661 13.5133 30.5862 13.7473 30.8261C13.9813 31.071 15.7217 32.8554 15.5705 33.0054C15.5315 33.0504 15.4925 33.0204 15.4487 32.9804C15.2244 32.7754 13.8204 31.4259 13.3573 31.6208C13.2988 31.9757 13.6303 32.4505 13.8302 32.7505C13.9618 32.9454 14.1178 33.0753 14.2787 33.3103C14.4103 33.4952 14.5419 33.7751 14.7613 34.02C15.4243 34.7598 16.0873 35.7445 16.3847 35.8494C16.4383 35.8694 16.5699 36.0094 16.3408 35.9644C15.9898 35.8994 15.1123 34.7648 14.7369 34.6898C14.7613 35.0997 14.9368 35.5645 15.0343 35.9744C15.1318 36.3743 15.2195 36.7441 15.2342 37.5139C15.2342 37.6338 15.0977 37.7338 15.0879 37.5189C15.0684 37.044 14.8149 36.2343 14.5761 35.6595C14.4396 35.3296 14.3567 35.0597 14.2494 34.7198C14.1666 34.4699 14.0886 34.13 13.9667 33.9051C13.6352 33.2953 13.5913 33.3503 13.2403 32.9354C13.0307 32.6855 12.8113 32.3406 12.6358 32.0007C12.5773 31.8857 12.1825 30.9161 12.0947 30.996C12.0411 31.041 11.8168 31.2659 11.4658 32.7505C11.3781 33.1153 11.2562 33.5802 11.1928 33.9451C11.0758 34.6248 11.2757 34.5499 11.6218 35.0797C12.007 35.6645 12.6456 36.6792 12.7089 37.144C12.8162 37.8988 12.6797 39.5132 12.6212 40.3529C12.6163 40.4129 12.5676 40.4579 12.5091 40.4529C12.4506 40.4479 12.4067 40.3979 12.4116 40.338C12.4749 39.4382 12.3579 38.2936 12.1727 37.3989C12.0947 37.029 11.9485 36.6942 11.7486 36.3693C11.5731 36.0844 11.4268 35.8894 11.0515 35.7495C10.33 35.9444 10.174 36.3593 9.87172 37.039C9.63285 37.5789 9.4281 38.1787 9.32573 38.5935C9.26235 38.8484 9.15998 39.0284 9.11611 39.1683C9.08198 39.2733 8.91136 39.3083 8.96986 39.1334C9.01373 39.0034 9.06248 38.7935 9.12585 38.5435C9.28673 37.8988 9.57923 36.0244 9.90585 35.3296C10.0472 35.0347 10.1106 34.8598 10.0667 34.5099C9.97897 33.7701 9.7986 32.6855 9.59385 32.3006C9.24773 32.4306 8.75536 33.2453 8.65298 33.4452C8.49211 33.7701 8.20936 34.105 8.01924 34.4849C7.86812 34.7798 8.04362 34.9597 8.08749 35.2596C8.18986 35.9194 8.24349 37.3589 8.22399 38.0137C8.24349 38.2137 8.21424 38.4086 8.23861 38.6235C8.25324 38.7635 8.09236 38.7935 8.07774 38.6535C8.03386 38.2636 7.92662 37.6089 7.76574 37.234C7.66824 37.4989 7.54149 37.6089 7.47325 37.8788C7.28312 38.6035 6.88338 39.2183 6.5275 39.5582C6.47876 39.6032 6.42513 39.6182 6.38613 39.5782C6.34713 39.5382 6.36176 39.4782 6.41538 39.4283C7.21 38.1437 7.77549 36.4642 7.22462 35.7095C5.84989 35.1797 4.15828 37.3339 3.67566 38.5535C3.61228 38.7135 3.49041 38.6785 3.52453 38.4186C3.61228 37.7188 4.11928 36.5442 4.66527 36.1893C4.92365 36.0194 5.05527 35.8394 5.03089 35.7695C4.94315 35.4895 3.20766 35.6895 2.68604 35.7345C2.63242 35.7395 2.54954 35.7495 2.50079 35.7345C2.47154 35.7245 2.44229 35.6995 2.40817 35.6695C2.42279 35.6395 2.43742 35.6145 2.45204 35.5945C2.50567 35.5195 2.60317 35.5245 2.68604 35.5095C3.83166 35.3196 4.92365 35.0597 5.43552 35.0597C5.87426 35.0647 6.13263 34.9897 6.50313 34.7848C7.68774 34.135 8.89673 32.5005 8.56036 31.011C7.87299 30.9111 6.73713 31.4959 5.99614 31.9657C5.74264 32.1307 5.48914 32.2706 5.37214 32.4406C5.15764 32.7555 5.07477 33.1353 5.05527 33.5902C5.05527 33.7301 4.92365 33.7351 4.92365 33.5902C4.92365 33.3852 4.92365 33.2253 4.9334 33.0953C4.94802 32.8004 4.99189 32.8904 4.96265 32.6105C4.80177 32.5955 4.54827 32.6455 4.3874 32.6855C4.03153 32.7754 3.30029 32.9204 2.98829 32.9204C2.83229 32.9204 2.77379 32.7754 2.94441 32.7754C3.26129 32.7754 3.82191 32.6255 4.2119 32.5005C4.45565 32.4206 4.59702 32.3456 4.67502 32.3456C4.88952 32.3456 5.21127 32.0507 5.62076 31.7458C6.33738 31.206 7.4635 30.4862 8.25811 29.6565C8.50674 29.3966 8.49699 29.3066 8.10699 29.1316C7.60974 28.9067 6.75663 28.9317 6.11313 28.9917C5.14302 29.0767 4.1924 30.0014 3.61716 30.7411C3.40266 31.016 3.11016 31.2909 3.03704 31.4609C2.98341 31.5908 2.85667 31.5259 2.91029 31.3959C2.98829 31.206 3.17354 30.9011 3.39291 30.6162C3.54403 30.4162 3.96815 29.9664 3.98765 29.7514C3.77803 29.7065 3.70978 29.7914 3.52453 29.8764C2.91029 30.2313 2.23267 30.3412 1.86705 30.3712C1.73055 30.3862 1.71593 30.2513 1.84755 30.2263C3.13941 29.9614 4.08515 29.1866 5.03089 28.4869C4.48977 27.5522 2.69579 27.8171 2.08642 27.7521C1.94992 27.7371 1.96455 27.5822 2.10105 27.5822C2.14492 27.5822 2.23267 27.5772 2.3643 27.5672C3.05654 27.5222 3.89016 27.4372 4.5824 27.5022C5.19664 27.5572 4.99677 27.4822 5.38189 27.4522C6.15701 27.3972 6.76638 27.1373 7.28312 26.8874C7.98024 26.5475 8.52136 26.1126 8.59448 25.9527C8.66761 25.7927 8.76511 25.4679 8.79436 25.073C8.90161 23.6185 8.54574 21.6241 8.64811 20.7944C7.79987 20.7944 2.0328 20.5995 1.88655 20.2946H19.4656V20.3046Z" fill="white"/>
</svg>
