<svg width="46" height="42" viewBox="0 0 46 42" fill="none" xmlns="http://www.w3.org/2000/svg">
<path fill-rule="evenodd" clip-rule="evenodd" d="M0 20.9927V41.9853H2.84275H5.6855V24.2062V6.42717L12.8555 6.48704C19.5931 6.54343 20.0971 6.56351 21.212 6.821C24.2183 7.51532 25.8195 8.97271 26.5598 11.6886C26.821 12.6472 26.8366 13.003 26.8813 19.0366L26.9284 25.3773H29.7804H32.6324L32.5614 18.7792C32.4978 12.8791 32.4623 12.0124 32.225 10.5863C31.2067 4.46434 28.3009 1.48919 22.1831 0.304094C21.332 0.139173 19.4075 0.0975882 10.5813 0.0531714L0 0V20.9927ZM40.3039 14.4394C40.3039 30.3459 40.3201 29.9896 39.5183 31.6858C39.018 32.7441 37.8432 33.9634 36.8777 34.4266C34.8594 35.3948 33.2935 35.5455 25.2373 35.5469L19.078 35.5481V26.0854V16.6227H16.2353H13.3925V29.3113V42L23.9739 41.9446C34.8755 41.8875 35.0785 41.8781 37.2716 41.3267C41.3297 40.3065 43.9335 37.8014 45.1545 33.7429C45.9342 31.1514 45.9027 31.8776 45.9535 15.2387L46 0.0146769H43.1519H40.3039V14.4394Z" fill="#006294"/>
</svg>
