<svg width="40" height="22" viewBox="0 0 40 22" fill="none" xmlns="http://www.w3.org/2000/svg">
<path d="M38.6114 4.39885L38.6114 17.7512C38.6114 19.3248 37.0343 20.5647 35.1227 20.5647L1 20.5647L1 17.7512L3.96304 17.7512C3.96304 17.7512 3.96304 8.26149 3.96304 4.39885C3.96304 2.82518 5.54014 1.58533 7.45177 1.58533L35.0749 1.58532C37.0343 1.58532 38.6114 2.87287 38.6114 4.39885Z" stroke="#9CE7FF" stroke-width="2" stroke-miterlimit="10" stroke-linecap="round" stroke-linejoin="round"/>
<path d="M17.1054 6.59246L17.1054 15.5576C17.1054 16.2729 16.3408 16.8928 15.4327 16.8928L10.2713 16.8928C9.36329 16.8928 8.59863 16.3206 8.59863 15.5576L8.59863 6.59246C8.59863 5.87716 9.36329 5.25723 10.2713 5.25723L15.3849 5.25723C16.3408 5.30491 17.1054 5.87715 17.1054 6.59246Z" stroke="#9CE7FF" stroke-width="2" stroke-miterlimit="10" stroke-linecap="round" stroke-linejoin="round"/>
<path d="M22.0757 16.8452L22.0757 14.8901" stroke="#9CE7FF" stroke-width="2" stroke-miterlimit="10" stroke-linecap="round" stroke-linejoin="round"/>
<path d="M25.9468 16.8452L25.9468 14.8901" stroke="#9CE7FF" stroke-width="2" stroke-miterlimit="10" stroke-linecap="round" stroke-linejoin="round"/>
<path d="M29.9609 16.8452L29.9609 14.8901" stroke="#9CE7FF" stroke-width="2" stroke-miterlimit="10" stroke-linecap="round" stroke-linejoin="round"/>
<path d="M33.7363 16.8452L33.7363 14.8901" stroke="#9CE7FF" stroke-width="2" stroke-miterlimit="10" stroke-linecap="round" stroke-linejoin="round"/>
<path d="M22.0757 12.1243L22.0757 10.1691" stroke="#9CE7FF" stroke-width="2" stroke-miterlimit="10" stroke-linecap="round" stroke-linejoin="round"/>
<path d="M25.9468 12.1243L25.9468 10.1691" stroke="#9CE7FF" stroke-width="2" stroke-miterlimit="10" stroke-linecap="round" stroke-linejoin="round"/>
<path d="M29.9609 12.1243L29.9609 10.1691" stroke="#9CE7FF" stroke-width="2" stroke-miterlimit="10" stroke-linecap="round" stroke-linejoin="round"/>
<path d="M33.7363 12.1243L33.7363 10.1691" stroke="#9CE7FF" stroke-width="2" stroke-miterlimit="10" stroke-linecap="round" stroke-linejoin="round"/>
<path d="M22.0757 7.26013L22.0757 5.30497" stroke="#9CE7FF" stroke-width="2" stroke-miterlimit="10" stroke-linecap="round" stroke-linejoin="round"/>
<path d="M25.9468 7.26013L25.9468 5.30497" stroke="#9CE7FF" stroke-width="2" stroke-miterlimit="10" stroke-linecap="round" stroke-linejoin="round"/>
<path d="M29.9609 7.26013L29.9609 5.30497" stroke="#9CE7FF" stroke-width="2" stroke-miterlimit="10" stroke-linecap="round" stroke-linejoin="round"/>
<path d="M33.7363 7.26013L33.7363 5.30497" stroke="#9CE7FF" stroke-width="2" stroke-miterlimit="10" stroke-linecap="round" stroke-linejoin="round"/>
</svg>
