<svg width="52" height="50" viewBox="0 0 52 50" fill="none" xmlns="http://www.w3.org/2000/svg">
<path d="M40.6982 40.5889C40.6982 32.1564 33.9084 25.3666 25.476 25.3666C19.8908 25.3666 14.9627 28.3782 12.3344 32.923C12.3344 32.923 10.0347 36.0988 10.0347 40.3151" stroke="white" stroke-width="2" stroke-miterlimit="10" stroke-linecap="round" stroke-linejoin="round"/>
<path d="M25.4761 25.3666C30.6474 25.3666 34.8395 21.1745 34.8395 16.0032C34.8395 10.832 30.6474 6.63989 25.4761 6.63989C20.3049 6.63989 16.1128 10.832 16.1128 16.0032C16.1128 21.1745 20.3049 25.3666 25.4761 25.3666Z" stroke="white" stroke-width="2" stroke-miterlimit="10" stroke-linecap="round" stroke-linejoin="round"/>
<path d="M17.6459 40.5889H2.86172C1.8761 40.5889 1 39.7675 1 38.7271V2.86172C1 1.82135 1.82135 1 2.86172 1H48.5833C49.5689 1 50.445 1.82135 50.445 2.86172V38.7819C50.445 39.7675 49.6237 40.6436 48.5833 40.6436H33.0325" stroke="white" stroke-width="2" stroke-miterlimit="10" stroke-linecap="round" stroke-linejoin="round"/>
<path d="M29.1448 40.7532L23.2859 44.0933V37.3583L29.1448 40.7532Z" stroke="white" stroke-width="2" stroke-miterlimit="10" stroke-linecap="round" stroke-linejoin="round"/>
<path d="M25.2571 48.1999C29.4606 48.1999 32.8683 44.7923 32.8683 40.5888C32.8683 36.3853 29.4606 32.9777 25.2571 32.9777C21.0536 32.9777 17.646 36.3853 17.646 40.5888C17.646 44.7923 21.0536 48.1999 25.2571 48.1999Z" stroke="white" stroke-width="2" stroke-miterlimit="10" stroke-linecap="round" stroke-linejoin="round"/>
</svg>
