<svg width="224" height="48" viewBox="0 0 224 48" fill="none" xmlns="http://www.w3.org/2000/svg">
<path fill-rule="evenodd" clip-rule="evenodd" d="M218.409 10.6067H220.519V6.30472H218.409C217.869 6.30472 217.42 6.50737 217.061 6.90689C216.703 7.3064 216.527 7.82751 216.527 8.45283C216.527 9.10132 216.703 9.61663 217.05 10.0104C217.397 10.4099 217.852 10.6067 218.409 10.6067ZM223.932 3.35179V19.3266H220.519V13.4902H219.217L216.709 19.3266H212.904L215.827 12.9922C214.963 12.5985 214.286 11.9906 213.808 11.1742C213.33 10.352 213.091 9.44872 213.091 8.45862C213.091 7.05743 213.569 5.8531 214.519 4.85721C215.469 3.85553 216.714 3.35758 218.244 3.35758H223.932V3.35179ZM203.895 12.6622H206.727L205.914 9.63979C205.726 8.99131 205.527 8.08806 205.311 6.92426C205.157 7.7754 204.953 8.67865 204.708 9.63979L203.895 12.6622ZM198.628 19.3266L203.337 3.35179H207.284L211.994 19.3266H208.536L207.489 15.4762H203.127L202.08 19.3266H198.628ZM185.132 19.3266V3.35179H188.544V9.7556H193.373V3.35179H196.785V19.3266H193.373V12.639H188.544V19.3266H185.132ZM167.814 16.4431H169.207C169.918 15.5456 170.515 13.7797 170.993 11.151C171.471 8.52231 171.727 5.92258 171.761 3.35179H181.674V16.4431H183.301V21.9495L180.19 22.4242V19.3266H170.93V21.9495L167.819 22.4242V16.4431H167.814ZM172.898 16.4431H178.261V6.23524H174.826C174.701 8.28492 174.457 10.3114 174.081 12.3206C173.706 14.3297 173.313 15.702 172.898 16.4431ZM160.38 16.6805C162.251 16.6805 163.19 15.3835 163.19 12.7838V9.90035C163.19 7.30061 162.251 6.00364 160.38 6.00364C158.526 6.00364 157.593 7.3064 157.593 9.90035V12.7838C157.593 15.3835 158.52 16.6805 160.38 16.6805ZM154.181 13.0443V9.66295C154.181 7.54958 154.767 5.92258 155.933 4.77036C157.099 3.61814 158.583 3.04492 160.38 3.04492C162.189 3.04492 163.679 3.61814 164.85 4.77036C166.016 5.92258 166.602 7.54958 166.602 9.66295V13.0443C166.602 15.1693 166.016 16.8021 164.85 17.9369C163.685 19.0718 162.194 19.6392 160.38 19.6392C158.583 19.6392 157.104 19.066 155.933 17.9254C154.767 16.7789 154.181 15.1519 154.181 13.0443ZM145.286 10.6067H147.35C147.891 10.6067 148.328 10.4099 148.664 10.0161C148.994 9.62242 149.165 9.10132 149.165 8.45862C149.165 7.81014 149 7.29482 148.664 6.9011C148.334 6.50737 147.896 6.31051 147.35 6.31051H145.286V10.6067ZM141.873 19.3266V3.35179H147.47C149 3.35179 150.245 3.84974 151.195 4.85142C152.145 5.8531 152.622 7.05164 152.622 8.45283C152.622 9.85403 152.15 11.0468 151.206 12.0195C150.262 12.998 149.017 13.4844 147.47 13.4844H145.286V19.3208H141.873V19.3266ZM131.932 12.6622H134.764L133.951 9.63979C133.763 8.99131 133.564 8.08806 133.348 6.92426C133.194 7.7754 132.989 8.67865 132.745 9.63979L131.932 12.6622ZM126.665 19.3266L131.374 3.35179H135.321L140.03 19.3266H136.573L135.526 15.4762H131.164L130.117 19.3266H126.665ZM113.174 19.3266V3.35179H116.587V9.7556H121.415V3.35179H124.828V19.3266H121.415V12.639H116.587V19.3266H113.174ZM101.305 19.3266L100.935 16.4431H104.347C104.734 16.4431 105.03 16.2984 105.24 16.0089C105.451 15.7194 105.61 15.2561 105.718 14.625L105.809 14.0576H104.649C102.095 14.0576 100.588 12.5754 100.122 9.61663L99.1207 3.35179H102.51L103.483 9.37924C103.671 10.5894 104.126 11.1973 104.854 11.1973H106.315L107.686 3.35179H111.098L109.079 14.8624C108.568 17.8385 107.06 19.3266 104.552 19.3266H101.305ZM82.7295 16.4431H84.1229C84.8338 15.5456 85.431 13.7797 85.9088 11.151C86.3865 8.52231 86.6424 5.92258 86.6766 3.35179H96.5898V16.4431H98.2164V21.9495L95.1054 22.4242V19.3266H85.8462V21.9495L82.7352 22.4242V16.4431H82.7295ZM87.8141 16.4431H93.1773V6.23524H89.7421C89.617 8.28492 89.3724 10.3114 88.997 12.3206C88.6274 14.3297 88.2292 15.702 87.8141 16.4431ZM74.3007 19.3266H70.8882V13.1138L69.6142 12.6159L66.9241 19.3266H62.9087L66.4861 11.3421C65.6217 10.8673 65.0302 10.0277 64.723 8.81182L63.3296 3.35179H66.7193L67.8796 7.72329C68.0047 8.16333 68.1753 8.50494 68.4028 8.75392C68.6246 8.9971 68.9772 9.19975 69.4607 9.35608L70.8996 9.85403V3.35179H74.3121V9.84824L75.751 9.35029C76.2287 9.19396 76.5814 8.99131 76.8089 8.74813C77.0307 8.50494 77.207 8.16333 77.3321 7.7175L78.4923 3.346H81.8821L80.4886 8.80603C80.1645 10.0335 79.5673 10.8789 78.7028 11.3363L82.3029 19.3208H78.2876L75.569 12.6101L74.3178 13.108V19.3266H74.3007ZM51.9434 19.3266V3.35179H61.3219V6.30472H55.3501V9.84824H60.3665L60.2243 12.6854H55.3501V16.3736H61.5267V19.3266H51.9434ZM32.1567 19.3266L33.8288 3.35179H37.7077L40.3978 11.0815C40.523 11.4463 40.705 12.1295 40.9552 13.137C41.1258 12.3669 41.3135 11.6779 41.5126 11.0815L44.2027 3.35179H48.0816L49.7537 19.3266H46.364L45.6929 11.151C45.6474 10.6009 45.5905 9.58189 45.5279 8.10543C45.2492 9.31555 44.9705 10.3288 44.6919 11.1278L42.7638 16.6342H39.1409L37.2129 11.1278C36.8887 10.1841 36.6043 9.16501 36.3541 8.08227C36.3256 9.32713 36.2744 10.352 36.2176 11.1568L35.5465 19.3266H32.1567Z" fill="#52B0D8"/>
<path fill-rule="evenodd" clip-rule="evenodd" d="M221.065 41.2021V27.4507H224V41.2021H221.065ZM215.19 35.0183H213.41V38.7181H215.19C215.657 38.7181 216.032 38.5502 216.322 38.2086C216.606 37.8728 216.754 37.4212 216.754 36.8653C216.754 36.3095 216.612 35.8636 216.322 35.522C216.032 35.1804 215.657 35.0183 215.19 35.0183ZM210.475 41.2021V27.4507H213.41V32.5344H215.287C216.618 32.5344 217.693 32.957 218.506 33.7966C219.319 34.6361 219.723 35.661 219.723 36.8711C219.723 38.0754 219.319 39.1003 218.506 39.9398C217.693 40.7794 216.623 41.2021 215.287 41.2021H210.475ZM196.006 41.4047L195.864 38.9208C196.382 38.8281 196.797 38.6892 197.104 38.5039C197.411 38.3186 197.707 38.006 197.991 37.5601C198.276 37.1143 198.492 36.4774 198.628 35.6494C198.771 34.8214 198.879 33.7445 198.958 32.4243C199.038 31.1042 199.078 29.4425 199.078 27.4507H207.888V41.2021H204.953V29.9288H201.876C201.876 31.3821 201.83 32.6675 201.734 33.7908C201.643 34.9141 201.523 35.8752 201.375 36.6685C201.228 37.4617 201.017 38.1391 200.744 38.695C200.471 39.2508 200.192 39.6966 199.902 40.0383C199.618 40.3799 199.248 40.6462 198.805 40.8431C198.361 41.0399 197.929 41.1731 197.514 41.2484C197.11 41.3237 196.604 41.3758 196.006 41.4047ZM188.709 35.4641H191.149L190.45 32.8586C190.291 32.3028 190.114 31.5211 189.932 30.5194C189.801 31.249 189.625 32.0306 189.415 32.8586L188.709 35.4641ZM184.171 41.2021L188.226 27.4507H191.621L195.677 41.2021H192.702L191.803 37.8844H188.05L187.151 41.2021H184.171ZM178.756 35.0762H176.777V38.7181H178.756C179.223 38.7181 179.598 38.5502 179.883 38.2086C180.167 37.8728 180.315 37.4212 180.315 36.8653C180.315 36.3095 180.173 35.8694 179.894 35.551C179.615 35.2383 179.234 35.0762 178.756 35.0762ZM176.777 29.9288V32.598H178.853C180.184 32.598 181.259 33.0091 182.072 33.8371C182.886 34.6651 183.289 35.6726 183.289 36.8711C183.289 38.0754 182.886 39.1003 182.072 39.9398C181.259 40.7794 180.19 41.2021 178.853 41.2021H173.837V27.4507H182.027V29.9346H176.777V29.9288ZM167.421 35.0762H165.442V38.7181H167.421C167.888 38.7181 168.263 38.5502 168.547 38.2086C168.832 37.8728 168.98 37.4212 168.98 36.8653C168.98 36.3095 168.838 35.8694 168.559 35.551C168.28 35.2383 167.899 35.0762 167.421 35.0762ZM165.442 29.9288V32.598H167.518C168.849 32.598 169.924 33.0091 170.737 33.8371C171.55 34.6651 171.954 35.6726 171.954 36.8711C171.954 38.0754 171.55 39.1003 170.737 39.9398C169.924 40.7794 168.855 41.2021 167.518 41.2021H162.502V27.4507H170.692V29.9346H165.442V29.9288ZM153.948 35.4641H156.388L155.688 32.8586C155.529 32.3028 155.353 31.5211 155.171 30.5194C155.04 31.249 154.863 32.0306 154.653 32.8586L153.948 35.4641ZM149.415 41.2021L153.47 27.4507H156.865L160.921 41.2021H157.946L157.047 37.8844H153.294L152.395 41.2021H149.415ZM138.319 41.2021V27.4507H141.253V33.0439L142.795 32.5575C143.21 32.4243 143.511 32.2506 143.705 32.0364C143.898 31.828 144.046 31.5327 144.154 31.1505L145.155 27.4507H148.073L146.873 32.0885C146.594 33.1481 146.082 33.8719 145.337 34.2656L148.835 41.2021H145.377L142.641 35.3425L141.265 35.8521V41.2021H138.319ZM126.586 33.6924H128.405V29.9925H126.586C126.119 29.9925 125.732 30.1662 125.425 30.5136C125.118 30.861 124.965 31.3011 124.965 31.8453C124.965 32.4012 125.112 32.847 125.414 33.1886C125.715 33.5245 126.108 33.6924 126.586 33.6924ZM131.34 27.4507V41.2021H128.405V36.1763H127.285L125.13 41.2021H121.854L124.373 35.7536C123.628 35.412 123.048 34.8909 122.633 34.1845C122.218 33.4781 122.013 32.7023 122.013 31.8453C122.013 30.641 122.422 29.6046 123.241 28.7419C124.06 27.8791 125.13 27.4507 126.449 27.4507H131.34ZM120.068 27.4507V41.2021H117.133V35.3425C117.133 34.613 117.161 33.8892 117.213 33.1886L112.236 41.2021H109.836V27.4507H112.771V33.4087C112.771 34.034 112.748 34.7288 112.708 35.5047L117.685 27.4507H120.068ZM92.8078 41.2021L94.2467 27.4507H97.5852L99.9 34.1035C100.008 34.4161 100.167 35.0067 100.378 35.8752C100.526 35.2094 100.685 34.6188 100.856 34.1035L103.176 27.4507H106.515L107.953 41.2021H105.036L104.456 34.1671C104.416 33.6924 104.37 32.8181 104.313 31.5443C104.075 32.5865 103.836 33.455 103.597 34.1498L101.936 38.8918H98.8194L97.1587 34.1498C96.88 33.3334 96.6297 32.4591 96.4193 31.5269C96.3909 32.598 96.3511 33.4781 96.2999 34.1729L95.7198 41.2079H92.8078V41.2021ZM83.0766 41.2021V27.4507H91.147V29.9925H86.0113V33.0439H90.3281L90.2086 35.4873H86.0113V38.6602H91.3234V41.2021H83.0766ZM68.1641 38.7181H69.3641C69.9784 37.9481 70.4902 36.4253 70.9054 34.1614C71.3206 31.8974 71.5367 29.6567 71.5652 27.4507H80.0963V38.7181H81.4954V43.4544L78.8167 43.8597V41.1963H70.8429V43.4544L68.1641 43.8597V38.7181ZM72.5434 38.7181H77.1616V29.9288H74.2041C74.0961 31.689 73.8857 33.4376 73.5672 35.1688C73.2373 36.9001 72.9017 38.0812 72.5434 38.7181ZM60.8045 35.4641H63.2444L62.5449 32.8586C62.3856 32.3028 62.2093 31.5211 62.0273 30.5194C61.8965 31.249 61.7202 32.0306 61.5098 32.8586L60.8045 35.4641ZM56.2716 41.2021L60.3268 27.4507H63.7222L67.7773 41.2021H64.8028L63.9042 37.8844H60.1505L59.2519 41.2021H56.2716ZM45.1754 41.2021V27.4507H48.1102V33.0439L49.6515 32.5575C50.0666 32.4243 50.3681 32.2506 50.5614 32.0364C50.7548 31.828 50.9027 31.5327 51.0108 31.1505L52.0117 27.4507H54.9294L53.7293 32.0885C53.4507 33.1481 52.9388 33.8719 52.1937 34.2656L55.6915 41.2021H52.2335L49.4979 35.3425L48.1215 35.8521V41.2021H45.1754ZM36.6215 35.4641H39.0614L38.3619 32.8586C38.2026 32.3028 38.0263 31.5211 37.8443 30.5194C37.7135 31.249 37.5372 32.0306 37.3268 32.8586L36.6215 35.4641ZM32.0886 41.2021L36.1438 27.4507H39.5392L43.5943 41.2021H40.6198L39.7212 37.8844H35.9675L35.0688 41.2021H32.0886Z" fill="#00789F"/>
<path fill-rule="evenodd" clip-rule="evenodd" d="M22.71 24.0858C22.545 23.75 17.5116 23.5416 15.413 23.5184C15.4471 21.5903 15.0717 20.6407 15.2082 19.5001C15.4471 19.1701 15.703 19.0774 16.1012 18.8285C17.8358 17.7573 18.0974 17.682 19.3032 17.3057C20.4407 17.103 22.272 16.8425 23.5176 17.132C23.6541 17.1609 23.6939 17.0046 23.5517 16.9525C23.0967 16.7904 21.6464 16.4372 21.1687 16.4314C21.1345 16.275 21.2824 16.1361 21.5952 15.9624C22.1185 15.6729 22.8294 15.256 23.4152 15.1344C23.5176 15.1112 23.5801 14.9897 23.4038 14.9897C23.1024 14.9897 22.3232 15.0244 21.5611 15.2907C20.7307 15.5802 19.8833 16.0434 19.2463 16.304C17.5685 16.5414 15.5267 17.1609 15.5267 17.0393C15.5267 16.9177 17.3751 14.4396 18.7117 14.3933C18.7743 14.3933 19.1781 14.2948 19.6729 14.1617C21.2654 13.7274 22.9033 13.2874 24.5811 13.409C24.7404 13.4205 24.7404 13.2295 24.5811 13.2179C23.4948 13.1195 22.2493 13.1137 21.3165 13.2468C20.998 13.2932 20.6056 13.2526 20.2132 13.0442C20.0482 12.4768 20.4293 12.1352 20.7535 11.7067C21.3109 10.9829 22.0673 10.0044 22.3915 9.52963C22.528 9.32698 22.3118 9.1996 22.181 9.39646C21.2085 10.8324 20.1904 11.5214 18.9676 12.6389C18.5695 13.0037 15.1002 15.1055 15.1002 14.4338C15.1002 13.7448 15.3675 13.1426 15.4016 12.7315C15.4585 12.0773 15.7656 12.1699 16.0386 11.892C16.3116 11.6083 18.342 9.54121 18.1657 9.36751C18.1202 9.3154 18.0747 9.35014 18.0235 9.39646C17.7619 9.63385 16.1239 11.1972 15.5836 10.9714C15.5153 10.5603 15.9021 10.0102 16.1353 9.6628C16.2888 9.43699 16.4708 9.28645 16.6585 9.0201C16.8121 8.80587 16.9656 8.48163 17.2216 8.19792C17.9951 7.34099 18.7686 6.19456 19.1155 6.07876C19.1781 6.05559 19.3316 5.89347 19.0643 5.94558C18.6548 6.02085 17.6311 7.3352 17.1931 7.42205C17.2216 6.94726 17.4263 6.40879 17.5401 5.934C17.6538 5.4708 17.7562 5.04234 17.7733 4.15067C17.7733 4.01171 17.614 3.8959 17.6026 4.14488C17.5799 4.69493 17.2841 5.63292 17.0055 6.29878C16.8462 6.68092 16.7495 6.99358 16.6244 7.38731C16.5277 7.67681 16.4367 8.07053 16.2945 8.33109C15.9078 9.03747 15.8566 8.97378 15.4471 9.45436C15.2025 9.74386 14.9466 10.1434 14.7419 10.5371C14.6736 10.6703 14.2129 11.7935 14.1105 11.7009C14.048 11.6488 13.7864 11.3882 13.3769 9.66859C13.2745 9.24592 13.1323 8.70744 13.0584 8.28477C12.9219 7.49732 13.1551 7.58417 13.5589 6.97042C14.0082 6.29299 14.7532 5.11761 14.8272 4.57913C14.9466 3.71062 14.7874 1.83464 14.7191 0.867705C14.7134 0.798225 14.6565 0.746114 14.5883 0.751904C14.52 0.757694 14.4689 0.815595 14.4745 0.885076C14.5485 1.92729 14.412 3.25321 14.1959 4.28963C14.1049 4.7123 13.9342 5.10603 13.7011 5.48238C13.4963 5.81241 13.3257 6.03243 12.8877 6.20035C12.046 5.97453 11.864 5.49396 11.5114 4.70651C11.2327 4.08119 10.9938 3.38638 10.8744 2.9058C10.8005 2.61051 10.681 2.40207 10.6298 2.23995C10.59 2.12415 10.391 2.07783 10.4592 2.28048C10.5104 2.43102 10.5673 2.66841 10.6412 2.96371C10.8289 3.71062 11.1701 5.88189 11.5512 6.68671C11.7161 7.02832 11.7901 7.23098 11.7389 7.63628C11.6365 8.49321 11.4261 9.74965 11.1872 10.2013C10.7834 10.0507 10.209 9.10695 10.0895 8.86956C9.90184 8.49321 9.57197 8.10527 9.35016 7.67102C9.17385 7.32941 9.37859 7.12097 9.42978 6.77356C9.54922 6.00927 9.61178 4.34174 9.58903 3.58324C9.61178 3.35164 9.57765 3.12583 9.60609 2.87685C9.62315 2.71473 9.43547 2.67999 9.41841 2.84211C9.36722 3.29953 9.2421 4.05224 9.05441 4.4807C8.94066 4.17383 8.79279 4.04645 8.71316 3.73378C8.49135 2.89422 8.02498 2.18205 7.6098 1.78832C7.55293 1.73621 7.49036 1.72463 7.44486 1.76516C7.39936 1.81148 7.41643 1.88096 7.47899 1.93887C8.40604 3.42691 9.06579 5.37237 8.4231 6.24667C6.81925 6.86041 4.8457 4.3649 4.28265 2.95213C4.20871 2.76684 4.06652 2.81316 4.10633 3.10846C4.20871 3.91906 4.8002 5.27973 5.4372 5.69082C5.73863 5.88768 5.89219 6.09613 5.86375 6.1714C5.76138 6.49564 3.73665 6.26404 3.12809 6.21193C3.06553 6.20614 2.96885 6.18877 2.91197 6.21193C2.88922 6.2293 2.84941 6.25825 2.81528 6.29299C2.83235 6.32773 2.84941 6.35668 2.86647 6.37984C2.92903 6.46669 3.04278 6.4609 3.13947 6.47827C4.47602 6.69829 5.75001 6.99937 6.34719 6.99937C6.85906 6.99358 7.16049 7.08043 7.59274 7.31783C8.97479 8.07632 10.3853 9.96388 9.99284 11.6893C9.19091 11.8051 7.86573 11.1277 7.00124 10.5834C6.7055 10.3923 6.40975 10.2302 6.27325 10.0334C6.023 9.66859 5.92632 9.22855 5.90357 8.70165C5.90357 8.53953 5.75001 8.53374 5.75001 8.70165C5.75001 8.93904 5.75001 9.12432 5.76138 9.27487C5.77844 9.61648 5.82963 9.51226 5.7955 9.8365C5.60782 9.85387 5.31207 9.79597 5.12439 9.74965C4.7092 9.64543 3.85609 9.47752 3.49209 9.47752C3.31009 9.47752 3.24184 9.64543 3.4409 9.64543C3.81059 9.64543 4.46464 9.81913 4.91964 9.96388C5.20401 10.0565 5.36895 10.1434 5.45995 10.1434C5.71019 10.1434 6.08556 10.485 6.56331 10.8382C7.39936 11.4635 8.71316 12.2973 9.64022 13.2584C9.93028 13.5595 9.9189 13.6637 9.46391 13.8664C8.88379 14.1269 7.88848 14.098 7.13774 14.0285C6.00594 13.9301 4.89689 12.8589 4.22577 12.002C3.97552 11.6835 3.63428 11.3651 3.54896 11.1682C3.4864 11.0177 3.33853 11.0929 3.40109 11.2435C3.49209 11.4635 3.70821 11.8167 3.96415 12.1467C4.14046 12.3783 4.63527 12.8994 4.65802 13.1484C4.41346 13.2005 4.33383 13.1079 4.11771 13.0037C3.40109 12.5926 2.61054 12.4652 2.18398 12.4304C2.02473 12.4131 2.00767 12.5694 2.16123 12.5984C3.6684 12.9052 4.77177 13.8027 5.87513 14.6133C5.24382 15.696 3.15084 15.3892 2.43991 15.4644C2.28066 15.4818 2.29773 15.6613 2.45698 15.6613C2.50816 15.6613 2.61054 15.6671 2.7641 15.6787C3.57171 15.7308 4.54427 15.8292 5.35188 15.7539C6.0685 15.6845 5.83532 15.7771 6.28463 15.8118C7.18893 15.8755 7.89986 16.1766 8.50273 16.4661C9.31603 16.8598 9.94734 17.3636 10.0326 17.5489C10.118 17.7341 10.2317 18.1105 10.2658 18.5679C10.391 20.2528 9.97578 22.563 10.0952 23.5242C8.4231 23.5242 2.38873 23.7384 2.2181 24.0858H22.71ZM21.618 12.4015C21.3677 11.3361 22.8123 10.5776 23.62 11.2319L23.6825 11.284L23.6256 11.3419C23.5346 11.4403 23.4664 11.5793 23.4038 11.6951C23 12.4478 22.5052 12.7605 21.6578 12.4536L21.618 12.442V12.4015ZM20.9753 17.4794C21.544 17.4388 22.09 17.7457 22.4483 18.1742C22.6303 18.3884 22.6929 18.649 22.727 18.9211C22.7441 19.0658 22.7555 19.3554 22.8237 19.4769L22.8692 19.558L22.7839 19.587C22.2038 19.778 21.544 19.5117 21.1402 19.0716C20.799 18.6953 20.5829 17.9484 20.9241 17.5083L20.9469 17.4852L20.9753 17.4794ZM5.06182 16.5703C5.01632 16.6746 5.01633 16.8193 4.99926 16.9351C4.93101 17.4215 4.67508 17.7978 4.2144 17.9773C3.75371 18.1568 2.75272 18.1047 2.53091 17.5952L2.50248 17.5431L2.55366 17.5083C2.88922 17.2536 3.07122 16.7382 3.3954 16.5877C3.91865 16.3445 4.45327 16.3793 5.00495 16.4777L5.09595 16.4951L5.06182 16.5703ZM2.86647 11.8167C2.8551 11.9615 2.56504 11.9672 2.45698 11.8862C2.08729 11.6025 1.90529 11.7125 1.52992 11.863C0.97824 12.083 0.597182 11.9672 0.272997 11.4577C0.210435 11.3593 0.142186 11.284 0.051187 11.2145L0 11.174L0.0284372 11.1161C0.73368 9.79597 3.00297 10.2186 2.86647 11.8167ZM5.4372 7.6247C5.3007 7.83314 5.17557 8.05316 5.02201 8.25003C4.56133 8.8464 4.24852 8.81745 3.56603 8.80587C3.3499 8.80008 3.04278 8.7885 2.83235 8.82324L2.73566 8.84061L2.74704 8.74218C2.87216 7.37573 4.35658 7.25993 5.3917 7.50311L5.49407 7.52627L5.4372 7.6247ZM18.1145 5.40132C18.069 5.10024 18.1145 4.79915 18.2453 4.52702C18.6662 3.6643 20.0198 3.10267 20.7876 3.79747L20.8502 3.85537L20.7876 3.91327C20.6454 4.03487 20.5203 4.35911 20.4236 4.53281C20.0141 5.27394 18.9676 5.68503 18.1714 5.46501L18.1259 5.45343L18.1145 5.40132ZM18.3477 8.06474C18.251 6.8662 19.5022 6.32773 20.452 6.83146C20.7307 6.97621 20.9355 7.20782 21.0777 7.49153L21.1061 7.54943L21.0549 7.58996C21.0037 7.63049 20.9582 7.67102 20.9184 7.71734C20.5374 8.16318 19.8947 8.2674 19.3714 8.05316C19.1269 7.95473 18.9562 7.98947 18.7401 8.1516C18.6378 8.22687 18.3591 8.20371 18.3477 8.06474ZM15.339 2.84211C15.2651 2.55261 15.2935 2.27469 15.4528 2.01993C15.5665 1.83464 15.7428 1.6841 15.9248 1.57409C16.2149 1.40039 16.8519 1.20353 17.159 1.40618L17.1988 1.42934L17.1931 1.47566C17.0908 2.55261 16.4481 3.07372 15.3959 2.89422L15.3504 2.88843L15.339 2.84211ZM9.92459 7.86209C9.71984 7.1036 10.2772 6.35089 11.1019 6.56512L11.1531 6.5767V6.6346C11.1872 7.42205 10.7948 7.94315 9.98715 7.9142H9.93028L9.92459 7.86209ZM1.5868 5.30289C1.78017 5.14077 1.89961 4.96127 2.07592 4.80494C2.42285 4.4807 2.91197 4.64861 3.29303 4.80494C3.49209 4.886 3.58309 4.7702 3.74803 4.81073L3.79352 4.82231L3.8049 4.86863C3.84471 5.09445 3.77078 5.36079 3.63996 5.54028C3.4409 5.82399 3.11672 5.92821 2.78116 5.91663C2.34891 5.89926 1.88823 5.71977 1.58111 5.4129L1.52423 5.355L1.5868 5.30289ZM19.5421 11.6546C18.6889 11.2319 18.9506 9.7207 19.8321 9.47173L19.9061 9.44857L19.9231 9.52963C19.9516 9.6628 20.0767 9.84229 20.1279 9.99862C20.2985 10.5313 20.162 11.4172 19.5989 11.6546L19.5648 11.6662L19.5421 11.6546ZM1.05218 14.2833C1.3138 13.878 1.66642 13.5595 2.16692 13.5942C2.51385 13.6174 2.78685 13.7853 3.11103 13.8953C3.21341 13.9301 3.46365 13.988 3.55465 13.9069C3.74803 13.7274 3.92434 13.9243 3.8959 14.1559C3.8049 14.787 3.13378 15.2213 2.54797 15.227C1.97354 15.2328 1.43892 14.7696 1.06355 14.3817L1.02374 14.3354L1.05218 14.2833ZM5.57369 2.88264C5.57369 2.81895 5.60782 2.79579 5.66469 2.79C6.114 2.7321 6.51781 2.84211 6.80787 3.20689C6.87612 3.28795 6.92731 3.38059 6.97849 3.47323C7.10362 3.71062 7.17755 3.95959 7.26855 4.20857C7.30836 4.31279 7.39368 4.55018 7.50743 4.59071C7.76905 4.67756 7.89986 4.86863 7.62117 5.04234C6.98418 5.44764 5.8865 4.99602 5.63057 4.28963C5.49976 3.93643 5.52251 3.50218 5.56232 3.12583C5.57369 3.04477 5.57938 2.96371 5.57369 2.88264ZM17.2841 4.06961C17.0965 4.37069 16.8405 4.62545 16.4708 4.63703C16.2206 4.64861 16.0215 4.55597 15.7883 4.50386C15.7144 4.48649 15.5438 4.46912 15.4869 4.52702C15.339 4.67177 15.1798 4.55018 15.2082 4.35332C15.2708 3.8959 15.7599 3.5485 16.1865 3.49639C16.596 3.45007 16.9827 3.71641 17.2728 3.97697L17.324 4.0175L17.2841 4.06961ZM15.6291 6.84883C15.2082 6.18877 15.5153 5.30289 16.3628 5.25078L16.4197 5.24499L16.4367 5.2971C16.704 6.03822 16.4879 6.65197 15.7087 6.87778L15.6575 6.89515L15.6291 6.84883ZM5.85807 12.0715C6.67137 11.8051 7.70649 12.3668 7.71217 13.3163V13.38L7.64961 13.3916C6.59743 13.5537 5.98319 13.2758 5.80688 12.1583L5.7955 12.0946L5.85807 12.0715ZM7.04674 8.16897C7.59842 8.34846 8.15011 8.66691 8.2866 9.28066C8.34917 9.55279 8.32642 9.78439 8.24679 10.0507C8.19561 10.2244 8.11598 10.4213 8.11598 10.6008V10.705L8.0193 10.6703C7.02399 10.3287 6.56331 9.18223 6.95574 8.2095L6.98418 8.14581L7.04674 8.16897ZM18.4614 11.8051C18.3534 11.9325 18.2965 12.251 18.1714 12.4362C17.7789 13.0152 16.8007 13.4495 16.158 13.0674L16.1296 13.05L16.1239 13.0152C15.9078 11.8804 17.614 11.1161 18.4501 11.6893L18.5183 11.7356L18.4614 11.8051ZM13.6612 8.85798C13.5646 8.24424 13.7977 7.67102 14.3153 7.3352C14.8158 7.01674 15.4926 6.98779 15.9874 7.34099L16.067 7.39889L15.9931 7.46258C15.8566 7.58417 15.7258 7.90841 15.6291 8.08211C15.3845 8.52795 15.0035 8.83482 14.5087 8.93904C14.2357 8.99694 13.9854 8.96799 13.7124 8.91588L13.6612 8.9043V8.85798ZM11.2327 2.52366C12.4214 1.91571 14.0252 2.88843 13.8262 4.25489L13.8148 4.32437L13.7466 4.31858C13.4963 4.29542 13.2347 4.39385 12.9787 4.34753C12.4498 4.2491 12.0005 4.0175 11.6763 3.57166C11.4488 3.259 11.3635 2.95792 11.1986 2.62209L11.1645 2.55261L11.2327 2.52366ZM8.77004 2.58735C8.25248 2.00256 8.4231 1.07615 9.25347 0.890866L9.31035 0.879286L9.33878 0.931396C9.71415 1.62041 9.59472 2.26311 8.86104 2.60472L8.80985 2.62788L8.77004 2.58735Z" fill="#017BA1"/>
<path fill-rule="evenodd" clip-rule="evenodd" d="M22.7099 24.0868C22.545 24.4226 17.085 24.6368 15.4129 24.66C15.447 26.5881 15.0717 27.5376 15.2082 28.6783C15.447 29.0083 15.703 29.101 16.1011 29.3499C17.8358 30.4211 18.0974 30.4964 19.3031 30.8727C20.4406 31.0754 22.272 31.3359 23.5175 31.0464C23.654 31.0175 23.6938 31.1738 23.5516 31.2259C23.0966 31.388 21.6463 31.7412 21.1686 31.747C21.1345 31.9033 21.2824 32.0423 21.5952 32.216C22.1184 32.5113 22.8293 32.9224 23.4151 33.044C23.5175 33.0672 23.5801 33.1887 23.4038 33.1887C23.1023 33.1887 22.3232 33.154 21.561 32.8877C20.7307 32.5982 19.8832 32.135 19.2462 31.8744C17.5684 31.637 15.5267 31.0117 15.5267 31.1333C15.5267 31.2549 17.3751 33.733 18.7116 33.7793C18.7742 33.7793 19.178 33.8778 19.6728 34.0109C21.2653 34.4452 22.9033 34.8852 24.5811 34.7636C24.7403 34.7521 24.7403 34.9431 24.5811 34.9547C23.4948 35.0531 22.2492 35.0589 21.3165 34.92C20.998 34.8736 20.6055 34.9142 20.2131 35.1226C20.0482 35.69 20.4292 36.0317 20.7534 36.4601C21.3108 37.1839 22.0672 38.1624 22.3914 38.6372C22.5279 38.8398 22.3118 38.9672 22.181 38.7704C21.2084 37.3344 20.1904 36.6454 18.9676 35.5279C18.5694 35.1632 15.1001 33.0614 15.1001 33.733C15.1001 34.422 15.3674 35.0242 15.4015 35.4353C15.4584 36.0896 15.7655 35.9969 16.0385 36.2748C16.3115 36.5586 18.3419 38.6256 18.1656 38.7993C18.1201 38.8514 18.0746 38.8167 18.0234 38.7704C17.7618 38.533 16.1238 36.9696 15.5835 37.1955C15.5153 37.6066 15.902 38.1566 16.1352 38.504C16.2888 38.7298 16.4708 38.8804 16.6585 39.1525C16.812 39.3667 16.9656 39.691 17.2215 39.9747C17.995 40.8316 18.7685 41.9723 19.1154 42.0938C19.178 42.117 19.3316 42.2791 19.0642 42.227C18.6548 42.1517 17.631 40.8374 17.1931 40.7506C17.2215 41.2253 17.4263 41.7638 17.54 42.2386C17.6538 42.7018 17.7561 43.1303 17.7732 44.0219C17.7732 44.1609 17.614 44.2767 17.6026 44.0277C17.5798 43.4777 17.2841 42.5397 17.0054 41.8738C16.8461 41.4917 16.7495 41.179 16.6243 40.7853C16.5276 40.4958 16.4366 40.1021 16.2945 39.8415C15.9077 39.1351 15.8565 39.1988 15.447 38.7182C15.2025 38.4287 14.9465 38.0292 14.7418 37.6355C14.6735 37.5023 14.2129 36.3791 14.1105 36.4717C14.0479 36.5238 13.7863 36.7844 13.3768 38.504C13.2744 38.9267 13.1322 39.4652 13.0583 39.8878C12.9218 40.6753 13.155 40.5884 13.5588 41.2022C14.0081 41.8796 14.7532 43.055 14.8271 43.5935C14.9522 44.4678 14.793 46.338 14.7247 47.3107C14.719 47.3802 14.6622 47.4323 14.5939 47.4265C14.5257 47.4207 14.4745 47.3628 14.4802 47.2933C14.5541 46.2511 14.4176 44.9252 14.2015 43.8888C14.1105 43.4603 13.9399 43.0724 13.7067 42.696C13.5019 42.366 13.3313 42.1402 12.8934 41.978C12.0516 42.2039 11.8696 42.6844 11.517 43.4719C11.2383 44.0972 10.9995 44.792 10.88 45.2726C10.8061 45.5679 10.6866 45.7763 10.6355 45.9384C10.5956 46.06 10.3966 46.1006 10.4648 45.8979C10.516 45.7474 10.5729 45.5042 10.6468 45.2147C10.8345 44.4678 11.1758 42.2965 11.5568 41.4917C11.7218 41.1501 11.7957 40.9474 11.7445 40.5421C11.6421 39.6852 11.4317 38.4287 11.1928 37.9829C10.789 38.1334 10.2146 39.0772 10.0951 39.3088C9.90746 39.6852 9.57759 40.0731 9.35578 40.5132C9.17947 40.8548 9.38422 41.0632 9.4354 41.4106C9.55484 42.1749 9.6174 43.8424 9.59465 44.6009C9.6174 44.8325 9.58328 45.0584 9.61171 45.3073C9.62878 45.4694 9.44109 45.5042 9.42403 45.3421C9.37284 44.8904 9.24772 44.1319 9.06003 43.6977C8.94628 44.0046 8.79841 44.1319 8.71879 44.4446C8.49698 45.2842 8.03061 45.9963 7.61542 46.3901C7.55855 46.4422 7.49599 46.4595 7.45049 46.4132C7.40499 46.3669 7.42205 46.2974 7.48461 46.2395C8.41166 44.7515 9.07141 42.806 8.42873 41.9317C6.82487 41.318 4.85132 43.8135 4.28827 45.2263C4.21433 45.4115 4.07214 45.371 4.11196 45.0699C4.21433 44.2593 4.80582 42.8987 5.44282 42.4876C5.74425 42.2907 5.89781 42.0823 5.86938 42.0012C5.767 41.677 3.74227 41.9086 3.13372 41.9607C3.07115 41.9665 2.97447 41.978 2.91759 41.9607C2.88347 41.9491 2.84934 41.9201 2.80953 41.8854C2.82659 41.8507 2.84366 41.8217 2.86072 41.7986C2.92328 41.7117 3.03703 41.7175 3.13372 41.7001C4.47027 41.4801 5.74425 41.179 6.34143 41.179C6.8533 41.1848 7.15474 41.098 7.58698 40.8606C8.96903 40.1079 10.3795 38.2145 9.98709 36.4891C9.18516 36.3733 7.85998 37.0507 6.99549 37.595C6.69974 37.786 6.404 37.9482 6.2675 38.145C6.01725 38.5098 5.92056 38.9498 5.89781 39.4767C5.89781 39.6389 5.74425 39.6447 5.74425 39.4767C5.74425 39.2393 5.74425 39.0541 5.75563 38.9035C5.77269 38.5619 5.82388 38.6661 5.78975 38.3419C5.60207 38.3245 5.30632 38.3824 5.11863 38.4287C4.70345 38.533 3.85033 38.7009 3.48634 38.7009C3.30434 38.7009 3.23609 38.533 3.43515 38.533C3.80483 38.533 4.45889 38.3593 4.91389 38.2145C5.19826 38.1219 5.36319 38.035 5.45419 38.035C5.70444 38.035 6.07981 37.6934 6.55756 37.3402C7.39361 36.7149 8.70741 35.8811 9.63447 34.92C9.92452 34.6189 9.91315 34.5147 9.45815 34.312C8.87803 34.0515 7.88273 34.0804 7.13199 34.1499C6.00019 34.2483 4.89114 35.3195 4.22002 36.1764C3.96977 36.4949 3.62852 36.8133 3.54321 37.0102C3.48065 37.1607 3.33278 37.0854 3.39534 36.9349C3.48634 36.7149 3.70246 36.3617 3.9584 36.0317C4.13471 35.8001 4.62951 35.279 4.65226 35.03C4.4077 34.9779 4.32808 35.0763 4.11196 35.1747C3.39534 35.5858 2.60478 35.7132 2.17822 35.7479C2.01898 35.7653 2.00191 35.609 2.15548 35.58C3.66265 35.2732 4.76601 34.3757 5.86938 33.5651C5.23807 32.4824 3.14509 32.7892 2.43416 32.714C2.27491 32.6966 2.29197 32.5171 2.45122 32.5171C2.50241 32.5171 2.60478 32.5113 2.75834 32.4997C3.56596 32.4476 4.53851 32.3492 5.34613 32.4245C6.06275 32.4881 5.82956 32.4013 6.27887 32.3666C7.18318 32.3029 7.89411 32.0018 8.49698 31.7123C9.31028 31.3186 9.94159 30.8148 10.0269 30.6295C10.1122 30.4443 10.226 30.0679 10.2601 29.6105C10.3852 27.9256 9.97002 25.6153 10.0895 24.6542C9.09984 24.6542 2.3716 24.4284 2.20097 24.0752H22.7099V24.0868Z" fill="#52B0D8"/>
</svg>
