<svg width="52" height="50" viewBox="0 0 52 50" fill="none" xmlns="http://www.w3.org/2000/svg">
<path d="M40.6982 40.5885C40.6982 32.156 33.9084 25.3662 25.476 25.3662C19.8908 25.3662 14.9627 28.3778 12.3344 32.9226C12.3344 32.9226 10.0347 36.0985 10.0347 40.3147" stroke="#A42BB9" stroke-width="2" stroke-miterlimit="10" stroke-linecap="round" stroke-linejoin="round"/>
<path d="M25.4761 25.3663C30.6474 25.3663 34.8395 21.1742 34.8395 16.003C34.8395 10.8318 30.6474 6.63965 25.4761 6.63965C20.3049 6.63965 16.1128 10.8318 16.1128 16.003C16.1128 21.1742 20.3049 25.3663 25.4761 25.3663Z" stroke="#A42BB9" stroke-width="2" stroke-miterlimit="10" stroke-linecap="round" stroke-linejoin="round"/>
<path d="M17.6459 40.5889H2.86172C1.8761 40.5889 1 39.7675 1 38.7271V2.86172C1 1.82135 1.82135 1 2.86172 1H48.5833C49.5689 1 50.445 1.82135 50.445 2.86172V38.7819C50.445 39.7675 49.6237 40.6436 48.5833 40.6436H33.0325" stroke="#A42BB9" stroke-width="2" stroke-miterlimit="10" stroke-linecap="round" stroke-linejoin="round"/>
<path d="M29.1448 40.7533L23.2859 44.0934V37.3584L29.1448 40.7533Z" stroke="#A42BB9" stroke-width="2" stroke-miterlimit="10" stroke-linecap="round" stroke-linejoin="round"/>
<path d="M25.2571 48.1998C29.4606 48.1998 32.8683 44.7922 32.8683 40.5887C32.8683 36.3852 29.4606 32.9775 25.2571 32.9775C21.0536 32.9775 17.646 36.3852 17.646 40.5887C17.646 44.7922 21.0536 48.1998 25.2571 48.1998Z" stroke="#A42BB9" stroke-width="2" stroke-miterlimit="10" stroke-linecap="round" stroke-linejoin="round"/>
</svg>
