<svg width="308" height="338" viewBox="0 0 308 338" fill="none" xmlns="http://www.w3.org/2000/svg">
<path opacity="0.3" fill-rule="evenodd" clip-rule="evenodd" d="M118.486 273.293L117.053 274.088L114.982 270.591L116.416 269.796L118.486 273.293ZM121.99 279.494L120.556 280.289L118.486 276.791L119.919 275.996L121.99 279.494ZM125.493 285.535L124.06 286.33L121.99 282.833L123.423 282.038L125.493 285.535ZM128.997 291.736L127.564 292.531L125.493 289.033L126.927 288.238L128.997 291.736ZM132.501 297.777L131.067 298.572L128.997 295.074L130.43 294.279L132.501 297.777ZM136.163 303.977L134.73 304.772L132.66 301.275L134.093 300.48L136.163 303.977ZM139.667 310.019L138.234 310.814L136.163 307.316L137.597 306.521L139.667 310.019ZM143.171 316.219L141.737 317.014L139.667 313.516L141.1 312.722L143.171 316.219ZM146.674 322.261L145.241 323.055L143.171 319.558L144.604 318.763L146.674 322.261ZM150.178 328.461L148.745 329.256L146.674 325.758L148.108 324.963L150.178 328.461ZM189.673 273.293L191.744 269.796L193.177 270.591L191.107 274.088L189.673 273.293ZM186.17 279.494L188.24 275.996L189.673 276.791L187.603 280.289L186.17 279.494ZM182.666 285.535L184.736 282.038L186.17 282.833L184.099 286.33L182.666 285.535ZM179.003 291.736L181.073 288.238L182.507 289.033L180.436 292.531L179.003 291.736ZM175.499 297.777L177.57 294.279L179.003 295.074L176.933 298.572L175.499 297.777ZM171.996 303.977L174.066 300.48L175.499 301.275L173.429 304.772L171.996 303.977ZM168.492 310.019L170.563 306.521L171.996 307.316L169.926 310.814L168.492 310.019ZM164.989 316.219L167.059 312.722L168.492 313.516L166.422 317.014L164.989 316.219ZM161.326 322.261L163.396 318.763L164.829 319.558L162.759 323.055L161.326 322.261ZM157.822 328.461L159.892 324.963L161.326 325.758L159.255 329.256L157.822 328.461ZM153.841 334.502L152.407 335.297L150.337 331.8L151.77 331.005L153.841 334.502ZM155.752 335.297L154.319 334.502L156.389 331.005L157.822 331.8L155.752 335.297ZM93.0052 253.421V251.672H97.1458V253.421H93.0052ZM85.9979 253.421V251.672H90.1386V253.421H85.9979ZM78.9907 253.421V251.672H83.1313V253.421H78.9907ZM71.8242 253.421V251.672H75.9648V253.421H71.8242ZM64.817 253.421V251.672H68.9576V253.421H64.817ZM57.6505 253.421V251.672H61.7911V253.421H57.6505ZM50.6432 253.421V251.672H54.7839V253.421H50.6432ZM43.4767 253.421V251.672H47.6174V253.421H43.4767ZM36.4695 253.421V251.672H40.6101V253.421H36.4695ZM29.4623 253.421V251.672H33.4436V253.421H29.4623ZM22.2958 253.421V251.672H26.4364V253.421H22.2958ZM15.2885 253.421V251.672H19.4292V253.421H15.2885ZM10.1923 246.584L11.6256 247.379L9.55533 250.877L8.12203 250.082L10.1923 246.584ZM13.696 240.384L15.1293 241.179L13.2182 244.835L11.7849 244.04L13.696 240.384ZM17.3588 234.342L18.7921 235.137L16.7218 238.635L15.2885 237.84L17.3588 234.342ZM20.8625 228.301L22.2958 229.096L20.2254 232.594L18.7921 231.799L20.8625 228.301ZM24.5253 222.26L25.9586 223.055L23.8883 226.552L22.455 225.757L24.5253 222.26ZM28.1882 216.059L29.6215 216.854L27.5512 220.352L26.1179 219.557L28.1882 216.059ZM31.6918 210.018L33.1251 210.813L31.0548 214.31L29.6215 213.516L31.6918 210.018ZM35.3547 203.976L36.788 204.771L34.7177 208.269L33.2844 207.474L35.3547 203.976ZM39.0176 197.935L40.4509 198.73L38.3806 202.228L36.9473 201.433L39.0176 197.935ZM42.5212 191.735L43.9545 192.53L41.8842 196.027L40.4509 195.232L42.5212 191.735ZM46.1841 185.693L47.6174 186.488L45.5471 189.986L44.1138 189.191L46.1841 185.693ZM49.6877 179.652L51.121 180.447L49.0507 183.944L47.6174 183.15L49.6877 179.652ZM53.3506 173.611L54.7839 174.405L52.7135 177.903L51.2803 177.108L53.3506 173.611ZM61.9504 175.359L60.5171 176.154L58.4467 172.657L59.88 171.862L61.9504 175.359ZM65.454 181.56L64.0207 182.355L61.9504 178.857L63.3837 178.062L65.454 181.56ZM68.9576 187.601L67.5243 188.396L65.454 184.898L66.8873 184.103L68.9576 187.601ZM72.4612 193.802L71.0279 194.596L68.9576 191.099L70.3909 190.304L72.4612 193.802ZM76.1241 199.843L74.6908 200.638L72.6205 197.14L74.0538 196.345L76.1241 199.843ZM79.6277 206.043L78.1944 206.838L76.1241 203.341L77.5574 202.546L79.6277 206.043ZM83.1313 212.085L81.698 212.88L79.6277 209.382L81.061 208.587L83.1313 212.085ZM86.635 218.285L85.2017 219.08L83.1313 215.582L84.5646 214.787L86.635 218.285ZM90.1386 224.326L88.7053 225.121L86.635 221.624L88.0683 220.829L90.1386 224.326ZM93.8015 230.527L92.3681 231.322L90.2978 227.824L91.7311 227.029L93.8015 230.527ZM97.3051 236.568L95.8718 237.363L93.8015 233.865L95.2347 233.071L97.3051 236.568ZM92.3681 86.0103V84.2615H96.5088V86.0103H92.3681ZM85.3609 86.0103V84.2615H89.5015V86.0103H85.3609ZM71.1872 86.0103V84.2615H75.3278V86.0103H71.1872ZM64.0207 86.0103V84.2615H68.1613V86.0103H64.0207ZM57.0134 86.0103V84.2615H61.1541V86.0103H57.0134ZM50.0062 86.0103V84.2615H54.1468V86.0103H50.0062ZM42.8397 86.0103V84.2615H46.9804V86.0103H42.8397ZM35.8325 86.0103V84.2615H39.8139V86.0103H35.8325ZM28.666 86.0103V84.2615H32.8066V86.0103H28.666ZM21.6587 86.0103V84.2615H25.7994V86.0103H21.6587ZM14.4922 86.0103V84.2615H18.6329V86.0103H14.4922ZM11.9442 90.7799L10.5109 91.5748L8.44054 88.0771L9.87384 87.2822L11.9442 90.7799ZM15.607 96.8213L14.1737 97.6162L12.1034 94.1185L13.5367 93.3236L15.607 96.8213ZM19.1107 103.022L17.6774 103.817L15.607 100.319L17.0403 99.524L19.1107 103.022ZM22.7735 109.063L21.3402 109.858L19.2699 106.36L20.7032 105.565L22.7735 109.063ZM26.2771 115.104L24.8438 116.058L22.7735 112.561L24.2068 111.766L26.2771 115.104ZM29.94 121.146L28.5067 121.941L26.4364 118.443L27.8697 117.648L29.94 121.146ZM33.6029 127.346L32.1696 128.141L30.0993 124.643L31.5326 123.849L33.6029 127.346ZM37.1065 133.388L35.6732 134.183L33.6029 130.685L35.0362 129.89L37.1065 133.388ZM40.7694 139.429L39.3361 140.224L37.2658 136.726L38.6991 135.931L40.7694 139.429ZM44.4323 145.47L42.999 146.265L40.9286 142.768L42.3619 141.973L44.4323 145.47ZM47.9359 151.671L46.5026 152.466L44.4323 148.968L45.8656 148.173L47.9359 151.671ZM51.5988 157.712L50.1655 158.507L48.0951 155.009L49.5284 154.214L51.5988 157.712ZM55.1024 163.754L53.6691 164.548L51.5988 161.051L53.0321 160.256L55.1024 163.754ZM60.8356 160.733L62.2689 161.528L60.1986 165.025L58.7653 164.23L60.8356 160.733ZM64.4985 154.691L65.9318 155.486L63.8614 158.984L62.4281 158.189L64.4985 154.691ZM68.0021 148.65L69.4354 149.445L67.365 152.943L65.9318 152.148L68.0021 148.65ZM71.5057 142.45L72.939 143.245L70.8687 146.742L69.4354 145.947L71.5057 142.45ZM75.1686 136.408L76.6019 137.203L74.5315 140.701L73.0982 139.906L75.1686 136.408ZM78.6722 130.367L80.1055 131.162L78.0352 134.659L76.6019 133.865L78.6722 130.367ZM82.3351 124.167L83.7684 124.961L81.698 128.459L80.2647 127.664L82.3351 124.167ZM85.8387 118.125L87.272 118.92L85.2017 122.418L83.7684 121.623L85.8387 118.125ZM89.5015 112.084L90.9349 112.879L88.8645 116.376L87.4312 115.581L89.5015 112.084ZM93.0052 105.883L94.4385 106.678L92.3681 110.335L90.9349 109.54L93.0052 105.883ZM113.549 86.0103V84.2615H117.69V86.0103H113.549ZM142.534 253.421V251.672H146.674V253.421H142.534ZM121.353 253.421V251.672H125.493V253.421H121.353ZM114.345 253.421V251.672H118.486V253.421H114.345ZM214.995 253.421H210.854V251.672H214.995V253.421ZM222.161 253.421H218.021V251.672H222.161V253.421ZM229.169 253.421H225.028V251.672H229.169V253.421ZM236.335 253.421H232.194V251.672H236.335V253.421ZM243.342 253.421H239.202V251.672H243.342V253.421ZM250.35 253.421H246.209V251.672H250.35V253.421ZM257.516 253.421H253.375V251.672H257.516V253.421ZM264.523 253.421H260.383V251.672H264.523V253.421ZM271.69 253.421H267.549V251.672H271.69V253.421ZM278.697 253.421H274.556V251.672H278.697V253.421ZM285.863 253.421H281.723V251.672H285.863V253.421ZM292.871 253.421H288.73V251.672H292.871V253.421ZM297.967 246.584L300.037 250.082L298.604 250.877L296.534 247.379L297.967 246.584ZM294.304 240.384L296.374 243.881L294.941 244.676L292.871 241.179L294.304 240.384ZM290.8 234.342L292.871 237.84L291.437 238.635L289.367 235.137L290.8 234.342ZM287.138 228.301L289.208 231.799L287.775 232.594L285.704 229.096L287.138 228.301ZM283.634 222.26L285.704 225.757L284.271 226.552L282.201 223.055L283.634 222.26ZM279.971 216.059L282.041 219.557L280.608 220.352L278.538 216.854L279.971 216.059ZM276.308 210.018L278.379 213.516L276.945 214.31L274.875 210.813L276.308 210.018ZM272.805 203.976L274.875 207.474L273.442 208.269L271.371 204.771L272.805 203.976ZM269.142 197.935L271.212 201.433L269.779 202.228L267.708 198.73L269.142 197.935ZM265.479 191.735L267.549 195.232L266.116 196.027L264.046 192.53L265.479 191.735ZM261.975 185.693L264.046 189.191L262.612 189.986L260.542 186.488L261.975 185.693ZM258.312 179.652L260.383 183.15L258.949 183.944L256.879 180.447L258.312 179.652ZM254.809 173.611L256.879 177.108L255.446 177.903L253.375 174.405L254.809 173.611ZM246.209 175.359L248.279 171.862L249.713 172.657L247.642 176.154L246.209 175.359ZM242.546 181.56L244.616 178.062L246.05 178.857L243.979 182.355L242.546 181.56ZM239.042 187.601L241.113 184.103L242.546 184.898L240.476 188.396L239.042 187.601ZM235.539 193.802L237.609 190.304L239.042 191.099L236.972 194.596L235.539 193.802ZM232.035 199.843L234.105 196.345L235.539 197.14L233.468 200.638L232.035 199.843ZM228.532 206.043L230.602 202.546L232.035 203.341L229.965 206.838L228.532 206.043ZM225.028 212.085L227.098 208.587L228.532 209.382L226.461 212.88L225.028 212.085ZM221.365 218.285L223.435 214.787L224.869 215.582L222.798 219.08L221.365 218.285ZM217.861 224.326L219.932 220.829L221.365 221.624L219.295 225.121L217.861 224.326ZM214.358 230.527L216.428 227.029L217.861 227.824L215.791 231.322L214.358 230.527ZM210.854 236.568L212.925 233.071L214.358 233.865L212.288 237.363L210.854 236.568ZM215.791 86.0103H211.65V84.2615H215.791V86.0103ZM222.798 86.0103H218.658V84.2615H222.798V86.0103ZM236.972 86.0103H232.831V84.2615H236.972V86.0103ZM243.979 86.0103H239.839V84.2615H243.979V86.0103ZM251.146 86.0103H247.005V84.2615H251.146V86.0103ZM258.153 86.0103H254.012V84.2615H258.153V86.0103ZM265.16 86.0103H261.179V84.2615H265.32V86.0103H265.16ZM272.327 86.0103H268.186V84.2615H272.327V86.0103ZM279.334 86.0103H275.193V84.2615H279.334V86.0103ZM286.501 86.0103H282.36V84.2615H286.501V86.0103ZM293.508 86.0103H289.367V84.2615H293.508V86.0103ZM296.215 90.7799L298.285 87.2822L299.719 88.0771L297.648 91.5748L296.215 90.7799ZM292.552 96.8213L294.623 93.3236L296.056 94.1185L293.986 97.6162L292.552 96.8213ZM288.889 103.022L290.96 99.524L292.393 100.319L290.323 103.817L288.889 103.022ZM285.386 109.063L287.456 105.565L288.889 106.36L286.819 109.858L285.386 109.063ZM281.723 115.104L283.793 111.607L285.226 112.402L283.156 115.899L281.723 115.104ZM278.219 121.146L280.29 117.648L281.723 118.443L279.653 121.941L278.219 121.146ZM274.556 127.346L276.627 123.849L278.06 124.643L275.99 128.141L274.556 127.346ZM270.893 133.388L272.964 129.89L274.397 130.685L272.327 134.183L270.893 133.388ZM267.39 139.429L269.46 135.931L270.893 136.726L268.823 140.224L267.39 139.429ZM263.727 145.47L265.797 141.973L267.231 142.768L265.16 146.265L263.727 145.47ZM260.064 151.671L262.134 148.173L263.568 148.968L261.497 152.466L260.064 151.671ZM256.561 157.712L258.631 154.214L260.064 155.009L257.994 158.507L256.561 157.712ZM252.898 163.754L254.968 160.256L256.401 161.051L254.331 164.548L252.898 163.754ZM247.164 160.733L249.235 164.23L247.801 165.025L245.731 161.528L247.164 160.733ZM243.661 154.691L245.731 158.189L244.298 158.984L242.228 155.486L243.661 154.691ZM240.157 148.65L242.228 152.148L240.794 152.943L238.724 149.445L240.157 148.65ZM236.494 142.45L238.565 145.947L237.131 146.742L235.061 143.245L236.494 142.45ZM232.991 136.408L235.061 139.906L233.628 140.701L231.557 137.203L232.991 136.408ZM229.328 130.367L231.398 133.865L229.965 134.659L227.895 131.162L229.328 130.367ZM225.824 124.167L227.895 127.664L226.461 128.459L224.391 124.961L225.824 124.167ZM222.321 118.125L224.391 121.623L222.958 122.418L220.887 118.92L222.321 118.125ZM218.658 112.084L220.728 115.581L219.295 116.376L217.224 112.879L218.658 112.084ZM215.154 105.883L217.224 109.381L215.791 110.176L213.721 106.678L215.154 105.883ZM194.451 86.0103H190.31V84.2615H194.451V86.0103ZM165.466 253.421H161.326V251.672H165.466V253.421ZM186.807 253.421H182.666V251.672H186.807V253.421ZM193.814 253.421H189.673V251.672H193.814V253.421ZM120.875 55.9624L122.308 56.7573L120.238 60.2549L118.805 59.46L120.875 55.9624ZM124.538 49.921L125.971 50.7159L123.901 54.2135L122.467 53.4186L124.538 49.921ZM128.041 43.7206L129.475 44.5155L127.404 48.1722L125.971 47.3772L128.041 43.7206ZM131.704 37.6792L133.138 38.4741L131.067 41.9718L129.634 41.1769L131.704 37.6792ZM135.208 31.6378L136.641 32.4327L134.571 35.9304L133.138 35.1355L135.208 31.6378ZM138.871 25.4374L140.304 26.2324L138.234 29.73L136.8 28.9351L138.871 25.4374ZM142.374 19.396L143.808 20.191L141.897 23.8476L140.463 23.0527L142.374 19.396ZM146.037 13.3547L147.471 14.1496L145.4 17.6472L143.967 16.8523L146.037 13.3547ZM149.541 7.31326L150.974 8.10818L148.904 11.6058L147.471 10.8109L149.541 7.31326ZM187.284 55.9624L189.355 59.46L187.921 60.2549L185.851 56.7573L187.284 55.9624ZM183.622 49.921L185.692 53.4186L184.259 54.2135L182.188 50.7159L183.622 49.921ZM179.959 43.7206L182.029 47.2183L180.596 48.0132L178.525 44.5155L179.959 43.7206ZM176.455 37.6792L178.525 41.1769L177.092 41.9718L175.022 38.4741L176.455 37.6792ZM172.792 31.6378L174.862 35.1355L173.429 35.9304L171.359 32.4327L172.792 31.6378ZM169.289 25.4374L171.359 28.9351L169.926 29.73L167.855 26.2324L169.289 25.4374ZM165.626 19.396L167.696 22.8937L166.263 23.6886L164.192 20.191L165.626 19.396ZM162.122 13.3547L164.192 16.8523L162.759 17.6472L160.689 14.1496L162.122 13.3547ZM158.459 7.31326L160.529 10.8109L159.096 11.6058L157.026 8.10818L158.459 7.31326ZM154.956 1.27187L157.026 4.61054L155.593 5.40546L154.159 3.0207L152.726 5.40546L151.293 4.61054L153.363 1.27187L154.319 1.74882L154.956 1.27187ZM151.77 203.023H152.089V200.956H125.812V201.274C125.493 202.864 124.856 204.453 124.06 205.884L123.901 206.202L135.208 213.039L135.367 212.721C136.163 211.608 137.119 210.495 138.074 209.541C141.897 205.725 146.674 203.5 151.77 203.023ZM134.571 67.7272L134.412 67.4092L124.378 73.1326L124.538 73.4506C125.812 76.3123 126.449 79.333 126.449 82.3537C126.449 82.6717 126.449 82.8307 126.449 83.1486V83.4666H152.089V79.0151H151.77C146.674 78.5381 141.897 76.1533 138.234 72.6557C136.8 71.0658 135.526 69.476 134.571 67.7272ZM135.208 179.811L135.049 179.493L124.219 185.852L124.378 186.17C125.812 189.191 126.608 192.53 126.608 195.868C126.608 196.345 126.608 196.822 126.608 197.299V197.617H152.248V190.145H151.93C146.834 189.668 142.056 187.283 138.393 183.786C137.119 182.514 136.004 181.242 135.208 179.811ZM126.29 141.337V141.655C125.971 144.834 124.856 148.014 123.264 150.717L122.945 151.035L133.934 157.712L134.093 157.394C135.208 155.486 136.482 153.579 138.074 151.989C139.03 151.035 139.986 150.24 140.941 149.604L141.26 149.445L136.482 141.337H126.29ZM134.412 222.26L134.093 222.101V222.578C133.934 223.532 133.934 224.326 133.934 225.28C133.934 226.234 133.934 227.029 134.093 227.983V228.46L134.412 228.301C137.597 227.188 140.941 226.234 144.285 225.598L146.196 225.28L144.285 224.962C140.941 224.326 137.597 223.532 134.412 222.26ZM131.864 221.624V221.306L131.704 221.147C126.927 219.08 122.467 216.377 118.486 213.198L118.327 213.039L118.168 213.198C117.69 213.516 117.371 213.833 116.893 214.151L116.734 214.31L126.29 231.958L126.608 231.799C127.245 231.481 127.723 231.163 128.36 230.845C129.475 230.209 130.749 229.732 131.864 229.255L132.023 229.096V228.778C131.863 227.506 131.704 226.393 131.704 225.121C131.704 224.008 131.704 222.737 131.864 221.624ZM112.434 213.833L112.594 214.31L112.912 214.151C114.186 213.516 115.301 212.88 116.256 212.085L116.575 211.767L116.256 211.449C115.46 210.654 114.664 210.018 113.868 209.223C112.753 208.11 111.638 206.997 110.683 205.725L109.408 204.294L110.046 206.043C111.16 208.587 111.797 211.131 112.434 213.833ZM110.842 243.722L110.364 245.312L111.479 244.04C114.982 240.066 118.805 236.727 123.264 233.865L123.582 233.706L113.868 216.059L113.071 216.377V216.695C113.549 219.716 113.868 222.896 113.868 225.916C113.868 229.891 113.39 233.865 112.594 237.681C112.116 239.589 111.479 241.656 110.842 243.722ZM105.746 251.513L106.223 252.308L107.975 248.492C109.568 244.994 110.683 241.338 111.479 237.522C112.275 233.706 112.753 229.891 112.753 225.916C112.753 223.055 112.594 220.034 112.116 217.172V216.854L111.797 217.013C109.408 217.808 106.86 218.285 104.153 218.285C102.561 218.285 100.968 218.126 99.3754 217.808H99.0569V218.126C98.7384 220.511 98.5791 222.737 98.5791 225.121C98.5791 231.958 99.8531 238.794 102.242 245.153L102.401 245.471H102.561L104.631 248.969L104.153 249.287L104.312 249.605C104.631 250.241 104.949 251.036 105.427 251.672L105.586 251.99L105.746 251.513ZM105.586 198.571L105.268 198.094L104.949 198.571C102.083 203.818 100.172 209.382 99.2161 215.105V215.423H99.5346C100.968 215.741 102.561 215.9 104.153 215.9C106.701 215.9 109.09 215.423 111.479 214.628V214.31C110.364 208.746 108.294 203.5 105.586 198.571ZM90.2978 181.242L90.1386 181.083L89.6608 181.56C85.8387 185.375 83.7684 190.463 83.7684 195.868C83.7684 201.274 85.8387 206.361 89.6608 210.177C91.8904 212.403 94.757 214.151 97.7828 215.105L98.1013 215.264V214.946C99.2161 208.746 101.446 202.864 104.472 197.299L104.631 197.14L104.472 196.981C102.242 193.166 99.3754 189.668 96.3495 186.647C94.4385 184.58 92.5274 182.832 90.2978 181.242ZM101.605 94.5955L100.968 95.7084C100.331 97.6162 99.8532 99.683 99.3754 101.591V101.909H99.6939C101.127 102.227 102.561 102.386 103.994 102.386C106.383 102.386 108.771 101.909 111.001 101.114L111.32 100.955V100.637C110.205 95.5494 108.294 90.4619 105.746 85.8514L105.427 85.3744L105.109 85.8514C104.79 86.3283 104.631 86.8053 104.312 87.2822L104.153 87.6002L105.268 88.2361L103.198 91.7338L102.561 91.2568L102.401 91.5748C102.083 92.3697 101.764 93.0056 101.605 93.8006L101.446 94.1185L101.605 94.5955ZM98.4199 117.012V117.33L98.7384 117.171C99.8532 116.853 100.809 116.694 101.923 116.694H102.242V104.611H101.923C100.968 104.452 100.012 104.452 99.2161 104.135H98.8976V104.452C98.5791 107.155 98.2606 109.858 98.2606 112.561C98.2606 114.151 98.4199 115.581 98.4199 117.012ZM105.109 139.429L105.427 139.906L105.746 139.429C106.064 138.793 106.542 138.316 106.86 137.68C109.408 132.434 111.16 126.71 111.957 120.828V120.51L111.797 120.351C109.249 119.397 106.701 118.761 103.994 118.761C102.242 118.761 100.649 118.92 99.0569 119.397H98.7384V119.715C99.6939 126.71 101.764 133.229 105.109 139.429ZM111.797 118.125L112.275 118.284V117.807C112.434 116.217 112.434 114.627 112.434 113.038C112.434 109.858 112.116 106.837 111.638 103.658V103.34L111.32 103.499C109.568 104.135 107.816 104.452 105.905 104.611H105.586V116.694H105.905C107.975 117.012 109.886 117.489 111.797 118.125ZM99.2161 161.051H98.8976V161.369C98.5791 163.913 98.4199 166.615 98.4199 169.159C98.4199 170.749 98.4199 172.339 98.5791 173.77V174.087L98.8976 173.929C100.012 173.611 100.968 173.452 102.083 173.452H102.401V161.369H102.083C101.127 161.369 100.172 161.21 99.2161 161.051ZM117.69 181.401L118.008 181.083L117.69 180.765C113.868 177.267 109.09 175.359 103.994 175.359C102.401 175.359 100.649 175.518 99.0569 175.995H98.7384V176.313C99.6939 182.991 101.764 189.35 104.949 195.232L105.268 195.709L105.586 195.232C107.975 191.417 110.683 187.76 114.027 184.58C115.142 183.627 116.416 182.514 117.69 181.401ZM134.093 171.544V171.862L134.412 171.703C137.597 170.59 140.782 169.636 144.126 169.159L146.037 168.841L144.126 168.523C140.782 167.887 137.437 167.092 134.093 165.82L133.615 165.661V166.138C133.615 166.774 133.615 167.251 133.615 167.887C133.775 169 133.934 170.272 134.093 171.544ZM119.442 179.652L119.601 179.811L119.76 179.652C123.423 176.79 127.564 174.564 131.704 172.657L132.023 172.498V172.18C131.704 170.749 131.545 169.159 131.545 167.569C131.545 166.615 131.545 165.661 131.704 164.866V164.548L131.545 164.389C126.767 162.323 122.308 159.62 118.168 156.281L118.008 156.122L117.849 156.599C114.345 159.302 110.205 160.892 105.905 161.369H105.586V173.452H105.905C111.001 173.928 115.779 176.154 119.442 179.652ZM103.994 144.516C101.764 148.968 100.172 153.579 99.3754 158.507V158.825H99.6939C101.127 159.143 102.561 159.302 104.153 159.302C108.453 159.302 112.753 157.871 116.256 155.327L116.575 155.168L116.256 154.85C115.46 154.214 114.823 153.42 114.027 152.784C111.001 149.763 108.294 146.265 105.905 142.609L105.586 142.132L105.268 142.609C104.949 143.245 104.472 143.881 103.994 144.516ZM97.7828 176.949V176.631L97.4643 176.79C95.2347 177.585 93.1644 178.698 91.2534 180.288L90.9349 180.606L91.2534 180.924C93.3237 182.514 95.2347 184.262 97.1458 186.011C98.2606 187.124 99.3754 188.237 100.331 189.509L101.605 190.94L100.968 189.191C99.3754 185.057 98.4199 181.083 97.7828 176.949ZM97.9421 158.348L98.2606 158.507V158.189C98.7384 155.486 99.5346 152.943 100.49 150.24L101.127 148.65L100.012 149.922C99.0569 151.035 98.1013 152.148 96.9866 153.261C96.031 154.214 94.9162 155.168 93.8015 156.122L93.4829 156.44L93.8015 156.599C95.0755 157.394 96.5088 158.03 97.9421 158.348ZM88.8645 179.016L89.0238 179.175L89.183 179.016C91.5719 176.949 94.2792 175.518 97.1458 174.564H97.4643V174.246C97.3051 172.498 97.3051 170.908 97.3051 169.159C97.3051 166.456 97.4643 163.754 97.9421 161.051V160.733L97.6236 160.574C95.5533 159.938 93.6422 159.143 91.8904 157.871L91.7311 157.712L91.5719 157.871C83.9276 163.754 75.0093 167.569 65.454 169L63.2244 169.318L65.454 169.636C73.7353 171.067 81.8573 174.246 88.8645 179.016ZM97.7828 120.192V119.874L97.4643 120.033C94.5977 120.987 91.8904 122.736 89.8201 124.802C85.9979 128.618 83.9276 133.706 83.9276 139.111C83.9276 144.516 85.9979 149.604 89.8201 153.42C90.6163 154.214 91.5719 155.009 92.5274 155.645L92.6867 155.804L92.8459 155.645C93.9607 154.691 95.2347 153.579 96.3495 152.466C98.8976 149.922 101.286 147.06 103.198 144.04C103.675 143.086 104.312 141.973 104.79 141.019L104.949 140.86L104.79 140.701C101.127 134.341 98.7384 127.505 97.7828 120.192ZM58.7653 167.728L58.1282 168.682H58.7653C70.2316 168.205 81.2203 164.389 90.4571 157.394L90.7756 157.076L90.4571 156.758C89.6608 156.122 88.8645 155.486 88.0683 154.691C83.9276 150.558 81.5388 144.834 81.5388 138.793C81.5388 132.911 83.9276 127.187 88.0683 122.895C90.6163 120.351 93.8015 118.443 97.1458 117.33H97.4643V117.012C97.3051 115.422 97.3051 113.833 97.3051 112.243C97.3051 109.381 97.4643 106.519 97.9421 103.817V103.499L97.6236 103.34C97.3051 103.181 96.9866 103.181 96.668 103.022L96.3495 102.863L95.8718 103.658L94.4385 103.34L94.757 102.863L94.4385 102.704C92.0496 101.591 89.9793 100.16 88.0683 98.2521C84.8831 95.0724 82.6536 90.7799 81.8573 86.3283V86.0103H78.1944V84.2615H81.5388V83.9436C81.5388 83.4666 81.5388 82.9897 81.5388 82.3537C81.5388 76.6303 83.6091 71.3838 87.4312 67.0913L87.7497 66.7733L87.4312 66.6143C78.3537 60.5729 67.6836 57.3932 56.6949 57.3932C41.8842 57.3932 27.7104 63.2756 17.3588 73.7686C14.333 76.7893 11.6256 80.1279 9.39607 83.7846L9.07756 84.2615H11.4664V86.0103H8.12203L7.96277 86.1693C3.34436 94.4365 0.955533 103.658 0.955533 113.197C0.955533 127.982 6.84798 142.132 17.3588 152.466C27.5512 162.641 41.0879 168.364 55.5801 168.682H56.2172L55.2616 167.092L56.6949 166.297L57.1727 167.092L57.332 166.933L58.7653 167.728ZM110.364 131.957L109.727 133.547L110.842 132.275C111.797 131.162 112.753 130.049 113.868 128.936C115.301 127.505 116.734 126.233 118.168 125.12L118.486 124.961L118.168 124.643C116.734 123.213 115.142 122.1 113.39 121.146L113.071 120.987V121.464C112.434 124.961 111.479 128.618 110.364 131.957ZM113.231 118.443V118.602L113.39 118.761C115.779 119.874 117.849 121.305 119.76 123.213L120.079 123.531L120.238 123.372C121.512 122.418 122.627 121.623 123.901 120.828L124.219 120.669L113.549 102.545L113.231 102.704C113.071 102.863 112.912 102.863 112.753 102.863L112.594 103.022V103.34C113.231 106.519 113.39 109.858 113.39 113.197C113.549 114.945 113.39 116.694 113.231 118.443ZM117.849 100.319L117.69 100.16L117.531 100.319C117.371 100.478 117.053 100.637 116.893 100.796L116.575 100.955L127.245 119.079L127.564 118.92C132.978 116.058 138.711 114.151 144.604 113.197L146.515 112.879L144.604 112.561C134.73 110.971 125.493 106.678 117.849 100.319ZM112.116 100.478L112.275 100.796L112.594 100.637C113.708 100.16 114.664 99.524 115.619 98.8881L115.938 98.7291L115.619 98.4111C114.982 97.9342 114.505 97.2982 113.868 96.6623C112.753 95.5494 111.638 94.2775 110.523 93.0056L109.249 91.5748L109.886 93.3236C110.842 95.7084 111.638 98.0931 112.116 100.478ZM121.353 67.5682L121.034 67.8862L121.193 68.2041C121.99 69.158 122.627 70.112 123.264 71.0659L123.423 71.3838L133.456 65.6604L133.297 65.3424C132.819 64.2295 132.501 63.1167 132.182 61.8448V61.5268L131.864 61.6858C128.041 63.2756 124.538 65.1834 121.353 67.5682ZM110.683 86.0103H106.701L107.02 86.4873C109.249 89.985 111.797 93.1646 114.664 96.0263C115.301 96.6623 115.938 97.2982 116.575 97.9342L116.734 98.0931L116.893 97.9342C117.371 97.6162 117.849 97.1392 118.168 96.6623C121.034 93.8006 122.945 90.3029 123.741 86.3283V86.0103H120.556V84.2615H124.219V83.9436C124.219 83.4666 124.219 82.8307 124.219 82.3537C124.219 77.5842 122.627 72.9737 119.442 69.317L119.282 68.9991L118.964 69.158C117.371 70.4299 115.938 71.7018 114.505 73.1326C111.797 75.8354 109.408 78.8561 107.338 82.0357L106.223 84.2615H110.683V86.0103ZM151.611 112.243H151.93V86.8053H125.971V87.1232C125.016 91.4158 122.945 95.2314 119.919 98.2521C119.601 98.5701 119.123 98.8881 118.805 99.365L118.486 99.683L118.805 100.001C128.041 107.314 139.667 111.766 151.611 112.243ZM128.041 119.874L127.723 120.033L138.711 138.634H152.089V113.515H151.77C143.489 113.833 135.367 116.058 128.041 119.874ZM121.193 124.167L120.875 124.325L121.034 124.643C124.219 128.459 126.13 133.229 126.29 138.316V138.634H134.889L124.856 121.623L124.538 121.782C123.423 122.577 122.308 123.372 121.193 124.167ZM119.442 125.915L119.282 125.597L118.964 125.756C117.531 127.028 116.097 128.3 114.664 129.572C112.116 132.116 109.727 134.977 107.816 137.998C107.338 138.952 106.86 139.906 106.383 140.701L106.223 140.86L106.383 141.019C108.771 144.993 111.479 148.491 114.823 151.671C115.619 152.466 116.416 153.261 117.212 153.897L117.371 154.055L117.531 153.897C117.849 153.579 118.168 153.42 118.486 153.102C122.308 149.286 124.378 144.199 124.378 138.793C124.219 134.183 122.467 129.572 119.442 125.915ZM131.545 163.595L131.864 163.754L132.023 163.277C132.182 162.323 132.501 161.21 132.819 160.256L132.978 159.938L121.353 152.943L121.193 153.102C120.716 153.579 120.238 154.214 119.76 154.691C119.601 154.85 119.282 155.168 119.123 155.327L118.964 155.804L119.282 155.963C122.945 159.143 127.245 161.687 131.545 163.595ZM120.716 180.447L120.397 180.606L120.716 180.924C121.353 181.56 121.83 182.196 122.308 182.991L122.467 183.309L133.456 176.79L133.297 176.472C132.978 175.677 132.66 174.882 132.501 174.087L132.341 173.77L132.023 173.929C128.041 175.518 124.219 177.744 120.716 180.447ZM117.212 210.813L117.371 210.972L117.531 210.813C117.849 210.654 118.008 210.336 118.327 210.177C122.149 206.361 124.219 201.274 124.219 195.868C124.219 190.781 122.308 185.852 118.805 182.196L118.645 182.037L118.327 182.196C117.053 183.309 115.779 184.421 114.505 185.693C111.16 189.032 108.134 192.848 105.746 196.981L105.586 197.14L105.746 197.299C105.905 197.458 105.905 197.617 105.905 197.776C108.294 201.751 111.16 205.407 114.345 208.587C115.46 209.223 116.256 210.018 117.212 210.813ZM131.864 220.193L132.182 220.352L132.341 220.034C132.66 218.762 133.138 217.331 133.615 216.059L133.775 215.741L122.308 208.746L122.149 209.064C121.512 210.018 120.716 210.813 119.919 211.608C119.76 211.767 119.601 211.926 119.442 212.085L119.123 212.403L119.442 212.562C123.104 215.741 127.404 218.126 131.864 220.193ZM149.7 251.672H152.089V247.538H151.77C146.674 247.061 141.897 244.676 138.234 241.179C135.367 238.317 133.297 234.66 132.341 230.686L132.182 230.368L131.864 230.527C130.749 231.004 129.793 231.481 128.678 231.958C128.041 232.276 127.564 232.594 126.927 232.912L126.608 233.071L136.8 251.831H139.508V253.579H137.756L143.011 263.278L143.33 263.119C145.878 261.688 148.745 260.893 151.611 260.575H151.93V253.579H149.7V251.672ZM97.6236 63.5936V63.1167L97.3051 63.2756C94.9162 64.0706 92.6867 65.5014 90.6163 67.0913L90.2978 67.4092L90.6163 67.7272C92.8459 69.317 94.9162 71.2248 96.8273 73.1326C97.9421 74.2455 99.0569 75.5174 100.172 76.7893L101.446 78.2201L100.809 76.3123C99.2161 72.1787 98.2606 67.8862 97.6236 63.5936ZM113.071 72.4967L111.638 71.5428L113.708 68.0452L115.142 68.8401L113.071 72.4967ZM106.542 80.2869L107.179 80.6049L107.338 80.2869C107.816 79.651 108.294 79.0151 108.771 78.3791L108.931 78.0611L107.975 77.5842L110.046 74.0865L111.479 74.8815L111.638 74.7225C112.116 74.0865 112.753 73.6096 113.231 72.9737L113.39 72.8147L113.708 72.4967C115.142 71.0658 116.575 69.794 118.168 68.5221L118.486 68.3631L118.168 68.0452C117.212 67.0913 116.256 66.2963 115.142 65.5014L114.823 65.3424C111.479 63.2756 107.816 62.1627 103.835 62.1627C102.083 62.1627 100.49 62.3217 98.7384 62.7987H98.4199V63.1167C99.2161 69.953 101.286 76.4713 104.472 82.5127L104.79 82.9896L106.542 80.2869ZM156.07 203.023H156.389C161.485 203.5 166.263 205.884 169.926 209.382C170.881 210.336 171.837 211.449 172.633 212.562L172.792 212.88L184.099 206.043L183.94 205.725C183.144 204.294 182.666 202.705 182.188 201.115V200.797H156.07V203.023ZM173.748 67.4092L173.588 67.7272C172.633 69.476 171.359 71.0658 169.926 72.4967C166.263 76.1533 161.485 78.3791 156.389 78.8561H156.07V83.3076H181.71V82.9896C181.71 82.6717 181.71 82.5127 181.71 82.1947C181.71 79.174 182.347 76.1533 183.622 73.2916L183.781 72.9737L173.748 67.4092ZM173.111 179.493L172.951 179.811C171.996 181.242 171.04 182.514 169.926 183.627C166.263 187.283 161.485 189.509 156.389 189.986H156.07V197.458H181.71V197.14C181.71 196.663 181.71 196.186 181.71 195.709C181.71 192.371 182.507 189.032 183.94 186.011L184.099 185.693L173.111 179.493ZM181.87 141.655V141.337H171.677L166.9 149.445L167.218 149.604C168.174 150.399 169.129 151.194 170.085 151.989C171.677 153.579 172.951 155.327 174.066 157.394L174.225 157.712L185.214 151.035L185.055 150.717C183.303 147.855 182.188 144.834 181.87 141.655ZM174.066 222.578V222.101L173.748 222.26C170.563 223.373 167.218 224.326 163.874 224.962L161.963 225.28L163.874 225.598C167.218 226.234 170.563 227.029 173.748 228.301L174.066 228.46V227.983C174.225 227.029 174.225 226.234 174.225 225.28C174.385 224.326 174.225 223.373 174.066 222.578ZM189.992 213.198L189.832 213.039L189.673 213.198C185.692 216.377 181.233 219.08 176.455 221.147L176.296 221.306V221.624C176.455 222.896 176.614 224.008 176.614 225.28C176.614 226.552 176.455 227.824 176.296 228.937V229.255L176.455 229.414C177.729 229.891 178.844 230.527 179.959 231.004C180.596 231.322 181.073 231.64 181.71 231.958L182.029 232.117L191.584 214.469L191.425 214.31C190.788 213.833 190.469 213.516 189.992 213.198ZM191.744 211.449L191.425 211.767L191.744 212.085C192.858 212.88 193.973 213.516 195.088 214.151L195.406 214.31L195.566 213.833C196.203 211.131 196.84 208.587 197.795 206.043L198.432 204.294L197.158 205.725C196.203 206.997 195.088 208.11 193.973 209.223C193.495 210.018 192.699 210.654 191.744 211.449ZM196.68 244.04L197.795 245.312L197.317 243.722C196.68 241.656 196.043 239.748 195.725 237.681C194.929 233.865 194.451 229.891 194.451 225.916C194.451 222.896 194.769 219.716 195.247 216.695V216.377L194.451 216.059L184.736 233.706L185.055 233.865C189.355 236.727 193.336 240.066 196.68 244.04ZM205.758 245.312L206.077 244.994C208.625 238.635 209.739 231.799 209.739 224.962C209.739 222.578 209.58 220.352 209.262 217.967V217.649H208.943C207.351 217.967 205.758 218.126 204.165 218.126C201.617 218.126 199.069 217.649 196.521 216.854L196.203 216.695V217.013C195.725 219.875 195.566 222.737 195.566 225.757C195.566 229.573 195.884 233.548 196.84 237.363C197.636 241.179 198.91 244.835 200.343 248.333L202.095 252.149L202.573 251.354L203.21 251.672L203.369 251.354C203.688 250.718 204.165 249.923 204.484 249.287L204.643 248.969L204.165 248.651L205.758 245.312ZM203.21 198.571L202.891 198.094L202.573 198.571C199.866 203.5 197.795 208.746 196.68 214.31V214.628L196.999 214.787C199.388 215.741 201.777 216.059 204.325 216.059C205.917 216.059 207.351 215.9 208.943 215.582H209.262V215.264C207.828 209.382 205.917 203.818 203.21 198.571ZM203.528 196.822L203.369 196.981L203.528 197.14C206.554 202.546 208.784 208.587 209.899 214.787V215.105L210.217 214.946C213.243 213.992 216.11 212.244 218.339 210.018C222.161 206.202 224.232 201.115 224.232 195.709C224.232 190.304 222.161 185.216 218.339 181.401L217.861 180.924L217.702 181.083C215.632 182.673 213.562 184.421 211.65 186.329C208.625 189.668 205.917 193.166 203.528 196.822ZM202.891 88.5541L204.006 87.9182L203.847 87.6002C203.688 87.1232 203.369 86.6463 203.051 86.1693L202.732 85.6924L202.414 86.1693C199.866 90.7799 197.954 95.7084 196.84 100.955V101.273L197.158 101.432C199.388 102.227 201.777 102.704 204.165 102.704C205.599 102.704 207.032 102.545 208.465 102.227H208.784V101.909C208.306 99.842 207.828 97.9342 207.191 96.0263L206.554 94.9135L206.873 94.7545L206.714 94.4365C206.395 93.6416 206.236 93.0056 205.917 92.2107L205.758 91.8928L205.121 92.3697L202.891 88.5541ZM209.262 117.33L209.58 117.489V117.171C209.739 115.74 209.739 114.31 209.739 112.879C209.739 110.176 209.58 107.473 209.102 104.77V104.452H208.784C207.828 104.611 206.873 104.77 206.077 104.929H205.758V117.012H206.077C207.032 116.853 208.147 117.012 209.262 117.33ZM196.362 120.351L196.203 120.51V120.828C196.999 126.71 198.751 132.434 201.299 137.68C201.617 138.316 202.095 138.793 202.414 139.429L202.732 139.906L203.051 139.429C206.395 133.388 208.465 126.71 209.421 119.874V119.556H209.102C207.51 119.079 205.758 118.92 204.165 118.92C201.458 118.92 198.751 119.397 196.362 120.351ZM195.725 117.807V118.284L196.203 118.125C198.114 117.489 200.184 117.012 202.095 116.853H202.414V104.77H202.095C200.343 104.611 198.432 104.294 196.68 103.658L196.362 103.499V103.817C195.884 106.837 195.566 110.017 195.566 113.197C195.566 114.627 195.725 116.217 195.725 117.807ZM209.262 174.087L209.58 174.246V173.929C209.739 172.339 209.739 170.908 209.739 169.318C209.739 166.615 209.58 164.071 209.262 161.528V161.21H208.943C207.988 161.369 207.032 161.528 206.077 161.687H205.758V173.77H206.077C207.032 173.611 208.147 173.77 209.262 174.087ZM190.469 180.924L190.151 181.242L190.469 181.56C191.744 182.673 193.018 183.786 194.292 185.057C197.477 188.237 200.343 191.894 202.732 195.709L203.051 196.186L203.369 195.709C206.554 189.827 208.625 183.468 209.58 176.79V176.472H209.262C207.669 175.995 205.917 175.836 204.325 175.836C199.069 175.677 194.132 177.426 190.469 180.924ZM174.225 166.138V165.661L173.748 165.82C170.563 167.092 167.218 167.887 163.715 168.523L161.804 168.841L163.715 169.159C167.059 169.795 170.244 170.59 173.429 171.703L173.748 171.862V171.544C173.907 170.272 174.066 169.159 174.066 167.887C174.385 167.251 174.225 166.615 174.225 166.138ZM188.24 179.652L188.399 179.811L188.558 179.652C192.221 176.154 196.999 173.928 202.095 173.611H202.414V161.528H202.095C197.795 161.21 193.655 159.461 190.151 156.758L189.992 156.599L189.832 156.758C185.851 160.097 181.233 162.8 176.455 164.866L176.296 165.025V165.343C176.455 166.297 176.455 167.251 176.455 168.046C176.455 169.636 176.296 171.067 175.977 172.657V172.975L176.296 173.134C180.436 174.564 184.418 176.949 188.24 179.652ZM208.465 158.825H208.784V158.507C207.828 153.738 206.236 148.968 204.165 144.675C203.688 144.04 203.369 143.404 202.891 142.768L202.573 142.291L202.254 142.768C200.025 146.424 197.317 149.922 194.132 152.943C193.336 153.738 192.699 154.373 191.903 155.009L191.584 155.327L191.903 155.486C195.406 158.03 199.706 159.461 204.006 159.461C205.599 159.302 207.032 159.143 208.465 158.825ZM210.695 176.631L210.376 176.472V176.79C209.739 180.924 208.784 184.898 207.351 188.714L206.714 190.463L207.988 189.032C208.943 187.76 210.058 186.647 211.173 185.534C213.084 183.627 214.995 182.037 217.065 180.447L217.384 180.129L217.065 179.811C214.995 178.698 212.925 177.426 210.695 176.631ZM214.199 156.599L214.517 156.44L214.199 156.122C213.084 155.168 212.128 154.214 211.013 153.261C209.899 152.148 208.943 151.194 207.988 149.922L206.873 148.65L207.51 150.24C208.465 152.784 209.102 155.486 209.739 158.189V158.507L210.058 158.348C211.65 158.03 212.925 157.394 214.199 156.599ZM210.536 174.087V174.405H210.854C213.88 175.359 216.587 176.79 218.817 178.857L218.976 179.016L219.135 178.857C226.143 174.087 234.265 170.908 242.705 169.636L244.935 169.318L242.705 169C233.15 167.569 224.232 163.754 216.587 157.871L216.428 157.712L216.269 157.871C214.517 158.984 212.606 159.938 210.536 160.574H210.217V160.892C210.536 163.595 210.854 166.297 210.854 169C210.854 170.749 210.695 172.498 210.536 174.087ZM210.695 120.033L210.376 119.874V120.192C209.421 127.346 207.032 134.341 203.369 140.701L203.21 140.86L203.369 141.019C204.006 141.973 204.484 143.086 204.962 144.04C207.032 147.06 209.262 149.922 211.81 152.466C212.925 153.579 214.039 154.691 215.313 155.645L215.473 155.804L215.632 155.645C216.587 155.009 217.543 154.214 218.339 153.42C222.161 149.604 224.232 144.516 224.232 139.111C224.232 133.706 222.161 128.618 218.339 124.802C216.269 122.577 213.562 120.987 210.695 120.033ZM296.534 84.2615H298.922L298.604 83.7846C296.374 80.1279 293.667 76.7893 290.641 73.7686C280.13 63.2756 266.116 57.3932 251.305 57.3932C240.316 57.3932 229.806 60.5729 220.569 66.6143L220.25 66.7733L220.569 67.0913C224.391 71.2248 226.461 76.6303 226.461 82.3537C226.461 82.8307 226.461 83.3076 226.461 83.9436V84.2615H229.806V86.0103H226.143V86.3283C225.346 90.9389 223.117 95.0724 219.932 98.2521C218.021 100.16 215.95 101.591 213.562 102.704L213.243 102.863L213.562 103.34L212.128 104.135L211.65 103.34L211.332 103.499C211.013 103.658 210.695 103.658 210.376 103.817L210.058 103.976V104.294C210.536 107.155 210.695 109.858 210.695 112.72C210.695 114.31 210.695 115.899 210.536 117.489V117.807H210.854C214.358 118.92 217.384 120.828 219.932 123.372C224.072 127.505 226.461 133.229 226.461 139.27C226.461 145.152 224.072 150.876 219.932 155.168C219.135 155.963 218.498 156.599 217.543 157.235L217.224 157.553L217.543 157.871C226.78 164.866 237.768 168.682 249.235 169.159H249.872L249.235 168.205L250.668 167.41L250.827 167.569L251.305 166.774L252.738 167.569L251.783 169.159H252.42C266.753 168.841 280.449 163.118 290.641 152.943C301.152 142.45 307.044 128.459 307.044 113.674C307.044 104.135 304.656 94.9135 300.037 86.6463L299.878 86.4873H296.374V84.2615H296.534ZM189.832 124.643L189.514 124.961L189.832 125.12C191.266 126.392 192.699 127.664 194.132 128.936C195.247 130.049 196.203 131.003 197.158 132.275L198.273 133.547L197.636 131.957C196.362 128.459 195.566 124.961 195.088 121.464V120.987L194.61 121.146C192.858 122.1 191.266 123.213 189.832 124.643ZM183.622 120.828L183.94 120.987C185.214 121.782 186.488 122.577 187.603 123.531L187.762 123.69L188.081 123.372C189.992 121.464 192.062 120.033 194.451 118.92L194.61 118.761V118.602C194.451 116.853 194.292 115.104 194.292 113.197C194.292 109.858 194.61 106.519 195.088 103.34V103.022L194.929 102.863C194.769 102.863 194.61 102.704 194.451 102.704L194.132 102.545L183.622 120.828ZM163.555 112.561L161.644 112.879L163.555 113.197C169.448 114.151 175.34 116.217 180.596 118.92L180.914 119.079L191.584 100.955L191.266 100.796C191.107 100.637 190.788 100.478 190.629 100.319L190.469 100.16L190.31 100.319C182.666 106.678 173.429 110.971 163.555 112.561ZM198.114 93.4826L198.751 91.7338L197.477 93.1646C196.362 94.4365 195.247 95.7084 194.132 96.8213C193.495 97.4572 193.018 97.9341 192.381 98.5701L192.062 98.8881L192.381 99.047C193.336 99.683 194.292 100.319 195.406 100.796L195.725 100.955L195.884 100.637C196.521 98.0931 197.158 95.7084 198.114 93.4826ZM186.807 68.0452L186.966 67.7272L186.647 67.5682C183.462 65.1834 179.799 63.1166 176.137 61.5268L175.818 61.3678L175.659 61.6858C175.34 62.7987 175.022 64.0706 174.544 65.1834L174.385 65.5014L184.418 71.2248L184.577 70.9069C185.373 69.953 186.01 68.9991 186.807 68.0452ZM187.444 86.0103H184.259V86.3283C185.055 90.3029 186.966 93.8006 189.832 96.6623C190.31 97.1392 190.629 97.4572 191.107 97.9342L191.266 98.0931L191.425 97.9342C192.062 97.2982 192.699 96.6623 193.336 96.0263C196.203 93.1646 198.751 89.985 200.98 86.4873L201.299 86.0103H197.477V84.2615H201.936L200.662 82.1947C198.592 79.0151 196.203 75.9944 193.495 73.2916C192.062 71.8608 190.629 70.5889 189.036 69.317L188.718 69.158L188.558 69.476C185.533 73.1326 183.781 77.7432 183.781 82.5127C183.781 82.9897 183.781 83.6256 183.781 84.1025V84.4205H187.284V86.0103H187.444ZM189.355 99.683L189.673 99.365L189.355 99.047C189.036 98.7291 188.558 98.4111 188.24 97.9342C185.214 94.9135 182.984 90.9389 182.188 86.8053V86.4873H156.07V112.084H156.389C168.492 111.766 179.959 107.314 189.355 99.683ZM180.277 120.033L179.959 119.874C172.633 116.058 164.67 113.833 156.389 113.515H156.07V138.634H169.448L180.277 120.033ZM186.966 124.643L187.125 124.325L186.807 124.167C185.692 123.372 184.577 122.577 183.303 121.782L182.984 121.623L172.951 138.634H181.551V138.316C181.87 133.229 183.781 128.459 186.966 124.643ZM190.629 154.214L190.788 154.373L191.107 154.214C191.903 153.42 192.699 152.784 193.495 151.989C196.68 148.809 199.547 145.152 201.936 141.337L202.095 141.178L201.936 141.019C201.458 140.065 200.98 139.111 200.503 138.316C198.432 135.295 196.203 132.434 193.655 129.89C192.221 128.459 190.788 127.187 189.355 126.074L189.036 125.915L188.877 126.233C185.692 129.89 183.94 134.5 183.94 139.429C183.94 144.834 186.01 149.922 189.832 153.738C189.992 153.738 190.31 153.897 190.629 154.214ZM175.977 163.436L176.137 163.913L176.455 163.754C180.914 161.846 185.055 159.302 188.877 156.281L189.195 156.122L188.877 155.804C188.718 155.645 188.399 155.327 188.24 155.168C187.762 154.691 187.284 154.214 186.807 153.579L186.647 153.42L175.022 160.415L175.181 160.733C175.499 161.369 175.818 162.323 175.977 163.436ZM187.444 180.924L187.762 180.606L187.444 180.447C183.94 177.744 180.118 175.677 176.137 173.929L175.818 173.77L175.659 174.087C175.499 174.882 175.181 175.677 174.862 176.472L174.703 176.79L185.692 183.309L185.851 182.991C186.329 182.196 186.807 181.56 187.444 180.924ZM190.469 210.813L190.629 210.972L190.788 210.813C191.584 210.018 192.54 209.223 193.336 208.428C196.521 205.248 199.388 201.592 201.777 197.617C201.936 197.458 201.936 197.299 201.936 197.14L202.095 196.981L201.936 196.822C199.547 192.689 196.521 188.873 193.177 185.534C191.903 184.262 190.629 183.15 189.355 182.037L189.036 181.878L188.877 182.037C185.373 185.852 183.462 190.622 183.462 195.709C183.462 201.115 185.533 206.202 189.355 210.018C189.992 210.336 190.31 210.654 190.469 210.813ZM188.718 212.721L189.036 212.562L188.718 212.244C188.558 212.085 188.399 211.926 188.24 211.767C187.444 210.972 186.647 210.018 186.01 209.223L185.851 208.905L174.385 215.9L174.544 216.218C175.181 217.49 175.499 218.762 175.818 220.193L175.977 220.511L176.296 220.352C180.755 218.126 184.896 215.741 188.718 212.721ZM168.492 251.672H171.2L181.392 232.912L181.073 232.753C180.436 232.435 179.959 232.117 179.322 231.799C178.366 231.322 177.251 230.845 176.137 230.368L175.818 230.209L175.659 230.527C174.703 234.501 172.633 238.158 169.766 241.02C166.103 244.676 161.326 246.902 156.23 247.379H155.911V251.513H158.3V253.262H156.07V260.257H156.389C159.255 260.575 162.122 261.37 164.67 262.801L164.989 262.96L170.244 253.262H168.492V251.672ZM207.351 76.3123L206.714 78.0611L207.988 76.6303C209.102 75.3584 210.217 74.2455 211.332 72.9737C213.243 71.0659 215.313 69.158 217.543 67.5682L217.861 67.2502L217.543 66.9323C215.632 65.1834 213.402 63.9116 210.854 63.1167L210.536 62.9577V63.4346C209.899 67.8862 208.784 72.1787 207.351 76.3123ZM153.681 147.537C148.426 147.696 143.489 149.763 139.667 153.42C136.641 156.44 134.73 160.097 134.093 164.23V164.548L134.412 164.707C140.463 166.933 146.834 168.205 153.363 168.364C153.522 168.364 153.681 168.364 153.841 168.364V169.477C153.681 169.477 153.522 169.477 153.363 169.477C146.993 169.636 140.782 170.749 134.73 172.975L134.412 173.134V173.452C135.367 176.79 137.119 179.97 139.667 182.355C143.33 186.011 148.426 188.237 153.681 188.237V189.668H154.319V188.237C159.574 188.078 164.511 186.011 168.333 182.355C170.881 179.811 172.633 176.79 173.588 173.452V173.134L173.27 172.975C167.377 170.749 161.007 169.636 154.637 169.477C154.478 169.477 154.319 169.477 154.159 169.477V168.364C154.319 168.364 154.478 168.364 154.637 168.364C161.166 168.205 167.537 167.092 173.588 164.707L173.907 164.548V164.23C173.27 160.097 171.2 156.281 168.333 153.42C164.67 149.763 159.574 147.537 154.319 147.537V146.424H153.681V147.537ZM154.319 245.471C159.574 245.312 164.511 243.246 168.333 239.589C171.04 236.886 172.951 233.389 173.748 229.732V229.414L173.429 229.255C167.218 226.87 160.689 225.757 154.159 225.757V224.803C160.689 224.803 167.218 223.532 173.429 221.306L173.748 221.147V220.829C172.951 217.013 171.04 213.674 168.333 210.972C164.67 207.315 159.574 205.089 154.319 205.089V203.659H153.681V205.089C148.426 205.248 143.489 207.315 139.667 210.972C136.96 213.674 135.049 217.172 134.252 220.829V221.147L134.571 221.306C140.782 223.69 147.311 224.803 153.841 224.803V225.757C147.311 225.757 140.782 227.029 134.571 229.255L134.252 229.414V229.732C135.049 233.548 136.96 236.886 139.667 239.589C143.33 243.246 148.426 245.471 153.681 245.471V246.902H154.319V245.471ZM151.77 145.629H152.089V141.337H140.463L144.285 147.855L144.604 147.696C146.674 146.583 149.222 145.788 151.77 145.629ZM156.07 145.47H156.389C158.937 145.788 161.485 146.424 163.715 147.537L164.033 147.696L167.855 141.178H156.07V145.47ZM194.929 72.4967L192.858 68.9991L194.292 68.2041L196.362 71.7018L194.929 72.4967ZM201.617 80.2869L203.21 82.9896L203.528 82.5127C206.714 76.4713 208.784 69.953 209.58 63.1167V62.7987H209.262C207.669 62.3217 205.917 62.1627 204.165 62.1627C200.184 62.1627 196.521 63.2756 193.177 65.3424L192.858 65.5014C191.744 66.2963 190.788 67.0913 189.832 68.0452L189.514 68.3631L189.832 68.5221C191.425 69.794 192.858 71.0658 194.292 72.4967L194.61 72.8147L194.769 72.9737C195.406 73.6096 195.884 74.0865 196.362 74.7225L196.521 74.8815L197.954 74.0865L200.025 77.5842L199.069 78.0611L199.229 78.3791C199.706 79.0151 200.184 79.651 200.662 80.2869L200.821 80.6049L201.617 80.2869ZM175.659 253.421V251.672H179.799V253.421H175.659ZM200.821 251.672V253.421H196.68V251.672H200.821ZM200.821 251.036L199.229 248.81C195.247 243.246 190.151 238.476 184.418 234.66L184.099 234.501L167.537 264.867L167.696 265.026C168.333 265.503 169.129 266.139 169.607 266.775C172.155 269.319 174.066 272.499 175.181 275.837L175.34 276.155L175.659 275.996C182.188 273.135 188.24 269.16 193.177 264.072C194.451 262.642 195.884 261.37 196.999 259.78L198.432 257.395L198.751 257.554L198.91 257.395C199.388 256.759 199.866 256.123 200.184 255.487L200.343 255.169L199.866 254.851L200.503 253.738L201.458 252.149L200.821 251.036ZM204.643 86.0103V84.2615H208.784V86.0103H204.643ZM204.165 86.0103L204.325 86.3283C205.599 88.5541 206.554 90.9389 207.51 93.4826L207.669 93.8006L207.988 93.6416L210.058 97.1392L208.943 97.7752V98.0931C209.102 98.8881 209.421 99.683 209.58 100.478L209.739 100.955L209.899 101.75L210.695 101.432L210.217 100.637L211.65 99.842L212.288 100.955L212.606 100.796C214.836 99.842 216.906 98.4111 218.658 96.6623C222.48 92.8467 224.55 87.7592 224.55 82.3537C224.55 77.1072 222.48 72.1787 218.976 68.3631L218.817 68.2041L218.658 68.3631C216.428 69.953 214.199 71.8608 212.288 73.7686C209.58 76.4713 207.032 79.492 204.962 82.8307L204.325 83.7846C204.325 83.7846 204.325 83.7846 204.325 83.9436L204.165 84.2615C204.165 84.4205 204.006 84.4205 204.006 84.5795L203.847 84.7385L204.006 84.8975C204.165 85.2154 204.325 85.3744 204.484 85.6924L204.165 86.0103ZM132.501 251.672V253.421H128.36V251.672H132.501ZM107.179 253.421V251.672H111.32V253.421H107.179ZM107.179 253.897L107.816 255.01L107.338 255.328L107.497 255.646C107.975 256.282 108.453 256.918 108.771 257.554L108.931 257.713L109.249 257.554L110.683 259.939C111.957 261.37 113.231 262.801 114.505 264.231C119.601 269.319 125.493 273.293 132.023 276.155L132.341 276.314L132.501 275.996C133.615 272.499 135.526 269.478 138.074 266.934C138.711 266.298 139.349 265.662 139.986 265.185L140.145 265.026L123.582 234.66L123.264 234.819C117.531 238.635 112.434 243.405 108.453 248.969L106.86 251.195L105.905 252.467L107.179 253.897ZM103.516 84.2615V86.0103H99.3754V84.2615H103.516ZM103.516 82.8307C101.446 79.492 98.8976 76.4713 96.1903 73.7686C94.2792 71.8608 92.0496 69.953 89.8201 68.3631L89.6608 68.2041L89.3423 68.3631C85.6794 72.1787 83.7684 77.1072 83.7684 82.3537C83.7684 87.7592 85.8387 92.8467 89.6608 96.6623C91.4126 98.4111 93.4829 99.842 95.7125 100.796L96.031 100.955L96.668 99.842L98.1013 100.637L97.6236 101.432L98.4199 101.75L98.5791 100.955L98.7384 100.478C98.8976 99.683 99.0569 98.8881 99.3754 98.0931V97.7752L98.2606 97.1392L100.331 93.6416L100.649 93.8006L100.809 93.4826C101.764 91.0978 102.72 88.7131 103.994 86.3283L104.153 86.0103L104.312 85.5334C104.472 85.2154 104.631 85.0564 104.79 84.7385L104.949 84.5795L104.79 84.4205C104.79 84.2615 104.631 84.2615 104.631 84.1025L104.472 83.7846C104.472 83.7846 104.472 83.7846 104.472 83.6256L103.516 82.8307ZM154.796 1.11289H154.319V0C169.289 0.158984 183.462 6.04139 194.132 16.5343C204.802 27.1863 210.695 41.4948 210.695 56.5983C210.695 57.8702 210.695 59.301 210.536 60.5729V60.8909H210.854C214.039 61.8448 216.906 63.5936 219.295 65.8194L219.454 65.9784L219.613 65.8194C229.009 59.619 239.839 56.2803 251.146 56.2803C266.275 56.2803 280.608 62.1627 291.278 72.8147C294.623 76.1533 297.489 79.81 299.878 83.7846L300.037 83.9436H301.948L300.993 85.5334L301.152 85.6924C305.77 93.9595 308 103.34 308 112.879C308 127.982 302.108 142.291 291.437 152.943C282.838 161.528 271.69 167.092 259.746 169L257.516 169.318L259.746 169.636C271.69 171.385 282.678 177.108 291.278 185.534C301.948 196.186 307.841 210.495 307.841 225.598C307.841 240.702 301.948 255.01 291.278 265.662C280.608 276.314 266.275 282.197 251.146 282.197C242.068 282.197 233.309 280.13 225.346 275.996C218.976 272.817 213.243 268.365 208.465 262.96L207.351 261.688L207.828 263.278C208.465 265.344 209.102 267.252 209.421 269.319C210.217 273.135 210.695 277.109 210.695 281.084C210.695 296.187 204.802 310.496 194.132 321.148C183.462 331.8 169.289 337.682 154.319 337.682V337.046C168.97 336.887 182.984 331.164 193.336 320.671C203.847 310.178 209.739 296.187 209.739 281.402C209.739 277.586 209.421 273.611 208.465 269.796C207.669 265.98 206.395 262.324 204.962 258.826L202.891 254.374L205.758 258.349C210.854 265.503 217.702 271.386 225.665 275.36C233.468 279.335 242.228 281.402 250.987 281.402C265.797 281.402 279.971 275.519 290.323 265.026C293.667 261.688 296.693 257.872 299.082 253.738L299.4 253.262H295.737V251.513H299.878V252.626L300.515 251.513C304.656 243.563 306.885 234.66 306.885 225.757C306.885 210.972 300.993 196.822 290.482 186.488C280.608 176.631 267.39 170.749 253.216 170.272H252.579L253.057 171.067L251.624 171.862L250.827 170.431L250.668 170.113H250.509C239.679 170.272 229.009 173.452 220.091 179.493L219.772 179.652L220.091 179.97C224.232 184.103 226.62 189.827 226.62 195.709C226.62 201.592 224.232 207.315 220.091 211.608C217.543 214.151 214.199 216.218 210.695 217.172H210.376V217.49C210.695 219.875 210.854 222.419 210.854 224.803C210.854 229.414 210.217 234.183 209.102 238.635V238.953L210.854 239.907L208.784 243.405L207.828 242.928L207.669 243.246C207.351 244.04 207.191 244.676 206.873 245.471L206.714 245.789L207.191 246.107L205.121 249.605H204.962L204.802 249.923C204.643 250.4 204.325 250.718 204.165 251.195L203.847 251.672H207.669V253.421H203.847V252.149L203.21 253.262C203.051 253.421 202.891 253.738 202.891 253.897L202.732 254.056L202.095 255.01L201.617 255.805L201.458 256.123C200.98 256.759 200.662 257.395 200.184 258.031L200.025 258.349L200.343 258.508L198.273 262.006L197.477 261.529L197.317 261.688C196.84 262.324 196.203 262.96 195.725 263.436L195.406 263.754L196.68 264.549L194.61 268.047L193.177 267.252L194.769 264.549L193.177 266.139C188.24 270.75 182.507 274.565 176.137 277.268L175.818 277.427V277.745C176.137 279.494 176.455 281.084 176.455 282.833C176.455 288.715 174.066 294.438 169.926 298.731C165.785 302.865 160.211 305.249 154.478 305.249V303.024C159.733 302.865 164.67 300.798 168.492 297.141C172.314 293.326 174.385 288.238 174.385 282.833C174.385 281.402 174.225 279.971 173.907 278.54V278.222L173.588 278.381C167.537 280.607 161.007 281.72 154.478 281.72V280.766C160.848 280.766 167.218 279.653 173.27 277.427L173.588 277.268L173.429 276.95C172.474 273.77 170.722 270.909 168.333 268.524C164.67 264.867 159.574 262.642 154.319 262.642V261.211H153.681V262.642C148.426 262.801 143.489 264.867 139.667 268.524C137.278 270.909 135.526 273.77 134.571 276.95L134.412 277.268L134.73 277.427C140.782 279.653 147.152 280.766 153.522 280.766V281.72C146.993 281.72 140.623 280.607 134.412 278.381L134.093 278.222V278.54C133.775 279.971 133.615 281.402 133.615 282.833C133.615 288.238 135.686 293.326 139.508 297.141C143.171 300.798 148.267 303.024 153.522 303.024V305.249C147.63 305.09 142.215 302.865 138.074 298.731C133.934 294.597 131.545 288.874 131.545 282.833C131.545 281.084 131.704 279.335 132.182 277.745V277.427L131.864 277.268C125.653 274.565 119.76 270.909 114.823 266.139L113.231 264.549L114.823 267.252L113.39 268.047L111.32 264.549L112.594 263.754L112.275 263.436C111.797 262.801 111.16 262.324 110.683 261.688L110.523 261.529L109.727 262.006L107.657 258.508L107.975 258.349L107.816 258.031C107.338 257.395 106.86 256.759 106.542 256.123L106.383 255.805L105.905 255.01L105.268 254.056L105.109 253.897C104.949 253.738 104.79 253.421 104.79 253.262L104.153 252.149V253.421H100.012V251.672H103.835L103.516 251.195C103.357 250.718 103.038 250.4 102.879 249.923L102.72 249.605H102.561L100.49 246.107L100.968 245.789L100.809 245.471C100.49 244.676 100.172 244.04 100.012 243.246L99.8531 242.928L98.8976 243.405L96.8273 239.907L98.5791 238.953V238.635C97.4643 234.183 96.8273 229.414 96.8273 224.803C96.8273 222.419 96.9866 219.875 97.3051 217.49V217.172H96.9866C93.4829 216.059 90.2978 214.151 87.5905 211.608C83.4498 207.474 81.061 201.751 81.061 195.709C81.061 189.827 83.2906 184.262 87.5905 179.97L87.909 179.652L87.5905 179.493C78.5129 173.452 68.0021 170.113 57.1727 170.113H57.0134L56.8542 170.431L56.0579 171.862L54.6246 171.067L55.1024 170.272H54.4654C40.4509 170.749 27.2327 176.631 17.1996 186.488C6.68873 196.981 0.796277 210.972 0.796277 225.757C0.796277 234.819 3.02585 243.563 7.16649 251.513L7.80352 252.626V251.513H11.9442V253.262H8.44054L8.75905 253.738C11.1479 257.872 14.1737 261.688 17.5181 265.026C28.029 275.519 42.0434 281.402 56.8542 281.402C65.7725 281.402 74.3723 279.335 82.1758 275.36C89.9793 271.386 96.8273 265.503 102.083 258.349L105.109 254.374L103.038 258.826C101.446 262.324 100.331 265.98 99.5346 269.796C98.7384 273.611 98.2606 277.427 98.2606 281.402C98.2606 296.187 104.153 310.337 114.664 320.671C125.016 331.005 139.03 336.887 153.681 337.046V338C138.711 337.841 124.538 331.959 113.868 321.466C103.198 310.814 97.3051 296.505 97.3051 281.402C97.3051 277.427 97.7828 273.453 98.5791 269.637C99.0569 267.57 99.5346 265.503 100.172 263.595L100.649 262.006L99.5346 263.278C94.757 268.683 89.0238 273.135 82.6536 276.314C74.6908 280.448 65.7725 282.515 56.8542 282.515C41.7249 282.515 27.3919 276.632 16.7218 265.98C6.05171 255.328 0.159255 241.02 0.159255 225.916C0.159255 210.813 6.05171 196.504 16.7218 185.852C25.3216 177.267 36.3102 171.703 48.2544 169.954L50.484 169.636L48.2544 169.318C36.151 167.569 25.1624 161.846 16.5626 153.261C5.89245 142.609 0 128.141 0 113.197C0 103.658 2.38883 94.4365 6.84798 86.0103L7.00724 85.8514L6.05171 84.2615H7.96277V84.1025C10.3516 80.1279 13.2182 76.3123 16.5626 73.1326C27.2327 62.4807 41.5657 56.5983 56.6949 56.5983C68.0021 56.5983 78.8314 59.937 88.2275 66.1373L88.3868 66.2963L88.546 66.1373C90.9349 63.9116 93.8015 62.1628 96.9866 61.2088H97.3051V60.8909C97.1458 59.619 97.1458 58.1881 97.1458 56.9163C97.1458 41.8128 103.038 27.5042 113.708 16.8523C124.538 6.04139 138.711 0.158984 153.681 0V0.953904H153.204H152.885H152.726H152.567C138.234 1.27187 124.697 7.15428 114.505 17.1703C103.994 27.6632 98.1013 41.6538 98.1013 56.4393C98.1013 57.7112 98.1013 58.8241 98.2606 60.096V60.4139L98.5791 60.2549C100.331 59.778 102.083 59.619 103.675 59.619C107.975 59.619 112.116 60.8909 115.779 63.1167L116.097 63.2756L117.053 61.6858L118.486 62.4807L117.371 64.2295L117.531 64.3885C118.168 64.8655 118.805 65.5014 119.442 66.1373L119.919 66.6143L120.079 66.4553C123.582 63.9116 127.245 61.8448 131.226 60.096L131.386 59.937V59.619C131.226 58.5061 131.067 57.2342 131.067 56.1214C131.067 50.2389 133.456 44.5155 137.597 40.223C141.737 36.0894 147.311 33.7046 153.044 33.7046V35.9304C147.789 36.0894 142.852 38.1562 139.03 41.8128C135.208 45.6284 133.138 50.7159 133.138 56.1214C133.138 56.9163 133.138 57.8702 133.297 58.6651V59.1421L133.615 58.9831C139.826 56.7573 146.356 55.4854 152.885 55.4854V56.4393C146.356 56.4393 139.826 57.7112 133.615 59.937L133.297 60.096V60.4139C134.093 64.2295 136.004 67.7272 138.711 70.4299C142.374 74.0865 147.471 76.3123 152.726 76.3123V78.0611H153.363V76.3123C158.618 76.1533 163.555 74.0865 167.377 70.4299C170.085 67.7272 171.996 64.2295 172.792 60.4139V60.096L172.474 59.937C166.263 57.5522 159.733 56.4393 153.204 56.4393V55.4854C159.733 55.4854 166.422 56.7573 172.474 58.9831L172.792 59.1421V58.6651C172.951 57.8702 172.951 56.9163 172.951 56.1214C172.951 50.7159 170.881 45.6284 167.059 41.8128C163.396 38.1562 158.3 35.9304 153.044 35.9304V33.7046C158.937 33.8636 164.352 36.0894 168.492 40.223C172.633 44.3565 175.022 50.08 175.022 56.1214C175.022 57.2342 174.862 58.5061 174.703 59.619V59.937L174.862 60.096C178.844 61.8448 182.507 63.9116 186.01 66.4553L186.17 66.6143L186.647 66.1373C187.284 65.5014 187.921 65.0245 188.558 64.3885L188.718 64.2295L187.603 62.4807L189.036 61.6858L189.992 63.2756L190.31 63.1167C193.973 60.7319 198.114 59.619 202.414 59.619C204.165 59.619 205.917 59.778 207.51 60.2549L207.828 60.4139V60.096C207.828 58.8241 207.988 57.7112 207.988 56.4393C207.988 41.6538 202.095 27.5042 191.584 17.1703C181.392 6.9953 167.855 1.27187 153.522 0.953904H153.363H153.204L154.796 1.11289Z" fill="#4ABCE1"/>
</svg>
