<svg width="463" height="235" viewBox="0 0 463 235" fill="none" xmlns="http://www.w3.org/2000/svg">
<path opacity="0.2" d="M406.829 227.281C406.422 226.875 408.253 226.672 411.103 226.875C416.598 226.875 416.394 227.281 410.899 227.687C409.067 227.891 407.236 227.687 406.829 227.281ZM300.797 235C301.611 234.391 302.628 232.766 303.035 231.75C303.442 230.937 304.257 228.703 303.849 227.891C303.849 227.891 303.849 227.687 303.646 227.687C303.442 227.687 302.628 228.5 302.425 228.703C301.814 229.516 301.204 230.531 301 231.547C300.797 232.156 300.593 232.766 300.593 233.375C300.593 233.781 300.593 234.797 300.797 235ZM396.653 227.078C397.467 226.875 398.485 226.875 399.299 227.078C400.113 227.281 399.502 227.484 398.078 227.484C396.449 227.281 396.042 227.078 396.653 227.078ZM390.344 226.266C390.955 226.062 391.769 226.062 392.176 226.266C392.786 226.469 392.176 226.672 391.158 226.672C390.14 226.672 389.733 226.469 390.344 226.266ZM387.291 225.453C387.902 225.25 388.512 225.25 388.716 225.453C388.919 225.656 388.512 225.859 387.698 225.859C386.884 225.859 386.681 225.656 387.291 225.453ZM372.638 220.172C371.213 219.562 370.399 218.75 370.399 218.547C370.806 218.141 375.284 220.375 375.284 220.984C375.487 221.594 375.284 221.594 372.638 220.172ZM364.09 214.891C360.427 212.453 353.711 204.734 351.676 200.469C347.809 192.547 348.623 184.219 353.915 178.125C356.56 175.281 359.002 173.656 364.09 172.234C368.161 171.016 370.196 170.812 370.196 171.828C370.196 172.234 368.568 172.641 366.736 173.047C355.339 174.672 349.03 183.812 351.472 194.578C353.1 202.094 359.206 210.422 365.718 214.891C366.736 215.5 367.347 216.109 366.94 216.109C366.329 216.109 365.108 215.703 364.09 214.891ZM374.266 200.875C374.877 198.437 372.027 196.609 366.125 195.594C361.038 194.578 359.409 192.953 363.48 192.953C365.922 192.953 366.126 192.75 367.957 188.484C368.975 186.047 369.992 183.406 369.992 182.797C369.992 181.578 371.213 181.172 371.824 182.187C372.027 182.594 372.638 185.844 373.045 189.5C373.656 193.156 374.47 196.609 374.877 197.219C375.894 198.234 376.098 199.656 375.487 201.484C375.08 203.516 373.859 202.906 374.266 200.875ZM371.62 190.719C371.213 186.859 370.399 185.234 369.789 187.062C369.585 187.672 369.178 189.297 368.568 190.719C367.754 193.359 368.161 194.375 370.806 194.578C372.027 194.578 372.027 193.969 371.62 190.719ZM360.834 198.641C359.002 196.812 358.392 195.187 359.409 195.187C360.427 195.187 364.09 199.656 363.48 200.062C363.073 200.469 361.852 199.656 360.834 198.641ZM397.467 199.25C395.432 198.437 397.467 197.625 399.706 198.234C400.927 198.641 402.351 198.844 402.555 198.641C402.962 198.437 403.369 198.641 403.573 199.047C404.183 199.859 399.299 200.062 397.467 199.25ZM415.987 195.391C413.748 192.953 413.138 192.75 412.324 193.562C410.899 194.984 408.66 194.781 407.643 192.953C406.829 191.531 406.625 191.531 405.404 192.75C404.387 193.766 403.165 193.969 400.723 193.562C398.688 193.156 397.264 193.359 396.857 193.766C396.042 195.187 392.786 194.578 391.158 192.953C389.937 191.734 389.733 190.516 389.733 188.281C389.937 185.031 391.362 184.219 391.769 187.062C392.176 191.531 392.786 192.344 394.414 192.344C396.653 192.344 398.485 190.922 398.892 189.094C399.299 186.656 401.13 186.656 400.927 189.094C400.723 190.922 400.927 191.328 402.758 191.531C405.404 191.937 407.032 190.516 407.032 187.875C407.032 186.656 407.439 185.641 407.846 185.641C408.253 185.641 408.66 186.656 408.66 187.875C408.66 193.156 411.51 194.172 414.155 189.703L415.784 186.859L415.987 189.906C416.191 193.156 418.633 196.203 420.668 196.203C422.703 196.203 422.907 194.984 422.093 191.937C421.075 187.875 422.296 187.062 423.924 190.719C424.535 192.344 425.349 194.781 425.552 196.203C425.959 198.641 425.959 198.641 424.738 197.828C423.924 197.016 423.11 197.016 422.093 197.625C419.854 198.641 419.04 198.437 415.987 195.391ZM380.779 196.203C380.779 195.797 381.593 195.391 382.407 194.984C383.628 194.375 384.238 193.359 384.646 190.922C385.46 186.25 385.867 185.234 386.681 186.047C387.698 187.062 386.274 193.766 384.646 195.391C383.424 196.812 380.779 197.219 380.779 196.203ZM379.151 192.141C377.115 190.109 376.505 187.875 377.522 186.859C378.133 186.25 378.744 186.859 379.354 188.687C379.965 190.109 380.779 191.531 381.186 191.734C381.593 191.937 382 192.547 382 192.953C382.203 194.172 380.779 193.766 379.151 192.141ZM321.352 178.531C320.741 177.719 321.148 176.906 323.591 174.672C325.219 173.047 326.643 171.422 326.643 171.016C326.643 170.609 325.219 170.609 323.184 170.812C320.131 171.219 319.927 171.219 320.538 170.203C321.759 168.578 326.236 167.969 327.661 168.984C329.289 170.406 329.086 170.812 326.236 174.062C323.184 177.516 322.98 177.922 325.219 177.719C326.033 177.719 327.05 177.922 327.254 178.531C327.661 179.953 322.573 179.75 321.352 178.531ZM213.895 177.312C210.435 173.859 213.488 169.187 218.78 170C222.239 170.609 223.664 171.625 223.664 173.859C223.664 178.125 216.948 180.359 213.895 177.312ZM221.222 175.687C222.646 174.266 222.239 173.047 219.797 172.234C217.966 171.625 217.151 171.625 215.727 172.641C214.709 173.25 213.895 174.062 213.895 174.469C213.895 175.687 215.727 176.906 217.966 176.906C219.187 176.5 220.815 176.094 221.222 175.687ZM307.92 178.328C305.885 177.516 307.106 175.687 310.973 173.859C315.246 171.828 317.485 170 317.485 168.984C317.485 167.969 315.45 168.172 314.432 169.391C313.415 170.609 311.38 170.812 311.38 169.797C311.38 168.984 315.857 166.141 317.282 166.141C318.503 166.141 319.113 167.969 318.706 170.203C318.503 171.422 316.875 172.844 314.025 174.266L309.751 176.703H312.601C314.636 176.703 315.45 177.109 315.246 177.719C314.839 178.328 309.751 178.937 307.92 178.328ZM269.455 175.687C269.455 173.453 269.455 173.453 265.385 173.453C262.129 173.453 261.315 173.25 261.315 172.234C261.315 171.219 262.129 171.016 265.588 171.219C269.659 171.422 269.862 171.422 270.066 169.797C270.473 167.562 271.694 167.562 271.694 170C271.694 171.422 272.304 172.031 273.933 172.437C276.782 173.25 276.578 174.469 273.526 174.469C271.694 174.469 271.287 174.875 271.083 176.094C270.676 178.734 269.455 178.328 269.455 175.687ZM121.499 176.5C119.871 175.484 121.092 173.25 125.976 169.391C128.418 167.359 130.25 165.328 130.046 164.922C129.639 164.109 125.976 164.516 122.516 165.531C121.092 165.937 120.888 165.734 121.295 164.922C121.906 163.094 127.197 161.672 129.639 162.687C133.303 163.906 132.692 166.141 127.604 170.609C122.516 174.875 122.72 175.687 128.215 175.891C130.046 175.891 131.471 176.297 131.471 176.703C131.268 177.516 122.923 177.516 121.499 176.5ZM205.348 174.266C204.94 171.625 204.737 171.422 203.719 172.031C201.888 173.656 201.684 172.234 203.516 169.391C206.162 165.125 207.179 165.937 207.179 172.031C207.179 177.719 206.162 178.937 205.348 174.266ZM111.73 174.672C111.73 173.859 112.137 173.656 113.155 174.062C113.969 174.266 115.19 174.266 115.8 173.859C116.818 173.25 116.614 172.844 114.579 171.219C113.358 170.203 111.933 169.187 111.526 169.187C109.491 169.187 111.73 166.547 114.579 165.328C117.632 164.109 117.835 163.906 116.004 163.5C114.986 163.297 113.562 163.094 112.951 163.297C112.34 163.297 111.73 163.094 111.526 162.687C110.916 161.672 118.242 161.266 119.464 162.281C121.092 163.5 119.464 165.734 116.411 166.75L113.765 167.562L116.004 169.594C119.871 172.641 118.853 175.891 114.172 175.891C112.34 175.687 111.73 175.484 111.73 174.672ZM138.187 174.875C138.594 173.859 148.363 173.25 151.416 173.859C155.079 174.875 151.823 175.687 145.107 175.687C139.612 175.687 137.984 175.484 138.187 174.875ZM379.151 173.453C379.151 173.047 379.761 172.641 380.372 172.641C380.982 172.641 381.389 173.047 380.982 173.453C380.779 173.859 380.168 174.266 379.761 174.266C379.558 174.266 379.151 173.859 379.151 173.453ZM392.99 172.844C393.397 172.031 399.095 172.234 399.909 173.047C400.113 173.25 398.688 173.656 396.449 173.656C394.414 173.453 392.786 173.25 392.99 172.844ZM141.036 172.031C139.001 171.625 138.594 171.422 139.612 170.812C141.036 169.594 154.672 169.187 155.079 170.203C155.282 170.812 153.451 171.219 150.398 171.625C147.549 171.828 144.903 172.234 144.496 172.437C143.886 172.437 142.461 172.437 141.036 172.031ZM374.47 172.234C375.08 172.031 375.894 172.031 376.301 172.234C376.912 172.437 376.301 172.641 375.284 172.641C374.47 172.641 374.063 172.437 374.47 172.234ZM406.218 167.156C394.007 165.937 375.691 165.734 364.09 166.953C354.322 167.969 346.588 167.562 345.163 166.344C343.332 164.516 348.827 163.906 366.533 163.906C382 163.906 384.442 163.703 384.238 162.891C383.628 161.469 382.407 156.594 382 153.75C381.593 151.922 381.796 151.312 382.61 151.312C383.221 151.312 383.831 151.719 384.035 152.328C384.238 153.141 384.646 153.141 385.256 152.328C386.07 151.516 386.07 148.672 385.256 137.297C384.035 116.375 383.831 108.656 384.442 104.391L385.053 100.734L385.256 105.203C385.46 111.906 386.07 123.484 386.884 134.453C387.291 139.734 387.698 146.031 387.698 148.469C387.698 152.531 387.698 152.734 389.53 152.734C391.565 152.734 391.972 153.344 390.751 154.562C390.344 154.969 389.326 157.203 388.512 159.641L386.884 163.906H389.733C391.362 163.906 400.316 164.516 410.085 165.125C423.517 166.141 427.587 166.547 427.587 167.359C427.384 168.578 419.447 168.375 406.218 167.156ZM385.867 157C385.867 155.375 385.46 153.953 385.053 153.953C384.238 153.953 384.035 157 384.849 158.828C385.663 160.656 385.867 160.25 385.867 157ZM388.919 155.578C388.919 154.766 388.512 154.156 388.105 154.156C387.698 154.156 387.291 154.766 387.291 155.578C387.291 156.391 387.698 157 388.105 157C388.716 157 388.919 156.391 388.919 155.578ZM0.202887 165.328C-0.000629112 164.922 0.202887 164.312 0.60992 164.109C2.23805 163.5 23.8108 163.297 23.8108 163.703C23.8108 163.906 20.351 164.312 16.0772 164.719C11.8033 164.922 6.71542 165.328 4.47673 165.734C2.03454 165.937 0.406404 165.937 0.202887 165.328ZM168.104 164.109C168.104 163.297 167.086 163.094 164.034 163.094C160.167 163.094 157.318 162.078 158.946 161.266C159.76 160.859 178.89 161.672 178.483 162.078C178.28 162.281 176.448 162.484 174.617 162.687C172.581 162.891 170.75 163.5 170.139 164.109C168.715 165.531 168.104 165.531 168.104 164.109ZM180.111 164.516C180.111 164.109 179.908 163.297 179.704 162.687C179.297 161.672 180.111 161.469 184.792 161.469C189.066 161.469 190.084 161.672 188.863 162.281C188.049 162.687 186.42 162.891 184.996 162.687C182.961 162.281 182.35 162.484 182.147 163.703C181.74 165.328 180.111 165.937 180.111 164.516ZM191.712 164.719C191.508 164.516 191.305 163.703 191.305 162.891C191.305 161.875 192.119 161.469 196.393 161.266C199.242 161.062 204.737 161.266 208.604 161.469C212.471 161.672 231.398 161.875 250.732 161.672C287.365 161.469 294.284 161.672 294.895 163.297C295.098 164.109 294.284 164.312 291.231 163.906C284.719 163.297 209.621 163.297 208.604 163.906C207.993 164.312 207.586 164.109 207.383 163.703C206.976 162.281 203.719 162.687 203.109 164.109C202.702 165.125 202.498 165.125 201.277 164.109C199.446 162.484 193.544 161.875 193.544 163.094C193.544 164.516 192.526 165.328 191.712 164.719ZM295.505 158.828C294.081 152.125 294.488 150.297 297.133 148.266C298.151 147.453 297.948 147.25 296.319 147.25C294.081 147.25 292.86 146.031 293.877 145.016C294.895 144.203 301.611 146.437 301.611 147.453C301.611 148.062 300.39 149.078 298.965 149.687C295.912 151.109 295.912 150.906 297.744 159.844C298.355 163.094 298.151 165.125 297.133 165.125C297.133 165.328 296.319 162.281 295.505 158.828ZM35.6148 163.703C34.5972 163.5 41.3132 163.094 50.4715 162.687C95.2451 161.266 103.386 161.266 103.386 162.078C103.386 163.297 40.2956 164.922 35.6148 163.703ZM307.716 163.297C307.716 162.078 317.485 161.266 327.661 161.672C332.749 161.875 335.191 162.281 335.191 162.891C335.191 163.5 331.528 163.906 321.555 164.109C310.973 164.109 307.716 164.109 307.716 163.297ZM25.0319 163.297C25.6424 163.094 26.253 163.094 26.4565 163.297C26.66 163.5 26.253 163.703 25.4389 163.703C24.6249 163.703 24.4214 163.5 25.0319 163.297ZM357.171 158.625C356.764 157.812 357.781 145.219 358.392 144.406C359.409 143.391 361.241 144.812 362.055 146.844C363.276 149.891 363.276 149.891 365.108 147.453C366.94 145.016 368.568 145.219 369.992 148.266C371.01 150.5 371.213 155.984 370.196 155.984C369.789 155.984 369.178 154.359 368.975 152.328C368.771 150.297 368.161 148.469 367.957 148.266C367.55 148.062 366.736 148.875 365.718 150.094C363.887 152.734 363.073 152.531 361.445 148.875C359.613 144.609 358.799 145.828 358.799 152.328C359.002 157.812 358.188 160.453 357.171 158.625ZM323.184 157C322.98 156.594 323.387 155.984 323.998 155.578C324.812 155.172 325.015 154.156 325.015 153.141C324.812 151.719 324.201 151.312 321.555 150.703C317.078 149.891 316.875 148.266 320.538 144.812C322.166 143.187 323.591 141.562 323.591 141.156C323.591 140.75 323.998 140.344 324.405 140.344C326.033 140.344 325.015 142.984 322.573 145.219C321.148 146.641 319.927 147.859 319.927 148.062C319.927 148.266 320.945 148.672 322.166 148.875C323.591 149.078 324.608 148.875 325.015 148.062C326.033 146.031 327.254 147.859 327.254 151.719C327.254 153.75 327.661 155.578 328.068 155.984C328.678 156.391 328.678 156.594 327.864 157.203C326.643 158.016 323.794 158.016 323.184 157ZM94.8381 153.75C94.024 151.312 93.8205 144.203 94.6345 143.594C95.2451 142.984 95.2451 140.75 94.431 127.953C94.431 127.141 94.6345 124.5 95.0416 122.266C95.4486 119.828 95.8556 119.016 95.8556 120.234C95.8556 121.453 96.2627 122.062 96.6697 121.859C98.2978 120.844 97.2803 118.203 94.024 114.75C92.1923 112.719 90.5642 110.484 90.5642 109.672C90.5642 108.859 91.7853 107.031 93.0064 105.812C94.8381 104.187 95.4486 102.969 95.2451 101.953C95.0416 100.937 95.2451 98.9062 95.6521 97.2812C96.2627 94.4374 96.4662 94.4374 96.4662 99.1093C96.4662 102.969 96.6697 103.781 97.6873 103.375L99.926 102.562C100.537 102.359 101.147 102.562 101.147 103.172C101.147 103.781 99.5189 104.594 97.6873 105.406C95.8556 106.016 93.617 107.234 93.2099 108.25C92.1923 109.672 92.1923 110.078 94.024 111.703C95.0416 112.719 96.8732 114.75 97.8908 116.375L99.926 119.016L97.8908 123.078C95.8556 126.937 95.8556 127.344 96.8732 130.391C97.4838 132.219 97.6873 134.047 97.4838 134.656C96.4662 136.484 95.6521 149.891 96.6697 149.281C97.0767 149.078 97.4838 148.062 97.4838 147.453C97.4838 145.625 99.1119 142.172 99.926 142.172C100.537 142.172 100.537 142.984 98.5014 149.281C97.8908 151.312 97.2803 153.547 97.0767 153.953C96.8732 154.562 96.4662 154.969 96.0592 154.969C95.4486 154.766 95.0416 154.359 94.8381 153.75ZM237.3 154.156C235.875 153.141 236.893 151.922 238.724 152.328C239.538 152.531 241.166 152.531 242.184 152.328C243.812 151.922 244.016 151.516 244.016 148.672C244.016 144.812 245.033 143.594 248.493 143.594C249.918 143.594 251.546 144 252.156 144.406C253.174 145.422 253.377 151.516 252.156 152.125C250.935 152.937 250.325 151.922 251.342 150.703C252.563 149.281 251.546 146.437 249.511 145.625C247.068 144.609 246.254 145.219 246.254 148.469C246.254 153.141 240.963 156.391 237.3 154.156ZM265.385 153.75C262.332 152.328 260.093 149.687 259.483 146.844C258.872 143.391 260.704 143.594 261.722 147.25C262.536 150.703 263.96 151.312 264.571 148.266C265.181 144.812 266.809 145.422 266.402 149.078C266.199 151.922 266.402 152.328 268.234 152.734C271.083 153.547 272.711 151.516 272.508 147.859C272.304 146.031 272.711 145.016 273.118 144.812C273.729 144.609 274.136 145.625 274.136 148.266C274.136 151.109 273.729 152.328 272.304 153.547C270.269 154.969 268.641 155.172 265.385 153.75ZM285.329 153.547C285.329 153.344 285.94 152.531 286.551 151.719C287.161 151.109 287.568 149.891 287.161 149.281C286.551 147.859 283.498 146.437 281.056 146.437C279.835 146.437 279.224 146.031 279.427 145.422C280.038 143.797 282.073 144 285.736 145.625C288.586 147.047 289.196 147.656 289.196 149.281C289.196 150.5 288.586 151.922 287.772 152.531C286.144 154.156 285.329 154.359 285.329 153.547ZM332.749 153.344C330.917 152.734 330.51 151.516 332.138 151.109C332.749 150.906 334.173 151.312 335.395 151.719C337.226 152.328 337.43 152.734 336.412 153.141C335.191 153.953 335.191 153.953 332.749 153.344ZM57.1875 151.516C56.984 150.5 56.577 147.656 55.9664 145.016C55.5594 142.375 54.9488 139.125 54.7453 138.109C54.5418 136.891 54.5418 136.078 54.9488 136.078C55.9664 136.078 58.2051 140.547 58.2051 142.578C58.2051 145.219 59.2227 144 60.4438 139.937C60.8508 138.109 61.6649 136.687 62.0719 136.687C63.0895 136.687 63.0895 137.094 60.8508 142.984C59.8332 145.828 59.0191 149.281 59.0191 150.703C59.0191 153.547 57.7981 154.156 57.1875 151.516ZM78.7603 151.922C77.7427 149.891 76.1145 141.969 76.5216 141.562C77.3356 140.75 78.5567 141.969 78.5567 143.594C78.5567 144.406 78.9638 145.219 79.3708 145.422C79.7778 145.625 80.1849 146.641 80.1849 147.453C80.1849 149.687 81.2025 148.469 82.4235 144.406C83.4411 141.359 85.4763 139.125 85.4763 141.156C85.4763 142.578 80.9989 152.937 80.3884 153.141C79.7778 153.141 79.1673 152.734 78.7603 151.922ZM39.6851 149.687C38.464 147.453 36.6323 141.766 36.6323 140.344C36.6323 138.109 38.057 138.922 38.6675 141.359L39.278 143.797L40.2956 141.359C40.9062 139.937 41.5167 138.922 41.7202 138.922C42.7378 138.922 43.1449 139.937 42.3308 141.359C41.9238 142.172 41.5167 144.406 41.5167 146.641C41.5167 150.703 40.7027 151.922 39.6851 149.687ZM332.952 149.687C330.307 149.078 329.493 147.25 331.935 147.25C334.58 147.25 339.261 148.672 339.261 149.484C339.465 150.297 336.412 150.297 332.952 149.687ZM78.9638 140.953C78.7603 139.937 78.5567 136.687 78.7603 133.844C78.9638 128.969 78.5567 127.547 77.5392 129.375C76.9286 130.594 75.7075 130.187 75.7075 128.969C75.7075 128.359 76.3181 127.547 77.1321 127.141C78.9638 126.125 78.9638 124.297 77.3356 122.062C76.3181 120.641 76.3181 119.828 77.1321 116.984C77.7427 114.75 77.9462 112.312 77.5392 109.672C77.1321 107.437 76.9286 105 77.1321 103.781C77.1321 102.766 77.1321 96.0624 77.1321 88.9531C77.1321 80.8281 77.3356 75.9531 77.7427 75.9531C78.1497 75.9531 78.5567 80.2187 78.5567 86.9218C78.5567 93.0156 78.7603 98.0937 78.9638 98.2968C79.1673 98.4999 79.9814 98.2968 80.7954 97.6874C83.0341 96.4687 82.8306 97.8906 80.3884 100.328C78.7603 101.953 78.5567 102.766 78.9638 104.594C79.7778 108.25 79.5743 116.375 78.5567 117.391C77.9462 118.203 78.1497 119.016 79.3708 121.047C80.3884 122.672 80.7954 124.297 80.3884 125.109C80.1849 125.922 79.9814 129.984 79.9814 134.453C80.1849 142.578 79.7778 144.406 78.9638 140.953ZM39.4816 136.484C39.4816 134.656 39.4816 132.625 39.4816 131.609C39.6851 129.375 38.464 129.578 37.2429 132.016C36.4288 133.844 36.2253 133.844 36.0218 132.625C35.8183 131.812 36.4288 130.187 37.2429 129.172C38.0569 127.953 38.871 126.531 38.871 125.922C38.871 125.312 39.2781 124.703 39.8886 124.5C40.4991 124.297 39.8886 123.281 38.464 121.859C37.0394 120.641 36.0218 118.812 36.0218 117.797C36.0218 115.969 38.057 112.516 40.0921 110.891C41.3132 110.078 41.1097 109.875 38.6675 108.047C37.2429 107.031 36.0218 105.609 36.0218 105C36.0218 103.578 38.057 100.531 40.0921 98.9062C42.3308 97.0781 41.1097 96.0624 37.2429 96.4687C34.5972 96.6718 33.7831 96.4687 33.7831 95.6562C33.7831 95.0468 34.3937 94.6406 35.2077 94.6406C37.2429 94.6406 37.6499 94.0312 36.8359 92.2031C36.0218 89.7656 35.0042 80.8281 35.8183 81.4374C36.2253 81.8437 37.0394 84.8906 37.6499 88.1406C38.6675 93.4218 39.0745 94.2343 40.4991 94.4374C41.3132 94.6406 42.5343 95.2499 42.9413 96.0624C43.5519 97.2812 43.1449 98.0937 40.4991 100.937C37.8534 103.781 37.4464 104.594 38.464 105C39.0745 105.406 40.4991 106.219 41.5167 107.234C43.5519 108.859 43.5519 108.859 39.4816 113.937L36.6323 116.984L39.6851 120.031L42.7378 123.078L41.5167 125.516C40.4991 127.344 40.2956 129.375 40.4991 133.844C40.7027 137.094 40.4991 139.734 40.2956 139.734C39.6851 139.734 39.4816 138.312 39.4816 136.484ZM57.5945 136.281C57.391 135.469 57.391 134.047 57.391 133.437C57.391 132.625 56.984 131.609 56.1699 131C54.9488 130.187 54.9488 129.781 55.9664 126.937C56.984 124.094 56.7805 123.687 55.3559 122.062C54.5418 121.047 53.7277 119.828 53.7277 119.219C53.7277 117.594 57.391 111.094 58.2051 111.094C59.8332 111.094 58.8156 106.828 56.1699 103.984C53.1172 100.328 52.9137 97.6874 55.1523 95.6562C57.1875 93.8281 60.0367 92.4062 61.0543 92.4062C62.6824 92.4062 61.6649 93.8281 59.6297 94.6406C58.4086 95.0468 56.7805 96.2656 55.7629 97.2812L54.1348 99.1093L57.1875 102.562C61.4613 107.234 61.4613 108.25 57.5945 113.734C54.5418 117.797 54.5418 119.016 56.577 120.844C58.2051 122.266 58.6121 127.344 57.1875 128.156C56.577 128.562 56.577 128.766 57.1875 129.172C57.7981 129.578 58.0016 131.203 57.798 133.844C58.0016 136.078 57.798 137.297 57.5945 136.281ZM247.679 128.969C247.679 128.156 248.9 127.953 252.36 127.953C254.802 127.953 257.244 127.547 257.651 127.141C258.058 126.734 257.041 125.312 254.802 123.687C251.342 120.844 249.104 117.797 249.104 115.562C249.104 114.953 249.511 114.344 249.918 114.344C250.325 114.344 250.732 114.75 250.732 115.156C250.732 116.172 254.395 121.047 255.209 121.047C255.616 121.047 256.023 120.234 256.227 119.422C256.837 117.187 258.669 114.547 259.279 115.156C259.483 115.359 259.076 116.984 258.262 118.812L256.634 121.859L258.465 124.094C261.722 127.953 259.483 129.984 252.156 129.984C248.9 129.984 247.679 129.781 247.679 128.969ZM320.945 124.094C320.741 123.687 320.741 123.281 321.148 123.281C321.555 123.281 322.573 123.078 323.591 123.078C325.829 122.875 327.457 120.844 327.457 118.406C327.457 116.984 327.254 116.781 325.422 117.187C323.998 117.391 322.776 117.187 321.555 116.172C319.724 114.75 319.724 114.547 320.741 112.516C321.352 111.297 322.98 110.078 324.201 109.469C326.44 108.656 326.847 108.656 328.271 110.078C330.51 112.516 330.103 120.234 327.457 123.078C325.626 124.703 321.759 125.516 320.945 124.094ZM326.643 113.937C327.254 113.328 327.457 112.312 327.05 111.703C326.643 110.891 326.236 110.687 324.405 111.297C322.166 112.109 321.555 113.328 322.573 114.547C323.387 115.359 325.626 114.953 326.643 113.937ZM349.234 122.469C349.234 122.062 350.048 121.453 351.065 121.047C352.083 120.641 353.711 119.828 354.932 119.016L356.764 117.797L355.136 116.172C353.304 114.141 353.1 112.516 355.136 110.891C357.171 109.062 356.967 108.453 353.915 108.859C352.49 109.062 351.269 108.859 351.269 108.453C351.269 106.625 357.374 106.219 358.799 107.844C359.409 108.656 359.206 109.469 357.781 111.094L355.746 113.328L357.374 115.562C359.409 118.406 358.799 119.422 353.711 121.656C350.048 123.484 349.234 123.484 349.234 122.469ZM361.852 118.609C362.259 113.125 363.683 109.062 365.311 109.062C365.922 109.062 366.94 110.078 367.55 111.5C369.789 116.375 371.01 119.828 371.01 121.25C371.01 123.687 369.789 122.672 368.771 119.422C366.329 111.297 364.701 109.469 364.09 114.75C363.887 116.578 364.09 116.984 365.718 117.391C368.364 118 368.771 119.828 366.125 119.422C364.294 119.219 363.887 119.422 363.683 121.25C363.48 122.469 363.073 123.281 362.462 123.281C361.648 123.281 361.445 122.062 361.852 118.609ZM293.877 119.828C295.505 117.594 295.505 115.969 294.081 116.984C293.47 117.391 292.86 117.594 292.656 117.391C291.638 116.375 292.249 114.344 293.47 113.734C294.895 113.125 297.54 115.156 297.54 116.984C297.54 118.812 295.302 121.453 294.081 121.453C292.656 121.656 292.656 121.656 293.877 119.828ZM267.42 120.031C267.827 119.016 274.747 117.797 277.189 118.406C278.206 118.609 279.02 119.219 279.02 119.828C279.02 120.437 277.189 120.844 272.915 120.844C269.252 120.641 267.216 120.437 267.42 120.031ZM332.342 117.594C331.528 116.781 332.749 115.766 334.784 115.766C337.43 115.766 339.261 116.375 339.261 117.391C339.465 118 333.156 118.203 332.342 117.594ZM332.138 114.344C330.917 113.328 332.342 112.719 336.005 112.922C338.244 113.125 340.075 113.531 339.872 113.937C339.668 114.547 332.749 114.953 332.138 114.344ZM95.0416 109.469C95.0416 108.453 95.4486 107.641 95.8556 107.641C96.2627 107.641 96.6697 108.453 96.6697 109.469C96.6697 110.484 96.2627 111.297 95.8556 111.297C95.4486 111.297 95.0416 110.484 95.0416 109.469ZM245.44 105.812C240.556 102.562 238.724 95.4531 241.98 92.2031C243.812 90.3749 251.342 87.3281 253.784 87.3281C254.598 87.3281 255.209 87.9374 255.209 88.5468C255.209 89.3593 254.395 89.7656 253.174 89.7656C250.935 89.7656 245.033 92.2031 242.998 94.0312C239.945 96.6718 242.795 102.969 248.289 105.203C253.377 107.437 256.837 103.172 254.191 98.0937C253.377 96.6718 253.377 95.6562 253.784 95.4531C255.006 94.6406 255.82 95.6562 256.634 99.1093C257.244 101.953 257.244 102.969 256.43 104.594C255.82 105.812 254.802 107.031 254.191 107.234C251.546 108.047 247.882 107.437 245.44 105.812ZM283.701 105.609C282.277 103.781 283.294 100.937 286.551 98.2968C288.993 96.2656 289.4 95.6562 288.789 94.4374C288.179 93.4218 288.179 92.8124 288.789 92.2031C289.4 91.5937 290.01 92.4062 290.824 94.4374C291.638 96.0624 292.453 97.4843 292.656 97.4843C292.86 97.4843 293.877 96.0624 294.691 94.0312C295.505 92.2031 296.726 90.5781 297.133 90.5781C297.947 90.5781 297.337 92.2031 294.895 97.4843C294.081 99.1093 294.081 99.7187 295.098 101.344C295.709 102.359 296.726 103.172 297.133 103.172C297.54 103.172 297.947 103.578 297.947 103.984C297.947 104.391 297.54 104.797 296.93 104.797C295.912 104.797 294.895 103.781 291.435 98.9062L290.214 97.2812L287.365 99.9218C284.922 102.156 284.515 102.766 285.329 103.781C285.94 104.594 285.94 105.203 285.533 105.609C284.922 106.625 284.515 106.422 283.701 105.609ZM322.166 100.531C322.369 99.9218 323.184 99.5156 324.201 99.5156C326.236 99.5156 328.475 97.2812 329.086 94.8437C329.696 92.8124 328.475 92.6093 326.236 94.2343C325.422 94.8437 323.794 95.2499 322.777 95.2499C321.148 95.2499 320.538 94.8437 320.131 93.2187C319.724 91.5937 320.131 90.7812 321.759 89.5624C322.777 88.5468 324.405 87.7343 325.219 87.7343C326.033 87.7343 327.05 87.5312 327.661 87.3281C331.121 85.9062 332.545 93.8281 329.493 98.2968C328.068 100.328 327.254 100.937 324.812 101.141C322.777 101.547 321.962 101.344 322.166 100.531ZM326.643 92.2031C328.882 90.9843 329.493 89.9687 328.068 89.1562C327.05 88.5468 321.759 91.1874 321.352 92.4062C321.148 93.6249 323.998 93.4218 326.643 92.2031ZM265.181 99.9218C265.588 98.9062 277.189 97.4843 279.224 98.2968C281.87 99.3124 279.02 100.328 272.304 100.531C266.402 100.734 264.978 100.531 265.181 99.9218ZM384.646 91.7968C384.646 87.5312 384.849 85.7031 384.849 87.9374C385.053 90.1718 385.053 93.6249 384.849 95.8593C384.849 97.8906 384.646 96.0624 384.646 91.7968ZM343.942 95.6562C343.942 95.2499 344.553 94.8437 345.163 94.4374C346.791 93.8281 350.048 94.6406 349.641 95.6562C348.827 96.4687 343.942 96.4687 343.942 95.6562ZM389.123 94.2343C387.291 93.4218 389.123 92.4062 391.972 92.4062C395.635 92.4062 395.839 91.5937 392.379 90.3749C390.344 89.5624 389.937 89.1562 389.937 87.3281C390.14 84.8906 390.751 84.2812 392.786 84.6874C394.414 85.0937 394.618 86.7187 393.193 87.5312C392.379 87.9374 392.583 88.1406 393.193 88.3437C393.804 88.5468 394.821 89.5624 395.635 90.3749C397.06 91.7968 397.06 91.9999 395.839 93.2187C394.821 94.6406 391.362 95.0468 389.123 94.2343ZM95.6521 89.9687C94.8381 84.8906 95.0416 78.1874 95.8556 78.1874C96.6697 78.1874 97.2803 86.3124 96.6697 90.5781L96.2627 93.6249L95.6521 89.9687ZM344.553 91.9999C344.553 90.7812 346.588 90.3749 350.048 90.7812C354.118 91.1874 353.507 92.2031 348.827 92.6093C345.977 92.8124 344.553 92.6093 344.553 91.9999ZM402.962 91.5937C402.555 89.9687 402.351 89.9687 401.537 91.1874C400.52 92.4062 400.52 92.4062 400.113 91.3906C399.706 90.1718 400.113 89.3593 401.944 86.5156C402.555 85.4999 402.758 85.7031 403.776 86.9218C404.997 88.5468 405.404 93.2187 404.387 93.2187C403.776 93.2187 403.165 92.4062 402.962 91.5937ZM56.7805 90.5781C56.7805 89.7656 56.984 89.5624 57.1875 90.1718C57.391 90.7812 57.391 91.3906 57.1875 91.5937C56.984 91.7968 56.7805 91.3906 56.7805 90.5781ZM364.904 90.5781C362.462 88.7499 361.852 87.9374 362.462 86.3124C362.666 85.4999 363.073 83.2656 363.073 81.2343C363.276 79.2031 363.683 77.1718 364.09 76.5624C365.311 74.9374 369.789 73.7187 372.027 74.328C374.673 74.9374 374.266 76.3593 371.417 76.3593C366.533 76.3593 365.922 76.9687 365.311 80.6249C365.108 82.4531 364.701 84.8906 364.294 85.9062C363.887 87.7343 363.887 87.7343 365.515 86.5156C368.771 84.2812 373.045 85.2968 373.045 88.3437C373.045 89.9687 370.196 91.9999 368.161 91.9999C367.347 91.7968 365.922 91.1874 364.904 90.5781ZM370.806 88.3437C371.824 87.5312 371.62 87.3281 369.585 87.3281C366.94 87.3281 365.108 88.3437 365.922 89.5624C366.533 90.3749 369.382 89.7656 370.806 88.3437ZM409.678 90.5781C409.475 89.9687 409.271 88.5468 409.271 87.5312C409.271 86.3124 408.864 85.7031 407.846 85.7031C407.032 85.7031 406.422 85.2968 406.422 85.0937C406.422 83.8749 409.068 83.4687 412.12 83.8749C414.969 84.4843 415.784 85.7031 413.341 85.7031C412.12 85.7031 411.917 86.1093 411.917 88.7499C411.51 91.7968 410.492 92.8124 409.678 90.5781ZM427.995 87.7343C427.995 85.2968 428.402 83.4687 428.809 83.0624C430.03 82.2499 434.711 87.9374 434.507 89.7656C434.1 91.7968 432.472 92.2031 432.268 90.1718C431.861 87.9374 429.419 87.3281 429.419 89.3593C429.419 90.1718 429.012 90.9843 428.605 91.3906C428.402 91.5937 427.995 90.1718 427.995 87.7343ZM417.005 88.7499C417.005 86.7187 417.208 86.5156 419.04 86.5156C421.685 86.5156 422.5 87.3281 420.871 88.5468C420.057 89.1562 419.854 89.5624 420.464 89.5624C422.296 89.5624 420.668 91.1874 418.836 91.1874C417.412 90.9843 417.005 90.5781 417.005 88.7499ZM445.293 88.9531C445.293 87.7343 445.7 86.3124 446.311 85.9062C446.922 85.4999 447.329 84.6874 447.329 83.8749C447.329 81.4374 448.753 81.8437 450.178 84.8906C450.992 86.5156 451.399 88.1406 451.399 88.5468C451.399 89.7656 449.364 89.7656 448.753 88.5468C448.346 87.9374 447.736 88.3437 446.922 89.5624L445.497 91.3906L445.293 88.9531ZM304.46 89.3593C303.646 88.1406 304.46 87.7343 307.513 88.3437C309.548 88.7499 309.955 89.1562 309.344 89.5624C307.716 90.5781 305.071 90.3749 304.46 89.3593ZM438.17 88.9531C438.577 87.9374 438.17 86.5156 437.56 85.4999C435.932 82.8593 436.949 81.2343 438.781 83.6718C440.002 85.2968 440.206 85.2968 441.02 84.0781C441.427 83.2656 442.241 82.8593 442.648 82.8593C443.055 82.8593 442.851 83.6718 442.241 84.8906C441.02 86.7187 441.02 86.9218 442.444 88.3437C443.869 89.7656 443.869 89.9687 442.037 89.3593C441.02 88.9531 439.798 89.1562 439.188 89.7656C437.763 90.5781 437.56 90.3749 438.17 88.9531ZM454.655 89.1562C454.452 88.5468 454.248 86.7187 454.452 85.0937L454.655 82.2499L457.911 82.4531C462.389 82.6562 463.61 83.8749 462.389 86.9218L461.575 89.1562L461.168 86.9218C460.761 85.0937 460.354 84.6874 458.725 84.4843C456.894 84.2812 456.69 84.4843 456.69 86.9218C456.69 89.5624 455.469 91.1874 454.655 89.1562ZM55.9664 84.8906C55.9664 82.6562 55.7629 80.0156 55.5594 78.9999C55.1523 77.7812 55.3559 77.3749 55.9664 77.7812C56.984 78.5937 57.5945 88.7499 56.7805 88.7499C56.3734 88.7499 55.9664 86.9218 55.9664 84.8906ZM332.545 85.4999C332.545 85.0937 334.987 84.8906 338.04 84.8906C341.093 84.8906 345.774 84.4843 348.827 84.2812C353.915 83.6718 356.357 84.0781 354.525 85.2968C353.1 86.1093 332.545 86.3124 332.545 85.4999ZM373.249 83.4687C373.452 82.8593 375.08 82.4531 378.133 82.2499C380.575 82.0468 383.017 81.8437 383.628 81.6406C384.238 81.4374 391.565 81.0312 399.706 80.8281C408.05 80.6249 418.836 80.2187 424.128 79.8124C437.967 78.7968 446.718 78.7968 446.718 80.2187C446.718 81.0312 444.072 81.2343 432.065 81.2343C423.924 81.2343 417.005 81.4374 416.598 81.6406C416.191 81.8437 410.899 82.2499 404.794 82.4531C389.733 82.8593 376.098 83.4687 374.266 84.0781C373.452 84.2812 373.045 84.0781 373.249 83.4687ZM385.053 72.9062C385.46 64.7812 385.867 64.3749 385.867 71.6874C385.867 75.3437 385.663 78.1874 385.46 78.1874C385.053 78.1874 384.849 75.7499 385.053 72.9062ZM394.821 75.5468C394.618 75.3437 394.414 73.9218 394.414 72.4999C394.414 69.4531 396.653 67.0156 399.299 67.0156C401.944 67.0156 401.537 67.828 398.688 69.2499C396.449 70.2655 396.246 70.6718 396.449 73.1093C396.653 75.7499 395.839 76.7656 394.821 75.5468ZM405.608 72.0937C406.422 68.2343 406.829 67.6249 408.05 67.6249C410.492 67.6249 412.934 73.5156 410.899 74.1249C410.289 74.3281 409.882 73.9218 409.882 73.3124C409.882 71.6874 407.846 71.8906 406.829 73.7187C405.608 76.3593 404.794 75.3437 405.608 72.0937ZM414.562 72.4999C414.155 71.2812 413.545 69.8593 413.341 69.4531C412.731 67.8281 414.562 66.4062 416.801 66.4062C419.447 66.4062 419.854 68.6405 417.412 69.2499C416.191 69.6562 415.987 70.0624 416.191 71.6874C416.801 74.3281 415.376 75.1406 414.562 72.4999ZM361.852 62.1406C361.852 61.3281 362.869 58.4843 364.09 55.8437L366.329 51.1718L364.09 48.9374C362.869 47.7187 361.445 46.7031 361.038 46.7031C360.631 46.7031 360.224 46.2968 360.224 45.8906C360.224 44.4687 362.055 45.0781 364.497 47.5156C366.736 49.5468 367.143 49.7499 367.754 48.7343C369.178 46.2968 371.417 43.8593 371.824 44.4687C372.027 44.6718 371.417 46.4999 370.196 48.1249L368.161 51.1718L369.992 52.5937C371.01 53.4062 371.417 54.2187 371.213 54.4218C371.01 54.6249 369.992 54.4218 369.178 53.6093C367.55 51.9843 366.736 52.7968 364.904 57.6718C364.09 59.4999 363.073 61.5312 362.666 62.1406C362.055 63.3593 361.852 63.3593 361.852 62.1406ZM386.274 58.2812C386.274 55.8437 386.477 54.8281 386.681 56.2499C386.884 57.6718 386.884 59.7031 386.681 60.7187C386.274 61.9374 386.274 60.9218 386.274 58.2812ZM386.884 46.7031C386.884 44.4687 387.088 43.4531 387.291 44.6718C387.495 45.8906 387.495 47.7187 387.291 48.7343C387.088 49.9531 386.884 48.9374 386.884 46.7031ZM387.698 32.8905C387.698 28.0155 388.105 19.4843 388.512 14.203C388.919 8.9218 389.123 4.45305 388.919 4.24992C388.716 4.0468 386.477 4.45305 384.238 5.06242C379.965 6.28117 378.54 6.28117 379.965 4.65617C382.203 2.4218 401.13 -0.218829 401.13 1.6093C401.13 2.01555 398.892 2.4218 396.246 2.62492C393.6 2.82805 391.158 3.2343 390.955 3.43742C390.751 3.64055 390.344 10.3437 389.733 18.2655C389.326 26.1874 388.716 34.9218 388.309 37.3593C387.698 41.2187 387.495 40.6093 387.698 32.8905ZM361.648 29.6405C361.038 27.8124 362.055 11.5624 362.869 10.953C363.276 10.7499 363.48 12.3749 363.48 14.8124C363.48 17.0468 363.887 19.078 364.294 19.078C364.701 19.078 366.533 17.8593 368.568 16.4374C372.231 13.5937 373.452 13.1874 373.452 14.8124C373.452 15.4218 371.417 17.0468 368.771 18.4687C362.869 21.9218 362.462 23.3437 367.347 23.953C372.027 24.5624 376.098 25.9843 376.505 27.203C376.708 28.0155 376.098 27.8124 373.859 26.9999C372.231 26.3905 369.382 25.7812 367.347 25.578L363.683 25.1718V28.0155C363.48 31.0624 362.462 31.8749 361.648 29.6405Z" fill="#003A4E"/>
</svg>
