<svg width="486" height="534" viewBox="0 0 486 534" fill="none" xmlns="http://www.w3.org/2000/svg">
<path opacity="0.1" fill-rule="evenodd" clip-rule="evenodd" d="M186.865 431.568L184.605 432.824L181.34 427.3L183.6 426.045L186.865 431.568ZM192.391 441.36L190.13 442.615L186.865 437.092L189.126 435.836L192.391 441.36ZM197.916 450.9L195.656 452.155L192.391 446.632L194.651 445.377L197.916 450.9ZM203.442 460.691L201.181 461.946L197.916 456.423L200.177 455.168L203.442 460.691ZM208.967 470.231L206.707 471.487L203.442 465.963L205.702 464.708L208.967 470.231ZM214.744 480.023L212.484 481.278L209.219 475.755L211.479 474.499L214.744 480.023ZM220.27 489.563L218.009 490.818L214.744 485.295L217.005 484.04L220.27 489.563ZM225.795 499.354L223.535 500.609L220.27 495.086L222.53 493.831L225.795 499.354ZM231.321 508.894L229.06 510.15L225.795 504.626L228.056 503.371L231.321 508.894ZM236.846 518.686L234.586 519.941L231.321 514.418L233.581 513.162L236.846 518.686ZM299.135 431.568L302.4 426.045L304.66 427.3L301.395 432.824L299.135 431.568ZM293.609 441.36L296.874 435.836L299.135 437.092L295.87 442.615L293.609 441.36ZM288.084 450.9L291.349 445.377L293.609 446.632L290.344 452.155L288.084 450.9ZM282.307 460.691L285.572 455.168L287.833 456.423L284.567 461.946L282.307 460.691ZM276.781 470.231L280.046 464.708L282.307 465.963L279.042 471.487L276.781 470.231ZM271.256 480.023L274.521 474.499L276.781 475.755L273.516 481.278L271.256 480.023ZM265.73 489.563L268.995 484.04L271.256 485.295L267.991 490.818L265.73 489.563ZM260.205 499.354L263.47 493.831L265.73 495.086L262.465 500.609L260.205 499.354ZM254.428 508.894L257.693 503.371L259.953 504.626L256.688 510.15L254.428 508.894ZM248.902 518.686L252.167 513.162L254.428 514.418L251.163 519.941L248.902 518.686ZM242.623 528.226L240.363 529.481L237.098 523.958L239.358 522.702L242.623 528.226ZM245.637 529.481L243.377 528.226L246.642 522.702L248.902 523.958L245.637 529.481ZM146.679 400.186V397.425H153.209V400.186H146.679ZM135.628 400.186V397.425H142.158V400.186H135.628ZM124.577 400.186V397.425H131.107V400.186H124.577ZM113.274 400.186V397.425H119.805V400.186H113.274ZM102.223 400.186V397.425H108.753V400.186H102.223ZM90.9209 400.186V397.425H97.4511V400.186H90.9209ZM79.8698 400.186V397.425H86.4V400.186H79.8698ZM68.5674 400.186V397.425H75.0977V400.186H68.5674ZM57.5163 400.186V397.425H64.0465V400.186H57.5163ZM46.4651 400.186V397.425H52.7442V400.186H46.4651ZM35.1628 400.186V397.425H41.693V400.186H35.1628ZM24.1116 400.186V397.425H30.6419V400.186H24.1116ZM16.0744 389.391L18.3349 390.646L15.0698 396.169L12.8093 394.914L16.0744 389.391ZM21.6 379.599L23.8605 380.855L20.8465 386.629L18.586 385.374L21.6 379.599ZM27.3767 370.059L29.6372 371.315L26.3721 376.838L24.1116 375.583L27.3767 370.059ZM32.9023 360.519L35.1628 361.774L31.8977 367.298L29.6372 366.042L32.9023 360.519ZM38.6791 350.979L40.9395 352.234L37.6744 357.757L35.414 356.502L38.6791 350.979ZM44.4558 341.188L46.7163 342.443L43.4512 347.966L41.1907 346.711L44.4558 341.188ZM49.9814 331.647L52.2419 332.903L48.9767 338.426L46.7163 337.171L49.9814 331.647ZM55.7581 322.107L58.0186 323.363L54.7535 328.886L52.493 327.631L55.7581 322.107ZM61.5349 312.567L63.7953 313.822L60.5302 319.346L58.2698 318.09L61.5349 312.567ZM67.0605 302.776L69.3209 304.031L66.0558 309.554L63.7953 308.299L67.0605 302.776ZM72.8372 293.236L75.0977 294.491L71.8326 300.014L69.5721 298.759L72.8372 293.236ZM78.3628 283.695L80.6232 284.951L77.3581 290.474L75.0977 289.219L78.3628 283.695ZM84.1395 274.155L86.4 275.41L83.1349 280.934L80.8744 279.678L84.1395 274.155ZM97.7023 276.917L95.4418 278.172L92.1767 272.649L94.4372 271.394L97.7023 276.917ZM103.228 286.708L100.967 287.963L97.7023 282.44L99.9628 281.185L103.228 286.708ZM108.753 296.248L106.493 297.504L103.228 291.98L105.488 290.725L108.753 296.248ZM114.279 306.04L112.019 307.295L108.753 301.772L111.014 300.516L114.279 306.04ZM120.056 315.58L117.795 316.835L114.53 311.312L116.791 310.056L120.056 315.58ZM125.581 325.371L123.321 326.626L120.056 321.103L122.316 319.848L125.581 325.371ZM131.107 334.911L128.846 336.166L125.581 330.643L127.842 329.388L131.107 334.911ZM136.633 344.702L134.372 345.958L131.107 340.434L133.367 339.179L136.633 344.702ZM142.158 354.243L139.898 355.498L136.633 349.975L138.893 348.719L142.158 354.243ZM147.935 364.034L145.674 365.289L142.409 359.766L144.67 358.511L147.935 364.034ZM153.46 373.574L151.2 374.829L147.935 369.306L150.195 368.051L153.46 373.574ZM145.674 135.822V133.061H152.205V135.822H145.674ZM134.623 135.822V133.061H141.153V135.822H134.623ZM112.27 135.822V133.061H118.8V135.822H112.27ZM100.967 135.822V133.061H107.498V135.822H100.967ZM89.9163 135.822V133.061H96.4465V135.822H89.9163ZM78.8651 135.822V133.061H85.3953V135.822H78.8651ZM67.5628 135.822V133.061H74.093V135.822H67.5628ZM56.5116 135.822V133.061H62.7907V135.822H56.5116ZM45.2093 135.822V133.061H51.7395V135.822H45.2093ZM34.1581 135.822V133.061H40.6884V135.822H34.1581ZM22.8558 135.822V133.061H29.386V135.822H22.8558ZM18.8372 143.354L16.5767 144.609L13.3116 139.086L15.5721 137.831L18.8372 143.354ZM24.614 152.894L22.3535 154.15L19.0884 148.626L21.3488 147.371L24.614 152.894ZM30.1395 162.686L27.8791 163.941L24.614 158.418L26.8744 157.162L30.1395 162.686ZM35.9163 172.226L33.6558 173.481L30.3907 167.958L32.6512 166.702L35.9163 172.226ZM41.4419 181.766L39.1814 183.272L35.9163 177.749L38.1767 176.494L41.4419 181.766ZM47.2186 191.306L44.9581 192.561L41.693 187.038L43.9535 185.783L47.2186 191.306ZM52.9953 201.097L50.7349 202.353L47.4698 196.829L49.7302 195.574L52.9953 201.097ZM58.5209 210.638L56.2605 211.893L52.9953 206.37L55.2558 205.114L58.5209 210.638ZM64.2977 220.178L62.0372 221.433L58.7721 215.91L61.0326 214.654L64.2977 220.178ZM70.0744 229.718L67.8139 230.973L64.5488 225.45L66.8093 224.195L70.0744 229.718ZM75.6 239.509L73.3395 240.764L70.0744 235.241L72.3349 233.986L75.6 239.509ZM81.3767 249.049L79.1163 250.305L75.8512 244.781L78.1116 243.526L81.3767 249.049ZM86.9023 258.59L84.6419 259.845L81.3767 254.322L83.6372 253.066L86.9023 258.59ZM95.9442 253.819L98.2046 255.075L94.9395 260.598L92.6791 259.343L95.9442 253.819ZM101.721 244.279L103.981 245.535L100.716 251.058L98.4558 249.803L101.721 244.279ZM107.247 234.739L109.507 235.994L106.242 241.518L103.981 240.262L107.247 234.739ZM112.772 224.948L115.033 226.203L111.767 231.726L109.507 230.471L112.772 224.948ZM118.549 215.408L120.809 216.663L117.544 222.186L115.284 220.931L118.549 215.408ZM124.074 205.867L126.335 207.123L123.07 212.646L120.809 211.391L124.074 205.867ZM129.851 196.076L132.112 197.331L128.846 202.855L126.586 201.599L129.851 196.076ZM135.377 186.536L137.637 187.791L134.372 193.315L132.112 192.059L135.377 186.536ZM141.153 176.996L143.414 178.251L140.149 183.774L137.888 182.519L141.153 176.996ZM146.679 167.205L148.94 168.46L145.674 174.234L143.414 172.979L146.679 167.205ZM179.079 135.822V133.061H185.609V135.822H179.079ZM224.791 400.186V397.425H231.321V400.186H224.791ZM191.386 400.186V397.425H197.916V400.186H191.386ZM180.335 400.186V397.425H186.865V400.186H180.335ZM339.07 400.186H332.539V397.425H339.07V400.186ZM350.372 400.186H343.842V397.425H350.372V400.186ZM361.423 400.186H354.893V397.425H361.423V400.186ZM372.726 400.186H366.195V397.425H372.726V400.186ZM383.777 400.186H377.246V397.425H383.777V400.186ZM394.828 400.186H388.298V397.425H394.828V400.186ZM406.13 400.186H399.6V397.425H406.13V400.186ZM417.181 400.186H410.651V397.425H417.181V400.186ZM428.484 400.186H421.953V397.425H428.484V400.186ZM439.535 400.186H433.005V397.425H439.535V400.186ZM450.837 400.186H444.307V397.425H450.837V400.186ZM461.888 400.186H455.358V397.425H461.888V400.186ZM469.926 389.391L473.191 394.914L470.93 396.169L467.665 390.646L469.926 389.391ZM464.149 379.599L467.414 385.123L465.153 386.378L461.888 380.855L464.149 379.599ZM458.623 370.059L461.888 375.583L459.628 376.838L456.363 371.315L458.623 370.059ZM452.846 360.519L456.112 366.042L453.851 367.298L450.586 361.774L452.846 360.519ZM447.321 350.979L450.586 356.502L448.326 357.757L445.06 352.234L447.321 350.979ZM441.544 341.188L444.809 346.711L442.549 347.966L439.284 342.443L441.544 341.188ZM435.767 331.647L439.033 337.171L436.772 338.426L433.507 332.903L435.767 331.647ZM430.242 322.107L433.507 327.631L431.246 328.886L427.981 323.363L430.242 322.107ZM424.465 312.567L427.73 318.09L425.47 319.346L422.205 313.822L424.465 312.567ZM418.688 302.776L421.953 308.299L419.693 309.554L416.428 304.031L418.688 302.776ZM413.163 293.236L416.428 298.759L414.167 300.014L410.902 294.491L413.163 293.236ZM407.386 283.695L410.651 289.219L408.391 290.474L405.126 284.951L407.386 283.695ZM401.86 274.155L405.126 279.678L402.865 280.934L399.6 275.41L401.86 274.155ZM388.298 276.917L391.563 271.394L393.823 272.649L390.558 278.172L388.298 276.917ZM382.521 286.708L385.786 281.185L388.046 282.44L384.781 287.963L382.521 286.708ZM376.995 296.248L380.26 290.725L382.521 291.98L379.256 297.504L376.995 296.248ZM371.47 306.04L374.735 300.516L376.995 301.772L373.73 307.295L371.47 306.04ZM365.944 315.58L369.209 310.056L371.47 311.312L368.205 316.835L365.944 315.58ZM360.419 325.371L363.684 319.848L365.944 321.103L362.679 326.626L360.419 325.371ZM354.893 334.911L358.158 329.388L360.419 330.643L357.153 336.166L354.893 334.911ZM349.116 344.702L352.381 339.179L354.642 340.434L351.377 345.958L349.116 344.702ZM343.591 354.243L346.856 348.719L349.116 349.975L345.851 355.498L343.591 354.243ZM338.065 364.034L341.33 358.511L343.591 359.766L340.326 365.289L338.065 364.034ZM332.539 373.574L335.805 368.051L338.065 369.306L334.8 374.829L332.539 373.574ZM340.326 135.822H333.795V133.061H340.326V135.822ZM351.377 135.822H344.846V133.061H351.377V135.822ZM373.73 135.822H367.2V133.061H373.73V135.822ZM384.781 135.822H378.251V133.061H384.781V135.822ZM396.084 135.822H389.553V133.061H396.084V135.822ZM407.135 135.822H400.605V133.061H407.135V135.822ZM418.186 135.822H411.907V133.061H418.437V135.822H418.186ZM429.488 135.822H422.958V133.061H429.488V135.822ZM440.539 135.822H434.009V133.061H440.539V135.822ZM451.842 135.822H445.312V133.061H451.842V135.822ZM462.893 135.822H456.363V133.061H462.893V135.822ZM467.163 143.354L470.428 137.831L472.688 139.086L469.423 144.609L467.163 143.354ZM461.386 152.894L464.651 147.371L466.912 148.626L463.646 154.15L461.386 152.894ZM455.609 162.686L458.874 157.162L461.135 158.418L457.87 163.941L455.609 162.686ZM450.084 172.226L453.349 166.702L455.609 167.958L452.344 173.481L450.084 172.226ZM444.307 181.766L447.572 176.243L449.833 177.498L446.567 183.021L444.307 181.766ZM438.781 191.306L442.046 185.783L444.307 187.038L441.042 192.561L438.781 191.306ZM433.005 201.097L436.27 195.574L438.53 196.829L435.265 202.353L433.005 201.097ZM427.228 210.638L430.493 205.114L432.753 206.37L429.488 211.893L427.228 210.638ZM421.702 220.178L424.967 214.654L427.228 215.91L423.963 221.433L421.702 220.178ZM415.926 229.718L419.191 224.195L421.451 225.45L418.186 230.973L415.926 229.718ZM410.149 239.509L413.414 233.986L415.674 235.241L412.409 240.764L410.149 239.509ZM404.623 249.049L407.888 243.526L410.149 244.781L406.884 250.305L404.623 249.049ZM398.846 258.59L402.112 253.066L404.372 254.322L401.107 259.845L398.846 258.59ZM389.805 253.819L393.07 259.343L390.809 260.598L387.544 255.075L389.805 253.819ZM384.279 244.279L387.544 249.803L385.284 251.058L382.019 245.535L384.279 244.279ZM378.753 234.739L382.019 240.262L379.758 241.518L376.493 235.994L378.753 234.739ZM372.977 224.948L376.242 230.471L373.981 231.726L370.716 226.203L372.977 224.948ZM367.451 215.408L370.716 220.931L368.456 222.186L365.191 216.663L367.451 215.408ZM361.674 205.867L364.94 211.391L362.679 212.646L359.414 207.123L361.674 205.867ZM356.149 196.076L359.414 201.599L357.153 202.855L353.888 197.331L356.149 196.076ZM350.623 186.536L353.888 192.059L351.628 193.315L348.363 187.791L350.623 186.536ZM344.846 176.996L348.112 182.519L345.851 183.774L342.586 178.251L344.846 176.996ZM339.321 167.205L342.586 172.728L340.326 173.983L337.06 168.46L339.321 167.205ZM306.67 135.822H300.139V133.061H306.67V135.822ZM260.958 400.186H254.428V397.425H260.958V400.186ZM294.614 400.186H288.084V397.425H294.614V400.186ZM305.665 400.186H299.135V397.425H305.665V400.186ZM190.633 88.3724L192.893 89.6277L189.628 95.1509L187.367 93.8956L190.633 88.3724ZM196.409 78.8322L198.67 80.0875L195.405 85.6107L193.144 84.3554L196.409 78.8322ZM201.935 69.0409L204.195 70.2962L200.93 76.0705L198.67 74.8152L201.935 69.0409ZM207.712 59.5007L209.972 60.756L206.707 66.2793L204.447 65.024L207.712 59.5007ZM213.237 49.9605L215.498 51.2158L212.233 56.7391L209.972 55.4838L213.237 49.9605ZM219.014 40.1693L221.274 41.4245L218.009 46.9478L215.749 45.6925L219.014 40.1693ZM224.54 30.6291L226.8 31.8843L223.786 37.6587L221.526 36.4034L224.54 30.6291ZM230.316 21.0889L232.577 22.3441L229.312 27.8674L227.051 26.6121L230.316 21.0889ZM235.842 11.5487L238.102 12.804L234.837 18.3272L232.577 17.0719L235.842 11.5487ZM295.367 88.3724L298.633 93.8956L296.372 95.1509L293.107 89.6277L295.367 88.3724ZM289.591 78.8322L292.856 84.3554L290.595 85.6107L287.33 80.0875L289.591 78.8322ZM283.814 69.0409L287.079 74.5642L284.819 75.8195L281.553 70.2962L283.814 69.0409ZM278.288 59.5007L281.553 65.024L279.293 66.2793L276.028 60.756L278.288 59.5007ZM272.512 49.9605L275.777 55.4838L273.516 56.7391L270.251 51.2158L272.512 49.9605ZM266.986 40.1693L270.251 45.6925L267.991 46.9478L264.726 41.4245L266.986 40.1693ZM261.209 30.6291L264.474 36.1523L262.214 37.4076L258.949 31.8843L261.209 30.6291ZM255.684 21.0889L258.949 26.6121L256.688 27.8674L253.423 22.3441L255.684 21.0889ZM249.907 11.5487L253.172 17.0719L250.912 18.3272L247.646 12.804L249.907 11.5487ZM244.381 2.00846L247.646 7.28068L245.386 8.53597L243.126 4.7701L240.865 8.53597L238.605 7.28068L241.87 2.00846L243.377 2.76164L244.381 2.00846ZM239.358 320.601H239.86V317.337H198.419V317.839C197.916 320.35 196.912 322.86 195.656 325.12L195.405 325.622L213.237 336.418L213.488 335.915C214.744 334.158 216.251 332.401 217.758 330.894C223.786 324.869 231.321 321.354 239.358 320.601ZM212.233 106.951L211.981 106.449L196.158 115.487L196.409 115.989C198.419 120.508 199.423 125.278 199.423 130.048C199.423 130.55 199.423 130.801 199.423 131.303V131.805H239.86V124.776H239.358C231.321 124.023 223.786 120.257 218.009 114.733C215.749 112.223 213.74 109.712 212.233 106.951ZM213.237 283.946L212.986 283.444L195.907 293.487L196.158 293.989C198.419 298.759 199.674 304.031 199.674 309.303C199.674 310.056 199.674 310.81 199.674 311.563V312.065H240.112V300.265H239.609C231.572 299.512 224.037 295.746 218.26 290.223C216.251 288.214 214.493 286.206 213.237 283.946ZM199.172 223.19V223.693C198.67 228.714 196.912 233.735 194.4 238.003L193.898 238.505L211.228 249.049L211.479 248.547C213.237 245.535 215.246 242.522 217.758 240.011C219.265 238.505 220.772 237.25 222.279 236.245L222.781 235.994L215.246 223.19H199.172ZM211.981 350.979L211.479 350.728V351.481C211.228 352.987 211.228 354.243 211.228 355.749C211.228 357.255 211.228 358.511 211.479 360.017V360.77L211.981 360.519C217.005 358.762 222.279 357.255 227.553 356.251L230.567 355.749L227.553 355.247C222.279 354.243 217.005 352.987 211.981 350.979ZM207.963 349.975V349.473L207.712 349.221C200.177 345.958 193.144 341.69 186.865 336.669L186.614 336.418L186.363 336.669C185.609 337.171 185.107 337.673 184.353 338.175L184.102 338.426L199.172 366.293L199.674 366.042C200.679 365.54 201.433 365.038 202.437 364.536C204.195 363.532 206.205 362.779 207.963 362.025L208.214 361.774V361.272C207.963 359.264 207.712 357.506 207.712 355.498C207.712 353.741 207.712 351.732 207.963 349.975ZM177.321 337.673L177.572 338.426L178.074 338.175C180.084 337.171 181.842 336.166 183.349 334.911L183.851 334.409L183.349 333.907C182.093 332.652 180.837 331.647 179.581 330.392C177.823 328.635 176.065 326.877 174.558 324.869L172.549 322.609L173.553 325.371C175.312 329.388 176.316 333.405 177.321 337.673ZM174.809 384.872L174.056 387.382L175.814 385.374C181.34 379.097 187.367 373.825 194.4 369.306L194.902 369.055L179.581 341.188L178.326 341.69V342.192C179.079 346.962 179.581 351.983 179.581 356.753C179.581 363.03 178.828 369.306 177.572 375.332C176.819 378.344 175.814 381.608 174.809 384.872ZM166.772 397.174L167.526 398.429L170.288 392.403C172.8 386.88 174.558 381.106 175.814 375.08C177.07 369.055 177.823 363.03 177.823 356.753C177.823 352.234 177.572 347.464 176.819 342.945V342.443L176.316 342.694C172.549 343.949 168.53 344.702 164.26 344.702C161.749 344.702 159.237 344.451 156.726 343.949H156.223V344.451C155.721 348.217 155.47 351.732 155.47 355.498C155.47 366.293 157.479 377.089 161.246 387.131L161.498 387.633H161.749L165.014 393.157L164.26 393.659L164.512 394.161C165.014 395.165 165.516 396.42 166.27 397.425L166.521 397.927L166.772 397.174ZM166.521 313.571L166.019 312.818L165.516 313.571C160.995 321.856 157.981 330.643 156.474 339.681V340.183H156.977C159.237 340.686 161.749 340.937 164.26 340.937C168.279 340.937 172.046 340.183 175.814 338.928V338.426C174.056 329.639 170.791 321.354 166.521 313.571ZM142.409 286.206L142.158 285.955L141.405 286.708C135.377 292.733 132.112 300.767 132.112 309.303C132.112 317.839 135.377 325.873 141.405 331.898C144.921 335.413 149.442 338.175 154.214 339.681L154.716 339.932V339.43C156.474 329.639 159.991 320.35 164.763 311.563L165.014 311.312L164.763 311.061C161.246 305.035 156.726 299.512 151.953 294.742C148.94 291.478 145.926 288.717 142.409 286.206ZM160.242 149.379L159.237 151.137C158.233 154.15 157.479 157.413 156.726 160.426V160.928H157.228C159.488 161.43 161.749 161.681 164.009 161.681C167.777 161.681 171.544 160.928 175.06 159.673L175.563 159.422V158.92C173.805 150.886 170.791 142.852 166.772 135.571L166.27 134.818L165.767 135.571C165.265 136.324 165.014 137.078 164.512 137.831L164.26 138.333L166.019 139.337L162.753 144.86L161.749 144.107L161.498 144.609C160.995 145.865 160.493 146.869 160.242 148.124L159.991 148.626L160.242 149.379ZM155.219 184.779V185.281L155.721 185.03C157.479 184.528 158.986 184.276 160.744 184.276H161.246V165.196H160.744C159.237 164.945 157.73 164.945 156.474 164.443H155.972V164.945C155.47 169.213 154.967 173.481 154.967 177.749C154.967 180.26 155.219 182.519 155.219 184.779ZM165.767 220.178L166.27 220.931L166.772 220.178C167.274 219.174 168.028 218.42 168.53 217.416C172.549 209.131 175.312 200.093 176.567 190.804V190.302L176.316 190.051C172.298 188.544 168.279 187.54 164.009 187.54C161.247 187.54 158.735 187.791 156.223 188.544H155.721V189.047C157.228 200.093 160.493 210.386 165.767 220.178ZM176.316 186.536L177.07 186.787V186.034C177.321 183.523 177.321 181.013 177.321 178.502C177.321 173.481 176.819 168.711 176.065 163.69V163.188L175.563 163.439C172.8 164.443 170.037 164.945 167.023 165.196H166.521V184.276H167.023C170.288 184.779 173.302 185.532 176.316 186.536ZM156.474 254.322H155.972V254.824C155.47 258.841 155.219 263.109 155.219 267.126C155.219 269.636 155.219 272.147 155.47 274.406V274.908L155.972 274.657C157.73 274.155 159.237 273.904 160.995 273.904H161.498V254.824H160.995C159.488 254.824 157.981 254.573 156.474 254.322ZM185.609 286.457L186.112 285.955L185.609 285.453C179.581 279.93 172.047 276.917 164.009 276.917C161.498 276.917 158.735 277.168 156.223 277.921H155.721V278.423C157.228 288.968 160.493 299.01 165.516 308.299L166.019 309.052L166.521 308.299C170.288 302.274 174.558 296.499 179.833 291.478C181.591 289.972 183.6 288.214 185.609 286.457ZM211.479 270.891V271.394L211.981 271.142C217.005 269.385 222.028 267.879 227.302 267.126L230.316 266.623L227.302 266.121C222.028 265.117 216.753 263.862 211.479 261.853L210.726 261.602V262.355C210.726 263.36 210.726 264.113 210.726 265.117C210.977 266.875 211.228 268.883 211.479 270.891ZM188.372 283.695L188.623 283.946L188.874 283.695C194.651 279.176 201.181 275.662 207.712 272.649L208.214 272.398V271.896C207.712 269.636 207.46 267.126 207.46 264.615C207.46 263.109 207.46 261.602 207.712 260.347V259.845L207.46 259.594C199.926 256.33 192.893 252.062 186.363 246.79L186.112 246.539L185.86 247.292C180.335 251.56 173.805 254.071 167.023 254.824H166.521V273.904H167.023C175.06 274.657 182.595 278.172 188.372 283.695ZM164.009 228.212C160.493 235.241 157.981 242.522 156.726 250.305V250.807H157.228C159.488 251.309 161.749 251.56 164.26 251.56C171.042 251.56 177.823 249.3 183.349 245.284L183.851 245.032L183.349 244.53C182.093 243.526 181.088 242.271 179.833 241.267C175.06 236.497 170.791 230.973 167.023 225.199L166.521 224.446L166.019 225.199C165.516 226.203 164.763 227.207 164.009 228.212ZM154.214 279.427V278.925L153.712 279.176C150.195 280.432 146.93 282.189 143.916 284.7L143.414 285.202L143.916 285.704C147.181 288.214 150.195 290.976 153.209 293.738C154.967 295.495 156.726 297.253 158.233 299.261L160.242 301.52L159.237 298.759C156.726 292.231 155.219 285.955 154.214 279.427ZM154.465 250.054L154.967 250.305V249.803C155.721 245.535 156.977 241.518 158.484 237.25L159.488 234.739L157.73 236.748C156.223 238.505 154.716 240.262 152.958 242.02C151.451 243.526 149.693 245.032 147.935 246.539L147.433 247.041L147.935 247.292C149.944 248.547 152.205 249.552 154.465 250.054ZM140.149 282.691L140.4 282.942L140.651 282.691C144.419 279.427 148.688 277.168 153.209 275.662H153.712V275.159C153.46 272.398 153.46 269.887 153.46 267.126C153.46 262.858 153.712 258.59 154.465 254.322V253.819L153.963 253.568C150.698 252.564 147.684 251.309 144.921 249.3L144.67 249.049L144.419 249.3C132.363 258.59 118.298 264.615 103.228 266.875L99.7116 267.377L103.228 267.879C116.288 270.138 129.098 275.159 140.149 282.691ZM154.214 189.8V189.298L153.712 189.549C149.191 191.055 144.921 193.817 141.656 197.08C135.628 203.106 132.363 211.14 132.363 219.676C132.363 228.212 135.628 236.245 141.656 242.271C142.912 243.526 144.419 244.781 145.926 245.786L146.177 246.037L146.428 245.786C148.186 244.279 150.195 242.522 151.953 240.764C155.972 236.748 159.74 232.229 162.753 227.458C163.507 225.952 164.512 224.195 165.265 222.688L165.516 222.437L165.265 222.186C159.488 212.144 155.721 201.348 154.214 189.8ZM92.6791 264.866L91.6744 266.372H92.6791C110.763 265.619 128.093 259.594 142.66 248.547L143.163 248.045L142.66 247.543C141.405 246.539 140.149 245.535 138.893 244.279C132.363 237.752 128.595 228.714 128.595 219.174C128.595 209.884 132.363 200.846 138.893 194.068C142.912 190.051 147.935 187.038 153.209 185.281H153.712V184.779C153.46 182.268 153.46 179.757 153.46 177.247C153.46 172.728 153.712 168.209 154.465 163.941V163.439L153.963 163.188C153.46 162.937 152.958 162.937 152.456 162.686L151.953 162.434L151.2 163.69L148.94 163.188L149.442 162.434L148.94 162.183C145.172 160.426 141.907 158.166 138.893 155.154C133.87 150.133 130.353 143.354 129.098 136.324V135.822H123.321V133.061H128.595V132.559C128.595 131.805 128.595 131.052 128.595 130.048C128.595 121.01 131.86 112.725 137.888 105.946L138.391 105.444L137.888 105.193C123.572 95.653 106.744 90.6319 89.4139 90.6319C66.0558 90.6319 43.7023 99.921 27.3767 116.491C22.6046 121.261 18.3349 126.533 14.8186 132.307L14.3163 133.061H18.0837V135.822H12.8093L12.5581 136.073C5.27442 149.128 1.50698 163.69 1.50698 178.753C1.50698 202.102 10.8 224.446 27.3767 240.764C43.4512 256.832 64.8 265.87 87.6558 266.372H88.6605L87.1535 263.862L89.4139 262.607L90.1674 263.862L90.4186 263.611L92.6791 264.866ZM174.056 208.378L173.051 210.889L174.809 208.88C176.316 207.123 177.823 205.365 179.581 203.608C181.842 201.348 184.102 199.34 186.363 197.583L186.865 197.331L186.363 196.829C184.102 194.57 181.591 192.812 178.828 191.306L178.326 191.055V191.808C177.321 197.331 175.814 203.106 174.056 208.378ZM178.577 187.038V187.289L178.828 187.54C182.595 189.298 185.86 191.557 188.874 194.57L189.377 195.072L189.628 194.821C191.637 193.315 193.395 192.059 195.405 190.804L195.907 190.553L179.079 161.932L178.577 162.183C178.326 162.434 178.074 162.434 177.823 162.434L177.572 162.686V163.188C178.577 168.209 178.828 173.481 178.828 178.753C179.079 181.515 178.828 184.276 178.577 187.038ZM185.86 158.418L185.609 158.166L185.358 158.418C185.107 158.669 184.605 158.92 184.353 159.171L183.851 159.422L200.679 188.042L201.181 187.791C209.721 183.272 218.763 180.26 228.056 178.753L231.07 178.251L228.056 177.749C212.484 175.238 197.916 168.46 185.86 158.418ZM176.819 158.669L177.07 159.171L177.572 158.92C179.33 158.166 180.837 157.162 182.344 156.158L182.846 155.907L182.344 155.405C181.34 154.652 180.586 153.647 179.581 152.643C177.823 150.886 176.065 148.877 174.307 146.869L172.298 144.609L173.302 147.371C174.809 151.137 176.065 154.903 176.819 158.669ZM191.386 106.7L190.884 107.202L191.135 107.704C192.391 109.21 193.395 110.717 194.4 112.223L194.651 112.725L210.474 103.687L210.223 103.185C209.47 101.427 208.967 99.67 208.465 97.6615V97.1594L207.963 97.4104C201.935 99.921 196.409 102.934 191.386 106.7ZM174.558 135.822H168.279L168.781 136.575C172.298 142.099 176.316 147.12 180.837 151.639C181.842 152.643 182.846 153.647 183.851 154.652L184.102 154.903L184.353 154.652C185.107 154.15 185.86 153.396 186.363 152.643C190.884 148.124 193.898 142.601 195.153 136.324V135.822H190.13V133.061H195.907V132.559C195.907 131.805 195.907 130.801 195.907 130.048C195.907 122.516 193.395 115.236 188.372 109.461L188.121 108.959L187.619 109.21C185.107 111.219 182.846 113.227 180.586 115.487C176.316 119.755 172.549 124.525 169.284 129.546L167.526 133.061H174.558V135.822ZM239.107 177.247H239.609V137.078H198.67V137.58C197.163 144.358 193.898 150.384 189.126 155.154C188.623 155.656 187.87 156.158 187.367 156.911L186.865 157.413L187.367 157.915C201.935 169.464 220.27 176.494 239.107 177.247ZM201.935 189.298L201.433 189.549L218.763 218.922H239.86V179.255H239.358C226.298 179.757 213.488 183.272 201.935 189.298ZM191.135 196.076L190.633 196.327L190.884 196.829C195.907 202.855 198.921 210.386 199.172 218.42V218.922H212.735L196.912 192.059L196.409 192.31C194.651 193.566 192.893 194.821 191.135 196.076ZM188.372 198.838L188.121 198.336L187.619 198.587C185.358 200.595 183.098 202.604 180.837 204.612C176.819 208.629 173.051 213.148 170.037 217.918C169.284 219.425 168.53 220.931 167.777 222.186L167.526 222.437L167.777 222.688C171.544 228.965 175.814 234.488 181.088 239.509C182.344 240.764 183.6 242.02 184.856 243.024L185.107 243.275L185.358 243.024C185.86 242.522 186.363 242.271 186.865 241.769C192.893 235.743 196.158 227.709 196.158 219.174C195.907 211.893 193.144 204.612 188.372 198.838ZM207.46 258.339L207.963 258.59L208.214 257.836C208.465 256.33 208.967 254.573 209.47 253.066L209.721 252.564L191.386 241.518L191.135 241.769C190.381 242.522 189.628 243.526 188.874 244.279C188.623 244.53 188.121 245.032 187.87 245.284L187.619 246.037L188.121 246.288C193.898 251.309 200.679 255.326 207.46 258.339ZM190.381 284.951L189.879 285.202L190.381 285.704C191.386 286.708 192.14 287.712 192.893 288.968L193.144 289.47L210.474 279.176L210.223 278.674C209.721 277.419 209.219 276.164 208.967 274.908L208.716 274.406L208.214 274.657C201.935 277.168 195.907 280.683 190.381 284.951ZM184.856 332.903L185.107 333.154L185.358 332.903C185.86 332.652 186.112 332.15 186.614 331.898C192.642 325.873 195.907 317.839 195.907 309.303C195.907 301.269 192.893 293.487 187.367 287.712L187.116 287.461L186.614 287.712C184.605 289.47 182.595 291.227 180.586 293.236C175.312 298.508 170.54 304.533 166.772 311.061L166.521 311.312L166.772 311.563C167.023 311.814 167.023 312.065 167.023 312.316C170.791 318.592 175.312 324.367 180.335 329.388C182.093 330.392 183.349 331.647 184.856 332.903ZM207.963 347.715L208.465 347.966L208.716 347.464C209.219 345.456 209.972 343.196 210.726 341.188L210.977 340.686L192.893 329.639L192.642 330.141C191.637 331.647 190.381 332.903 189.126 334.158C188.874 334.409 188.623 334.66 188.372 334.911L187.87 335.413L188.372 335.664C194.149 340.686 200.93 344.451 207.963 347.715ZM236.093 397.425H239.86V390.897H239.358C231.321 390.144 223.786 386.378 218.009 380.855C213.488 376.336 210.223 370.561 208.716 364.285L208.465 363.783L207.963 364.034C206.205 364.787 204.698 365.54 202.94 366.293C201.935 366.796 201.181 367.298 200.177 367.8L199.674 368.051L215.749 397.676H220.019V400.437H217.256L225.544 415.752L226.046 415.501C230.065 413.241 234.586 411.986 239.107 411.484H239.609V400.437H236.093V397.425ZM153.963 100.423V99.67L153.46 99.921C149.693 101.176 146.177 103.436 142.912 105.946L142.409 106.449L142.912 106.951C146.428 109.461 149.693 112.474 152.707 115.487C154.465 117.244 156.223 119.252 157.981 121.261L159.991 123.52L158.986 120.508C156.474 113.98 154.967 107.202 153.963 100.423ZM178.326 114.482L176.065 112.976L179.33 107.453L181.591 108.708L178.326 114.482ZM168.028 126.784L169.033 127.286L169.284 126.784C170.037 125.78 170.791 124.776 171.544 123.772L171.795 123.269L170.288 122.516L173.553 116.993L175.814 118.248L176.065 117.997C176.819 116.993 177.823 116.24 178.577 115.236L178.828 114.984L179.33 114.482C181.591 112.223 183.851 110.214 186.363 108.206L186.865 107.955L186.363 107.453C184.856 105.946 183.349 104.691 181.591 103.436L181.088 103.185C175.814 99.921 170.037 98.1636 163.758 98.1636C160.995 98.1636 158.484 98.4147 155.721 99.1679H155.219V99.67C156.474 110.465 159.74 120.759 164.763 130.299L165.265 131.052L168.028 126.784ZM246.14 320.601H246.642C254.679 321.354 262.214 325.12 267.991 330.643C269.498 332.15 271.005 333.907 272.26 335.664L272.512 336.166L290.344 325.371L290.093 324.869C288.837 322.609 288.084 320.099 287.33 317.588V317.086H246.14V320.601ZM274.019 106.449L273.767 106.951C272.26 109.712 270.251 112.223 267.991 114.482C262.214 120.257 254.679 123.772 246.642 124.525H246.14V131.554H286.577V131.052C286.577 130.55 286.577 130.299 286.577 129.797C286.577 125.027 287.581 120.257 289.591 115.738L289.842 115.236L274.019 106.449ZM273.014 283.444L272.763 283.946C271.256 286.206 269.749 288.214 267.991 289.972C262.214 295.746 254.679 299.261 246.642 300.014H246.14V311.814H286.577V311.312C286.577 310.559 286.577 309.805 286.577 309.052C286.577 303.78 287.833 298.508 290.093 293.738L290.344 293.236L273.014 283.444ZM286.828 223.693V223.19H270.753L263.219 235.994L263.721 236.245C265.228 237.501 266.735 238.756 268.242 240.011C270.753 242.522 272.763 245.284 274.521 248.547L274.772 249.049L292.102 238.505L291.851 238.003C289.088 233.484 287.33 228.714 286.828 223.693ZM274.521 351.481V350.728L274.019 350.979C268.995 352.736 263.721 354.243 258.447 355.247L255.433 355.749L258.447 356.251C263.721 357.255 268.995 358.511 274.019 360.519L274.521 360.77V360.017C274.772 358.511 274.772 357.255 274.772 355.749C275.023 354.243 274.772 352.736 274.521 351.481ZM299.637 336.669L299.386 336.418L299.135 336.669C292.856 341.69 285.823 345.958 278.288 349.221L278.037 349.473V349.975C278.288 351.983 278.54 353.741 278.54 355.749C278.54 357.757 278.288 359.766 278.037 361.523V362.025L278.288 362.276C280.298 363.03 282.056 364.034 283.814 364.787C284.819 365.289 285.572 365.791 286.577 366.293L287.079 366.544L302.149 338.677L301.898 338.426C300.893 337.673 300.391 337.171 299.637 336.669ZM302.4 333.907L301.898 334.409L302.4 334.911C304.158 336.166 305.916 337.171 307.674 338.175L308.177 338.426L308.428 337.673C309.433 333.405 310.437 329.388 311.944 325.371L312.949 322.609L310.94 324.869C309.433 326.877 307.674 328.635 305.916 330.392C305.163 331.647 303.907 332.652 302.4 333.907ZM310.186 385.374L311.944 387.382L311.191 384.872C310.186 381.608 309.181 378.595 308.679 375.332C307.423 369.306 306.67 363.03 306.67 356.753C306.67 351.983 307.172 346.962 307.926 342.192V341.69L306.67 341.188L291.349 369.055L291.851 369.306C298.633 373.825 304.912 379.097 310.186 385.374ZM324.502 387.382L325.005 386.88C329.023 376.838 330.781 366.042 330.781 355.247C330.781 351.481 330.53 347.966 330.028 344.2V343.698H329.526C327.014 344.2 324.502 344.451 321.991 344.451C317.972 344.451 313.953 343.698 309.935 342.443L309.433 342.192V342.694C308.679 347.213 308.428 351.732 308.428 356.502C308.428 362.528 308.93 368.804 310.437 374.829C311.693 380.855 313.702 386.629 315.963 392.152L318.726 398.178L319.479 396.922L320.484 397.425L320.735 396.922C321.237 395.918 321.991 394.663 322.493 393.659L322.744 393.157L321.991 392.654L324.502 387.382ZM320.484 313.571L319.981 312.818L319.479 313.571C315.209 321.354 311.944 329.639 310.186 338.426V338.928L310.688 339.179C314.456 340.686 318.223 341.188 322.242 341.188C324.753 341.188 327.014 340.937 329.526 340.434H330.028V339.932C327.767 330.643 324.753 321.856 320.484 313.571ZM320.986 310.81L320.735 311.061L320.986 311.312C325.758 319.848 329.274 329.388 331.033 339.179V339.681L331.535 339.43C336.307 337.924 340.828 335.162 344.344 331.647C350.372 325.622 353.637 317.588 353.637 309.052C353.637 300.516 350.372 292.482 344.344 286.457L343.591 285.704L343.34 285.955C340.074 288.465 336.809 291.227 333.795 294.24C329.023 299.512 324.753 305.035 320.986 310.81ZM319.981 139.839L321.74 138.835L321.488 138.333C321.237 137.58 320.735 136.827 320.233 136.073L319.73 135.32L319.228 136.073C315.209 143.354 312.195 151.137 310.437 159.422V159.924L310.94 160.175C314.456 161.43 318.223 162.183 321.991 162.183C324.251 162.183 326.512 161.932 328.772 161.43H329.274V160.928C328.521 157.664 327.767 154.652 326.763 151.639L325.758 149.882L326.26 149.63L326.009 149.128C325.507 147.873 325.256 146.869 324.753 145.614L324.502 145.111L323.498 145.865L319.981 139.839ZM330.028 185.281L330.53 185.532V185.03C330.781 182.77 330.781 180.511 330.781 178.251C330.781 173.983 330.53 169.715 329.777 165.447V164.945H329.274C327.767 165.196 326.26 165.447 325.005 165.698H324.502V184.779H325.005C326.512 184.528 328.27 184.779 330.028 185.281ZM309.684 190.051L309.433 190.302V190.804C310.688 200.093 313.451 209.131 317.47 217.416C317.972 218.42 318.726 219.174 319.228 220.178L319.73 220.931L320.233 220.178C325.507 210.638 328.772 200.093 330.279 189.298V188.796H329.777C327.265 188.042 324.502 187.791 321.991 187.791C317.721 187.791 313.451 188.544 309.684 190.051ZM308.679 186.034V186.787L309.433 186.536C312.446 185.532 315.712 184.779 318.726 184.528H319.228V165.447H318.726C315.963 165.196 312.949 164.694 310.186 163.69L309.684 163.439V163.941C308.93 168.711 308.428 173.732 308.428 178.753C308.428 181.013 308.679 183.523 308.679 186.034ZM330.028 274.908L330.53 275.159V274.657C330.781 272.147 330.781 269.887 330.781 267.377C330.781 263.109 330.53 259.092 330.028 255.075V254.573H329.526C328.019 254.824 326.512 255.075 325.005 255.326H324.502V274.406H325.005C326.512 274.155 328.27 274.406 330.028 274.908ZM300.391 285.704L299.888 286.206L300.391 286.708C302.4 288.465 304.409 290.223 306.419 292.231C311.442 297.253 315.963 303.027 319.73 309.052L320.233 309.805L320.735 309.052C325.758 299.763 329.023 289.721 330.53 279.176V278.674H330.028C327.516 277.921 324.753 277.67 322.242 277.67C313.953 277.419 306.167 280.181 300.391 285.704ZM274.772 262.355V261.602L274.019 261.853C268.995 263.862 263.721 265.117 258.195 266.121L255.181 266.623L258.195 267.126C263.47 268.13 268.493 269.385 273.516 271.142L274.019 271.394V270.891C274.27 268.883 274.521 267.126 274.521 265.117C275.023 264.113 274.772 263.109 274.772 262.355ZM296.874 283.695L297.126 283.946L297.377 283.695C303.153 278.172 310.688 274.657 318.726 274.155H319.228V255.075H318.726C311.944 254.573 305.414 251.811 299.888 247.543L299.637 247.292L299.386 247.543C293.107 252.815 285.823 257.083 278.288 260.347L278.037 260.598V261.1C278.288 262.607 278.288 264.113 278.288 265.368C278.288 267.879 278.037 270.138 277.535 272.649V273.151L278.037 273.402C284.567 275.662 290.846 279.427 296.874 283.695ZM328.772 250.807H329.274V250.305C327.767 242.773 325.256 235.241 321.991 228.463C321.237 227.458 320.735 226.454 319.981 225.45L319.479 224.697L318.977 225.45C315.46 231.224 311.191 236.748 306.167 241.518C304.912 242.773 303.907 243.777 302.651 244.781L302.149 245.284L302.651 245.535C308.177 249.552 314.958 251.811 321.74 251.811C324.251 251.56 326.512 251.309 328.772 250.807ZM332.288 278.925L331.786 278.674V279.176C330.781 285.704 329.274 291.98 327.014 298.006L326.009 300.767L328.019 298.508C329.526 296.499 331.284 294.742 333.042 292.985C336.056 289.972 339.07 287.461 342.335 284.951L342.837 284.449L342.335 283.946C339.07 282.189 335.805 280.181 332.288 278.925ZM337.814 247.292L338.316 247.041L337.814 246.539C336.056 245.032 334.549 243.526 332.791 242.02C331.033 240.262 329.526 238.756 328.019 236.748L326.26 234.739L327.265 237.25C328.772 241.267 329.777 245.535 330.781 249.803V250.305L331.284 250.054C333.795 249.552 335.805 248.547 337.814 247.292ZM332.037 274.908V275.41H332.539C337.312 276.917 341.581 279.176 345.098 282.44L345.349 282.691L345.6 282.44C356.651 274.908 369.46 269.887 382.772 267.879L386.288 267.377L382.772 266.875C367.702 264.615 353.637 258.59 341.581 249.3L341.33 249.049L341.079 249.3C338.316 251.058 335.302 252.564 332.037 253.568H331.535V254.071C332.037 258.339 332.539 262.607 332.539 266.875C332.539 269.636 332.288 272.398 332.037 274.908ZM332.288 189.549L331.786 189.298V189.8C330.279 201.097 326.512 212.144 320.735 222.186L320.484 222.437L320.735 222.688C321.739 224.195 322.493 225.952 323.246 227.458C326.512 232.229 330.028 236.748 334.046 240.764C335.805 242.522 337.563 244.279 339.572 245.786L339.823 246.037L340.074 245.786C341.581 244.781 343.088 243.526 344.344 242.271C350.372 236.245 353.637 228.212 353.637 219.676C353.637 211.14 350.372 203.106 344.344 197.08C341.079 193.566 336.809 191.055 332.288 189.549ZM467.665 133.061H471.432L470.93 132.307C467.414 126.533 463.144 121.261 458.372 116.491C441.795 99.921 419.693 90.6319 396.335 90.6319C379.005 90.6319 362.428 95.653 347.86 105.193L347.358 105.444L347.86 105.946C353.888 112.474 357.153 121.01 357.153 130.048C357.153 130.801 357.153 131.554 357.153 132.559V133.061H362.428V135.822H356.651V136.324C355.395 143.605 351.879 150.133 346.856 155.154C343.842 158.166 340.577 160.426 336.809 162.183L336.307 162.434L336.809 163.188L334.549 164.443L333.795 163.188L333.293 163.439C332.791 163.69 332.288 163.69 331.786 163.941L331.284 164.192V164.694C332.037 169.213 332.288 173.481 332.288 178C332.288 180.511 332.288 183.021 332.037 185.532V186.034H332.539C338.065 187.791 342.837 190.804 346.856 194.821C353.386 201.348 357.153 210.386 357.153 219.927C357.153 229.216 353.386 238.254 346.856 245.032C345.6 246.288 344.595 247.292 343.088 248.296L342.586 248.798L343.088 249.3C357.656 260.347 374.986 266.372 393.07 267.126H394.074L393.07 265.619L395.33 264.364L395.581 264.615L396.335 263.36L398.595 264.615L397.088 267.126H398.093C420.698 266.623 442.298 257.585 458.372 241.518C474.949 224.948 484.242 202.855 484.242 179.506C484.242 164.443 480.474 149.882 473.191 136.827L472.939 136.575H467.414V133.061H467.665ZM299.386 196.829L298.884 197.331L299.386 197.583C301.646 199.591 303.907 201.599 306.167 203.608C307.926 205.365 309.433 206.872 310.94 208.88L312.698 210.889L311.693 208.378C309.684 202.855 308.428 197.331 307.674 191.808V191.055L306.921 191.306C304.158 192.812 301.646 194.57 299.386 196.829ZM289.591 190.804L290.093 191.055C292.102 192.31 294.112 193.566 295.87 195.072L296.121 195.323L296.623 194.821C299.637 191.808 302.902 189.549 306.67 187.791L306.921 187.54V187.289C306.67 184.528 306.419 181.766 306.419 178.753C306.419 173.481 306.921 168.209 307.674 163.188V162.686L307.423 162.434C307.172 162.434 306.921 162.183 306.67 162.183L306.167 161.932L289.591 190.804ZM257.944 177.749L254.93 178.251L257.944 178.753C267.237 180.26 276.53 183.523 284.819 187.791L285.321 188.042L302.149 159.422L301.646 159.171C301.395 158.92 300.893 158.669 300.642 158.418L300.391 158.166L300.139 158.418C288.084 168.46 273.516 175.238 257.944 177.749ZM312.446 147.622L313.451 144.86L311.442 147.12C309.684 149.128 307.926 151.137 306.167 152.894C305.163 153.898 304.409 154.652 303.405 155.656L302.902 156.158L303.405 156.409C304.912 157.413 306.419 158.418 308.177 159.171L308.679 159.422L308.93 158.92C309.935 154.903 310.939 151.137 312.446 147.622ZM294.614 107.453L294.865 106.951L294.363 106.7C289.34 102.934 283.563 99.67 277.786 97.1594L277.284 96.9083L277.033 97.4104C276.53 99.1679 276.028 101.176 275.274 102.934L275.023 103.436L290.846 112.474L291.098 111.972C292.353 110.465 293.358 108.959 294.614 107.453ZM295.619 135.822H290.595V136.324C291.851 142.601 294.865 148.124 299.386 152.643C300.139 153.396 300.642 153.898 301.395 154.652L301.646 154.903L301.898 154.652C302.902 153.647 303.907 152.643 304.912 151.639C309.433 147.12 313.451 142.099 316.967 136.575L317.47 135.822H311.442V133.061H318.474L316.465 129.797C313.2 124.776 309.433 120.006 305.163 115.738C302.902 113.478 300.642 111.47 298.13 109.461L297.628 109.21L297.377 109.712C292.605 115.487 289.842 122.767 289.842 130.299C289.842 131.052 289.842 132.056 289.842 132.81V133.312H295.367V135.822H295.619ZM298.633 157.413L299.135 156.911L298.633 156.409C298.13 155.907 297.377 155.405 296.874 154.652C292.102 149.882 288.586 143.605 287.33 137.078V136.575H246.14V176.996H246.642C265.73 176.494 283.814 169.464 298.633 157.413ZM284.316 189.549L283.814 189.298C272.26 183.272 259.702 179.757 246.642 179.255H246.14V218.922H267.237L284.316 189.549ZM294.865 196.829L295.116 196.327L294.614 196.076C292.856 194.821 291.098 193.566 289.088 192.31L288.586 192.059L272.763 218.922H286.326V218.42C286.828 210.386 289.842 202.855 294.865 196.829ZM300.642 243.526L300.893 243.777L301.395 243.526C302.651 242.271 303.907 241.267 305.163 240.011C310.186 234.99 314.707 229.216 318.474 223.19L318.726 222.939L318.474 222.688C317.721 221.182 316.967 219.676 316.214 218.42C312.949 213.65 309.433 209.131 305.414 205.114C303.153 202.855 300.893 200.846 298.633 199.089L298.13 198.838L297.879 199.34C292.856 205.114 290.093 212.395 290.093 220.178C290.093 228.714 293.358 236.748 299.386 242.773C299.637 242.773 300.139 243.024 300.642 243.526ZM277.535 258.087L277.786 258.841L278.288 258.59C285.321 255.577 291.851 251.56 297.879 246.79L298.381 246.539L297.879 246.037C297.628 245.786 297.126 245.284 296.874 245.032C296.121 244.279 295.367 243.526 294.614 242.522L294.363 242.271L276.028 253.317L276.279 253.819C276.781 254.824 277.284 256.33 277.535 258.087ZM295.619 285.704L296.121 285.202L295.619 284.951C290.093 280.683 284.065 277.419 277.786 274.657L277.284 274.406L277.033 274.908C276.781 276.164 276.279 277.419 275.777 278.674L275.526 279.176L292.856 289.47L293.107 288.968C293.86 287.712 294.614 286.708 295.619 285.704ZM300.391 332.903L300.642 333.154L300.893 332.903C302.149 331.647 303.656 330.392 304.912 329.137C309.935 324.116 314.456 318.341 318.223 312.065C318.474 311.814 318.474 311.563 318.474 311.312L318.726 311.061L318.474 310.81C314.707 304.282 309.935 298.257 304.66 292.985C302.651 290.976 300.642 289.219 298.633 287.461L298.13 287.21L297.879 287.461C292.353 293.487 289.34 301.018 289.34 309.052C289.34 317.588 292.605 325.622 298.633 331.647C299.637 332.15 300.139 332.652 300.391 332.903ZM297.628 335.915L298.13 335.664L297.628 335.162C297.377 334.911 297.126 334.66 296.874 334.409C295.619 333.154 294.363 331.647 293.358 330.392L293.107 329.89L275.023 340.937L275.274 341.439C276.279 343.447 276.781 345.456 277.284 347.715L277.535 348.217L278.037 347.966C285.07 344.451 291.6 340.686 297.628 335.915ZM265.73 397.425H270L286.074 367.8L285.572 367.549C284.567 367.047 283.814 366.544 282.809 366.042C281.302 365.289 279.544 364.536 277.786 363.783L277.284 363.532L277.033 364.034C275.526 370.31 272.26 376.085 267.74 380.604C261.963 386.378 254.428 389.893 246.391 390.646H245.888V397.174H249.656V399.935H246.14V410.982H246.642C251.163 411.484 255.684 412.739 259.702 414.999L260.205 415.25L268.493 399.935H265.73V397.425ZM327.014 120.508L326.009 123.269L328.019 121.01C329.777 119.001 331.535 117.244 333.293 115.236C336.307 112.223 339.572 109.21 343.088 106.7L343.591 106.197L343.088 105.695C340.074 102.934 336.558 100.925 332.539 99.67L332.037 99.4189V100.172C331.033 107.202 329.274 113.98 327.014 120.508ZM242.372 232.982C234.084 233.233 226.298 236.497 220.27 242.271C215.498 247.041 212.484 252.815 211.479 259.343V259.845L211.981 260.096C221.526 263.611 231.572 265.619 241.87 265.87C242.121 265.87 242.372 265.87 242.623 265.87V267.628C242.372 267.628 242.121 267.628 241.87 267.628C231.823 267.879 222.028 269.636 212.484 273.151L211.981 273.402V273.904C213.488 279.176 216.251 284.197 220.27 287.963C226.046 293.738 234.084 297.253 242.372 297.253V299.512H243.377V297.253C251.665 297.001 259.451 293.738 265.479 287.963C269.498 283.946 272.26 279.176 273.767 273.904V273.402L273.265 273.151C263.972 269.636 253.926 267.879 243.879 267.628C243.628 267.628 243.377 267.628 243.126 267.628V265.87C243.377 265.87 243.628 265.87 243.879 265.87C254.177 265.619 264.223 263.862 273.767 260.096L274.27 259.845V259.343C273.265 252.815 270 246.79 265.479 242.271C259.702 236.497 251.665 232.982 243.377 232.982V231.224H242.372V232.982ZM243.377 387.633C251.665 387.382 259.451 384.118 265.479 378.344C269.749 374.076 272.763 368.553 274.019 362.779V362.276L273.516 362.025C263.721 358.26 253.423 356.502 243.126 356.502V354.996C253.423 354.996 263.721 352.987 273.516 349.473L274.019 349.221V348.719C272.763 342.694 269.749 337.422 265.479 333.154C259.702 327.379 251.665 323.865 243.377 323.865V321.605H242.372V323.865C234.084 324.116 226.298 327.379 220.27 333.154C216 337.422 212.986 342.945 211.73 348.719V349.221L212.233 349.473C222.028 353.238 232.326 354.996 242.623 354.996V356.502C232.326 356.502 222.028 358.511 212.233 362.025L211.73 362.276V362.779C212.986 368.804 216 374.076 220.27 378.344C226.046 384.118 234.084 387.633 242.372 387.633V389.893H243.377V387.633ZM239.358 229.969H239.86V223.19H221.526L227.553 233.484L228.056 233.233C231.321 231.475 235.34 230.22 239.358 229.969ZM246.14 229.718H246.642C250.66 230.22 254.679 231.224 258.195 232.982L258.698 233.233L264.726 222.939H246.14V229.718ZM307.423 114.482L304.158 108.959L306.419 107.704L309.684 113.227L307.423 114.482ZM317.972 126.784L320.484 131.052L320.986 130.299C326.009 120.759 329.274 110.465 330.53 99.67V99.1679H330.028C327.516 98.4147 324.753 98.1636 321.991 98.1636C315.712 98.1636 309.935 99.921 304.66 103.185L304.158 103.436C302.4 104.691 300.893 105.946 299.386 107.453L298.884 107.955L299.386 108.206C301.898 110.214 304.158 112.223 306.419 114.482L306.921 114.984L307.172 115.236C308.177 116.24 308.93 116.993 309.684 117.997L309.935 118.248L312.195 116.993L315.46 122.516L313.953 123.269L314.205 123.772C314.958 124.776 315.712 125.78 316.465 126.784L316.716 127.286L317.972 126.784ZM277.033 400.186V397.425H283.563V400.186H277.033ZM316.716 397.425V400.186H310.186V397.425H316.716ZM316.716 396.42L314.205 392.906C307.926 384.119 299.888 376.587 290.846 370.561L290.344 370.31L264.223 418.262L264.474 418.513C265.479 419.267 266.735 420.271 267.488 421.275C271.507 425.292 274.521 430.313 276.279 435.585L276.53 436.087L277.033 435.836C287.33 431.317 296.874 425.041 304.66 417.007C306.67 414.748 308.93 412.739 310.688 410.229L312.949 406.463L313.451 406.714L313.702 406.463C314.456 405.458 315.209 404.454 315.712 403.45L315.963 402.948L315.209 402.446L316.214 400.688L317.721 398.178L316.716 396.42ZM322.744 135.822V133.061H329.274V135.822H322.744ZM321.991 135.822L322.242 136.324C324.251 139.839 325.758 143.605 327.265 147.622L327.516 148.124L328.019 147.873L331.284 153.396L329.526 154.401V154.903C329.777 156.158 330.279 157.413 330.53 158.669L330.781 159.422L331.033 160.677L332.288 160.175L331.535 158.92L333.795 157.664L334.8 159.422L335.302 159.171C338.819 157.664 342.084 155.405 344.846 152.643C350.874 146.618 354.139 138.584 354.139 130.048C354.139 121.763 350.874 113.98 345.349 107.955L345.098 107.704L344.846 107.955C341.33 110.465 337.814 113.478 334.8 116.491C330.53 120.759 326.512 125.529 323.246 130.801L322.242 132.307C322.242 132.307 322.242 132.307 322.242 132.559L321.991 133.061C321.991 133.312 321.74 133.312 321.74 133.563L321.488 133.814L321.74 134.065C321.991 134.567 322.242 134.818 322.493 135.32L321.991 135.822ZM208.967 397.425V400.186H202.437V397.425H208.967ZM169.033 400.186V397.425H175.563V400.186H169.033ZM169.033 400.939L170.037 402.697L169.284 403.199L169.535 403.701C170.288 404.705 171.042 405.71 171.544 406.714L171.795 406.965L172.298 406.714L174.558 410.48C176.567 412.739 178.577 414.999 180.586 417.258C188.623 425.292 197.916 431.568 208.214 436.087L208.716 436.339L208.967 435.836C210.726 430.313 213.74 425.543 217.758 421.526C218.763 420.522 219.767 419.518 220.772 418.765L221.023 418.513L194.902 370.561L194.4 370.812C185.358 376.838 177.321 384.37 171.042 393.157L168.53 396.671L167.023 398.68L169.033 400.939ZM163.256 133.061V135.822H156.726V133.061H163.256ZM163.256 130.801C159.991 125.529 155.972 120.759 151.702 116.491C148.688 113.478 145.172 110.465 141.656 107.955L141.405 107.704L140.902 107.955C135.126 113.98 132.112 121.763 132.112 130.048C132.112 138.584 135.377 146.618 141.405 152.643C144.167 155.405 147.433 157.664 150.949 159.171L151.451 159.422L152.456 157.664L154.716 158.92L153.963 160.175L155.219 160.677L155.47 159.422L155.721 158.669C155.972 157.413 156.223 156.158 156.726 154.903V154.401L154.967 153.396L158.233 147.873L158.735 148.124L158.986 147.622C160.493 143.856 162 140.09 164.009 136.324L164.26 135.822L164.512 135.069C164.763 134.567 165.014 134.316 165.265 133.814L165.516 133.563L165.265 133.312C165.265 133.061 165.014 133.061 165.014 132.81L164.763 132.307C164.763 132.307 164.763 132.307 164.763 132.056L163.256 130.801ZM244.13 1.75741H243.377V0C266.986 0.251058 289.34 9.5402 306.167 26.11C322.995 42.9309 332.288 65.5261 332.288 89.3766C332.288 91.3851 332.288 93.6446 332.037 95.653V96.1552H332.539C337.563 97.6615 342.084 100.423 345.851 103.938L346.102 104.189L346.353 103.938C361.172 94.1467 378.251 88.8745 396.084 88.8745C419.944 88.8745 442.549 98.1636 459.377 114.984C464.651 120.257 469.172 126.031 472.939 132.307L473.191 132.559H476.205L474.698 135.069L474.949 135.32C482.233 148.375 485.749 163.188 485.749 178.251C485.749 202.102 476.456 224.697 459.628 241.518C446.065 255.075 428.484 263.862 409.646 266.875L406.13 267.377L409.646 267.879C428.484 270.64 445.814 279.678 459.377 292.985C476.205 309.805 485.498 332.401 485.498 356.251C485.498 380.102 476.205 402.697 459.377 419.518C442.549 436.339 419.944 445.628 396.084 445.628C381.767 445.628 367.953 442.364 355.395 435.836C345.349 430.815 336.307 423.786 328.772 415.25L327.014 413.241L327.767 415.752C328.772 419.016 329.777 422.028 330.279 425.292C331.535 431.317 332.288 437.594 332.288 443.87C332.288 467.721 322.995 490.316 306.167 507.137C289.34 523.958 266.986 533.247 243.377 533.247V532.243C266.484 531.992 288.586 522.953 304.912 506.384C321.488 489.814 330.781 467.721 330.781 444.372C330.781 438.347 330.279 432.071 328.772 426.045C327.516 420.02 325.507 414.245 323.246 408.722L319.981 401.693L324.502 407.969C332.539 419.267 343.34 428.556 355.898 434.832C368.205 441.109 382.019 444.372 395.833 444.372C419.191 444.372 441.544 435.083 457.87 418.513C463.144 413.241 467.916 407.216 471.684 400.688L472.186 399.935H466.409V397.174H472.939V398.931L473.944 397.174C480.474 384.621 483.991 370.561 483.991 356.502C483.991 333.154 474.698 310.81 458.121 294.491C442.549 278.925 421.702 269.636 399.349 268.883H398.344L399.098 270.138L396.837 271.394L395.581 269.134L395.33 268.632H395.079C378 268.883 361.172 273.904 347.107 283.444L346.605 283.695L347.107 284.197C353.637 290.725 357.405 299.763 357.405 309.052C357.405 318.341 353.637 327.379 347.107 334.158C343.088 338.175 337.814 341.439 332.288 342.945H331.786V343.447C332.288 347.213 332.539 351.23 332.539 354.996C332.539 362.276 331.535 369.808 329.777 376.838V377.34L332.539 378.846L329.274 384.37L327.767 383.616L327.516 384.119C327.014 385.374 326.763 386.378 326.26 387.633L326.009 388.135L326.763 388.638L323.498 394.161H323.246L322.995 394.663C322.744 395.416 322.242 395.918 321.991 396.671L321.488 397.425H327.516V400.186H321.488V398.178L320.484 399.935C320.233 400.186 319.981 400.688 319.981 400.939L319.73 401.19L318.726 402.697L317.972 403.952L317.721 404.454C316.967 405.458 316.465 406.463 315.712 407.467L315.46 407.969L315.963 408.22L312.698 413.743L311.442 412.99L311.191 413.241C310.437 414.246 309.433 415.25 308.679 416.003L308.177 416.505L310.186 417.76L306.921 423.284L304.66 422.028L307.172 417.76L304.66 420.271C296.874 427.552 287.833 433.577 277.786 437.845L277.284 438.096V438.598C277.786 441.36 278.288 443.87 278.288 446.632C278.288 455.921 274.521 464.959 267.991 471.738C261.46 478.265 252.67 482.031 243.628 482.031V478.516C251.916 478.265 259.702 475.001 265.73 469.227C271.758 463.202 275.023 455.168 275.023 446.632C275.023 444.372 274.772 442.113 274.27 439.853V439.351L273.767 439.602C264.223 443.117 253.926 444.875 243.628 444.875V443.368C253.674 443.368 263.721 441.611 273.265 438.096L273.767 437.845L273.516 437.343C272.009 432.322 269.246 427.803 265.479 424.037C259.702 418.262 251.665 414.748 243.377 414.748V412.488H242.372V414.748C234.084 414.999 226.298 418.262 220.27 424.037C216.502 427.803 213.74 432.322 212.233 437.343L211.981 437.845L212.484 438.096C222.028 441.611 232.074 443.368 242.121 443.368V444.875C231.823 444.875 221.777 443.117 211.981 439.602L211.479 439.351V439.853C210.977 442.113 210.726 444.372 210.726 446.632C210.726 455.168 213.991 463.202 220.019 469.227C225.795 475.001 233.833 478.516 242.121 478.516V482.031C232.828 481.78 224.288 478.265 217.758 471.738C211.228 465.21 207.46 456.172 207.46 446.632C207.46 443.87 207.712 441.109 208.465 438.598V438.096L207.963 437.845C198.167 433.577 188.874 427.803 181.088 420.271L178.577 417.76L181.088 422.028L178.828 423.284L175.563 417.76L177.572 416.505L177.07 416.003C176.316 414.999 175.312 414.246 174.558 413.241L174.307 412.99L173.051 413.743L169.786 408.22L170.288 407.969L170.037 407.467C169.284 406.463 168.53 405.458 168.028 404.454L167.777 403.952L167.023 402.697L166.019 401.19L165.767 400.939C165.516 400.688 165.265 400.186 165.265 399.935L164.26 398.178V400.186H157.73V397.425H163.758L163.256 396.671C163.005 395.918 162.502 395.416 162.251 394.663L162 394.161H161.749L158.484 388.638L159.237 388.135L158.986 387.633C158.484 386.378 157.981 385.374 157.73 384.119L157.479 383.616L155.972 384.37L152.707 378.846L155.47 377.34V376.838C153.712 369.808 152.707 362.276 152.707 354.996C152.707 351.23 152.958 347.213 153.46 343.447V342.945H152.958C147.433 341.188 142.409 338.175 138.14 334.158C131.609 327.631 127.842 318.592 127.842 309.052C127.842 299.763 131.358 290.976 138.14 284.197L138.642 283.695L138.14 283.444C123.823 273.904 107.247 268.632 90.1674 268.632H89.9163L89.6651 269.134L88.4093 271.394L86.1488 270.138L86.9023 268.883H85.8977C63.7953 269.636 42.9488 278.925 27.1256 294.491C10.5488 311.061 1.25581 333.154 1.25581 356.502C1.25581 370.812 4.77209 384.621 11.3023 397.174L12.307 398.931V397.174H18.8372V399.935H13.3116L13.814 400.688C17.5814 407.216 22.3535 413.241 27.6279 418.513C44.2046 435.083 66.307 444.372 89.6651 444.372C103.73 444.372 117.293 441.109 129.6 434.832C141.907 428.556 152.707 419.267 160.995 407.969L165.767 401.693L162.502 408.722C159.991 414.245 158.233 420.02 156.977 426.045C155.721 432.071 154.967 438.096 154.967 444.372C154.967 467.721 164.26 490.065 180.837 506.384C197.163 522.702 219.265 531.992 242.372 532.243V533.749C218.763 533.498 196.409 524.209 179.581 507.639C162.753 490.818 153.46 468.223 153.46 444.372C153.46 438.096 154.214 431.82 155.47 425.794C156.223 422.53 156.977 419.267 157.981 416.254L158.735 413.743L156.977 415.752C149.442 424.288 140.4 431.317 130.353 436.339C117.795 442.866 103.73 446.13 89.6651 446.13C65.8046 446.13 43.2 436.841 26.3721 420.02C9.54419 403.199 0.251163 380.604 0.251163 356.753C0.251163 332.903 9.54419 310.307 26.3721 293.487C39.9349 279.93 57.2651 271.142 76.1023 268.381L79.6186 267.879L76.1023 267.377C57.0139 264.615 39.6837 255.577 26.1209 242.02C9.29302 225.199 0 202.353 0 178.753C0 163.69 3.76744 149.128 10.8 135.822L11.0512 135.571L9.54418 133.061H12.5581V132.81C16.3256 126.533 20.8465 120.508 26.1209 115.487C42.9488 98.6657 65.5535 89.3766 89.4139 89.3766C107.246 89.3766 124.326 94.6488 139.144 104.44L139.395 104.691L139.646 104.44C143.414 100.925 147.935 98.1636 152.958 96.6573H153.46V96.1552C153.209 94.1467 153.209 91.8872 153.209 89.8787C153.209 66.0282 162.502 43.433 179.33 26.6121C196.409 9.5402 218.763 0.251058 242.372 0V1.50635H241.619H241.116H240.865H240.614C218.009 2.00846 196.66 11.2976 180.586 27.1143C164.009 43.6841 154.716 65.7772 154.716 89.1255C154.716 91.134 154.716 92.8914 154.967 94.8999V95.402L155.47 95.1509C158.233 94.3978 160.995 94.1467 163.507 94.1467C170.288 94.1467 176.819 96.1552 182.595 99.67L183.098 99.921L184.605 97.4104L186.865 98.6657L185.107 101.427L185.358 101.678C186.363 102.432 187.367 103.436 188.372 104.44L189.126 105.193L189.377 104.942C194.902 100.925 200.679 97.6615 206.958 94.8999L207.209 94.6488V94.1467C206.958 92.3893 206.707 90.3808 206.707 88.6234C206.707 79.3343 210.474 70.2962 217.005 63.5176C223.535 56.9901 232.326 53.2243 241.367 53.2243V56.7391C233.079 56.9901 225.293 60.2539 219.265 66.0282C213.237 72.0536 209.972 80.0875 209.972 88.6234C209.972 89.8787 209.972 91.3851 210.223 92.6404V93.3935L210.726 93.1425C220.521 89.6277 230.819 87.6192 241.116 87.6192V89.1255C230.819 89.1255 220.521 91.134 210.726 94.6488L210.223 94.8999V95.402C211.479 101.427 214.493 106.951 218.763 111.219C224.54 116.993 232.577 120.508 240.865 120.508V123.269H241.87V120.508C250.158 120.257 257.944 116.993 263.972 111.219C268.242 106.951 271.256 101.427 272.512 95.402V94.8999L272.009 94.6488C262.214 90.8829 251.916 89.1255 241.619 89.1255V87.6192C251.916 87.6192 262.465 89.6277 272.009 93.1425L272.512 93.3935V92.6404C272.763 91.3851 272.763 89.8787 272.763 88.6234C272.763 80.0875 269.498 72.0536 263.47 66.0282C257.693 60.2539 249.656 56.7391 241.367 56.7391V53.2243C250.66 53.4753 259.2 56.9901 265.73 63.5176C272.26 70.0451 276.028 79.0832 276.028 88.6234C276.028 90.3808 275.777 92.3893 275.526 94.1467V94.6488L275.777 94.8999C282.056 97.6615 287.833 100.925 293.358 104.942L293.609 105.193L294.363 104.44C295.367 103.436 296.372 102.683 297.377 101.678L297.628 101.427L295.87 98.6657L298.13 97.4104L299.637 99.921L300.139 99.67C305.916 95.9041 312.446 94.1467 319.228 94.1467C321.991 94.1467 324.753 94.3978 327.265 95.1509L327.767 95.402V94.8999C327.767 92.8914 328.019 91.134 328.019 89.1255C328.019 65.7772 318.726 43.433 302.149 27.1143C286.074 11.0465 264.726 2.00846 242.121 1.50635H241.87H241.619L244.13 1.75741Z" fill="#9CE7FF"/>
</svg>
