<svg width="506" height="398" viewBox="0 0 506 398" fill="none" xmlns="http://www.w3.org/2000/svg">
<path opacity="0.2" d="M276.109 296.151C276.109 295.19 275.869 294.469 275.389 294.469C274.908 294.469 274.428 294.95 274.428 295.91C274.428 296.871 274.668 297.592 275.148 297.592C275.629 297.592 276.109 296.871 276.109 296.151ZM281.394 300.714C280.914 299.273 279.712 298.072 278.752 298.072C277.791 297.832 276.83 298.793 276.59 299.994C276.109 301.675 276.59 302.396 279.232 302.636C282.115 303.116 282.355 302.636 281.394 300.714ZM265.539 300.714L272.266 301.675V295.91C272.266 290.867 272.025 289.906 269.143 288.224C267.461 287.024 265.54 285.582 265.059 284.862C264.098 283.661 251.367 277.176 250.886 277.656C250.886 277.896 250.646 282.94 250.646 289.185V300.474L254.73 299.994C257.132 299.994 261.936 300.234 265.539 300.714ZM243.439 300.474C250.406 299.513 250.165 299.994 249.204 285.342L248.724 275.735L244.64 274.294C238.635 272.132 227.344 270.691 226.864 272.372C226.624 273.093 226.143 280.058 226.143 287.744L225.903 301.915L231.428 301.675C234.551 301.435 239.836 300.954 243.439 300.474ZM211.49 301.675C217.976 301.435 223.741 301.195 224.222 301.195C224.942 301.195 225.663 274.053 224.942 271.892C224.702 270.691 221.099 271.411 206.205 274.774C200.44 275.975 195.395 277.656 194.915 278.377C194.434 279.097 194.194 284.862 194.194 291.587V303.596L197.077 303.116C198.278 302.395 205.004 301.915 211.49 301.675ZM224.222 305.278C223.981 304.077 222.06 305.518 221.819 307.68C221.819 309.841 223.741 316.567 223.981 315.606C224.462 314.645 224.462 306.479 224.222 305.278ZM187.948 302.876C192.513 302.636 192.753 302.395 192.513 299.273C192.272 297.352 192.272 292.308 192.513 287.744C192.753 280.779 192.753 279.578 191.071 279.578C190.11 279.338 189.149 279.818 188.909 280.538C188.669 281.259 186.987 282.46 185.306 283.661C180.021 287.023 171.854 295.91 171.854 298.793C171.613 303.116 172.814 303.356 187.948 302.876ZM170.893 300.474C170.893 298.552 170.652 298.312 169.451 299.753C168.731 300.714 168.01 301.675 168.01 302.155C168.01 302.396 168.491 302.876 169.451 302.876C170.172 302.876 170.893 301.915 170.893 300.474ZM212.451 310.802C212.451 308.64 212.691 308.64 213.892 310.562C215.093 312.483 215.574 312.243 217.015 309.601C217.976 307.92 219.177 306.719 219.657 307.439C220.138 308.16 220.618 307.439 220.618 306.238C220.618 304.557 219.898 303.837 217.255 303.356C216.775 303.356 211.49 303.596 208.607 304.317C206.445 304.797 206.445 305.998 206.445 306.238C206.686 306.959 207.646 307.439 208.848 307.199C211.01 306.479 211.25 308.64 209.328 311.042C208.367 312.243 208.607 312.724 210.049 312.964C211.49 313.204 212.451 312.483 212.451 310.802ZM198.038 305.518C195.395 304.557 193.473 305.518 193.233 308.4C193.233 310.322 193.473 310.322 196.596 308.64C199.719 306.479 199.959 306.238 198.038 305.518ZM211.73 315.846C211.73 315.125 207.166 314.405 206.926 314.405C206.445 314.405 205.244 319.209 205.244 322.091C205.965 322.091 211.73 316.567 211.73 315.846ZM204.043 305.038C202.842 303.356 195.155 312.483 194.434 312.483C193.714 312.483 194.915 325.453 194.915 327.135C194.675 331.938 200.68 327.615 203.082 321.13C204.524 317.287 205.965 307.68 204.043 305.038ZM298.69 340.345C298.93 334.1 296.768 323.532 293.645 317.767C289.562 309.601 286.439 306.959 280.433 305.998L274.668 305.278L274.908 311.763C274.908 315.366 275.148 323.772 275.148 330.257V342.267L298.45 345.629L298.69 340.345ZM266.26 342.507C269.863 342.267 273.227 341.786 273.467 341.546C273.947 340.825 273.467 323.772 272.746 312.003L272.266 305.998L266.5 313.204L268.903 313.684C270.344 313.924 271.305 314.885 271.305 315.606C271.305 316.567 270.824 317.047 270.344 317.047C269.863 317.047 267.461 318.968 265.059 321.61C259.294 327.855 258.093 327.615 258.813 320.41C259.054 317.287 259.534 313.444 259.534 312.003C259.774 308.4 261.696 308.881 261.456 312.724C261.456 314.405 261.456 315.846 261.696 315.846C262.657 316.086 269.383 305.998 268.903 305.278C268.662 304.797 264.338 304.317 259.534 304.317L250.646 304.077L250.886 310.322C251.126 319.689 252.087 337.943 252.327 340.345C252.808 342.267 256.651 342.987 266.26 342.507ZM209.808 321.61C208.367 320.65 203.803 331.938 204.283 333.62C204.524 334.581 205.484 334.581 206.686 333.62C208.367 332.179 221.339 333.38 222.54 328.816C223.741 324.253 221.819 313.444 220.859 312.243C219.417 310.322 210.049 321.851 209.808 321.61ZM244.16 341.306H251.126L250.886 336.502C250.646 333.86 250.406 325.453 249.925 317.767C249.685 310.081 249.445 303.596 249.445 303.356C249.445 303.116 248.003 303.116 246.322 303.356C244.64 303.596 239.355 303.596 234.551 303.356C225.903 303.116 225.663 303.116 225.423 306.959C225.423 309.121 225.663 313.684 225.903 316.807C226.624 321.851 227.104 322.811 229.026 323.292C231.188 323.532 231.188 323.532 229.747 320.41C228.305 317.287 228.305 317.047 229.987 317.287C233.11 317.767 238.635 322.811 238.875 325.213C238.875 326.414 237.434 328.816 235.512 330.257C231.188 333.86 229.987 333.62 230.948 329.777C231.428 327.375 231.188 326.654 229.506 326.414C226.624 325.934 225.903 327.615 226.384 334.34L226.624 339.865L231.909 340.585C234.791 341.066 240.316 341.306 244.16 341.306ZM180.742 330.497C181.222 330.017 184.105 329.296 186.987 329.056L192.272 328.576L192.032 320.65C192.032 316.326 192.032 311.282 192.032 309.361C192.272 306.238 191.792 305.758 187.948 305.278C185.546 305.038 181.222 305.278 178.34 305.758L173.055 306.959L172.574 317.287C171.854 331.458 172.094 332.659 176.178 332.179C178.34 331.698 180.261 330.978 180.742 330.497ZM224.462 339.144C224.702 338.664 224.462 335.061 224.222 333.62C221.339 334.34 205.244 338.664 205.244 338.424C204.764 339.624 216.535 340.345 219.657 340.105C222.06 339.865 224.222 339.384 224.462 339.144ZM201.881 336.502C201.881 336.022 204.764 326.654 204.764 324.733C204.764 324.253 197.077 330.738 197.077 331.698C196.837 333.62 199.719 336.262 199.719 336.982C200.2 339.384 201.881 339.144 201.881 336.502ZM198.038 338.664C197.797 337.703 197.077 336.262 196.116 335.781C194.675 335.061 194.675 335.301 195.635 337.703C196.596 340.825 198.278 341.546 198.038 338.664ZM186.747 339.624C193.714 339.624 193.714 339.624 193.714 335.541C193.714 330.978 193.233 330.738 181.222 333.38C172.814 335.061 169.932 338.424 176.178 339.144C178.099 339.384 182.663 339.624 186.747 339.624ZM170.652 337.463C170.412 336.982 169.692 336.742 168.971 336.982C168.25 337.463 168.491 337.703 169.451 337.943C170.412 338.183 170.893 337.943 170.652 337.463ZM165.848 334.581C166.329 333.86 167.53 333.38 168.49 333.38C169.932 333.62 170.172 332.179 170.412 325.453C170.652 321.13 170.652 314.885 170.652 311.523C170.412 306.719 169.932 305.758 168.25 305.518C166.088 305.278 159.362 313.684 159.122 317.047C159.122 318.008 158.401 320.65 157.44 322.811C156.72 324.973 155.519 328.816 155.038 331.458L154.077 336.262L159.362 336.022C162.485 336.022 165.368 335.301 165.848 334.581ZM283.796 368.207C284.277 368.207 285.478 368.207 286.439 368.207C287.64 368.447 289.802 367.006 291.243 365.084C293.885 361.722 297.969 352.835 298.209 349.712C298.209 348.752 294.366 347.791 287.159 347.07L276.109 345.869L275.869 356.678C275.869 362.682 275.869 367.967 275.869 368.447C276.109 369.408 279.953 369.167 283.796 368.207ZM273.227 368.687C273.467 368.447 273.467 363.403 273.467 357.398V346.59L252.808 343.708L252.568 349.712C252.327 353.075 252.568 356.197 253.048 356.918C253.529 357.398 253.769 360.281 253.528 363.163L253.288 368.207L263.137 368.687C268.662 368.927 272.986 368.927 273.227 368.687ZM251.367 367.246C251.607 367.006 251.607 361.722 251.607 355.477V343.948L243.439 343.227C238.875 342.747 233.35 342.747 230.948 342.747L226.624 342.987V352.354C226.624 357.638 226.864 362.682 226.864 363.643C227.104 364.844 230.708 365.565 239.115 366.285C245.601 367.246 251.126 367.486 251.367 367.246ZM279.953 375.172L282.835 372.53L278.992 372.05C275.629 371.569 275.148 372.05 274.908 374.452C274.668 378.295 276.349 378.535 279.953 375.172ZM216.294 366.045C217.736 365.565 220.378 365.084 222.06 365.565L225.182 366.045V355.717C225.182 349.953 224.702 344.909 224.462 344.428C224.222 343.948 221.099 343.467 217.736 343.227L211.49 342.987V348.271C211.25 353.315 211.25 353.555 212.691 351.153C214.132 348.511 216.054 349.472 216.054 352.595C216.054 354.276 210.049 363.163 209.808 362.202C206.686 353.315 206.205 349.232 208.607 350.913C209.808 351.874 210.049 351.394 209.568 349.232C209.328 347.791 209.088 345.869 209.088 345.149C209.088 344.428 206.205 343.227 202.842 342.747C199.239 342.267 196.356 342.507 196.356 343.227C196.356 345.149 197.317 362.682 197.557 364.844C197.557 367.006 211.49 367.967 216.294 366.045ZM185.066 368.207C187.228 367.726 190.591 367.006 192.513 366.766C196.596 366.285 196.836 364.364 194.915 350.913L193.714 342.267L187.468 342.026C184.105 341.786 179.3 342.026 177.138 342.267C173.055 342.747 173.055 342.747 173.055 348.031C173.055 350.913 173.295 356.678 173.535 360.761C174.016 367.967 174.256 368.207 177.619 368.687C179.541 368.927 182.904 368.687 185.066 368.207ZM167.77 369.408C171.854 368.927 172.094 368.687 171.854 365.084C171.613 362.923 171.613 357.158 171.373 352.114C171.133 343.227 171.133 343.227 168.25 342.747C166.569 342.507 162.725 342.507 159.602 342.507C153.116 342.747 152.636 344.188 154.798 354.516C158.161 369.168 159.122 370.128 167.77 369.408ZM259.294 386.701C260.735 386.221 262.417 385.5 263.137 385.02C263.618 384.539 265.78 383.339 267.942 382.618C272.025 380.937 272.986 379.496 273.467 374.452L273.707 370.849L263.858 370.609C258.573 370.368 254.009 370.368 253.769 370.609C253.769 370.849 253.528 374.932 253.769 379.736C253.769 386.941 254.249 388.382 255.45 388.142C255.69 387.662 257.852 387.182 259.294 386.701ZM239.836 391.025C244.4 390.784 248.724 389.583 249.445 388.623C250.406 387.182 250.886 384.059 251.126 378.535C251.126 373.971 251.126 370.128 250.886 369.888C250.646 369.648 245.361 369.408 239.115 369.648L227.585 370.128L227.104 380.456C226.624 392.466 225.663 391.985 239.836 391.025ZM173.295 380.696C173.535 374.932 171.613 372.53 167.53 373.01C163.206 373.491 163.206 374.452 168.49 379.736C172.574 383.819 173.055 384.059 173.295 380.696ZM219.898 393.426L224.702 393.186L225.182 385.981C225.423 381.897 225.423 376.613 225.182 373.731C224.942 368.927 224.702 368.687 220.618 368.927C218.216 369.168 212.691 369.168 208.127 368.927C203.563 368.927 199.479 369.167 199.239 369.648C198.758 370.128 198.758 374.452 198.998 379.015C199.719 390.304 198.998 390.544 197.557 379.496L196.356 370.609H188.909C175.217 370.609 174.736 370.849 174.496 376.373C174.016 383.579 175.697 386.221 181.703 388.863C186.747 391.265 210.769 394.147 219.898 393.426ZM70.0002 21.1365C70.4806 17.5337 69.76 16.3327 68.0784 17.7738C66.3969 19.215 65.436 17.7738 67.1175 16.0925C68.3186 14.8916 68.7991 14.8916 70.0002 15.8523C71.6817 17.2935 72.1622 22.8178 70.7208 23.7785C69.76 24.2589 69.5198 23.5383 70.0002 21.1365ZM78.8883 23.7785C78.8883 22.3374 79.609 21.3766 81.5308 20.4159C84.6536 18.9748 84.8939 16.5729 81.771 16.8131C79.1286 16.8131 77.6872 15.1318 79.8492 14.4112C81.5308 13.6907 85.8547 17.2935 85.8547 19.215C85.8547 19.9355 84.6536 21.1365 83.2123 22.0972C81.771 23.058 80.5699 24.2589 80.5699 24.9795C80.5699 25.7 80.0894 26.1804 79.609 26.1804C79.3688 25.9402 78.8883 24.9795 78.8883 23.7785ZM63.5142 24.0187C62.7936 21.6168 62.5534 21.3766 62.5534 23.058C62.5534 24.2589 62.0729 25.2196 61.5925 25.2196C60.3914 25.2196 60.1512 19.9355 61.112 16.5729C61.5925 15.1318 62.0729 12.4897 62.3131 10.5682C62.5534 8.40655 63.274 7.20561 63.9947 7.20561C65.436 7.20561 65.9164 9.60748 64.4751 10.0879C63.9947 10.328 63.5142 12.7299 63.274 15.6122C62.7936 20.1757 63.0338 20.8963 64.2349 20.8963C65.1958 20.8963 65.6762 21.6168 65.6762 22.5776C65.6762 23.5383 66.1567 24.4991 66.8773 24.7393C67.3578 24.9795 67.598 25.4598 67.3578 26.1804C66.3969 27.8617 64.4751 26.9009 63.5142 24.0187ZM74.5644 21.6168C74.8046 14.4112 75.285 12.2495 76.7264 12.2495C77.9275 12.2495 77.2068 18.7346 75.5253 24.2589L74.5644 28.1019V21.6168ZM211.97 47.7972C212.211 46.3561 212.931 44.1944 213.412 42.7533C214.132 41.3122 214.613 39.871 214.613 39.1505C214.613 37.9496 216.054 37.7094 216.775 38.9103C217.015 39.3907 216.775 40.1112 216.054 40.8318C215.333 41.5524 214.613 43.2337 214.373 45.1552C213.892 46.5963 213.412 48.0374 212.931 48.0374C212.451 48.0374 211.97 48.5178 211.73 49.2383C211.73 49.9589 211.73 49.2383 211.97 47.7972ZM245.361 57.6449C245.361 56.444 245.841 53.8019 246.322 51.4L247.523 47.3169L249.445 51.1598C250.406 53.3215 251.607 55.0028 251.847 55.0028C252.568 55.0028 253.288 48.5178 253.288 43.714C253.288 39.3907 254.97 41.072 254.97 45.6355C255.21 57.1645 252.808 61.9683 249.925 55.9636C248.964 53.8019 248.484 53.5617 247.763 54.2823C247.283 55.0028 247.043 56.444 247.043 57.6449C247.043 58.8458 246.802 59.8066 246.082 59.8066C245.841 59.5664 245.361 58.6056 245.361 57.6449ZM456.515 56.444C458.196 54.7626 458.196 53.0813 456.755 53.5617C455.314 54.0421 452.911 57.8851 454.112 57.8851C454.833 57.8851 455.794 57.1645 456.515 56.444ZM453.632 60.5271C452.671 59.3262 451.71 58.1253 451.71 57.4047C451.71 55.7234 456.034 50.6795 457.475 50.6795C459.157 50.6795 459.397 56.444 457.716 57.8851C455.554 59.8066 456.274 60.5271 459.637 60.5271C463.961 60.5271 465.643 59.5664 466.604 57.1645C467.565 54.2823 469.967 53.3215 471.408 55.243C472.129 56.2038 473.09 56.444 474.051 56.2038C475.492 55.7234 476.693 52.3608 475.732 51.1598C474.771 49.9589 469.727 50.4393 469.246 51.8804C468.526 53.5617 467.084 53.5617 467.084 51.8804C467.084 49.9589 470.207 48.5178 473.57 48.758C476.453 48.9982 476.453 49.2383 476.693 52.601C476.933 56.2038 476.693 56.2038 470.928 59.3262C463.721 63.1692 456.755 63.6496 453.632 60.5271ZM232.629 60.7673L236.473 57.1645L234.791 54.0421C233.83 52.3608 233.11 50.4393 233.11 49.9589C233.11 49.4785 234.551 47.557 236.473 45.6355C239.836 42.0327 239.836 40.3514 236.233 38.1897C235.032 37.4692 234.311 37.7094 233.35 39.1505C231.909 41.3122 231.428 40.3514 232.87 37.7094C233.35 36.7486 234.551 36.0281 235.512 36.0281C240.316 36.0281 242.238 43.4739 238.154 47.0767C236.233 48.9982 235.992 49.4785 236.713 54.0421C237.434 59.3262 236.713 61.0075 233.11 63.1692C229.026 65.3309 228.786 64.1299 232.629 60.7673ZM221.099 56.6841C221.099 53.8019 216.535 54.2823 216.294 56.9243C216.054 58.8458 216.294 59.086 218.697 58.8458C220.378 58.6056 221.099 57.8851 221.099 56.6841ZM217.015 63.8898C216.535 63.4094 216.294 62.2084 216.294 61.0075C216.294 59.8066 215.814 58.8458 215.333 58.8458C213.892 58.8458 214.132 55.9636 215.574 53.5617C216.294 52.3608 217.976 51.4 219.177 51.4C220.859 51.4 221.579 52.1206 222.54 54.5225C223.981 58.1253 222.78 60.5271 219.898 60.5271C218.937 60.5271 218.216 61.2477 217.976 62.4486C217.736 63.6496 217.495 64.3701 217.015 63.8898ZM470.447 68.6935C479.576 67.2524 482.699 63.4094 482.699 54.0421C482.699 49.2383 482.699 49.2383 483.419 52.1206C484.62 56.6841 483.419 64.1299 480.537 66.772C478.615 68.6935 477.174 68.9337 471.648 69.1739L465.163 69.4141L470.447 68.6935ZM421.923 71.5757C421.923 70.615 423.124 69.8944 425.286 69.6542C427.208 69.4141 429.85 68.6935 431.291 68.4533C432.733 68.2131 433.694 68.2131 433.694 68.6935C433.694 69.6542 429.129 71.8159 425.286 72.2963C422.884 72.7767 422.163 72.5365 421.923 71.5757ZM368.354 59.8066C367.873 58.3655 367.153 57.6449 365.952 57.6449C363.79 57.6449 363.79 57.6449 366.432 62.4486C368.354 65.8112 368.594 66.0514 368.834 64.1299C368.834 62.929 368.594 61.0075 368.354 59.8066ZM377.002 62.929C379.164 59.5664 378.923 58.6056 376.281 58.6056C371.717 58.6056 371.236 59.3262 371.477 65.8112L371.717 71.8159L373.639 68.6935C374.599 66.772 376.281 64.1299 377.002 62.929ZM367.873 69.4141C365.711 65.8112 363.069 61.9683 361.868 60.7673C358.985 57.6449 359.946 55.4832 364.27 55.4832H367.873L368.594 43.9542C368.834 39.1505 366.192 0 370.516 0C370.996 0 371.477 2.64206 371.477 5.5243C371.717 22.8178 370.756 40.8318 370.756 57.8851L374.359 57.1645C376.281 56.9243 378.923 56.2038 380.125 55.9636C382.046 55.4832 382.287 55.4832 381.806 57.8851C381.326 60.0468 378.443 65.3309 377.002 66.5318C376.761 66.772 375.801 68.9337 375.08 71.3355C374.359 73.7374 373.158 75.6589 372.918 75.6589C372.438 75.8991 370.276 73.0169 367.873 69.4141ZM425.766 75.1785C425.766 74.458 427.208 73.4972 429.85 72.7767C433.934 71.8159 439.219 71.3355 436.817 72.2963C436.096 72.5365 434.174 73.257 432.733 73.9776C427.688 76.3795 425.766 76.6197 425.766 75.1785ZM21.4757 78.5412C21.4757 77.3402 27.241 73.0169 30.3638 71.8159C31.3247 71.5757 32.2856 70.8552 32.0454 70.3748C32.0454 69.8944 32.5258 69.4141 33.0063 69.4141C34.6878 69.4141 33.4867 70.8552 28.4421 75.1785C23.3975 79.9823 21.4757 80.7029 21.4757 78.5412ZM49.8217 80.2225C49.8217 77.5804 49.3412 76.8599 48.1401 76.8599C47.1793 76.8599 45.9782 77.3402 45.4977 78.0608C44.7771 78.7813 44.0564 78.7813 43.3357 78.0608C40.6933 75.6589 46.6988 73.7374 50.7826 75.8991C52.9446 77.1 53.1848 80.7029 51.5032 82.144C50.0619 83.3449 49.8217 82.8645 49.8217 80.2225ZM443.543 79.9823C443.303 77.3402 441.141 75.1785 438.738 75.4187C437.777 75.4187 436.817 74.9384 436.817 74.458C436.817 73.0169 440.42 73.4972 442.342 75.1785C443.783 76.3795 444.263 77.5804 444.023 79.5019C443.783 81.6636 443.543 81.6636 443.543 79.9823ZM393.577 83.3449C394.057 82.3842 394.298 79.9823 394.298 78.301C394.298 75.4187 394.057 75.1785 391.655 75.4187C389.974 75.4187 389.253 75.1785 389.013 74.458C389.013 72.0561 395.739 71.0954 396.7 73.4972C397.42 75.4187 397.661 80.4627 396.94 81.6636C396.7 82.144 395.499 83.1047 394.538 84.0655C393.096 85.2664 393.096 85.0262 393.577 83.3449ZM494.95 81.1832C494.95 78.301 495.19 76.6197 495.911 76.6197C496.631 76.6197 496.872 77.8206 496.631 80.2225C496.391 83.5851 496.391 83.8253 498.313 83.8253C500.235 83.8253 500.235 83.5851 499.754 80.2225C499.274 77.5804 499.514 76.6197 500.475 76.6197C501.436 76.6197 501.916 77.8206 501.916 80.2225C501.916 82.3842 502.397 83.8253 503.117 83.8253C503.838 83.8253 503.838 82.6243 503.598 80.2225C503.117 77.5804 503.358 76.6197 504.318 76.6197C505.279 76.6197 505.76 77.8206 505.76 81.1832L506 85.7468H495.43L494.95 81.1832ZM491.347 78.7813C491.106 78.5412 490.145 78.5412 489.665 78.7813C488.944 79.0215 489.185 79.2617 490.145 79.2617C491.106 79.2617 491.827 79.2617 491.347 78.7813ZM488.704 84.3056C487.743 81.6636 487.983 78.7813 489.425 77.5804C490.626 76.6197 490.866 76.6197 491.587 77.5804C493.028 79.5019 492.788 80.2225 490.626 80.2225C489.425 80.2225 488.704 80.943 488.944 82.144C488.944 83.1047 489.665 84.0655 490.386 84.0655C491.106 84.0655 491.827 84.5458 491.827 85.0262C491.827 86.4673 489.425 85.987 488.704 84.3056ZM473.09 79.0215C472.85 78.7814 471.889 78.7814 471.408 79.0215C470.688 79.2617 470.928 79.5019 471.889 79.5019C472.85 79.5019 473.57 79.2617 473.09 79.0215ZM470.447 84.5458C469.486 81.9038 469.727 79.0215 471.168 77.8206C472.369 76.8599 472.609 76.8599 473.33 77.8206C474.771 79.7421 474.531 80.4627 472.369 80.4627C471.168 80.4627 470.447 81.1832 470.688 82.3842C470.688 83.3449 471.408 84.3056 472.129 84.3056C472.85 84.3056 473.57 84.786 473.57 85.2664C473.57 86.4673 471.168 85.987 470.447 84.5458ZM458.436 79.7421C458.196 75.4187 458.436 73.257 459.397 73.257C460.118 73.257 460.358 74.2178 460.118 75.8991C459.637 78.5412 459.878 78.5412 462.52 78.5412C464.682 78.5412 465.403 78.0608 465.403 76.8599C465.403 75.8991 464.922 74.6982 464.202 74.2178C463.241 73.257 463.481 73.0169 464.922 73.0169C466.604 73.0169 466.844 73.7374 466.844 79.2617C467.084 83.5851 466.604 85.7468 465.883 85.7468C465.163 85.7468 464.922 84.786 465.163 82.6244C465.643 79.5019 465.403 79.5019 462.52 79.5019C459.637 79.5019 459.637 79.5019 460.118 82.6244C460.598 84.786 460.358 85.7468 459.637 85.7468C458.917 85.987 458.436 84.0655 458.436 79.7421ZM435.856 84.5458C434.895 83.5851 434.174 81.6636 434.174 79.2617C434.174 75.6589 434.174 75.6589 434.655 78.7813C434.895 80.4627 435.615 82.3842 436.336 83.1047C438.018 84.5458 441.141 84.786 441.621 83.1047C441.861 82.3842 442.342 82.144 442.822 82.6244C443.783 83.5851 441.141 86.2271 439.219 85.987C438.258 86.2271 436.816 85.5066 435.856 84.5458ZM107.234 88.1486C106.514 86.9477 107.234 86.7075 111.558 85.7468C115.642 85.0262 119.245 82.6243 119.245 81.1832C119.245 79.7421 121.888 78.5412 122.849 79.5019C123.089 79.9823 123.329 81.9038 123.089 83.8253C122.849 85.7468 122.608 86.4673 122.368 85.5066C122.128 83.1047 120.927 82.8645 119.486 84.786C118.525 85.987 110.838 89.1094 108.676 89.1094C108.195 89.1094 107.475 88.629 107.234 88.1486ZM51.263 87.6683C57.5087 83.5851 58.9501 79.0215 56.3076 70.3748L55.587 68.2131L57.5087 70.3748C59.9109 73.0169 60.3914 80.2225 58.7098 84.0655C57.0283 87.4281 52.7043 90.7907 49.5815 90.7907C47.1793 90.5505 47.1793 90.3103 51.263 87.6683ZM397.42 84.5458C400.303 79.0215 403.666 74.9384 404.387 75.8991C404.867 76.3795 403.906 78.0608 402.705 79.9823C401.264 81.9038 399.582 84.5458 398.862 85.987C396.46 90.0701 395.258 88.8692 397.42 84.5458ZM484.38 81.1832C484.38 79.2617 483.9 78.5412 482.939 78.5412C481.978 78.5412 481.498 79.5019 481.738 81.1832C481.738 83.1047 482.218 83.8253 483.179 83.8253C484.14 84.0655 484.62 83.1047 484.38 81.1832ZM480.537 88.1486C480.777 87.1879 480.296 86.2271 479.336 85.5066C477.654 84.3056 477.654 84.3056 479.336 84.3056C480.537 84.3056 481.017 83.5851 480.777 81.4234C480.537 77.8206 478.134 77.8206 477.654 81.1832L477.414 83.5851L477.174 81.1832C476.933 79.7421 477.654 78.301 478.615 77.3402C479.576 76.6197 480.056 75.8991 479.816 75.6589C479.576 75.4187 479.816 74.9384 480.296 74.458C480.777 74.2178 481.257 74.458 481.257 75.1785C481.257 75.8991 481.978 76.6197 482.699 76.6197C484.38 76.6197 485.581 80.2225 484.861 83.3449C484.62 84.5458 483.659 85.7468 482.939 85.7468C481.978 85.7468 481.738 86.2271 482.218 87.6683C482.699 88.8692 482.458 89.5898 481.257 89.5898C480.537 89.5898 480.056 89.1094 480.537 88.1486ZM451.23 81.6636C451.23 80.4627 450.749 79.2617 450.029 79.2617C448.587 78.7814 447.626 81.1832 448.587 83.1047C449.308 85.0262 451.23 84.0655 451.23 81.6636ZM446.906 84.5458C446.906 81.6636 447.146 79.2617 447.626 79.0215C448.107 78.7814 448.828 78.301 449.548 77.5804C450.99 76.3795 452.431 78.0608 452.671 81.4234C452.671 82.6243 452.431 84.3057 451.95 85.0262C451.23 86.2271 450.99 86.2271 449.548 85.0262C448.107 83.8253 447.867 84.0655 448.587 86.7075C449.068 88.8692 448.828 89.5898 448.107 89.5898C447.146 89.8299 446.906 88.1486 446.906 84.5458ZM27.9616 91.5113C27.4812 89.5898 26.7605 87.6683 26.2801 87.4281C24.5986 86.4673 25.3192 84.3056 27.241 84.3056C28.2019 84.3056 29.1627 84.5458 29.1627 85.0262C29.1627 85.5066 30.8443 86.4673 32.766 87.4281C35.4085 88.629 35.8889 89.1094 34.6878 89.3496C33.7269 89.5898 32.5258 89.1094 31.5649 88.3888C28.4421 85.2664 27.9616 86.9477 30.1236 93.673C30.3638 94.6337 30.3638 95.3543 29.8834 95.3543C28.9225 95.1141 28.2019 93.6729 27.9616 91.5113ZM408.951 91.9916C408.951 91.0309 407.99 89.1094 406.789 87.9085C404.627 85.5066 404.627 85.5066 403.186 86.9477C402.465 87.9085 401.744 89.1094 401.744 89.83C401.744 90.5505 401.264 91.0309 400.784 91.0309C399.582 91.0309 399.582 91.0309 401.264 86.9477C402.945 82.8645 408.711 73.4972 409.191 73.9776C409.912 74.6982 407.75 79.9823 406.549 79.9823C405.828 79.9823 405.828 80.2225 406.549 80.943C407.269 81.6636 408.711 81.6636 411.834 80.7028C414.236 79.9823 416.398 79.7421 416.638 80.2225C417.839 81.4234 415.197 82.8645 410.633 83.3449L405.828 84.0655L407.51 86.2272C410.392 89.83 411.593 92.2318 411.113 92.9524C410.152 94.3935 409.191 93.6729 408.951 91.9916ZM75.0448 95.5944C75.0448 95.1141 75.5253 94.8739 76.0057 95.1141C76.4861 95.3543 76.9666 95.8346 76.9666 96.0748C76.9666 96.315 76.4861 96.5552 76.0057 96.5552C75.5253 96.5552 75.0448 96.315 75.0448 95.5944ZM21.7159 96.315C20.755 93.1926 19.7941 87.9085 20.2746 87.9085C20.755 87.9085 23.8779 96.315 24.1181 97.2758C24.1181 98.7169 22.1964 97.7561 21.7159 96.315ZM283.556 97.7561C285.478 93.4328 286.439 91.9916 286.919 91.9916C287.88 91.9916 287.88 92.7122 286.439 95.5944C285.718 97.0356 284.757 98.2365 284.277 98.2365C283.556 98.4767 283.316 98.2365 283.556 97.7561ZM280.193 98.4767C279.953 97.9963 279.953 96.7954 280.433 96.0748C280.914 95.1141 281.394 93.6729 281.634 92.7122C282.355 89.8299 283.316 91.7515 282.595 95.8346C282.355 99.1973 281.394 100.398 280.193 98.4767ZM35.6487 101.119C40.6933 99.1972 40.9335 98.7169 39.252 90.7907C37.5705 81.4234 37.3302 74.9384 39.252 83.3449C39.9727 86.7075 40.6933 89.8299 41.1738 90.3103C41.6542 90.7907 42.1346 93.1926 42.6151 95.3543C43.3357 98.9571 43.0955 99.6776 41.1738 100.879C39.9727 101.599 37.5704 102.32 35.8889 102.32H32.766L35.6487 101.119ZM135.58 90.5505C136.541 90.5505 136.781 89.3496 136.781 86.9477C136.781 84.0655 137.022 83.3449 138.463 82.8645C140.385 82.3842 140.865 78.5412 139.184 78.5412C137.742 78.5412 133.418 83.3449 132.698 85.987C132.457 87.1879 131.737 88.3888 131.256 88.8692C130.055 89.83 131.497 91.7515 133.178 91.0309C133.659 90.7907 134.86 90.5505 135.58 90.5505ZM101.709 104.241C101.709 102.56 102.91 102.079 112.279 100.879C116.603 100.398 120.927 99.4374 121.888 98.9571C122.849 98.4767 124.29 97.9963 125.251 97.9963C126.692 97.9963 128.133 96.315 127.893 94.6337C127.893 93.9131 119.726 94.8739 113 96.5552C106.273 98.2365 105.072 97.9963 106.994 95.8346C107.955 94.8739 111.799 94.1533 118.525 93.1926L128.614 91.9916L129.335 88.3888C129.815 86.4673 130.295 84.3057 130.536 83.8253C130.776 83.1047 130.295 82.6243 128.854 82.8645C127.173 83.1047 126.692 83.8253 126.452 86.7075C125.972 90.0701 125.972 89.83 125.731 85.2664C125.491 78.301 126.212 72.2963 127.653 71.8159C128.614 71.5757 128.614 72.7767 128.614 76.8599C128.374 79.7421 128.614 81.6636 128.854 80.943C129.094 80.2225 130.055 79.7421 131.016 79.7421C131.977 79.7421 133.899 79.0215 135.821 78.0608C138.943 76.3795 139.184 76.3795 141.105 77.8206C142.307 78.7814 143.027 79.9823 143.267 80.7028C143.267 82.144 140.145 85.987 138.943 85.987C138.463 85.987 138.223 86.9477 138.223 88.3888C138.223 90.3103 138.703 90.5505 141.105 90.5505C144.709 90.5505 148.552 86.2271 147.111 83.8253C146.63 82.8645 146.39 81.4234 146.63 80.7028C146.871 79.9823 146.39 78.7813 145.429 78.0608C143.508 76.6197 144.228 75.6589 147.351 75.6589C150.714 75.6589 151.915 77.5804 149.753 79.9823C147.591 82.3842 147.591 83.3449 149.513 85.0262C150.714 85.987 150.714 86.2271 149.513 87.9085C148.072 89.5898 148.312 89.5898 153.837 89.5898C158.882 89.5898 159.602 89.83 159.362 91.0309C159.122 92.2318 158.401 92.472 156.479 92.472C155.038 92.472 148.552 92.472 142.066 92.9524C129.815 93.6729 129.815 93.673 129.815 95.8346C129.815 97.9963 130.055 97.9963 133.659 97.5159C135.821 97.2757 141.346 96.7954 146.15 96.5552C154.077 96.315 154.798 96.315 155.278 97.9963C155.519 99.4374 155.278 99.6776 153.116 99.1973C150.234 98.4767 124.53 100.398 119.486 101.839C114.201 103.28 104.352 105.442 102.91 105.442C102.43 105.442 101.709 104.962 101.709 104.241ZM29.8834 118.412C30.1236 117.692 30.6041 116.971 31.0845 116.971C31.5649 116.971 32.0454 116.251 32.2856 115.29C32.5258 114.329 33.9671 112.888 35.1683 111.927L37.5704 110.246L35.1683 112.648C33.9671 113.849 32.5258 115.77 32.2856 116.731C32.0454 117.692 31.3247 118.652 30.6041 118.893C29.8834 119.613 29.6432 119.373 29.8834 118.412ZM459.157 113.849C459.157 111.927 456.755 111.447 454.593 112.648C452.191 114.089 452.191 115.29 454.833 116.251C457.235 116.971 459.157 115.77 459.157 113.849ZM449.788 118.893C450.509 116.251 453.632 110.486 454.833 109.525C458.196 107.123 460.598 110.246 459.637 115.77C459.157 118.412 458.917 118.893 456.515 118.893C455.073 118.893 453.632 118.412 453.152 117.932C452.671 117.451 451.71 117.692 450.749 119.133L449.068 121.294L449.788 118.893ZM287.4 121.294C287.64 120.814 288.36 120.334 288.841 120.334C289.321 120.334 290.282 119.613 291.003 118.893C292.444 117.451 291.964 116.971 288.12 116.491C284.997 116.01 285.478 114.089 289.081 111.927C293.405 109.525 293.645 107.604 290.042 107.604C288.601 107.604 286.919 108.084 286.439 108.805C285.478 109.765 285.238 109.525 285.478 108.084C285.718 105.922 290.282 104.481 292.684 105.682C295.087 106.883 294.846 109.765 292.684 112.167C291.003 113.849 291.003 114.329 292.444 115.05C294.846 116.491 294.606 120.334 291.724 121.294C288.841 122.495 286.679 122.495 287.4 121.294ZM471.889 119.133C472.129 117.932 472.85 116.491 473.57 115.77C474.291 115.29 474.771 114.089 474.771 113.608C474.771 112.888 475.252 111.927 475.972 111.207C477.174 110.246 477.414 110.246 477.414 111.447C477.414 112.167 477.173 112.888 476.693 112.888C476.213 112.888 475.252 114.569 474.531 116.491C472.85 121.054 471.408 122.495 471.889 119.133ZM466.844 121.775C466.844 121.054 467.565 117.692 468.285 114.089C469.246 110.486 470.207 106.163 470.447 104.481C470.928 102.32 471.889 100.879 474.291 99.6776C478.375 97.5159 483.9 97.2758 485.101 99.4374C485.821 100.879 485.341 101.119 480.056 101.119C472.609 101.119 471.168 102.8 470.447 110.966C469.967 115.77 467.084 124.897 466.844 121.775ZM25.7997 125.618C25.7997 124.417 29.1627 120.094 29.1627 121.054C29.1627 121.535 28.4421 122.976 27.4812 124.177C26.7605 125.378 25.7997 126.098 25.7997 125.618ZM479.816 122.015C480.777 121.294 483.179 120.574 485.341 120.094C489.905 119.373 491.587 117.211 489.665 114.569C488.704 113.368 487.503 112.888 484.62 113.368C482.458 113.608 481.017 113.368 481.257 112.888C481.497 112.408 483.179 111.927 485.341 111.687C488.224 111.447 489.665 111.927 491.106 113.128C493.749 115.53 493.509 117.211 490.866 119.853C488.224 122.255 485.821 123.216 481.497 123.216C478.375 123.216 478.375 123.216 479.816 122.015ZM272.986 120.814C273.707 118.412 274.428 114.569 274.428 112.167C274.668 107.604 276.349 107.123 276.349 111.447C276.349 114.089 278.511 115.29 279.712 113.128C280.193 112.167 281.874 112.648 282.115 113.849C282.115 114.329 281.154 115.05 279.953 115.77C277.791 116.971 277.551 117.692 279.472 121.775C280.193 123.456 280.193 123.456 278.271 121.775C276.109 119.853 276.109 119.853 274.668 122.976C272.506 126.579 271.545 125.137 272.986 120.814ZM22.917 132.583C23.1572 131.382 24.1181 129.461 24.8388 128.5C26.0399 126.819 26.0399 126.819 25.5594 128.98C25.3192 130.181 24.3583 132.103 23.6377 133.064C22.4366 134.745 22.4366 134.745 22.917 132.583ZM21.7159 137.627C21.7159 136.666 21.9561 136.426 22.1964 137.147C22.4366 137.867 22.4366 138.588 22.1964 138.828C21.9561 139.068 21.7159 138.588 21.7159 137.627ZM482.458 139.308C482.699 138.348 483.179 135.706 483.419 133.544C483.659 131.382 484.14 129.701 484.62 129.701C485.581 129.701 485.822 132.823 484.861 134.985C484.38 135.946 483.659 137.627 483.179 138.828C482.458 140.029 482.218 140.269 482.458 139.308ZM468.526 147.955C468.526 147.235 469.006 145.794 469.727 144.833C470.447 143.872 471.408 141.23 471.889 139.068C472.85 135.225 472.85 135.225 474.531 136.907C476.453 138.828 478.615 148.195 476.933 148.195C476.453 148.195 475.732 146.274 475.492 143.872C475.012 138.108 473.09 137.867 471.889 143.151C471.168 146.994 468.766 150.597 468.526 147.955ZM456.995 147.955C457.235 146.514 456.995 144.352 456.274 142.671C455.313 140.029 455.313 139.549 457.475 137.627C459.637 135.706 459.637 135.465 458.436 134.505C457.716 133.784 455.794 133.544 454.593 133.784C452.911 134.024 452.431 134.024 452.431 132.823C452.671 130.902 456.995 130.422 458.917 132.103C461.079 134.265 461.079 138.108 458.917 138.588C457.475 139.068 457.235 139.549 457.716 142.911C458.196 145.313 457.956 147.475 457.475 148.436C456.755 150.117 456.755 150.117 456.995 147.955ZM21.2355 156.602C20.2746 155.641 20.0344 140.75 20.755 140.75C21.2355 140.75 21.7159 144.352 21.7159 148.916C21.9561 153.48 21.9561 157.082 21.9561 157.082C21.9561 157.323 21.4757 157.082 21.2355 156.602ZM480.296 155.881C477.654 155.401 467.325 155.401 456.755 155.881C446.425 156.362 437.537 156.362 437.057 156.122C436.576 155.881 436.336 155.161 436.576 154.44C436.817 153.72 441.621 153.239 455.073 153.239C481.978 152.999 483.179 153.239 485.581 155.161C487.983 157.082 487.263 157.082 480.296 155.881ZM446.185 161.406C446.185 160.685 446.906 159.965 447.626 159.724C448.587 159.724 454.112 159.484 460.118 159.004C466.123 158.764 475.732 158.764 481.257 159.004C489.665 159.484 491.587 159.724 491.587 160.925C491.587 162.126 490.626 162.126 485.101 161.646C476.693 160.685 464.202 160.925 454.112 161.886C447.146 162.847 446.185 162.847 446.185 161.406ZM25.3192 166.69C25.079 166.45 24.5986 165.729 24.5986 165.249C24.5986 164.768 25.079 164.768 25.7997 165.489C26.5203 165.969 26.7605 166.69 26.5203 166.93C26.0399 166.93 25.5594 166.93 25.3192 166.69ZM29.1627 171.974C27.9616 170.533 27.9616 170.533 29.403 171.734C30.3638 172.454 31.0845 173.175 31.0845 173.415C31.3247 173.895 30.6041 173.415 29.1627 171.974ZM32.2856 175.817C31.5649 175.096 31.5649 174.376 32.0454 174.376C32.5258 174.376 33.4867 175.096 34.2074 175.817C34.928 176.537 34.928 177.258 34.4476 177.258C33.7269 177.258 32.766 176.537 32.2856 175.817ZM394.778 177.738C394.778 177.258 395.499 176.537 396.46 176.297C399.823 175.096 398.381 173.655 394.538 174.376C391.415 174.856 390.934 174.616 391.175 173.415C391.655 170.773 399.342 170.773 400.543 173.655C400.783 174.376 400.303 175.817 399.102 176.778C397.18 178.699 394.778 179.18 394.778 177.738ZM41.414 182.062C40.4531 181.822 39.7324 181.101 39.252 180.38C39.0118 179.66 39.252 179.42 40.4531 179.66C41.414 179.9 42.1346 180.38 42.1346 180.861C42.1346 181.341 42.8553 181.822 43.8162 182.062C44.7771 182.302 45.0173 182.542 44.0564 182.542C43.576 182.302 42.3749 182.302 41.414 182.062ZM375.32 183.503C375.56 183.023 376.521 182.542 377.242 182.542C378.683 182.542 378.443 179.9 376.761 176.057C375.801 173.895 379.884 171.253 383.007 171.974C386.37 172.694 386.13 175.817 382.527 176.537C379.884 177.018 379.884 177.498 380.365 179.9C380.845 181.822 380.605 182.782 379.164 183.503C377.242 184.464 374.599 184.704 375.32 183.503ZM68.0784 107.604C68.0784 107.123 67.598 106.643 67.1175 106.643C66.6371 106.643 66.1567 107.123 66.1567 107.604C66.1567 108.084 66.6371 108.565 67.1175 108.565C67.8382 108.565 68.0784 108.084 68.0784 107.604ZM71.922 109.765C72.4024 108.084 72.4024 106.883 71.922 106.403C70.7208 105.202 69.5198 107.844 68.7991 112.648C68.3186 116.01 68.3186 116.251 69.76 114.329C70.4806 113.128 71.4415 111.207 71.922 109.765ZM286.439 134.024C286.439 133.544 285.718 133.064 284.997 133.064C284.277 133.064 283.556 133.544 283.556 134.024C283.556 134.505 284.277 134.985 284.997 134.985C285.718 134.985 286.439 134.505 286.439 134.024ZM130.055 137.627C129.815 137.387 128.854 137.387 128.374 137.627C127.653 137.867 127.893 138.108 128.854 138.108C129.815 138.108 130.536 137.867 130.055 137.627ZM140.385 137.867C140.385 137.387 139.904 137.147 139.424 137.147C138.943 137.147 138.463 138.108 138.703 139.308C138.703 140.99 138.943 140.99 139.664 140.029C140.145 139.068 140.385 138.108 140.385 137.867ZM116.603 143.151C116.843 135.225 115.162 135.946 114.201 144.112C113.961 146.994 113.48 150.837 113 152.759L112.519 156.122L114.441 152.999C115.882 150.597 116.603 147.715 116.603 143.151ZM112.759 157.323C112.759 156.842 112.279 156.362 111.799 156.362C111.318 156.362 110.838 156.842 110.838 157.323C110.838 157.803 111.318 158.283 111.799 158.283C112.519 158.283 112.759 157.803 112.759 157.323ZM347.214 100.879C347.214 100.158 349.857 98.7169 350.337 99.1973C350.577 99.4374 349.857 99.9178 348.896 100.638C348.175 101.119 347.214 101.359 347.214 100.879ZM381.085 133.544C381.806 131.142 384.929 128.74 387.571 128.74C389.733 128.74 389.733 128.5 388.292 127.059C386.851 125.618 386.37 125.618 384.689 126.579C382.527 128.02 381.326 127.299 383.007 125.378C384.689 123.216 387.812 123.696 390.694 126.338C394.298 129.701 393.817 131.622 389.253 131.382C384.929 131.142 382.287 131.863 382.287 133.544C382.287 134.265 382.046 134.745 381.566 134.745C380.845 134.985 380.845 134.265 381.085 133.544ZM373.879 131.863C373.639 128.98 373.158 128.26 371.477 128.02C370.276 127.78 369.315 127.059 369.315 126.338C369.315 125.378 370.035 125.137 371.236 125.137C373.639 125.378 376.761 132.583 375.08 134.265C374.359 134.985 374.119 134.265 373.879 131.863ZM365.231 135.465C363.549 134.745 363.549 131.622 365.231 131.622C365.952 131.622 366.672 132.103 366.672 132.343C366.672 132.823 366.912 133.784 367.393 134.505C367.873 136.186 367.393 136.426 365.231 135.465ZM360.186 130.902C359.946 125.378 361.387 118.652 363.069 116.971C364.03 115.77 366.912 116.491 366.912 117.692C366.912 118.172 365.952 118.412 364.991 118.412C363.309 118.412 362.829 118.893 362.588 122.976C362.348 125.378 362.108 129.461 362.108 131.863C362.108 134.265 361.868 136.186 361.387 136.186C360.907 136.186 360.426 133.784 360.186 130.902ZM403.666 137.147C402.945 135.465 404.387 133.544 405.828 134.505C407.269 135.465 407.269 138.588 405.588 138.588C404.867 138.588 403.906 137.867 403.666 137.147ZM350.097 152.759C350.097 151.558 353.22 149.396 356.823 148.195C358.745 147.475 365.231 146.274 370.996 145.553C376.761 144.833 384.689 143.632 389.013 142.911L396.46 141.951L397.42 136.907C397.901 134.024 398.622 129.941 398.862 127.78C399.342 124.657 399.582 125.858 399.342 132.583V141.47H403.906C406.309 141.47 408.951 141.71 409.431 141.71C409.912 141.951 411.593 141.951 413.035 141.951C415.917 141.951 416.638 143.151 414.476 145.313C413.515 146.274 410.633 146.754 404.627 146.994C399.823 147.235 395.258 147.955 394.298 148.436C393.337 148.916 390.934 149.156 389.253 148.916C384.689 148.195 365.952 150.357 361.387 152.038C356.823 153.48 350.097 153.96 350.097 152.759ZM392.136 164.768C395.739 164.048 400.543 162.126 402.945 160.925C408.471 158.043 414.716 152.038 415.437 148.676C415.677 147.235 416.398 145.794 416.878 145.553C418.32 144.593 417.359 121.054 415.917 119.133C415.437 118.412 414.476 116.731 413.996 115.53C412.314 110.726 406.309 104.481 399.342 99.9178C393.337 96.0748 393.096 96.315 394.298 104.001C395.018 107.604 395.499 110.726 395.739 110.966C395.979 111.207 396.7 110.726 397.42 110.006C398.862 108.805 398.862 109.045 398.381 111.927C397.661 116.251 395.979 118.172 394.057 116.491C392.376 115.05 388.772 108.565 388.772 106.883C388.772 105.202 390.214 105.442 391.415 107.364C392.136 108.565 392.136 107.364 391.655 102.56C391.175 98.9571 390.454 95.8346 390.214 95.5944C388.532 94.1533 380.365 92.7122 373.158 92.7122H364.991L358.745 105.922C355.382 113.128 352.499 119.613 352.499 120.094C352.499 120.574 353.46 120.094 354.901 119.373C356.103 118.412 357.544 118.172 357.784 118.412C358.024 118.652 357.784 119.373 357.063 119.613C356.343 119.853 353.7 122.015 351.538 124.657C345.773 130.902 343.851 129.461 346.974 120.814C347.935 118.172 348.896 116.731 349.857 116.971C350.818 117.211 352.739 114.089 356.103 106.883C358.745 101.119 360.907 96.315 360.907 95.8346C360.907 94.6337 358.505 95.1141 355.142 97.0356C353.22 97.9963 351.298 98.7169 351.058 98.4767C349.617 97.7561 345.293 100.158 341.689 104.001C338.086 107.604 333.282 113.849 333.522 115.05C333.522 115.29 332.801 117.451 332.08 119.373C331.12 121.535 330.399 125.137 330.159 127.539C329.678 131.863 329.678 131.863 332.561 131.863C335.444 131.863 335.924 132.823 334.483 136.907C334.002 138.108 333.041 139.308 332.321 139.308C328.477 139.308 333.522 151.078 340.008 156.602C344.572 160.685 351.779 164.288 357.304 165.008C359.466 165.249 361.387 165.969 361.868 166.45C361.868 167.651 384.929 166.45 392.136 164.768ZM211.97 140.99C210.529 140.029 209.088 139.308 208.127 139.789C206.926 140.269 206.445 139.789 206.445 138.828C206.445 136.666 210.289 136.907 212.691 139.308C213.892 140.269 214.853 141.47 214.853 141.951C214.613 143.151 214.373 143.151 211.97 140.99ZM241.037 136.907C240.076 135.946 239.836 136.186 240.076 138.108C240.076 139.789 240.316 140.029 241.277 139.308C241.998 138.348 241.998 137.867 241.037 136.907ZM241.758 143.392C238.395 140.99 238.395 131.622 241.758 133.544C242.719 134.024 243.199 135.706 243.199 138.588C243.199 143.151 243.199 143.151 245.841 141.71C247.763 140.75 248.244 141.71 246.562 143.392C245.121 144.833 243.679 144.833 241.758 143.392ZM222.06 142.191C222.06 138.588 221.819 137.867 220.378 137.627C219.417 137.387 217.976 137.867 217.015 138.828C216.054 139.789 215.093 140.029 214.853 139.549C213.652 137.627 217.015 136.186 222.78 136.426C225.423 136.426 225.423 136.666 224.942 140.269C224.702 142.431 223.981 144.593 223.261 145.313C222.3 146.274 222.06 145.553 222.06 142.191ZM210.049 145.073C210.049 144.112 210.289 143.872 210.529 144.593C210.769 145.313 210.769 146.034 210.529 146.274C210.289 146.514 210.049 146.034 210.049 145.073ZM229.747 146.274C228.546 144.352 229.987 140.99 232.629 140.029C234.071 139.308 235.272 138.588 235.272 138.108C235.272 136.666 233.59 136.426 231.428 137.627L229.026 138.828V134.505C229.026 131.382 229.026 130.902 229.506 133.064C229.987 135.706 230.227 135.946 232.87 135.465C235.272 134.985 235.992 135.225 236.473 136.907C236.953 138.348 236.233 139.308 233.83 141.23C231.668 142.911 230.948 144.112 231.188 145.313C231.909 147.475 230.708 147.955 229.747 146.274ZM221.339 153.72C221.339 152.999 221.579 151.798 222.06 151.078C222.78 149.877 222.78 149.877 223.021 151.078C223.021 151.798 222.78 152.999 222.3 153.72C221.579 154.921 221.339 154.921 221.339 153.72ZM222.06 159.724C223.981 158.523 225.903 156.602 226.143 155.401C226.624 153.48 226.864 153.48 227.825 154.68C229.506 156.362 230.708 160.925 229.506 160.925C229.026 160.925 228.546 160.205 228.546 159.484C228.546 157.563 226.384 157.803 225.182 159.965C224.462 161.165 223.021 161.886 221.099 161.886H218.216L222.06 159.724ZM204.764 162.126C205.244 157.803 205.484 156.602 206.926 156.602C208.127 156.602 207.887 158.523 206.205 162.607L204.524 166.209L204.764 162.126ZM209.328 172.935C209.328 169.572 212.211 158.523 213.412 157.803C213.892 157.563 214.132 156.842 214.132 156.362C214.132 155.161 211.49 155.401 211.009 156.602C210.769 157.323 210.529 156.842 210.769 155.881C210.769 154.68 211.73 153.96 213.412 153.72C216.535 153.239 216.535 153.96 213.892 160.205C212.691 162.847 211.73 167.17 211.49 169.812C210.769 175.337 209.328 177.498 209.328 172.935ZM229.987 180.861C232.87 180.38 236.233 179.18 237.674 178.459C239.115 177.738 240.557 177.018 241.277 177.018C241.758 177.018 244.881 175.337 247.763 173.175C254.009 168.851 261.456 161.406 262.897 157.563C263.378 156.122 264.338 154.921 264.579 154.921C264.819 154.921 265.54 153.48 266.26 151.558C266.741 149.637 267.701 147.475 268.182 146.754C268.662 146.034 269.143 141.71 268.903 136.666C268.662 129.461 268.182 127.059 266.5 123.696C265.299 121.294 264.338 119.133 264.338 118.893C264.338 117.692 253.528 106.883 250.165 104.962C248.964 104.241 247.043 102.8 245.841 102.079C244.64 101.119 242.719 100.158 241.517 99.6776C240.316 99.1973 238.635 98.4767 237.914 97.9963C234.311 95.8346 227.585 93.4328 226.864 93.9131C226.384 94.1533 225.182 93.9131 224.222 93.4328C222.78 92.7122 221.819 92.7122 219.657 93.9131C218.216 94.6337 216.294 95.3543 215.814 95.3543C213.892 95.3543 202.842 101.119 202.121 102.32C201.641 103.04 200.92 103.521 200.44 103.521C198.758 103.521 189.87 113.608 186.267 119.613C184.345 122.495 182.423 127.299 181.703 130.181C180.261 136.186 180.021 151.798 181.222 153.239C181.703 153.72 182.423 155.881 182.904 157.563C183.865 161.886 194.434 175.577 196.596 175.577C197.557 175.577 200.68 164.528 201.401 159.484C201.641 157.323 202.602 155.161 203.322 154.44C204.524 153.48 204.524 153.72 204.283 157.323C204.043 159.484 203.563 161.886 203.082 162.366C202.602 162.847 201.881 165.489 201.401 168.131C200.92 170.773 200.2 173.175 199.719 173.415C196.596 175.337 202.602 179.9 210.049 181.101C214.853 182.062 224.462 182.062 229.987 180.861ZM69.0393 144.112C68.7991 143.632 69.2795 142.191 70.2404 140.99C72.1622 138.348 71.2013 137.147 67.598 138.108C65.6762 138.588 65.436 138.348 65.6762 137.147C66.3969 133.304 72.8828 135.946 72.8828 140.029C72.8828 141.23 72.4024 142.671 71.6817 143.632C70.0002 145.313 69.76 145.313 69.0393 144.112ZM78.1677 145.073C76.7264 143.632 77.6872 141.23 79.609 141.23C82.9721 141.23 84.1732 139.789 83.4525 137.147C82.7319 134.985 82.4916 134.745 80.0894 135.225C77.447 135.706 76.4861 134.745 78.4079 133.544C81.5308 131.622 86.5754 136.426 85.3743 140.269C84.6536 141.951 79.1286 146.034 78.1677 145.073ZM59.9109 144.593C57.9892 142.911 57.9892 141.951 59.6707 140.509C60.6316 139.789 61.3523 139.549 62.0729 140.269C62.7936 140.99 62.7936 141.47 62.0729 141.951C60.3914 142.911 61.112 144.352 63.0338 144.352C63.9947 144.352 64.9556 144.833 64.9556 145.313C64.9556 146.514 61.5925 146.034 59.9109 144.593ZM53.9054 145.313C53.9054 139.789 55.1065 126.338 55.8272 124.897C56.3076 123.937 57.5087 122.976 58.4696 122.976C60.6316 122.976 60.8718 124.417 59.1903 125.378C57.0283 126.819 55.8272 130.181 55.587 138.108C55.3468 142.431 54.8663 145.794 54.6261 145.794C54.3859 146.034 53.9054 145.794 53.9054 145.313ZM91.62 158.764C90.6591 158.523 88.9776 158.523 88.0167 158.764C86.8156 159.004 87.5363 159.244 89.6982 159.244C91.62 159.244 92.5809 159.004 91.62 158.764ZM91.62 161.646C88.2569 160.925 78.8883 160.445 66.8773 160.445C56.3076 160.445 46.2184 160.205 44.5368 159.724C42.8553 159.244 42.1346 159.004 43.0955 159.004C44.0564 159.004 44.7771 158.523 44.5368 158.043C44.5368 157.563 52.2239 157.082 64.7153 156.842C82.0112 156.602 84.8938 156.122 84.8938 155.161C84.8938 153.48 80.5699 153.48 57.9892 155.161C44.7771 156.122 40.2129 155.881 41.6542 154.2C41.8944 153.96 52.4641 153.239 65.1958 152.759L88.2569 151.798L89.9385 148.436C90.8994 146.514 91.62 142.191 91.8602 138.108C92.1005 133.544 92.5809 131.382 93.0613 131.622C94.2624 132.103 94.5027 142.911 93.3016 144.352C92.8211 144.833 92.3407 146.754 92.1005 148.195C91.8602 149.877 91.62 151.558 91.3798 151.798C91.3798 152.279 93.5418 152.759 96.1842 152.999C98.8266 153.239 101.229 153.96 101.469 154.44C101.709 155.161 99.7875 155.401 94.7429 155.161C89.6983 154.921 88.0167 155.161 88.4971 155.881C88.9776 156.362 90.6591 156.842 92.3407 156.842C94.2624 156.842 95.7038 157.323 96.1842 158.283C96.4244 159.004 97.3853 159.724 98.106 159.724C98.8266 159.724 99.3071 160.445 99.5473 161.646C99.3071 163.327 99.0668 163.327 91.62 161.646ZM78.8883 182.302C82.0112 181.822 85.1341 180.861 85.6145 180.621C86.0949 180.14 88.4972 179.18 90.6591 178.219C94.5027 176.778 103.151 169.332 102.91 167.651C102.91 167.17 103.391 166.45 104.111 165.969C104.832 165.489 106.514 162.607 108.195 159.244C109.637 155.881 111.318 152.519 111.799 151.558C113.961 147.235 113.961 128.74 111.799 122.255C110.838 118.893 100.989 108.324 98.8266 108.324C98.3462 108.324 97.8657 109.285 97.3853 110.246C96.9049 111.447 95.4635 113.608 94.0222 115.53C91.8602 117.932 91.62 118.893 92.3407 119.853C92.8211 120.574 93.3016 121.054 93.0613 121.054C92.8211 121.054 90.6591 121.294 88.0167 121.535C84.1732 121.775 82.9721 121.535 82.2514 120.334C81.5308 119.133 82.0112 118.172 84.4134 116.01C87.0558 113.608 89.458 113.368 88.0167 115.77C87.0558 117.451 89.2178 116.731 92.1005 114.329C93.5418 113.128 94.7429 111.447 94.7429 110.726C94.7429 110.006 95.2233 109.525 95.7038 109.525C96.1842 109.525 96.6646 108.805 96.6646 108.084C96.6646 106.403 90.1787 103.521 81.2905 101.359C77.6872 100.398 73.8437 99.4374 72.8828 99.1973C70.9611 98.7169 70.7208 98.9571 70.9611 101.359C70.9611 103.521 71.4415 104.241 73.1231 104.481C76.0057 104.962 76.2459 107.123 73.6035 112.888C72.4024 115.53 71.4415 118.412 71.4415 118.893C71.4415 120.814 68.7991 120.094 68.0784 117.932C67.598 116.731 67.1175 115.77 66.6371 115.53C66.3969 115.29 65.436 113.128 64.9556 110.726C63.7545 106.403 63.9947 106.403 65.9164 105.442C67.8382 104.722 68.0784 104.001 67.8382 101.599C67.598 99.1973 67.1175 98.4767 64.9556 98.4767C63.5142 98.2365 61.112 98.7169 59.4305 99.4374C57.749 100.158 55.1065 101.359 53.6652 101.839C51.9837 102.56 50.5423 103.521 50.3021 104.241C50.0619 104.962 49.3412 105.442 48.8608 105.442C47.6597 105.442 41.8944 111.447 37.3302 117.451C26.5203 131.863 26.5203 152.519 37.8107 168.852C40.2129 172.454 46.6988 177.979 49.8217 179.18C51.5032 179.9 53.1848 180.861 53.425 181.101C54.8663 183.023 70.2404 183.743 78.8883 182.302ZM56.3076 186.145C51.263 185.424 44.0564 182.782 47.4195 182.542C48.3804 182.542 50.5423 183.023 52.4641 183.743C56.0674 185.184 59.1903 185.424 59.1903 184.223C59.1903 183.743 57.749 183.263 56.3076 182.782C46.6988 180.861 33.7269 168.131 30.8443 157.082C30.1236 154.68 29.403 152.519 28.9225 152.038C27.4812 150.357 27.4812 134.985 29.1627 129.701C31.3247 122.736 34.4476 117.211 38.5313 112.888C39.7324 111.687 40.4531 110.006 40.4531 109.285C40.4531 108.324 40.9335 108.084 41.414 108.324C41.8944 108.565 42.1346 108.324 41.8944 107.604C41.1738 105.682 56.0674 97.2757 63.7545 95.5944C71.6817 93.673 69.0393 35.7879 68.5589 35.0673C68.3186 34.8271 67.3578 35.5477 66.3969 36.7486C65.436 37.9496 64.4751 38.6701 64.2349 38.4299C63.274 37.4692 64.7153 35.0673 67.1175 33.6262C69.0393 32.1851 69.5197 32.1851 70.9611 33.6262C73.1231 35.3075 74.5644 35.5477 75.285 33.6262C75.7655 32.4253 76.0057 32.4253 77.2068 33.386C78.4079 34.3467 78.1677 34.5869 76.2459 35.5477C75.0448 36.2682 73.3633 36.5084 72.6426 36.2682C71.6817 36.0281 71.2013 36.7486 70.9611 39.3907C70.4806 44.4346 71.4415 50.4393 71.4415 55.7234C71.4415 69.4141 71.6817 82.8645 71.922 96.315L74.3242 97.0356C75.5253 97.2758 79.8492 98.2365 83.4525 99.1973C89.2178 100.398 94.0222 102.079 97.3853 103.761C99.5473 104.962 98.106 88.1486 95.944 86.7075C95.4635 86.4673 94.5027 85.0262 93.5418 83.5851C90.4189 78.0608 83.4525 72.5365 78.8883 71.8159C76.2459 71.3355 74.8046 68.6935 77.2068 68.6935C79.8492 68.6935 93.5418 78.7813 93.782 80.7028C93.782 81.1832 94.5027 82.144 95.2233 82.8645C97.8657 85.7468 100.748 94.1533 100.989 100.398C101.229 105.682 101.469 106.643 103.151 107.844C108.195 111.207 115.642 122.976 117.083 129.701C117.564 131.382 118.044 133.064 118.284 133.304C118.525 133.544 120.687 133.304 122.849 132.823C133.418 130.422 139.664 129.461 140.625 129.701C141.346 129.941 142.066 131.142 142.307 132.103C142.787 134.024 143.267 134.265 159.122 134.505C168.491 134.745 176.178 135.225 177.138 135.706C179.06 136.666 179.06 136.426 179.541 132.583C179.781 130.181 180.261 128.02 180.742 127.299C181.222 126.819 181.943 124.897 182.423 123.216C183.624 118.893 191.552 108.565 196.837 104.241C203.803 98.4767 213.412 92.9524 218.456 91.9916C225.423 90.7907 232.149 92.472 244.16 99.1973C245.841 100.158 251.126 103.521 253.769 105.682C255.21 106.883 261.696 112.888 263.137 114.569C265.78 117.692 269.383 125.137 270.104 129.221C270.584 132.343 271.065 133.544 272.025 133.064C272.746 132.823 277.31 132.343 282.115 131.863C290.522 131.142 290.763 131.142 290.282 133.064C289.802 134.745 290.282 134.985 296.047 135.465C299.411 135.706 306.857 135.946 312.623 135.946C321.751 135.946 323.192 135.706 325.595 134.024C327.516 132.583 328.237 131.382 327.997 128.98C327.997 127.299 328.237 125.618 328.717 125.378C329.198 125.137 329.678 123.456 329.919 121.535C330.879 116.01 335.684 108.084 342.41 101.599C345.293 98.7169 353.46 94.6337 356.583 94.3935C360.667 94.1533 364.27 91.7514 364.991 88.8692C365.952 84.786 368.354 80.2225 369.315 80.2225C370.276 80.2225 369.555 83.1047 367.393 87.6683C366.432 89.5898 365.711 91.2711 365.711 91.5113C365.711 91.7514 368.354 91.5113 371.477 91.2711C376.761 90.7907 384.929 91.7514 389.013 93.1926C390.694 93.9131 390.694 93.4328 389.974 85.987C389.493 81.6636 389.493 78.0608 389.974 78.0608C390.454 78.0608 390.934 80.2225 390.934 82.8645C391.415 91.7514 392.376 94.6337 395.499 95.5944C396.94 96.0748 398.622 97.0356 399.102 97.5159C399.582 97.9963 401.744 99.6776 403.906 101.119C408.23 103.761 413.035 109.285 414.236 112.408C414.716 113.608 415.197 114.329 415.677 114.329C416.878 114.329 418.56 121.054 419.521 128.98C420.482 136.186 418.8 150.117 417.118 150.837C416.638 151.078 416.158 151.558 416.158 152.279C416.158 155.401 405.588 164.048 400.063 165.249C398.381 165.729 396.46 166.209 395.979 166.69C394.538 167.891 382.287 169.572 373.879 169.572C365.471 169.572 355.382 168.371 352.739 167.17C351.779 166.69 349.136 165.489 346.974 164.528C339.768 161.406 332.081 153.239 330.399 146.754C328.958 141.47 327.276 140.269 320.79 139.068C317.427 138.588 307.578 137.867 298.93 137.867C290.282 137.867 280.673 137.147 277.791 136.666C274.668 135.946 272.025 135.706 271.785 135.946C271.545 136.186 271.065 139.308 270.584 142.911C269.863 150.357 266.02 158.764 260.495 165.729C254.73 172.694 242.719 180.621 235.512 182.302C233.83 182.782 231.909 183.503 231.188 183.983C229.266 185.665 211.01 185.184 207.646 183.503C206.205 182.782 204.283 182.062 203.563 182.062C202.842 182.062 201.401 181.581 200.2 180.861C198.518 179.66 198.278 179.66 197.317 181.822C196.116 184.704 194.194 183.983 195.395 180.861C196.116 178.939 195.635 178.219 192.753 175.096C182.663 165.249 179.06 157.323 178.58 143.392L177.859 136.907L142.307 137.147V140.269C142.307 142.671 142.066 143.392 140.865 143.392C139.904 143.392 138.703 142.911 138.223 142.671C137.742 142.191 135.58 141.71 133.659 141.47C131.737 141.23 128.854 140.509 127.173 140.029C122.128 138.108 119.486 137.627 118.284 138.348C117.324 138.828 117.324 139.308 118.044 140.269C118.765 141.23 118.765 143.151 117.564 148.436C116.603 152.279 115.642 155.401 115.402 155.641C115.162 155.881 114.441 157.323 113.72 158.764C112.279 162.126 111.558 163.327 105.072 170.052C102.19 173.175 98.106 176.778 96.1842 177.738C94.2624 178.939 91.62 180.38 90.4189 181.101C81.771 185.905 69.2795 187.826 56.3076 186.145ZM368.834 184.944C368.114 183.503 370.996 176.057 372.197 176.057C372.918 176.057 372.438 180.38 371.236 183.983C370.276 186.385 369.555 186.625 368.834 184.944ZM93.3016 198.875C93.3016 198.635 93.5418 197.674 94.0222 196.713C95.2233 194.311 93.5418 192.63 90.8994 193.11C88.9776 193.591 88.4972 193.351 88.7374 192.15C88.9776 189.988 91.62 189.748 94.5027 191.669C97.1451 193.351 97.8657 196.473 95.944 198.154C94.7429 199.595 93.3016 199.836 93.3016 198.875ZM74.3242 198.395C74.3242 195.032 74.8046 192.87 75.5253 192.63C76.2459 192.39 76.4861 192.87 76.2459 193.591C76.0057 194.311 75.5253 196.953 75.0448 199.355L74.5644 203.679L74.3242 198.395ZM355.382 201.757C355.382 201.277 355.622 200.556 356.103 200.316C356.583 200.076 357.063 198.635 357.544 197.194C358.024 195.752 359.466 191.909 360.907 188.307C362.588 184.704 364.27 180.38 364.991 178.219C365.711 176.297 366.672 174.376 367.153 174.136C368.834 173.655 368.114 176.537 363.79 186.866C362.588 189.748 360.907 194.311 359.706 197.194C358.745 200.076 357.304 202.478 356.583 202.478C356.103 202.718 355.382 202.238 355.382 201.757ZM67.598 209.203C69.2795 207.762 69.2795 207.762 67.1175 208.242C65.9164 208.482 64.2349 208.723 63.274 208.963C62.3131 208.963 61.5925 209.443 61.5925 209.923C61.8327 211.124 65.6762 210.884 67.598 209.203ZM68.7991 215.208C68.5589 214.727 68.5589 213.766 68.7991 213.046C69.2795 211.845 68.5589 211.605 65.6762 211.605C63.0338 211.605 62.5534 211.845 63.5142 212.566C65.6762 213.766 64.2349 214.487 61.5925 213.526C58.7098 212.325 57.5087 210.164 59.6707 208.963C60.6316 208.482 62.7936 207.762 64.9556 207.522C68.5589 206.801 68.7991 206.801 69.5198 201.757C70.0002 198.875 70.2404 195.512 70.2404 194.071C70.2404 192.63 70.4806 191.429 70.9611 191.429C71.4415 191.429 71.6817 194.071 71.4415 198.154L71.2013 204.88H73.8437C77.447 204.88 80.5699 203.919 80.5699 202.718C80.5699 202.237 81.2905 201.277 82.0112 200.556C83.4525 199.355 83.4525 199.115 81.2905 197.674L79.3688 196.233L81.2905 194.552C83.2123 192.87 83.6927 189.508 82.0112 189.508C81.5308 189.508 81.0503 190.228 81.0503 190.949C81.0503 191.669 80.5699 192.39 80.0894 192.39C78.6481 192.39 78.8883 189.027 80.3297 187.826C83.4525 185.184 87.2961 192.39 84.4134 195.272C83.4525 196.233 83.4525 196.713 84.6536 198.635C86.095 200.556 86.0949 200.796 84.1732 202.478L82.2514 204.159L86.5754 203.679C88.9776 203.438 92.3407 202.718 94.2624 202.237C97.8657 201.277 103.871 201.277 103.871 202.478C103.871 202.958 100.508 203.438 96.6646 203.679C92.5809 203.919 86.8156 204.639 83.933 205.12C81.0503 205.6 76.9666 206.321 75.0448 206.561C69.5198 207.522 71.2013 208.723 76.9666 208.242C82.4916 207.522 90.6591 206.321 94.7429 205.36C96.6646 204.88 97.1451 205.12 97.3853 206.321C97.3853 207.522 96.4244 207.762 92.5809 208.002C89.9385 208.002 85.8547 208.482 83.2123 208.963C80.8101 209.443 76.9666 210.164 74.8046 210.404C71.2013 211.124 70.9611 211.365 70.9611 213.766C71.2013 215.928 70.0002 216.889 68.7991 215.208ZM192.513 220.011C192.272 219.771 188.189 218.81 183.384 218.33C178.82 217.609 174.496 216.889 174.016 216.409C173.535 215.928 171.613 215.208 169.692 214.967C168.01 214.727 164.647 213.526 162.485 212.566C160.323 211.605 158.401 210.884 157.921 210.884C156.479 210.884 131.497 199.115 127.173 196.473C125.731 195.512 123.089 194.071 121.648 193.11C120.206 192.39 118.525 190.949 118.044 190.468C117.564 189.748 116.603 189.267 115.882 189.267C115.162 189.267 114.201 188.787 113.72 188.066C113.24 187.346 112.279 186.385 111.078 185.665C109.396 184.464 109.396 184.464 110.117 187.346C111.078 191.429 109.637 190.468 106.033 184.223C101.709 177.018 102.19 175.337 107.955 179.42C109.637 180.621 111.799 181.822 113 182.062C115.162 182.782 115.402 183.503 115.162 186.385C115.162 187.346 115.402 188.066 115.882 188.066C116.363 188.066 119.245 189.748 122.608 191.669C128.374 195.272 139.904 201.037 148.792 204.88C151.195 205.84 154.798 207.522 157.2 208.482C159.602 209.443 162.005 210.404 162.725 210.404C163.446 210.404 165.368 211.124 166.809 211.845C168.25 212.566 172.094 213.766 175.217 214.487C178.34 215.208 182.423 216.168 184.345 216.649C193.954 219.051 238.395 218.09 243.199 215.448C244.16 214.967 248.003 214.007 252.087 213.046C259.774 211.605 269.383 208.723 273.707 207.041C275.148 206.561 276.83 205.84 277.31 205.84C277.791 205.84 279.953 204.88 281.874 203.919C283.796 202.958 286.198 201.997 286.919 201.997C287.64 201.997 289.081 201.277 290.042 200.796C291.003 200.076 292.925 199.115 294.126 198.875C296.288 198.154 312.623 190.228 315.986 188.066C326.555 181.822 337.846 171.494 339.047 167.41C339.768 165.249 342.17 164.768 342.17 166.69C342.17 168.371 329.678 181.581 324.634 184.944C322.472 186.385 319.589 188.307 318.388 189.027C316.226 190.468 300.612 198.395 295.567 200.556C294.126 201.277 291.003 202.718 288.601 203.679C286.198 204.88 283.796 205.6 283.316 205.6C282.835 205.6 281.154 206.321 279.472 207.041C273.707 209.683 256.411 214.727 245.841 216.649C241.758 217.369 236.713 218.33 234.311 219.051C229.747 220.252 193.473 220.972 192.513 220.011ZM75.5253 222.173C72.8828 218.33 69.2795 218.09 68.0784 221.693C67.3578 224.095 65.9164 223.854 65.9164 221.693C65.9164 220.732 66.8773 219.291 68.5589 218.33C70.9611 217.129 71.4415 217.129 73.1231 218.09C75.5253 219.771 78.1677 223.134 77.447 223.854C77.2068 224.094 76.2459 223.374 75.5253 222.173ZM87.7765 220.492C87.7765 218.09 88.0167 215.928 88.4971 215.928C88.9776 215.928 89.458 218.09 89.458 220.492C89.458 222.894 89.2178 225.055 88.7374 225.055C88.2569 225.055 87.7765 223.134 87.7765 220.492ZM90.6591 224.095C90.1787 219.771 91.3798 214.967 92.5809 214.967C93.5418 214.967 93.782 215.688 93.3016 217.369C93.0613 218.81 92.5809 220.252 92.1005 220.732C91.62 221.212 91.3798 222.653 91.1396 223.854L90.8994 226.016L90.6591 224.095ZM72.8828 224.335C72.4024 222.413 72.8828 221.212 74.0839 222.173C75.0448 222.894 75.285 226.256 74.3242 226.256C73.8437 226.016 73.3633 225.295 72.8828 224.335ZM94.2624 226.977C94.2624 226.496 95.4635 225.776 96.9049 225.536C100.508 224.815 105.072 221.212 104.832 219.291C104.832 217.129 100.268 215.208 98.5864 216.649C97.1451 217.85 95.944 217.129 96.9049 215.688C97.6255 214.487 102.67 214.247 104.352 215.448C107.234 217.369 105.793 224.095 101.949 225.536C98.3462 227.217 94.2624 227.938 94.2624 226.977ZM284.277 226.256C284.277 225.295 284.517 224.094 284.997 223.854C285.478 223.614 285.958 221.693 285.718 220.011V216.649L287.88 218.81L290.042 220.972L290.763 216.649C291.243 214.247 291.724 212.325 292.204 212.325C293.405 212.325 293.405 219.291 292.444 220.011C291.964 220.252 291.483 221.452 291.724 222.413C291.724 224.575 291.003 224.575 289.321 222.653C287.88 220.732 287.159 221.212 286.919 224.575C286.439 227.697 284.277 229.138 284.277 226.256ZM345.533 227.938C345.533 227.217 345.773 226.496 346.494 226.496C346.974 226.496 347.455 226.016 347.455 225.295C347.455 223.134 352.499 213.046 353.941 212.325C354.661 212.085 356.103 212.085 356.823 212.566C358.264 213.286 358.264 213.526 356.823 213.526C355.142 213.526 352.019 216.889 351.298 219.771C351.058 220.972 350.097 222.173 349.376 222.894C348.656 223.614 348.175 224.815 348.175 225.536C348.175 226.496 347.695 227.697 346.974 228.178C345.773 229.379 345.533 229.138 345.533 227.938ZM265.059 230.339C265.059 228.418 268.903 220.732 270.104 220.732C270.824 220.732 271.065 220.972 271.065 221.452C270.824 221.933 270.104 223.614 269.383 225.536C267.942 228.418 265.299 231.781 265.059 230.339ZM269.863 230.82C269.863 230.339 271.065 229.379 272.506 228.898C273.947 228.418 276.349 226.016 277.791 223.854C281.394 218.81 282.835 218.57 282.835 223.374C282.835 225.536 282.595 226.977 281.874 226.977C281.154 226.977 280.673 226.256 280.673 225.536C280.673 224.575 279.232 225.536 277.31 227.938C273.947 231.54 269.863 232.981 269.863 230.82ZM65.436 235.383C65.436 234.903 67.8382 234.182 70.9611 233.942C76.7264 233.222 80.8101 230.82 80.8101 227.938C80.8101 226.977 81.0503 226.016 81.5308 225.536C82.0112 225.055 82.4916 222.894 82.4916 220.492C82.7319 216.649 82.7319 216.889 82.9721 221.693C83.4525 228.898 81.771 232.741 76.9666 234.423C72.8828 236.344 65.436 236.824 65.436 235.383ZM404.147 236.584C404.147 235.864 404.627 234.903 405.348 234.182C406.068 233.462 406.789 232.021 407.029 230.58C407.269 229.138 407.99 227.457 408.711 226.977C409.672 226.016 410.152 226.256 410.633 228.178C411.593 231.54 412.794 231.06 413.755 226.737C414.236 224.575 415.197 221.933 415.917 220.492L417.118 218.09V220.732C417.118 222.173 416.638 224.575 415.917 226.016C415.197 227.457 414.476 230.099 414.236 231.78C413.755 235.383 412.554 235.864 411.113 232.741C410.633 231.54 409.912 230.58 409.672 230.58C409.431 230.58 408.471 232.261 407.51 234.182C406.068 237.785 404.147 238.986 404.147 236.584ZM376.761 236.824C376.761 234.663 381.566 231.54 385.169 231.54H388.532L386.37 229.379C384.929 227.938 383.247 227.217 381.085 227.217C377.242 227.217 377.482 225.055 381.326 224.575C383.728 224.335 385.169 225.295 390.214 231.3C392.136 233.462 391.175 234.182 386.37 234.423C382.767 234.423 380.845 234.903 379.164 236.344C377.242 237.785 376.761 238.025 376.761 236.824ZM210.289 237.545C210.769 234.663 210.769 234.663 207.887 235.143C204.764 235.864 204.043 234.903 206.205 232.981C209.088 230.58 213.171 234.663 211.73 238.746C211.009 241.628 209.808 240.427 210.289 237.545ZM215.333 239.466C215.333 236.584 220.138 232.501 222.06 233.942C222.78 234.663 223.501 234.423 223.741 233.702C224.462 232.501 222.54 231.06 220.138 231.06C218.216 231.06 218.456 228.898 220.618 228.418C222.78 227.938 225.182 230.82 224.942 233.462C224.702 235.383 224.222 235.864 221.579 235.864C219.898 235.864 218.216 236.344 218.216 237.065C217.976 237.545 217.255 238.746 216.775 239.707C215.574 241.628 215.333 241.628 215.333 239.466ZM346.734 241.388C346.734 240.187 349.376 231.3 350.097 230.82C350.337 230.58 351.058 228.178 351.779 225.536C352.739 220.972 353.7 219.531 354.661 221.933C354.901 222.653 354.901 224.094 354.421 225.055C353.941 226.256 354.181 227.217 354.421 227.217C354.901 227.217 355.382 226.496 355.622 225.776C355.862 225.055 356.583 224.335 357.063 224.335C358.745 224.335 358.265 226.496 355.862 228.898C353.7 231.3 353.7 231.3 355.142 234.663C357.063 238.986 356.583 239.947 354.181 236.104C353.22 234.663 352.259 233.222 351.779 233.222C351.538 233.222 350.577 235.143 349.617 237.305C348.415 241.388 346.974 243.309 346.734 241.388ZM198.278 243.55C197.077 240.908 197.317 239.466 199.479 239.466C200.44 239.466 200.68 239.947 200.44 240.908C200.2 241.868 200.44 242.349 201.881 242.349C203.803 242.349 203.803 242.349 202.121 244.27C200.2 246.432 199.719 246.432 198.278 243.55ZM191.792 246.672C191.792 246.192 192.753 244.03 193.714 241.628C194.915 239.226 196.837 235.143 198.038 232.261C199.239 229.379 200.68 226.737 201.16 226.016C202.362 224.335 206.445 224.575 206.445 226.256C206.445 226.977 205.725 227.697 204.524 227.697C201.881 227.697 200.92 229.138 198.038 236.104C196.116 241.628 191.792 248.594 191.792 246.672ZM247.523 246.912C248.484 244.991 249.685 242.829 250.165 242.109C250.646 241.388 252.087 238.266 253.288 235.383C254.489 232.501 256.892 228.418 258.573 226.496C261.456 222.894 261.696 220.732 259.054 222.894C257.132 224.575 256.171 223.134 257.852 221.452C259.534 219.771 264.098 220.252 264.098 222.173C264.098 222.894 262.657 224.815 260.975 226.496C259.294 228.178 257.852 229.859 257.852 230.339C257.852 230.82 257.372 231.54 256.892 232.261C256.171 232.981 254.009 237.065 252.087 241.628C249.925 246.192 247.763 250.035 247.043 250.275C246.082 250.275 246.322 249.074 247.523 246.912ZM430.811 243.069C429.13 242.109 389.253 242.349 383.247 243.309C380.605 243.79 389.253 244.03 405.588 244.03C423.124 244.03 431.772 243.79 430.811 243.069ZM332.561 251.716C332.561 250.995 333.041 250.275 333.522 250.275C334.483 250.275 334.483 250.035 333.522 249.074C331.6 247.152 332.321 246.432 336.645 246.432C341.449 246.432 361.868 243.79 363.069 243.069C363.309 242.829 367.873 242.349 372.918 242.109C389.253 240.908 393.337 240.427 393.337 239.226C393.337 238.746 394.538 237.545 396.219 236.824C398.381 235.864 399.102 234.663 399.342 232.981C399.342 231.54 399.102 230.58 398.621 230.58C397.661 230.58 394.778 227.938 394.778 226.977C394.778 226.496 396.46 225.536 398.381 224.575C401.024 223.374 402.465 221.933 403.186 219.771C404.627 216.168 404.627 215.688 403.426 214.007C402.705 212.806 402.225 213.046 400.303 214.967C398.141 217.129 398.141 217.129 397.901 215.448C397.901 213.046 399.582 211.365 401.985 211.365C407.51 211.365 407.75 219.291 402.465 224.575C399.342 227.697 399.342 227.938 400.543 230.82C401.504 233.462 401.504 234.423 400.303 236.344C399.582 237.545 398.381 238.746 397.901 238.746C397.42 238.746 396.94 239.226 396.94 239.707C396.94 240.187 403.906 240.667 415.677 240.427C433.213 240.187 437.297 240.908 434.414 242.829C433.694 243.309 433.213 244.51 433.453 245.471C433.453 246.912 432.973 247.152 431.772 246.912C430.811 246.672 417.839 246.672 402.945 246.672C376.521 246.912 347.214 248.834 347.455 250.515C347.455 250.995 348.175 251.236 349.136 251.236C350.097 251.236 351.058 251.716 351.538 252.196C352.019 252.677 348.656 253.157 342.41 253.157C334.242 253.157 332.561 252.917 332.561 251.716ZM215.814 253.397C215.814 252.917 217.495 251.956 219.417 251.476C221.339 250.995 224.222 249.314 225.663 247.873C228.305 245.231 232.629 235.383 232.389 231.78C232.149 226.496 239.836 222.413 242.238 226.496C243.679 228.898 243.679 231.781 242.238 232.501C241.517 232.981 241.277 232.501 241.758 230.82C242.478 227.938 240.797 226.977 237.193 227.938C235.752 228.418 235.032 229.138 235.032 230.339C235.032 231.3 234.791 232.261 234.311 232.501C233.83 232.741 233.35 234.663 233.11 236.344C232.389 241.628 228.546 249.074 225.903 250.515C224.702 251.236 223.261 251.956 223.021 252.437C222.06 253.638 215.814 254.358 215.814 253.397ZM106.273 267.328C105.553 265.407 105.553 264.926 106.514 265.407C106.994 265.647 107.715 263.485 108.195 260.603C108.676 257.721 109.156 254.598 109.396 253.638C109.637 252.677 109.877 254.358 110.117 257.48C110.357 260.603 110.117 264.446 109.877 265.887C109.156 268.769 107.475 269.73 106.273 267.328ZM49.101 265.887C48.8608 262.765 49.101 259.882 49.5815 259.642C51.263 258.681 51.5032 260.843 50.3021 266.127L49.101 271.411V265.887ZM99.5473 271.892C99.5473 270.931 100.028 269.009 100.748 267.568C101.469 266.127 101.949 263.725 101.949 262.284C101.949 259.162 102.43 258.922 104.352 261.324C106.033 263.485 106.033 264.206 104.592 264.206C103.871 264.206 103.151 265.647 102.91 267.809C102.19 271.652 99.7875 275.014 99.5473 271.892ZM77.6872 273.093C77.6872 271.892 78.6481 269.73 80.0894 268.529C82.9721 265.647 82.0112 264.446 78.1677 265.887C74.8046 267.088 74.0839 266.848 75.5253 264.686C76.9666 262.765 82.7319 263.245 83.933 265.167C84.6536 266.367 84.4134 267.328 82.0112 269.49C80.5699 270.931 79.1286 272.852 79.1286 273.813C79.1286 274.534 78.8883 275.254 78.1677 275.254C78.1677 275.254 77.6872 274.294 77.6872 273.093ZM85.1341 275.254C85.1341 274.774 86.8156 273.573 88.9776 272.372C94.5027 269.49 95.4635 268.289 93.782 265.407C92.8211 263.485 92.5809 262.765 93.5418 261.564C97.1451 256.52 97.3853 251.236 94.0222 254.118C92.3407 255.559 91.3798 254.838 92.1005 252.917C92.5809 251.236 96.4244 250.995 97.8657 252.437C99.7875 254.118 99.3071 257.24 96.9049 260.123C94.5027 263.005 94.2624 263.485 95.7038 265.887C97.3853 268.529 95.2233 271.892 90.6591 274.053C85.8547 276.455 85.1341 276.455 85.1341 275.254ZM52.7043 281.499C51.9837 279.097 54.1457 274.774 55.8272 274.534C57.2685 274.534 56.7881 271.652 54.8663 270.451C52.4641 268.769 55.3468 268.769 57.9892 270.691C60.8718 272.612 60.6316 273.333 57.0283 276.695C53.1848 280.298 53.1848 281.499 56.7881 280.779C59.9109 280.058 60.3914 280.779 57.9892 282.46C55.8272 284.381 53.425 283.901 52.7043 281.499ZM79.3688 293.028C79.3688 292.308 80.5699 291.347 82.0112 291.107C83.4525 290.866 84.8939 290.146 85.1341 289.666C85.3743 289.185 87.0558 288.705 88.7374 288.705C92.8211 288.705 92.1005 289.906 86.8156 291.347C84.6536 292.067 82.4917 292.788 82.2514 293.268C81.771 294.95 79.3688 294.469 79.3688 293.028ZM401.024 293.749C399.102 293.509 399.102 293.268 400.303 290.867C401.024 289.425 401.504 287.984 401.504 287.264C401.504 286.783 402.465 285.582 403.666 284.622C406.068 282.94 406.549 283.661 404.627 286.303C403.426 287.744 403.666 288.224 405.348 289.666C407.029 291.107 407.269 291.347 406.309 292.788C405.107 294.469 404.627 294.469 401.024 293.749ZM109.877 299.994C107.955 299.273 108.435 297.592 111.318 294.229C113.961 291.107 113.96 291.107 112.039 289.906C111.078 289.185 110.117 288.224 110.117 287.744C110.117 286.543 113 287.744 115.402 289.906L117.564 291.827L114.441 294.71C111.558 297.592 110.597 299.033 112.039 298.552C112.519 298.312 112.759 298.793 113 299.273C113.48 300.234 111.558 300.714 109.877 299.994ZM99.3071 278.857C99.5473 278.377 99.0668 277.896 98.106 277.896C97.1451 277.896 95.944 278.377 95.7038 278.857C95.4635 279.338 95.944 279.818 96.9049 279.818C98.106 279.578 99.0668 279.338 99.3071 278.857ZM42.1346 300.714C42.1346 299.273 45.7379 297.352 51.9837 295.19C57.2685 293.509 63.7545 291.107 65.9164 289.906C66.8773 289.425 69.0393 288.465 70.9611 287.984C72.6426 287.264 75.285 286.303 76.7264 285.582C78.1677 284.862 81.0503 284.141 82.7319 283.661C84.6536 283.181 86.0949 282.7 86.0949 282.22C86.0949 281.739 87.0558 281.259 88.0167 281.019C89.2178 280.779 88.4972 280.779 86.3352 281.019C84.4134 281.259 82.4917 281.739 82.2514 282.22C82.0112 282.7 79.609 283.421 76.7264 284.141C74.0839 284.862 71.4415 285.582 70.9611 286.063C70.4806 286.303 68.5589 287.264 66.3969 287.744C64.4751 288.465 62.0729 289.185 60.8718 289.666C56.3076 291.827 42.1346 296.391 41.6542 295.91C40.4531 294.95 43.3357 292.788 46.4586 292.067C48.3804 291.587 51.5032 290.626 53.6652 289.666C55.8272 288.705 57.9892 287.984 58.7098 287.984C59.6707 287.984 71.6817 283.661 75.7655 281.98C79.8492 280.058 104.111 273.813 106.994 273.813C108.195 273.813 109.156 274.294 109.156 274.774C109.156 275.254 110.357 275.495 111.558 275.495C115.162 275.014 115.402 277.176 111.799 277.896C105.072 279.097 84.6536 284.622 80.8101 286.543C79.3688 287.264 76.4861 288.224 74.8046 288.465C72.8828 288.945 70.2404 290.386 69.0393 291.587C67.598 293.028 64.4751 294.71 61.5925 295.67C58.9501 296.391 54.3859 297.832 51.7435 298.793C44.2966 301.915 42.1346 302.155 42.1346 300.714ZM89.9385 303.116C90.1787 302.395 90.1787 300.474 89.9385 298.793C89.2178 295.43 87.0558 295.19 83.2123 298.552C79.3688 301.915 78.4079 300.474 82.0112 297.111C85.6145 293.749 88.7374 293.509 90.8994 296.631C92.8211 299.273 92.8211 303.596 90.8994 304.077C89.9385 304.557 89.6983 304.077 89.9385 303.116ZM85.6145 303.596C85.3743 303.116 85.3743 302.636 86.0949 302.636C86.5754 302.636 87.0558 303.116 87.0558 303.596C87.0558 304.077 86.8156 304.557 86.5754 304.557C86.3352 304.317 85.8547 304.077 85.6145 303.596ZM95.7038 304.557C95.944 303.837 96.6646 301.195 97.1451 299.033C98.106 294.469 99.0668 293.509 100.989 294.95C102.67 296.391 103.391 295.19 103.151 291.827C103.151 288.705 105.072 286.063 106.033 287.744C106.273 288.224 106.273 288.945 105.793 289.185C105.313 289.425 104.832 291.827 104.592 294.469C103.631 303.116 101.709 305.998 100.508 299.753C100.268 297.832 99.7875 298.072 98.106 301.915C96.4244 305.758 94.5027 307.92 95.7038 304.557ZM359.225 306.959C359.225 306.238 359.706 305.518 360.186 305.518C360.667 305.518 361.147 306.238 361.147 306.959C361.147 307.68 360.667 308.4 360.186 308.4C359.706 308.4 359.225 307.92 359.225 306.959ZM391.655 305.278C393.096 302.636 393.096 301.915 391.895 299.753C390.694 297.592 389.974 297.352 387.091 297.352C383.007 297.352 380.845 299.994 380.845 304.557C381.085 307.92 381.566 308.4 386.13 308.4C389.733 308.16 390.214 307.92 391.655 305.278ZM381.806 309.361C380.845 308.4 380.125 306.479 380.125 304.797C380.125 302.396 379.644 301.915 378.683 302.395C376.041 303.356 380.605 298.312 383.968 296.391C387.812 294.229 388.772 294.229 391.415 296.391C395.739 299.994 395.499 305.758 390.934 309.121C387.091 311.282 383.968 311.523 381.806 309.361ZM57.2685 313.204C56.3076 312.003 56.3076 311.763 57.2685 311.763C57.9892 311.763 58.9501 312.243 59.4305 312.724C61.112 314.405 70.0002 310.322 74.0839 305.758C76.2459 303.596 78.1677 301.675 78.6481 301.675C78.8883 301.675 79.8492 302.636 80.5699 303.837C82.0112 306.479 81.0503 308.4 79.609 305.758C78.6481 304.317 78.4079 304.317 76.2459 306.959C71.4415 312.003 67.3578 314.405 62.7936 314.405C59.9109 314.645 57.9892 314.165 57.2685 313.204ZM370.276 310.802C370.035 305.758 372.678 293.268 373.158 296.391C373.639 299.513 371.957 314.645 370.996 314.645C370.756 314.645 370.276 312.964 370.276 310.802ZM352.259 317.047C352.019 312.243 352.019 312.003 349.857 312.003C348.415 312.003 347.455 311.523 347.455 310.562C347.455 309.601 348.175 309.121 349.857 309.121C352.259 309.121 352.259 309.121 351.538 304.077C351.058 301.435 350.577 298.552 350.097 298.072C349.136 296.631 338.807 297.592 336.164 299.273C335.203 299.994 334.002 300.234 333.522 299.753C332.561 298.793 333.522 298.072 338.326 296.631C340.728 295.91 343.611 295.19 344.572 294.71C346.253 294.229 347.214 294.71 349.857 297.352C352.499 300.234 353.22 301.435 353.22 304.797C353.22 307.68 353.7 308.881 354.661 308.881C355.382 308.881 356.583 309.601 357.544 310.562C359.466 312.483 359.225 312.724 355.862 311.523L353.46 310.562L353.7 316.086C353.7 319.209 353.46 321.61 352.98 321.61C352.739 322.091 352.259 319.929 352.259 317.047ZM340.728 327.855C340.728 327.375 341.209 326.895 341.93 326.895C342.65 326.895 344.092 326.174 345.533 325.453C346.974 324.733 350.337 323.532 353.22 323.052C356.103 322.331 358.985 321.61 359.706 321.13C360.426 320.65 364.75 319.689 369.315 318.728C373.879 318.008 379.644 316.807 382.527 316.326C389.013 315.125 413.515 313.684 413.996 314.405C414.236 314.645 408.951 315.366 402.225 316.086C386.851 317.527 368.834 319.929 366.672 321.13C365.711 321.61 362.108 322.571 358.985 323.052C355.862 323.772 352.98 324.493 352.739 324.733C352.499 324.973 350.577 325.934 348.656 326.414C346.734 326.895 344.091 327.615 342.89 328.096C341.689 328.576 340.728 328.576 340.728 327.855ZM6.82226 59.8066C7.06248 59.3262 7.78314 59.086 8.26358 59.3262C9.46468 60.0468 9.22446 60.5271 7.78314 60.7673C6.82226 60.7673 6.58204 60.2869 6.82226 59.8066ZM1.29719 56.9243C1.77763 54.7626 2.49829 52.8411 3.21895 52.3608C4.17983 51.6402 5.62115 53.0813 5.62115 54.7626C5.38093 55.243 4.90049 55.243 4.42005 54.5225C3.69939 53.3215 3.45917 53.5617 3.45917 55.243C3.45917 56.9243 3.69939 57.1645 5.38093 56.6841C6.58204 56.444 7.3027 56.444 7.3027 57.1645C7.3027 57.6449 6.10159 58.1253 4.42005 58.1253C2.25807 58.1253 1.77763 58.3654 2.01785 59.5664C2.25807 60.2869 2.01785 61.0075 1.29719 61.0075C0.576529 60.7673 0.336308 60.0468 1.29719 56.9243ZM7.3027 67.4926C7.3027 66.5318 7.54292 66.2916 7.78314 67.0122C8.02336 67.7327 8.02336 68.4533 7.78314 68.6935C7.54292 68.9337 7.3027 68.4533 7.3027 67.4926ZM1.77763 68.9337C2.01785 64.6103 2.25807 64.3701 4.42005 64.3701C5.86137 64.3701 6.34181 64.6103 5.14071 64.8505C4.17983 65.0907 3.45917 66.0514 3.45917 67.0122C3.45917 67.9729 4.17983 68.9337 5.14071 69.1739C6.58204 69.6542 6.58204 69.6542 5.14071 69.6542C3.93961 69.6542 3.45917 70.3748 3.93961 71.5757C4.17983 72.7767 3.93961 73.4972 2.97873 73.4972C1.53741 73.4972 1.53741 72.7767 1.77763 68.9337ZM0.576529 84.786C1.05697 83.8253 1.53741 82.144 1.77763 80.7028C2.25807 77.8206 4.66027 75.1785 4.66027 77.5804C4.66027 78.301 5.14071 79.5019 5.86137 80.2225C7.06248 81.6636 9.22446 85.2664 9.22446 85.987C9.22446 86.2271 8.26358 86.4673 7.3027 86.4673C5.62115 86.4673 5.62115 86.2271 6.58204 85.0262C7.54292 83.8253 7.3027 83.5851 4.66027 83.5851C2.01785 83.5851 1.77763 83.8253 2.73851 85.0262C3.69939 86.2271 3.45917 86.4673 1.77763 86.4673C0.336308 86.4673 0.0960881 85.987 0.576529 84.786ZM0.816749 94.6337C0.576529 91.5113 0.816749 90.0701 1.53741 90.0701C2.25807 90.0701 2.49829 90.7907 2.01785 91.9916C1.53741 93.4328 2.01785 93.9131 4.42005 93.9131C6.82226 93.9131 7.3027 93.6729 6.82226 91.9916C6.58204 91.0309 6.82226 90.0701 7.06248 90.0701C7.54292 90.0701 7.78314 92.2318 7.78314 94.6337C7.78314 97.0356 7.54292 99.1973 7.06248 99.1973C6.58204 99.1973 6.58204 98.2365 6.82226 97.0356C7.3027 94.8739 7.06248 94.8739 4.42005 94.8739C1.77763 94.8739 1.53741 95.1141 2.01785 97.2758C2.25807 98.4767 2.25807 99.4374 1.77763 99.6776C1.53741 99.1973 1.05697 97.0356 0.816749 94.6337ZM7.06248 104.722C6.10159 103.761 6.34182 102.56 7.78314 102.56C8.5038 102.56 9.22446 103.04 9.22446 103.521C9.22446 104.722 7.78314 105.442 7.06248 104.722ZM0.576529 104.962C-0.384352 104.001 -0.144132 102.8 1.29719 102.8C2.01785 102.8 2.73851 103.28 2.73851 103.761C2.73851 104.722 1.29719 105.682 0.576529 104.962ZM2.97873 109.525C4.17983 109.045 4.42005 108.565 3.69939 107.604C2.97873 106.403 3.21895 106.163 4.42005 105.922C6.58204 105.922 5.38093 109.525 2.97873 109.765C1.77763 110.006 1.77763 110.006 2.97873 109.525ZM7.06248 111.927C7.3027 111.447 8.02336 111.207 8.5038 111.447C9.7049 112.167 9.46468 112.648 8.02336 112.888C7.06248 112.648 6.58204 112.408 7.06248 111.927ZM0.576529 111.927C0.816749 111.447 1.53741 111.207 2.01785 111.447C3.21895 112.167 2.97873 112.888 1.53741 112.888C0.576529 112.888 0.336308 112.408 0.576529 111.927ZM1.29719 126.819C0.336308 125.858 0.336308 124.897 1.05697 123.696C1.53741 122.736 2.01785 121.054 2.01785 120.094C2.01785 119.133 2.73851 117.692 3.45917 117.211C4.17983 116.491 4.90049 116.491 4.90049 116.971C4.90049 117.451 5.14071 118.652 5.38093 119.613C5.62115 121.054 5.62115 121.294 4.90049 120.094C4.17983 118.893 3.93961 119.133 3.93961 120.814C3.93961 122.495 4.42005 122.736 5.62115 122.495C8.02336 121.775 9.94512 125.137 8.26358 127.059C6.34181 128.74 2.73851 128.74 1.29719 126.819ZM7.3027 136.426C7.54292 134.745 7.3027 133.784 6.58204 133.784C5.86137 133.784 5.62115 133.544 6.58204 132.583C7.06248 131.863 7.3027 131.142 7.06248 130.662C6.82226 130.422 7.06248 129.941 7.78314 129.941C8.74402 129.941 8.98424 131.142 8.98424 134.505C8.98424 137.147 8.5038 139.068 8.02336 139.068C7.3027 139.308 7.06248 138.108 7.3027 136.426ZM0.576529 134.745C0.576529 132.103 1.05697 130.181 1.53741 130.181C2.01785 130.181 2.25807 131.382 2.01785 132.823C1.77763 134.505 2.01785 135.465 2.73851 135.465C3.45917 135.465 3.69939 135.706 2.73851 136.666C2.49829 137.387 2.25807 138.348 2.49829 138.588C2.73851 138.828 2.49829 139.308 1.77763 139.308C1.05697 139.308 0.576529 138.108 0.576529 134.745ZM0.336308 42.5131C0.336308 39.6309 0.816749 37.9496 1.29719 37.9496C2.01785 37.9496 2.25807 38.6701 1.77763 39.871C1.29719 41.3122 1.77763 41.7925 4.17983 41.7925C6.58204 41.7925 7.06248 41.5524 6.58204 39.871C6.34182 38.9103 6.58204 37.9496 7.06248 37.9496C7.78314 37.9496 8.02336 39.6309 8.02336 42.5131C8.02336 45.1552 7.54292 47.0767 7.06248 47.0767C6.58204 47.0767 6.34182 46.1159 6.58204 44.915C7.06248 42.7533 6.82226 42.7533 4.17983 42.7533C1.53741 42.7533 1.29719 42.9935 1.77763 45.1552C2.01785 46.5963 1.77763 47.3168 1.29719 47.557C0.816749 47.0767 0.336308 45.3954 0.336308 42.5131ZM346.253 329.537C346.253 328.336 348.896 327.135 353.46 326.174C355.622 325.694 358.024 325.213 358.985 324.733C360.186 324.012 366.672 322.811 382.046 320.169C389.733 318.968 416.398 318.248 416.878 319.449C417.118 320.169 415.197 320.41 410.633 320.169C397.42 319.449 358.505 325.213 351.298 329.056C348.175 330.497 346.253 330.738 346.253 329.537ZM174.256 390.784C174.016 388.863 172.574 386.221 171.133 384.78C169.451 383.339 167.289 381.417 166.088 380.216C164.887 379.255 163.446 377.334 162.725 376.133C162.005 374.932 159.122 373.731 154.798 373.01C147.591 372.05 146.63 370.128 153.116 370.128C155.278 370.128 157.2 369.888 157.2 369.648C157.44 369.408 156.479 366.285 155.519 362.682C154.317 359.08 153.357 353.315 153.357 349.953C153.357 346.59 152.636 342.747 151.915 341.786C150.954 340.345 150.954 339.384 151.915 337.703C152.636 336.502 153.837 331.458 154.798 326.414C155.759 321.37 156.72 317.047 157.2 316.567C157.681 316.086 158.882 313.684 159.843 310.802L161.764 305.758L153.597 305.278C149.033 305.038 145.429 304.317 145.429 303.596C145.429 302.636 147.591 302.155 159.602 301.675C163.926 301.435 165.608 300.474 168.49 296.631L172.094 291.827V279.578C172.094 271.652 172.574 267.568 173.055 268.289C173.535 268.769 173.535 274.053 173.295 280.058C173.055 285.823 173.055 290.626 173.295 290.626C173.775 290.626 178.82 286.543 179.541 285.102C180.261 284.141 184.345 281.019 189.87 277.416C194.434 274.534 194.194 275.014 193.233 269.49C192.753 266.367 192.753 265.407 193.954 265.647C194.674 265.647 195.155 267.328 195.155 269.73C194.915 272.853 195.395 273.573 196.596 273.093C203.322 270.691 206.926 269.97 209.328 269.97C214.132 270.21 226.384 268.289 226.384 267.088C226.384 266.608 225.903 264.686 225.182 263.005C223.741 258.922 223.741 257.24 225.423 257.48C226.143 257.48 226.864 259.882 227.104 263.005L227.344 268.529L236.473 269.73C241.517 270.451 246.562 271.652 247.763 272.372C249.925 273.573 249.925 273.573 249.685 266.127C249.445 262.044 249.204 257.24 248.964 255.319C248.724 253.638 248.964 252.677 249.204 253.397C250.165 255.319 251.607 265.887 251.607 269.73C251.366 272.372 252.087 273.333 255.21 274.534C257.372 275.495 259.294 276.695 259.774 277.416C260.255 278.137 261.936 279.338 263.858 280.298C265.54 281.259 268.182 283.181 269.863 284.622C271.545 286.063 272.986 287.024 273.227 286.783C273.707 286.063 272.986 271.892 272.266 268.049C271.785 266.127 272.266 265.407 272.986 265.407C273.947 265.647 274.428 268.289 274.428 276.936C274.428 287.024 274.668 288.465 276.59 290.386C278.992 292.788 283.556 290.386 284.757 286.303C285.238 285.102 285.958 284.141 286.919 284.141C287.64 284.141 288.36 283.901 288.36 283.181C288.36 282.46 291.964 278.857 296.288 274.774C300.612 270.931 305.416 266.608 306.857 265.167C309.98 262.284 311.422 262.044 311.181 264.926C311.181 265.887 309.5 267.809 307.578 269.009C305.656 270.21 303.254 271.892 302.053 272.852C298.209 275.975 281.394 293.268 281.394 294.229C281.394 294.71 282.355 296.631 283.796 298.552C285.478 300.954 288.841 302.876 294.606 305.038C306.377 309.361 313.343 312.724 313.343 314.645C313.343 315.366 312.623 315.606 311.662 315.125C309.5 313.684 297.489 309.361 294.126 308.881L291.483 308.4L293.885 312.964C298.209 321.13 300.612 330.017 300.371 336.982C299.891 344.428 301.092 345.629 308.299 346.11C315.746 346.59 318.868 347.551 318.868 349.232C318.868 350.193 315.025 350.193 309.26 349.472L299.891 348.271L298.93 354.276C298.45 357.639 297.729 360.281 297.249 360.281C296.768 360.281 295.567 362.202 294.126 364.604L291.724 368.927L299.651 369.167C306.377 369.408 307.098 369.648 303.494 370.368C301.092 370.849 296.768 371.329 293.885 371.329C288.36 371.329 283.316 373.01 283.076 374.932C283.076 375.412 281.394 376.613 279.472 377.574C275.148 379.496 274.428 380.696 274.187 387.902C273.947 394.147 272.986 398.23 271.785 397.99C271.305 397.99 271.545 394.387 272.025 390.304C272.986 382.138 272.025 380.696 268.422 384.059C267.461 385.02 264.338 386.461 261.936 387.182C255.69 388.863 252.087 391.025 252.087 393.186C251.847 395.588 250.406 395.588 250.165 393.186C249.925 391.745 248.244 391.745 243.439 392.466C239.836 392.946 231.428 393.667 224.702 393.907C217.976 394.147 211.009 394.867 209.568 395.588C205.965 397.029 186.747 394.387 184.825 392.225C184.105 391.505 181.943 390.064 180.021 389.343C177.138 388.142 176.658 388.382 176.418 391.025C176.178 395.588 174.736 395.108 174.256 390.784Z" fill="white"/>
</svg>
